<svg width="294" height="365" viewBox="0 0 294 365" fill="none" xmlns="http://www.w3.org/2000/svg">
<g clip-path="url(#clip0_118_8752)">
<path d="M167.959 248.266C173.735 258.112 161.752 259.944 154.729 260.885C141.881 262.615 128.549 262.335 115.574 262.31C113.716 262.31 111.401 262.59 109.747 261.954C108.832 261.954 107.916 261.928 107 261.954C105.753 261.979 104.481 261.877 103.234 261.954C100.894 262.106 101.046 262.183 99.1381 263.328C99.6723 263.404 100.894 264.574 101.199 264.956C106.694 271.469 112.572 278.848 117.762 285.615C119.416 287.778 124.046 293.451 124.886 295.614C125.166 296.275 125.344 296.352 124.631 296.886L98.0949 264.015C96.9754 264.803 96.3139 265.592 95.3471 266.406L95.0164 266.737C94.6856 267.042 94.1768 267.297 93.6425 267.755C93.2354 268.111 93.0065 268.671 92.2686 268.772C91.9888 269.052 91.5308 269.536 91.2509 269.79L90.9202 270.121C90.8693 270.172 90.6403 270.07 90.5894 270.121L90.2587 270.477C89.9534 270.757 89.3173 270.986 89.241 271.495C89.0883 272.36 90.0806 272.996 89.9279 273.886C89.8516 273.963 87.689 273.276 87.5363 273.199C85.8826 274.446 84.7632 277.117 82.397 275.26C81.2776 276.354 79.9291 277.27 78.7842 278.313C68.8617 287.243 55.9879 298.82 44.7424 305.384C44.7933 310.447 44.7678 315.586 44.6152 320.802C43.3176 365.402 34.1329 405.321 21.8698 439.643H233.117C218.386 388.504 204.291 336.958 190.883 285.03C190.756 284.521 190.349 282.969 190.222 282.435L189.865 282.104C189.789 281.926 189.942 281.595 189.865 281.417L189.535 281.061C189.255 280.323 189.077 279.56 188.848 279C188.262 279.026 188.059 279.127 188.161 278.491L188.491 278.313C187.525 274.293 185.54 268.187 181.24 261.776C176.686 255.008 171.42 250.683 167.959 248.266ZM163.049 324.364C163.354 324.873 163.405 325.585 163.787 326.196C164.55 327.442 168.265 332.887 168.316 333.676C168.417 335.431 167.247 334.846 166.458 333.803C164.27 330.877 162.006 326.17 159.894 322.888C147.86 304.086 134.605 286.048 120.764 268.543C119.594 267.195 121.578 266.584 122.341 267.5C122.57 267.755 122.57 268.569 122.952 269.103C123.639 270.044 124.682 270.96 125.522 272.004C138.65 288.439 152.033 306.503 163.049 324.364Z" fill="#386742"/>
<path d="M-14.1821 211.272C-2.17332 215.14 10.268 217.709 22.3785 221.119L41.9691 224.986C41.8673 225.164 41.2567 228.115 40.9514 228.929C38.3817 235.57 35.5322 242.159 33.4205 248.953C33.3696 248.978 32.9371 249.436 32.5045 249.563C25.7623 251.751 18.7402 254.397 12.0998 256.916C10.5224 257.527 -0.341476 261.47 -0.494133 262.132C-0.595901 262.564 -0.0870438 262.869 0.167374 263.149L33.9802 250.733C34.6163 250.683 34.6671 249.716 34.7435 249.639C35.0742 249.36 41.5366 247.35 42.7832 246.892C47.3374 245.212 51.917 243.635 56.4966 242.058C56.7256 242.21 57.0309 242.185 57.2345 242.007C57.2599 241.981 57.3108 241.956 57.3362 241.93C57.3108 242.439 57.4125 242.923 57.6161 243.406C62.3229 255.491 72.3472 267.475 82.346 275.336C81.2265 276.43 79.8781 277.372 78.7332 278.415C68.8107 287.345 55.9369 298.921 44.6914 305.485C22.7856 318.232 -5.5317 328.358 -22.5526 302.025C-40.9983 273.453 -25.0205 239.386 -14.1821 211.272Z" fill="#FBC5A9"/>
<path d="M235.051 189.723C237.824 192.217 243.319 198.806 246.016 200.333C246.194 200.434 246.881 200.18 247.237 200.663C247.543 201.096 247.288 201.783 247.39 202.037C247.441 202.165 249.146 203.437 249.476 203.92C250.062 204.785 248.815 207.278 248.382 208.347C244.668 217.175 237.137 226.716 228.919 231.703C228.537 231.932 228.257 232.517 228.232 232.517L242.2 269.739L241.742 270.859L240.47 270.07C236.628 259.511 232.583 249.004 228.537 238.522C228.181 237.631 227.163 233.611 226.833 233.204C226.807 233.153 226.12 233.128 225.79 232.721C225.281 232.059 225.255 231.271 224.441 230.813C224.263 230.711 223.576 230.94 223.22 230.482C222.787 229.897 223.423 229.49 223.423 229.439C223.398 227.887 221.185 225.266 220.319 223.79C220.116 223.409 220.014 222.646 219.963 222.62C219.683 222.391 218.437 222.9 217.852 222.849C214.595 222.569 212.839 220.127 211.873 219.898C211.211 219.745 207.878 220.356 206.453 220.178C202.942 219.796 200.627 217.303 198.744 214.708C198.643 214.555 198.185 215.166 198.057 214.021C198.032 213.843 198.007 213.435 198.057 213.334L192.587 211.96C191.468 213.512 189.916 214.657 188.644 216.056C187.448 217.354 186.379 219.567 184.7 220.178C184.904 220.33 185.718 221.017 186.329 221.45C188.415 222.925 193.987 226.589 194.699 228.828C195.386 230.889 194.368 237.224 193.605 239.336C194.801 239.717 195.869 240.989 196.684 241.905C204.545 250.327 212.458 258.799 220.803 266.737C236.323 281.519 260.34 303.985 281.941 285.742C297.639 272.487 296.545 250.912 286.826 234.985C278.252 220.916 266.319 208.016 255.379 195.524C251.792 191.428 248.306 187.204 244.591 183.185L235.051 189.723Z" fill="#FBC5A9"/>
<path d="M-14.8691 196.211L47.7953 210.942C49.2455 207.024 50.7466 201.274 52.553 197.738C52.7311 197.381 52.3749 197.101 53.2654 197.254C56.7255 207.151 60.033 217.583 64.3328 227.123C64.5618 227.632 64.3836 228.243 65.2487 228.065C65.096 217.913 63.6967 207.202 63.5441 196.898C55.835 193.158 50.8992 186.568 49.4999 178.071C49.449 177.765 49.4999 177.74 49.4999 177.714C49.2455 175.781 49.0419 173.847 49.1691 171.888C49.6526 171.888 50.4158 171.761 50.7211 172.219C50.8992 172.499 51.1282 177.562 51.3572 178.758C52.9092 186.441 57.0308 190.588 63.1879 194.837C63.3914 191.123 62.7299 187.154 63.5186 183.541C63.5441 180.92 63.7985 178.3 63.8748 175.654C63.4677 175.297 63.4677 174.967 63.8748 174.636C63.9003 174.076 63.8494 173.491 63.8748 172.931C63.4677 172.601 63.4677 172.244 63.8748 171.914C64.0529 167.334 65.6049 156.877 64.8925 153.086C64.8162 152.705 63.9003 152.094 64.2056 151.382C64.5363 151.382 64.8925 151.382 65.2233 151.382C65.1724 150.949 65.2996 150.389 65.2233 150.008C65.1978 149.931 64.9179 149.804 64.8925 149.677C64.8671 149.575 64.9179 149.448 64.8925 149.321C64.4345 147.616 65.0706 148.456 65.2233 147.947C65.9865 145.352 65.8593 137.032 66.241 133.572C66.241 133.547 66.2155 133.572 66.241 133.241C66.3936 132.02 66.7498 130.468 66.9279 129.12C66.9279 129.069 66.8516 128.992 66.9279 128.433C67.4113 125.023 68.0219 121.563 68.6325 118.154C68.6834 117.874 68.9633 117.823 68.9633 117.823C69.0142 117.518 68.9124 117.111 68.9633 116.806C68.9633 116.755 68.8361 116.78 68.9633 116.119C69.0142 115.864 69.2177 115.508 69.294 115.101C69.294 115.05 69.1668 115.076 69.294 114.414C69.6757 112.48 70.1591 110.14 70.6679 108.257C70.7188 108.104 70.8714 107.977 71.0241 107.901C71.1004 107.468 70.9732 106.959 71.0241 106.527C70.7442 106.374 70.7697 105.967 70.6679 105.84C69.6757 104.466 68.3527 104.441 67.2586 103.448C64.7398 104.619 61.9666 105 59.2952 105.942C42.4778 111.844 29.2733 128.305 18.8419 142.197C5.91723 159.447 -4.53955 177.307 -14.8691 196.211Z" fill="#FECE07"/>
<path d="M72.0927 0.0253117C71.6347 0.0253117 71.1767 -0.000130647 70.7188 0.0253117C70.0573 0.050754 69.2686 -0.0764576 68.658 0.0253117L68.3272 0.381504C66.0374 0.864908 63.5186 2.0607 61.6613 3.46002C58.2012 6.0297 56.8527 10.6348 57.7178 14.7564L58.0485 15.0872C58.8372 17.9876 59.7532 19.8194 61.4832 22.2873L62.1702 22.9743C63.5441 24.7552 64.231 25.5439 65.9356 27.0959L66.6226 27.7829C66.9279 28.0373 67.335 28.2154 67.6403 28.4698L68.3272 29.1568C72.7542 32.337 78.1988 34.347 83.7198 33.9653C81.7607 37.4764 81.3791 41.7761 81.6844 45.7706C81.8371 47.806 82.7021 50.2739 82.7276 52.2838C82.7784 57.1433 79.013 62.766 76.1889 66.4806C75.7818 67.0149 75.4765 67.5746 74.815 67.8545C74.357 68.4142 73.9245 69.0248 73.4411 69.5591L72.7542 70.2461C72.398 70.6786 72.0927 71.1874 71.7365 71.62L70.7188 72.6376C70.6679 72.714 70.7697 72.9175 70.7188 72.9684L70.388 73.2991C66.3936 78.642 63.6204 82.3312 62.1702 89.0479L61.814 89.3787C61.4069 91.5667 61.2288 94.3908 61.814 96.5788L62.1702 96.9096C62.6536 98.258 62.679 98.2326 63.5441 99.3012C63.9257 99.7591 64.7907 100.115 64.9179 101.006C65.1724 101.26 65.2996 101.438 65.6049 101.693C66.1137 101.973 66.5462 102.329 66.9788 102.71C67.1314 102.863 67.1823 103.27 67.335 103.397C68.429 104.39 69.752 104.415 70.7697 105.789C70.9987 105.814 71.2531 105.738 71.4566 105.789C72.2453 105.993 74.0008 106.654 74.2044 107.494H76.596C78.1734 107.494 79.8271 107.595 81.3791 107.494C83.5672 107.366 85.4244 107.01 87.5361 106.476C87.9687 106.934 85.9078 117.213 85.8061 118.994C85.7806 119.553 85.6789 120.647 86.3658 120.851C87.3581 121.156 100.054 113.091 101.911 111.971C101.479 111.259 101.86 111.666 101.224 110.954L87.8669 118.154L89.4698 105.56C89.6224 105.204 93.6169 103.041 94.3801 102.405C101.758 96.2481 104.811 86.2747 105.677 77.0646C105.727 76.454 106.007 76.4286 106.007 76.3777C106.058 75.8179 105.982 75.2328 106.007 74.673C106.007 74.4695 106.007 73.7317 106.007 73.2991C106.058 71.3655 105.982 69.4065 106.007 67.4729C104.761 67.1676 104.888 64.9541 104.633 64.3943C104.557 64.2162 102.929 62.6134 102.522 61.901C100.639 58.5426 100.715 54.8789 103.285 51.9022C106.516 48.1622 109.035 49.9431 112.877 49.1798C117.812 48.1876 127.837 39.1047 130.254 34.7286C130.763 33.7873 130.483 32.3625 131.628 33.8127C134.706 37.7562 135.698 42.8702 139.209 47.2717C143.382 35.4156 134.503 23.305 122.265 22.2873C121.68 22.2364 121.095 22.6944 120.306 22.5672C119.314 22.4145 115.624 20.3792 114.072 19.8703C109.518 18.4201 105.015 17.8095 100.308 18.8272C99.5704 18.9798 100.435 19.1325 99.0106 19.2088C98.9343 19.2088 98.7562 19.6159 97.764 19.8703C97.5604 19.9212 97.2551 20.4046 96.7463 20.2011C96.7208 19.9721 96.7972 19.7177 96.7463 19.5141C95.5505 14.4002 92.2684 10.3803 88.5284 6.84385L87.1545 6.15691C87.1036 6.13146 87.2054 5.8516 87.1545 5.82616L85.7806 5.13921C82.3205 2.97662 79.7508 1.19566 75.5019 0.356062C75.0949 0.279735 74.5351 0.0253117 74.4843 -0.000130647C73.7464 -0.0510153 72.8559 0.050754 72.0927 0.0253117Z" fill="#232323"/>
<path d="M138.853 101.719C139.871 104.67 141.346 107.341 142.44 110.293C144.094 114.847 145.137 119.757 146.613 124.235C149.03 131.562 152.134 138.712 153.915 146.243C155.569 146.421 155.263 146.446 154.933 147.617C154.755 148.303 154.398 148.863 154.576 149.677C155.772 149.652 155.441 150.39 155.594 151.051C158.622 162.475 161.955 172.397 164.143 184.253C165.517 182.88 166.814 181.175 167.756 179.47C168.875 177.46 169.74 174.509 169.944 172.092C170.122 170.184 168.951 165.91 171.648 166.444C171.623 169.039 171.75 171.761 171.317 174.331C171.216 174.891 171.038 175.094 170.961 175.349C169.893 179.674 167.705 183.032 164.804 186.314C164.83 186.518 164.779 186.772 164.804 187.001C164.83 187.103 164.779 187.23 164.804 187.332C165.008 188.477 165.466 190.029 165.491 191.097C166.28 191.225 166.534 190.843 167.043 190.436C171.877 186.441 175.515 180.615 181.469 177.13C186.964 173.898 202.586 169.777 208.616 171.431C212.254 172.423 220.548 177.791 223.678 180.157L240.8 169.879C213.017 141.307 180.349 108.003 138.853 101.719Z" fill="#FEC30E"/>
<path d="M134.758 101.031C130.56 100.497 126.285 100.268 122.087 99.6576L126.794 117.391L126.514 119.859L110.104 111.997C109.264 111.946 106.822 114.592 106.669 115.432C106.135 118.256 106.898 121.691 107 124.515C107.178 129.654 107.433 134.768 107.662 139.882C109.061 141.052 112.394 139.398 112.139 141.816H103.056C102.726 141.816 102.166 140.747 102.878 140.264C103.514 139.831 105.143 140.238 105.957 140.111C105.524 134.564 105.55 129.043 105.27 123.497C105.143 121.105 105.219 117.594 104.939 115.457C104.736 114.007 103.616 113.346 102.7 112.353C102.446 112.073 101.861 112.073 101.861 112.023C100.029 113.142 87.3331 121.207 86.3154 120.902C85.6285 120.698 85.7302 119.63 85.7557 119.045C85.8575 117.264 87.9183 106.985 87.4603 106.527C85.3486 107.061 83.4913 107.418 81.3033 107.545C80.1584 108.104 77.7413 108.13 76.5201 107.545H74.1286L73.4416 118.307C73.3907 124.998 73.4162 131.689 73.7978 138.355C74.3575 138.686 74.3575 140.06 73.7978 140.416C73.8996 141.892 74.1794 147.387 74.4847 148.278C74.5356 148.405 75.2734 148.481 75.1717 149.652C75.1208 150.161 74.5611 150.949 74.8155 151.713C74.8409 151.789 75.8332 152.323 75.5024 153.086C98.197 152.374 122.087 150.873 144.655 151.026C144.655 150.695 144.655 150.339 144.655 150.008C144.68 148.049 144.12 148.431 143.968 147.947C143.764 147.26 144.324 146.675 144.298 146.573C144.171 141.256 141.602 133.343 140.635 127.822C139.083 119.019 138.091 110.114 136.081 101.388C135.75 101.337 135.317 101.108 134.758 101.031Z" fill="#FEC30E"/>
<path d="M139.184 47.2713C135.648 42.8698 134.681 37.7559 131.603 33.8123C130.458 32.3621 130.763 33.7869 130.229 34.7282C127.812 39.1043 117.762 48.1872 112.852 49.1795C108.984 49.9682 106.466 48.1872 103.26 51.9018C100.69 54.8531 100.614 58.5168 102.497 61.9006C102.904 62.613 104.532 64.2159 104.608 64.394C105.117 63.8088 105.829 63.478 106.415 63.0201C106.745 62.7657 106.618 62.3586 106.669 62.3331C102.98 60.5267 104.354 51.8255 108.552 52.4106C109.239 53.4538 107.738 53.8354 107.051 54.675C104.761 57.5754 106.745 59.3818 107.331 62.3331C110.791 63.1218 110.231 68.5156 105.957 67.4725C105.931 69.4061 106.008 71.3652 105.957 73.2988V74.6726C105.931 75.2324 106.008 75.8176 105.957 76.3773L105.626 77.0642C104.761 86.2743 101.708 96.2223 94.3295 102.405C94.991 104.72 97.6879 106.399 99.2908 108.206C99.9777 108.969 100.665 110.368 101.174 110.953C101.81 111.691 101.428 111.259 101.86 111.971C101.886 111.997 102.446 112.022 102.7 112.302C103.616 113.269 104.735 113.956 104.939 115.38H106.644C106.796 114.566 109.239 111.92 110.078 111.946C109.824 111.106 110.587 110.852 110.765 110.572C112.343 108.002 118.347 101.667 118.652 99.2754C118.907 97.2145 118.525 94.7212 118.627 92.584C118.703 91.1593 119.645 83.4757 119.288 82.8905C118.016 82.5089 110.511 79.8883 110.791 78.5653C111.096 77.1151 113.411 78.9215 113.971 79.1505C118.754 81.1096 122.163 83.0177 127.557 82.8396C130.076 82.7633 136.08 82.0509 138.014 80.4481C138.726 79.8629 141.83 76.3773 142.11 75.6649C143.077 73.1461 143.815 67.3453 142.619 64.9537C142.416 64.5466 141.958 64.7247 141.958 64.6993C140.507 66.6074 134.706 64.2667 134.427 62.4858C134.325 61.7988 134.757 61.8752 135.266 61.9769C137.149 62.4095 139.21 64.6229 141.958 63.6816C141.932 62.7911 142.161 61.4935 141.958 60.5013C141.932 60.3741 140.482 59.2292 140.94 58.2115C150.862 56.5577 142.772 51.8509 139.719 48.289C139.337 47.9073 139.312 47.4239 139.184 47.2713ZM133.256 39.1806C134.121 40.0202 134.35 41.2415 133.74 42.3355C132.849 43.8875 128.702 46.279 127.532 48.1109C126.031 49.2812 124.326 47.3476 123.97 45.9228C122.85 41.7757 129.974 35.9495 133.256 39.1806ZM135.775 47.9582C136.258 47.8565 136.793 48.2381 136.971 48.6452C138.497 51.9272 130.788 54.4715 129.618 51.5456C129.338 50.8332 130.076 51.0622 130.458 51.0367C133.155 50.8587 135.139 51.4693 135.775 47.9582Z" fill="#FBC5A9"/>
<path d="M167.603 209.568C167.552 209.848 166.942 210.255 167.323 210.891L188.949 225.393C191.213 226.894 194.852 230.075 190.883 232.008C188.059 233.408 179.51 234.247 175.821 235.087C164.245 237.682 153.483 241.956 142.263 244.678C139.744 245.289 138.344 245.9 135.775 245.009C132.798 243.992 129.312 239.386 126.87 237.148C123.741 234.273 120.458 231.55 117.278 228.777C115.675 230.024 111.426 231.83 109.391 232.873L109.06 234.247C109.442 234.349 109.696 234.4 110.078 234.603C110.205 234.654 110.307 234.858 110.409 234.934C111.554 235.697 112.444 236.791 113.487 237.682C113.945 238.063 114.123 238.318 114.174 238.369C115.904 239.844 118.194 241.218 119.644 243.152C120.509 243.076 120.637 243.839 121.018 244.17C123.232 246.205 125.318 248.317 127.531 250.327C127.811 250.581 128.015 250.836 128.218 251.014C128.982 251.701 129.465 252.082 130.279 252.718C130.406 252.82 130.508 252.973 130.635 253.049C131.348 253.583 131.933 253.965 132.696 254.423C132.849 254.499 132.951 254.703 133.052 254.754C133.129 254.805 133.307 254.703 133.383 254.754C133.536 254.83 133.638 254.957 133.714 255.11C138.955 257.171 143.636 255.059 148.852 253.634C153.661 252.337 158.367 250.607 163.151 249.284C163.787 249.105 164.372 249.08 164.855 248.953C166 248.647 166.942 248.52 167.934 248.266C170.325 247.655 172.717 247.121 175.134 246.561C179.459 245.518 186.049 244.5 189.941 243.05C191.799 242.363 192.944 241.193 193.605 239.361C194.394 237.249 195.386 230.914 194.699 228.853C193.961 226.64 188.389 222.976 186.329 221.475C185.718 221.043 184.904 220.33 184.7 220.203C181.113 217.684 176.813 214.936 173.048 212.672C172.92 212.596 172.412 212.698 172.055 212.469C170.58 211.553 169.231 210.331 167.603 209.568Z" fill="#F39E4E"/>
<path d="M-15.5558 197.585C-15.6067 197.687 -16.2428 197.992 -16.5227 198.501C-17.9983 201.223 -20.4662 205.192 -21.5348 207.889C-21.662 208.245 -21.7892 208.5 -21.7129 208.907C-19.4994 209.441 -17.2605 210.001 -15.0979 210.713C-14.6145 210.866 -14.2837 211.273 -14.1819 211.324C-2.17318 215.191 10.2681 217.761 22.3786 221.17L41.9692 225.037C41.9947 224.986 42.5798 225.063 42.936 224.477C44.5134 221.755 45.4294 215.216 46.7778 212.723L-15.5558 197.585Z" fill="#FEC30E"/>
<path d="M127.557 82.891C122.138 83.0437 118.754 81.1609 113.971 79.2019C113.411 78.9729 111.07 77.192 110.79 78.6167C110.511 79.9397 118.016 82.5348 119.288 82.9419C119.67 83.5271 118.728 91.2107 118.627 92.6354C118.499 94.7726 118.881 97.2659 118.652 99.3268C119.288 99.3268 120.433 99.3268 120.713 99.9119L124.809 117.467L110.765 110.623C110.587 110.903 109.824 111.132 110.078 111.997L126.488 119.859L126.768 117.391L122.061 99.6575C126.259 100.243 130.534 100.472 134.732 101.031C134.63 100.421 134.859 99.5303 134.732 98.9706L134.375 98.6144C133.078 93.2206 130.992 88.87 128.218 84.3158C127.964 83.8833 127.811 83.349 127.557 82.891Z" fill="#232323"/>
<path d="M136.106 101.387C138.116 110.089 139.108 119.019 140.66 127.822C141.627 133.343 144.197 141.255 144.324 146.573C147.352 147.056 151.041 145.937 153.916 146.242C152.135 138.711 149.031 131.562 146.614 124.235C145.138 119.782 144.095 114.846 142.441 110.292C141.373 107.366 139.872 104.669 138.854 101.718C137.938 101.591 137.022 101.515 136.106 101.387Z" fill="white"/>
<path d="M224.441 181.149C228.003 183.897 231.692 186.721 235.051 189.698L244.643 183.185C244.999 181.938 250.291 179.394 250.113 178.58C249.985 178.045 243.269 171.888 242.251 170.845L224.441 181.149Z" fill="#FEC30E"/>
<path d="M-14.8693 196.211C-15.1492 196.72 -15.3527 197.203 -15.5563 197.585L46.7519 212.647C46.8792 212.443 47.2608 212.316 47.7696 210.942L-14.8693 196.211Z" fill="#232323"/>
<path d="M240.878 169.853L223.755 180.132C223.806 180.157 223.806 180.666 224.442 181.15L242.251 170.871C241.87 170.489 240.979 169.955 240.878 169.853Z" fill="#232323"/>
<path d="M141.932 63.7073C139.184 64.6487 137.123 62.4352 135.24 62.0027C134.731 61.8755 134.274 61.7991 134.401 62.5115C134.706 64.3179 140.507 66.6332 141.932 64.725C141.881 64.6741 141.932 63.9872 141.932 63.7073Z" fill="#232323"/>
<path d="M188.492 278.39L188.161 278.568C188.034 279.204 188.263 279.102 188.848 279.077C188.721 278.797 188.568 278.568 188.492 278.39Z" fill="#F9C5DA"/>
<path d="M134.757 98.971C134.681 98.6905 134.426 98.6395 134.426 98.6395L134.757 98.971Z" fill="#F9C5DA"/>
<path d="M62.1709 96.9361L61.8394 96.6046C61.8649 96.8086 62.1454 96.8851 62.1709 96.9361Z" fill="#41815F"/>
<path d="M189.865 281.469C189.763 281.214 189.534 281.138 189.534 281.112L189.865 281.469Z" fill="#F9C5DA"/>
<path d="M190.221 282.487C190.17 282.334 189.915 282.232 189.889 282.155L190.221 282.487Z" fill="#F9C5DA"/>
<path d="M109.748 215.395C107.941 215.802 103.667 216.692 102.217 217.456C101.962 217.608 102.955 217.939 100.843 218.142H100.512C100.309 218.168 100.029 218.092 99.8251 218.142L99.4689 218.473C99.3672 218.499 99.2145 218.448 99.1127 218.473L98.4512 218.804C98.3495 218.829 98.1968 218.779 98.1205 218.804C98.1968 219.542 98.1714 219.567 97.4335 219.491C97.2046 219.669 93.0066 220.788 91.9634 221.196C91.3528 221.425 90.5896 221.959 89.9026 222.213C86.0099 223.714 84.1272 223.994 80.3109 226.335C80.0564 226.971 79.4713 227.098 78.937 227.353C78.8352 227.403 78.6825 227.302 78.6062 227.353C78.1737 228.167 77.2832 228.599 76.5454 229.057C76.4691 229.108 76.291 229.006 76.1892 229.057L75.8585 229.388C73.3651 231.016 70.6428 232.823 68.3275 234.527C68.2767 234.578 68.0477 235.011 67.3098 235.545C66.0123 236.486 63.5698 238.827 62.1705 239.31C66.0886 247.961 71.9403 255.721 78.4281 262.59C80.6925 264.982 84.8396 269.256 87.4856 270.986C88.0962 271.393 88.4524 271.622 89.2157 271.47C89.292 270.961 89.9535 270.732 90.2334 270.452C90.3606 270.35 90.4623 270.223 90.5641 270.121C90.615 270.07 90.844 270.172 90.9203 270.121C91.0221 269.994 91.1493 269.892 91.2511 269.765C91.5309 269.51 92.0143 269.027 92.2687 268.747C92.4977 268.518 92.2942 267.399 93.6426 267.73C94.1769 267.272 94.6858 266.992 95.0165 266.712C95.1437 266.61 95.2455 266.483 95.3473 266.381C96.2886 265.567 96.9501 264.778 98.095 263.989C98.4512 263.735 98.7311 263.532 99.1127 263.303C101.021 262.158 100.894 262.081 103.234 261.929C104.099 261.343 106.211 261.369 107 261.929C107.916 261.903 108.832 261.929 109.748 261.929C109.773 261.929 109.926 261.7 110.18 261.7C111.707 261.7 114.073 261.878 115.574 262.259C128.549 262.285 141.881 262.59 154.73 260.835C161.752 259.893 173.735 258.061 167.96 248.215C166.967 248.47 166.026 248.597 164.881 248.902C167.222 251.192 168.418 253.711 165.39 256.077C158.978 261.115 131.246 259.283 122.621 258.443C121.96 258.367 120.611 258.265 121.044 257.298C121.248 256.84 121.756 256.764 122.214 256.764C125.649 256.789 129.923 257.68 133.511 257.832C139.948 258.061 159.08 258.469 164.067 255.136C165.339 254.296 165.797 253.634 165.288 252.082C164.779 250.581 163.533 250.48 163.151 249.258C158.368 250.581 153.661 252.311 148.852 253.609C143.637 255.008 138.955 257.146 133.714 255.085C133.587 255.034 133.46 254.881 133.358 254.754C133.256 254.703 133.104 254.805 133.027 254.754L132.697 254.423C131.933 253.965 131.348 253.584 130.636 253.049L130.28 252.719C129.465 252.082 128.982 251.701 128.219 251.014L127.532 250.327C125.318 248.317 123.232 246.18 121.019 244.17C119.645 244.424 119.925 243.508 119.645 243.152C118.194 241.219 115.879 239.845 114.175 238.369C113.462 238.471 113.386 238.395 113.488 237.682C112.445 236.817 111.529 235.723 110.409 234.934L110.078 234.604C109.697 234.4 109.417 234.375 109.061 234.247C108.883 234.197 108.577 234.298 108.374 234.247L104.354 237.326C102.624 237.937 101.224 239.183 99.4689 239.718C99.1891 239.819 98.2731 240.608 98.095 239.718C97.9678 239.081 98.1459 238.776 98.6548 238.395C100.919 236.639 105.092 235.265 107.687 233.917C108.196 233.637 108.781 233.204 109.391 232.899C111.401 231.856 115.676 230.024 117.279 228.777C117.457 228.65 120.026 226.055 120.357 225.699C122.749 223.155 125.573 218.753 122.367 215.624C119.39 212.672 113.411 214.555 109.748 215.395Z" fill="#FAFCF8"/>
<path d="M57.6417 241.727C57.6671 241.727 57.6925 241.702 57.718 241.702C57.7434 241.676 57.7943 241.676 57.8452 241.676C57.947 241.651 58.0233 241.626 58.1251 241.6C58.4813 241.524 58.812 241.473 59.1682 241.346C59.7788 241.142 60.3131 240.735 60.822 240.379C60.9492 240.43 61.0764 240.481 61.1273 240.608C64.6637 249.64 79.1404 268.34 87.5109 273.225C85.8826 274.472 84.7377 277.143 82.3716 275.286C72.3728 267.424 62.3485 255.415 57.6417 243.356C57.4381 242.872 57.3364 242.389 57.3618 241.88C57.4381 241.829 57.5145 241.778 57.6417 241.727Z" fill="#FAFCF8"/>
<path d="M163.05 324.364C152.033 306.504 138.651 288.44 125.497 272.029C124.657 270.986 123.614 270.045 122.927 269.129C122.546 268.595 122.546 267.781 122.317 267.526C121.553 266.636 119.569 267.221 120.739 268.569C134.58 286.099 147.81 304.112 159.869 322.914C161.981 326.196 164.22 330.878 166.434 333.829C167.222 334.872 168.418 335.457 168.291 333.702C168.24 332.887 164.525 327.443 163.762 326.222C163.406 325.586 163.355 324.873 163.05 324.364Z" fill="#232323"/>
<path d="M61.4073 240.022C61.6363 239.895 61.7381 239.615 61.6617 239.361C61.8398 239.386 62.0179 239.386 62.1452 239.361C66.0633 248.011 71.915 255.771 78.4028 262.641C80.6672 265.032 84.8142 269.306 87.4602 271.037C88.0709 271.444 88.4271 271.673 89.1903 271.52C89.0377 272.385 90.0299 273.021 89.8773 273.911C89.7755 274.013 87.6383 273.326 87.4857 273.225C79.1152 268.34 64.6385 249.64 61.102 240.608C61.0511 240.48 60.9239 240.404 60.7967 240.379C61.0002 240.277 61.2038 240.15 61.4073 240.022Z" fill="#232323"/>
<path d="M99.1375 263.328C98.7304 263.557 98.476 263.76 98.1198 264.015L124.656 296.886C125.343 296.377 125.165 296.276 124.911 295.614C124.045 293.477 119.44 287.778 117.787 285.615C112.596 278.848 106.719 271.469 101.224 264.956C100.893 264.575 99.6972 263.404 99.1375 263.328Z" fill="#232323"/>
<path d="M109.748 261.954C111.401 262.59 113.717 262.285 115.574 262.31C114.073 261.929 111.732 261.751 110.18 261.725C109.926 261.725 109.773 261.954 109.748 261.954Z" fill="#F9C5DA"/>
<path d="M103.26 261.954C104.506 261.877 105.778 261.979 107.025 261.954C106.211 261.394 104.125 261.368 103.26 261.954Z" fill="#F9C5DA"/>
<path d="M92.2938 268.798C93.0316 268.696 93.2606 268.136 93.6677 267.78C92.3192 267.449 92.5228 268.569 92.2938 268.798Z" fill="#F9C5DA"/>
<path d="M95.0406 266.738L95.3976 266.381C95.2446 266.508 95.1426 266.636 95.0406 266.738Z" fill="#FBC5A9"/>
<path d="M90.9189 270.172L91.2759 269.84C91.1484 269.942 91.0464 270.044 90.9189 270.172Z" fill="#FBC5A9"/>
<path d="M90.232 270.503L90.5891 270.172C90.4615 270.274 90.3595 270.401 90.232 270.503Z" fill="#FBC5A9"/>
<path d="M33.3946 248.953C33.3437 248.979 32.9112 249.436 32.4787 249.564C25.7365 251.752 18.7144 254.398 12.074 256.917C10.4965 257.527 -0.36734 261.471 -0.519993 262.158C-0.621761 262.59 -0.112907 262.895 0.166958 263.175L33.9798 250.759C34.6158 250.709 34.6667 249.716 34.743 249.665C34.6158 249.029 33.9543 248.8 33.3946 248.953Z" fill="#232323"/>
<path d="M165.568 191.072C165.619 193.361 163.456 194.404 163.863 197.585C163.863 197.661 164.168 197.814 164.194 197.916C166.967 199.976 168.239 199.493 171.038 198.094C180.146 193.539 183.886 185.932 194.318 182.167C195.284 181.683 197.142 180.411 198.083 181.149C198.185 181.836 197.651 182.116 197.167 182.472C195.005 184.024 190.807 185.372 188.262 186.924C183.53 189.799 178.671 194.125 178.213 200.002C178.594 200.714 178.976 201.986 179.23 202.393C179.612 202.953 181.978 204.683 182.716 204.912C183.759 205.217 186.634 204.988 186.761 205.141C188.593 200.587 194.725 197.33 199.024 195.32C199.686 195.015 202.79 193.463 203.197 193.845C203.324 194.633 203.07 194.913 202.51 195.371C201.162 196.465 197.88 197.534 196.124 198.577C192.918 200.46 189.178 202.979 187.804 206.515C187.957 206.693 188.237 208.296 188.822 209.085C189.992 210.662 192.002 210.535 192.588 211.985L198.058 213.359C198.312 212.647 204.138 210.153 205.258 209.772C206.403 209.365 209.888 207.863 208.82 209.975C205.894 210.382 201.34 213.919 198.745 214.046V214.733C200.602 217.328 202.943 219.821 206.454 220.203C207.878 220.356 211.186 219.745 211.873 219.923C212.84 220.152 214.595 222.595 217.852 222.874C218.437 222.925 219.709 222.416 219.963 222.645C220.014 222.696 220.091 223.46 220.32 223.816C221.185 225.291 223.398 227.912 223.424 229.464C233.957 223.536 240.699 212.85 245.508 202.088C245.762 201.528 246.093 201.045 246.016 200.358C243.319 198.831 237.849 192.216 235.051 189.749C231.692 186.746 228.003 183.922 224.441 181.2C223.805 180.717 223.805 180.208 223.754 180.182C220.625 177.816 212.331 172.448 208.692 171.456C202.663 169.802 187.041 173.923 181.546 177.155C175.592 180.64 171.954 186.466 167.12 190.461C166.611 190.817 166.331 191.199 165.568 191.072Z" fill="#FAFCF8"/>
<path d="M170.707 206.133C170.809 206.362 170.682 206.998 170.885 207.481C171.598 209.211 172.488 210.865 173.124 212.621C176.89 214.885 181.164 217.633 184.777 220.152C186.456 219.541 187.524 217.353 188.72 216.03C189.992 214.631 191.544 213.46 192.664 211.934C192.079 210.484 190.069 210.585 188.898 209.033C188.313 208.245 188.033 206.642 187.881 206.464C187.83 206.413 187.295 206.489 187.041 206.108C186.787 205.751 186.888 205.115 186.863 205.09C186.71 204.937 183.861 205.166 182.818 204.861C182.08 204.657 179.714 202.927 179.332 202.342L170.707 206.133Z" fill="#FEC30E"/>
<path d="M224.441 230.787C225.281 231.245 225.281 232.034 225.79 232.695C226.121 233.102 226.782 233.128 226.833 233.179C226.553 231.983 227.596 232.721 228.207 232.492C228.258 232.466 228.538 231.881 228.894 231.652C237.112 226.666 244.617 217.125 248.357 208.296C248.815 207.228 250.036 204.76 249.451 203.869C249.12 203.386 247.416 202.139 247.365 202.012C245.457 204.862 244.286 208.169 242.633 211.146C238.18 219.16 232.379 226.055 224.441 230.787Z" fill="#FAFCF8"/>
<path d="M228.207 232.517C227.596 232.746 226.579 232.008 226.833 233.204C227.138 233.636 228.182 237.631 228.538 238.521C232.583 249.029 236.603 259.511 240.47 270.07L241.742 270.858L242.2 269.739L228.207 232.517Z" fill="#232323"/>
<path d="M246.015 200.333C246.092 200.994 245.761 201.478 245.507 202.063C240.698 212.85 233.93 223.511 223.423 229.439C223.423 229.515 222.787 229.897 223.245 230.482C223.601 230.94 224.288 230.711 224.466 230.813C232.404 226.08 238.205 219.186 242.657 211.171C244.336 208.194 245.481 204.887 247.389 202.037C247.288 201.783 247.542 201.071 247.237 200.664C246.88 200.18 246.193 200.435 246.015 200.333Z" fill="#232323"/>
<path d="M198.083 213.334C198.032 213.436 198.058 213.843 198.083 214.021C198.312 214.021 198.541 214.021 198.77 214.021C201.365 213.894 205.919 210.357 208.845 209.95C209.914 207.864 206.428 209.365 205.283 209.747C204.164 210.129 198.338 212.647 198.083 213.334Z" fill="#41815F"/>
<path d="M198.083 214.02C198.21 215.165 198.668 214.555 198.77 214.707V214.02C198.541 214.02 198.312 214.02 198.083 214.02Z" fill="#F9C5DA"/>
<path d="M61.6356 239.234C61.5592 239.107 61.4575 239.031 61.3303 238.98C62.8059 235.85 65.2992 231.118 65.2738 228.065C65.1211 217.913 63.7218 207.202 63.5692 196.924C63.5692 196.364 63.5692 195.779 63.5692 195.219C63.5183 191.479 63.5437 187.306 63.5692 183.566C63.5946 180.946 63.849 178.325 63.9254 175.679C63.9254 175.349 63.9254 174.992 63.9254 174.662C63.9508 174.102 63.8999 173.517 63.9254 172.957C63.9254 172.779 63.9254 172.041 63.9254 171.939C64.1035 167.36 65.6554 156.903 64.9431 153.112C68.1233 152.959 71.2019 153.494 74.3821 153.468C74.891 153.468 75.3744 153.137 75.5525 153.112C98.247 152.4 122.137 150.898 144.705 151.051C144.883 151.051 145.392 151.382 145.875 151.407C149.157 151.433 152.388 151.407 155.645 151.051C158.672 162.5 162.005 172.423 164.193 184.253C164.372 185.195 164.855 186.111 164.88 186.314C164.906 186.518 164.83 186.798 164.88 187.001L164.55 187.179L164.88 187.357C165.084 188.502 165.542 190.054 165.567 191.123C165.618 193.413 163.456 194.456 163.863 197.636C162.463 198.476 160.861 198.883 159.334 199.442C158.749 199.671 158.011 199.57 157.706 199.671C154.449 189.444 140.787 194.049 133.103 195.804C128.6 196.847 123.944 198.501 119.542 198.984C113.029 199.722 99.163 201.147 93.5911 203.869C90.0292 205.625 88.2228 213.283 88.9606 216.87C89.3677 218.804 91.4539 219.516 91.9628 221.221C91.1741 221.221 90.2581 221.45 89.902 222.239C86.0093 223.74 84.1266 224.02 80.3102 226.335C79.8268 226.64 79.1653 226.717 78.9363 227.353C78.8346 227.403 78.6819 227.302 78.5801 227.353C77.8423 227.76 76.9518 228.294 76.5193 229.057C76.443 229.108 76.2649 229.006 76.1631 229.057C75.985 229.159 75.9087 229.337 75.8324 229.388C73.339 231.016 70.6167 232.823 68.3014 234.527C67.182 234.273 66.5205 233.23 65.2229 233.51C65.0194 234.782 66.2406 235.418 67.2837 235.57C65.9862 236.512 63.5437 238.853 62.1444 239.336C62.0172 239.387 61.8391 239.361 61.661 239.336C61.661 239.31 61.661 239.26 61.6356 239.234Z" fill="#386742"/>
<path d="M71.0754 106.527C71.0245 106.959 71.1517 107.468 71.0754 107.901C71.05 108.053 70.8973 108.206 70.7447 108.257C70.2358 110.14 69.7779 112.48 69.3708 114.414V115.101C69.2944 115.533 69.0655 115.89 69.04 116.119V116.805C68.9891 117.111 69.0909 117.518 69.04 117.823L68.6838 118.154C68.0732 121.563 67.4626 125.023 66.9792 128.433V129.12C66.8011 130.468 66.4449 131.995 66.2923 133.216V133.572C65.9106 137.032 66.0378 145.352 65.2746 147.947L74.5101 148.278C74.2048 147.362 73.9249 141.866 73.8232 140.416C73.7723 139.729 73.8486 139.042 73.8232 138.355C73.4415 131.689 73.4161 125.023 73.467 118.307L74.1794 107.544C73.9758 106.705 72.2203 106.043 71.4316 105.84C71.4316 106.094 71.0754 106.4 71.0754 106.527Z" fill="white"/>
<path d="M63.1884 194.837C57.0313 190.613 52.9097 186.441 51.3577 178.757C51.1287 177.561 50.8997 172.473 50.7216 172.219C50.3909 171.761 49.6531 171.913 49.1696 171.888C49.0679 173.847 49.2714 175.78 49.5004 177.714V178.045C50.8997 186.543 55.8355 193.132 63.5446 196.872C63.5446 196.312 63.5446 195.727 63.5446 195.167C63.2901 195.193 63.2647 194.888 63.1884 194.837Z" fill="#232323"/>
<path d="M64.8923 149.321C64.9178 149.423 64.8669 149.55 64.8923 149.677L65.2485 150.008C65.3248 150.39 65.1976 150.95 65.2485 151.382C68.327 151.458 71.6346 152.018 74.8403 151.713C74.5859 150.95 75.1456 150.161 75.1965 149.652C71.7618 149.525 68.2762 149.983 64.8923 149.321Z" fill="#41815F"/>
<path d="M65.2484 151.356C64.9176 151.356 64.5615 151.356 64.2307 151.356C63.9254 152.069 64.8413 152.705 64.9177 153.061C68.0979 152.908 71.1765 153.443 74.3567 153.417C74.8656 153.417 75.349 153.087 75.5271 153.061C75.8833 152.298 74.8656 151.789 74.8402 151.687C71.6344 152.018 68.3269 151.433 65.2484 151.356Z" fill="#232323"/>
<path d="M65.2483 147.947C65.0957 148.456 64.4342 147.616 64.9176 149.321C68.276 149.982 71.787 149.524 75.1963 149.677C75.298 148.507 74.5602 148.43 74.5093 148.303L65.2483 147.947Z" fill="#232323"/>
<path d="M63.1884 194.837C63.2647 194.888 63.2901 195.168 63.5446 195.193C63.4937 191.453 63.5191 187.281 63.5446 183.541C62.7304 187.154 63.4173 191.148 63.1884 194.837Z" fill="#FBC5A9"/>
<path d="M63.8753 172.931C63.8753 172.753 63.8753 172.015 63.8753 171.913C63.4683 172.244 63.4683 172.6 63.8753 172.931Z" fill="#FBC5A9"/>
<path d="M63.8753 175.679C63.8753 175.349 63.8753 174.992 63.8753 174.662C63.4683 174.992 63.4683 175.323 63.8753 175.679Z" fill="#FBC5A9"/>
<path d="M69.0145 116.78V116.093C68.8872 116.755 69.0145 116.755 69.0145 116.78Z" fill="#FBC5A9"/>
<path d="M69.3448 115.075V114.388C69.2176 115.05 69.3702 115.024 69.3448 115.075Z" fill="#FBC5A9"/>
<path d="M66.9529 129.12V128.433C66.8766 128.992 66.9529 129.069 66.9529 129.12Z" fill="#FBC5A9"/>
<path d="M70.7184 108.232C70.8969 108.207 71.05 108.054 71.0755 107.901C70.9224 107.952 70.7694 108.079 70.7184 108.232Z" fill="#FBC5A9"/>
<path d="M49.5004 178.071V177.74C49.5004 177.74 49.4494 177.765 49.5004 178.071Z" fill="#FBC5A9"/>
<path d="M65.2495 150.008L64.918 149.677C64.9435 149.804 65.224 149.932 65.2495 150.008Z" fill="#FBC5A9"/>
<path d="M66.2661 133.573V133.241C66.2406 133.547 66.2661 133.547 66.2661 133.573Z" fill="#FBC5A9"/>
<path d="M68.6574 118.155L69.0145 117.823C69.0145 117.848 68.7084 117.874 68.6574 118.155Z" fill="#FBC5A9"/>
<path d="M94.3546 102.405C93.5913 103.041 89.5968 105.229 89.4442 105.56L87.8413 118.154L101.199 110.954C100.69 110.369 100.003 108.97 99.3158 108.206C97.713 106.4 94.9906 104.721 94.3546 102.405Z" fill="#FEC30E"/>
<path d="M106.669 62.3588C106.644 62.3843 106.745 62.7914 106.415 63.0458C105.829 63.5038 105.092 63.8345 104.608 64.4197C104.863 64.9794 104.735 67.1929 105.982 67.4982C110.256 68.5413 110.816 63.1476 107.356 62.3588C107.229 62.308 106.72 62.3334 106.669 62.3588Z" fill="#FEC30E"/>
<path d="M76.5452 107.544C77.7665 108.129 80.1835 108.104 81.3284 107.544C79.7764 107.62 78.1227 107.544 76.5452 107.544Z" fill="#41815F"/>
<path d="M105.982 74.6727V73.2988C105.982 73.7313 106.008 74.4692 105.982 74.6727Z" fill="#41815F"/>
<path d="M105.652 77.0645L106.008 76.3776C105.982 76.4284 105.703 76.4539 105.652 77.0645Z" fill="#41815F"/>
<path d="M171.369 174.305C171.827 171.736 171.7 169.039 171.7 166.418C168.978 165.884 170.148 170.133 169.995 172.066C169.766 174.483 168.901 177.435 167.782 179.445C166.84 181.149 165.543 182.854 164.169 184.228C164.347 185.169 164.83 186.085 164.856 186.289C167.756 183.007 169.944 179.648 171.013 175.323L171.369 174.305Z" fill="#232323"/>
<path d="M143.992 147.946C144.145 148.404 144.705 148.048 144.679 150.007L154.602 149.676C154.398 148.862 154.754 148.303 154.932 147.616C151.447 148.379 147.58 147.743 143.992 147.946Z" fill="#41815F"/>
<path d="M153.915 146.242C151.04 145.937 147.376 147.082 144.323 146.598C144.323 146.7 143.764 147.285 143.993 147.972C147.58 147.769 151.447 148.405 154.958 147.616C155.264 146.446 155.569 146.395 153.915 146.242Z" fill="#232323"/>
<path d="M154.603 149.651L144.681 150.008C144.681 150.338 144.681 150.695 144.681 151.025C144.859 151.025 145.368 151.356 145.851 151.381C149.133 151.407 152.364 151.381 155.621 151.025C155.468 150.364 155.799 149.626 154.603 149.651Z" fill="#232323"/>
<path d="M171.039 175.323C171.115 175.068 171.293 174.839 171.395 174.305L171.039 175.323Z" fill="#FBC5A9"/>
<path d="M164.881 187.307C164.856 187.205 164.907 187.078 164.881 186.976L164.549 187.154L164.881 187.307Z" fill="#232323"/>
<path d="M104.964 115.406C105.269 117.569 105.168 121.054 105.295 123.446C105.575 128.967 105.549 134.513 105.982 140.06C105.168 140.187 103.514 139.78 102.903 140.212C102.191 140.696 102.751 141.764 103.081 141.764H112.164C112.419 139.373 109.086 141.026 107.686 139.831C107.457 134.717 107.203 129.603 107.025 124.464C106.923 121.639 106.16 118.205 106.694 115.381H104.964V115.406Z" fill="#232323"/>
<path d="M73.7968 140.416C74.3565 140.06 74.3565 138.686 73.7968 138.355C73.8476 139.042 73.7459 139.729 73.7968 140.416Z" fill="#FBC5A9"/>
<path d="M118.652 99.3265C118.372 101.718 112.342 108.053 110.79 110.623L124.835 117.467L120.738 99.9117C120.433 99.3265 119.288 99.3265 118.652 99.3265Z" fill="#FEC30E"/>
<path d="M106.669 62.3593C106.72 62.3338 107.229 62.3338 107.356 62.3593C106.745 59.4079 104.786 57.6015 107.076 54.7011C107.738 53.8615 109.239 53.4799 108.577 52.4368C104.354 51.8261 102.98 60.5274 106.669 62.3593Z" fill="#232323"/>
<path d="M135.774 47.9586C135.138 51.4696 133.154 50.859 130.457 51.0371C130.075 51.0625 129.337 50.8335 129.617 51.5459C130.788 54.4718 138.497 51.9276 136.97 48.6455C136.792 48.2639 136.258 47.8822 135.774 47.9586Z" fill="#232323"/>
<path d="M153.584 209.238C154.602 209.67 156.077 209.772 156.993 210.103C158.291 210.612 159.334 212.494 161.726 212.927C162.743 213.105 163.481 212.52 164.295 212.698C165.262 212.927 167.298 214.224 167.298 215.369C167.094 215.369 166.534 215.522 166.356 215.624C164.753 216.489 167.272 217.914 167.298 215.369C170.376 215.369 177.576 221.577 177.907 224.783C178.441 229.871 170.961 233.103 166.763 233.51C165.338 233.662 157.884 233.332 157.35 233.866C157.146 234.069 158.011 235.901 155.543 237.351C153.05 238.802 149.819 238.496 147.173 237.708C144.043 236.792 140.99 233.408 137.759 234.273C136.334 234.655 136.283 236.181 133.714 235.392C130.482 234.4 130.94 230.66 128.905 228.905C126.564 226.869 122.29 228.676 120.382 225.623C120.051 225.979 117.481 228.574 117.303 228.701C120.484 231.5 123.766 234.222 126.895 237.072C129.338 239.311 132.849 243.941 135.8 244.933C138.395 245.824 139.769 245.213 142.288 244.603C153.508 241.88 164.27 237.606 175.846 235.011C179.561 234.171 188.084 233.332 190.908 231.932C194.877 229.999 191.213 226.793 188.974 225.317L167.348 210.815C166.967 210.205 167.577 209.772 167.628 209.492C167.959 207.838 169.028 206.337 168.646 205.04C167.425 204.556 166.331 203.844 165.109 203.386C161.242 205.345 157.426 207.33 153.584 209.238Z" fill="#E2D6C7"/>
<path d="M163.15 249.283C163.532 250.505 164.779 250.606 165.288 252.108C165.822 253.66 165.364 254.296 164.066 255.161C159.105 258.468 139.947 258.087 133.51 257.858C129.923 257.73 125.648 256.814 122.214 256.789C121.756 256.789 121.221 256.865 121.043 257.323C120.611 258.316 121.959 258.417 122.621 258.468C131.22 259.308 158.952 261.14 165.389 256.102C168.417 253.736 167.196 251.192 164.88 248.902C164.397 249.08 163.812 249.105 163.15 249.283Z" fill="#232323"/>
<path d="M168.646 205.116C169.028 206.439 167.959 207.914 167.629 209.568C169.231 210.331 170.58 211.553 172.106 212.469C172.463 212.672 172.971 212.596 173.099 212.672C172.488 210.891 171.572 209.263 170.86 207.533C170.656 207.024 170.783 206.413 170.682 206.184C170.147 204.785 168.952 205.243 168.646 205.116Z" fill="#41815F"/>
<path d="M107.686 233.865C107.966 233.84 108.246 234.17 108.373 234.221C108.577 234.272 108.882 234.17 109.06 234.221L109.391 232.847C108.78 233.178 108.221 233.611 107.686 233.865Z" fill="#F9C5DA"/>
<path d="M119.67 243.127C119.95 243.509 119.67 244.424 121.044 244.145C120.688 243.814 120.535 243.051 119.67 243.127Z" fill="#F9C5DA"/>
<path d="M113.513 237.656C113.411 238.369 113.487 238.445 114.2 238.343C114.149 238.293 113.971 238.038 113.513 237.656Z" fill="#F9C5DA"/>
<path d="M110.434 234.909C110.307 234.833 110.205 234.629 110.103 234.578L110.434 234.909Z" fill="#F9C5DA"/>
<path d="M128.244 250.988C128.066 250.81 127.837 250.556 127.557 250.302L128.244 250.988Z" fill="#F9C5DA"/>
<path d="M130.635 253.05C130.507 252.948 130.431 252.795 130.303 252.718L130.635 253.05Z" fill="#F9C5DA"/>
<path d="M133.027 254.755C132.925 254.704 132.823 254.5 132.695 254.423L133.027 254.755Z" fill="#F9C5DA"/>
<path d="M133.713 255.111C133.637 254.983 133.509 254.83 133.382 254.754C133.458 254.881 133.586 255.06 133.713 255.111Z" fill="#F9C5DA"/>
<path d="M109.747 215.395C113.41 214.58 119.389 212.698 122.392 215.598C125.597 218.728 122.773 223.129 120.382 225.673C122.29 228.726 126.59 226.92 128.905 228.955C130.94 230.711 130.457 234.476 133.713 235.443C136.283 236.232 136.308 234.705 137.759 234.324C140.99 233.459 144.043 236.842 147.172 237.758C149.844 238.547 153.075 238.852 155.543 237.402C158.011 235.952 157.171 234.095 157.349 233.917C157.884 233.382 165.338 233.713 166.763 233.56C170.961 233.153 178.441 229.922 177.907 224.834C177.576 221.628 170.376 215.42 167.272 215.42C167.246 217.939 164.728 216.514 166.33 215.674C166.508 215.573 167.068 215.42 167.272 215.42C167.297 214.275 165.236 212.978 164.27 212.749C163.455 212.545 162.718 213.156 161.7 212.978C159.308 212.52 158.291 210.637 156.968 210.154C156.052 209.797 154.576 209.696 153.558 209.288C146.918 212.545 142.008 216.26 134.4 211.833C133.255 211.171 132.39 210.866 133.713 209.823C135.876 208.118 142.058 206.057 144.908 204.912C145.366 204.734 145.62 204.175 145.671 204.149C145.62 198.374 140.964 201.808 137.631 202.114C136.207 202.241 133.535 202.266 132.136 202.114C130.457 201.936 128.778 200.638 127.073 201.147C126.182 201.427 124.071 204.327 122.468 204.76C120.763 205.218 118.092 204.607 116.133 204.912C111.706 205.548 105.93 210.891 109.747 215.395Z" fill="#E76C25"/>
<path d="M102.217 217.455C103.668 216.692 107.942 215.802 109.748 215.394C105.932 210.891 111.682 205.548 116.16 204.861C118.119 204.556 120.79 205.141 122.495 204.709C124.098 204.276 126.209 201.35 127.1 201.096C128.83 200.587 130.484 201.885 132.163 202.063C133.562 202.215 136.234 202.19 137.659 202.063C140.991 201.783 145.622 198.323 145.698 204.098C148.624 202.928 152.466 201.859 155.621 200.663C154.654 192.191 144.553 194.913 138.829 196.033C133.486 197.076 126.744 199.544 121.859 200.282C113.972 201.478 105.932 201.63 98.1721 203.971C95.7042 204.709 92.4984 205.625 93.3889 208.932C94.0504 211.425 100.564 215.165 102.217 217.455Z" fill="#E2D6C7"/>
<path d="M91.9379 221.22C93.0065 220.813 97.179 219.694 97.408 219.516C97.6878 219.312 96.8228 219.287 98.0949 218.829C98.1967 218.803 98.3239 218.854 98.4257 218.829C98.4511 218.829 98.7055 218.6 99.1126 218.473C99.2144 218.447 99.3416 218.498 99.4688 218.473C99.4942 218.473 99.5706 218.167 99.7995 218.142C100.003 218.091 100.283 218.167 100.486 218.142C100.766 218.091 100.817 218.142 100.843 218.142C102.954 217.964 101.962 217.608 102.217 217.455C100.563 215.165 94.0496 211.451 93.3881 208.983C92.4976 205.675 95.7288 204.759 98.1712 204.021C105.931 201.681 113.971 201.528 121.858 200.332C126.743 199.594 133.485 197.101 138.828 196.058C144.527 194.939 154.653 192.216 155.62 200.688C156.587 200.332 157.35 199.773 157.681 199.671C154.424 189.443 140.762 194.048 133.104 195.804C128.6 196.847 123.944 198.5 119.543 198.984C113.03 199.722 99.1635 201.146 93.5916 203.894C90.0297 205.65 88.2233 213.308 88.9611 216.895C89.3428 218.803 91.4545 219.49 91.9379 221.22Z" fill="#F39E4E"/>
<path d="M107.686 233.866C105.066 235.24 100.919 236.613 98.6544 238.344C98.1456 238.725 97.9929 239.056 98.0947 239.692H99.4686C101.199 239.132 102.623 237.886 104.353 237.275L108.373 234.196C108.246 234.196 107.966 233.866 107.686 233.866Z" fill="#232323"/>
<path d="M68.3271 234.552C67.2077 234.298 66.5461 233.255 65.2486 233.535C65.045 234.807 66.2663 235.443 67.3094 235.595C68.0472 235.036 68.2508 234.603 68.3271 234.552Z" fill="#232323"/>
<path d="M98.1212 239.692C98.2739 240.582 99.2152 239.794 99.4951 239.692H98.1212Z" fill="#F9C5DA"/>
<path d="M98.1204 218.804C96.8483 219.262 97.7133 219.287 97.4335 219.491C98.1459 219.567 98.1967 219.542 98.1204 218.804Z" fill="#F9C5DA"/>
<path d="M89.9029 222.239C90.5898 221.984 91.3531 221.45 91.9637 221.221C91.1496 221.221 90.2591 221.45 89.9029 222.239Z" fill="#F9C5DA"/>
<path d="M76.5445 229.082C77.2824 228.624 78.1728 228.192 78.6054 227.378C77.8421 227.785 76.9516 228.319 76.5445 229.082Z" fill="#F9C5DA"/>
<path d="M98.4521 218.804L99.139 218.473C98.7574 218.6 98.503 218.804 98.4521 218.804Z" fill="#F9C5DA"/>
<path d="M78.9364 227.378C79.4707 227.123 80.0559 226.971 80.3103 226.36C79.8269 226.64 79.1654 226.716 78.9364 227.378Z" fill="#F9C5DA"/>
<path d="M100.512 218.117H100.869C100.843 218.143 100.792 218.092 100.512 218.117Z" fill="#F9C5DA"/>
<path d="M99.4679 218.474L99.8249 218.142C99.5954 218.168 99.4934 218.474 99.4679 218.474Z" fill="#F9C5DA"/>
<path d="M75.8581 229.439L76.2151 229.108C76.0111 229.184 75.9346 229.388 75.8581 229.439Z" fill="#F9C5DA"/>
<path d="M164.194 197.941C164.169 197.839 163.864 197.687 163.864 197.61C162.464 198.475 160.861 198.857 159.335 199.417C158.75 199.646 158.012 199.544 157.707 199.671C157.401 199.798 156.613 200.333 155.646 200.689C152.491 201.859 148.624 202.953 145.723 204.124C145.672 204.149 145.418 204.683 144.96 204.887C142.11 206.032 135.928 208.118 133.765 209.797C132.442 210.84 133.307 211.146 134.452 211.807C142.06 216.234 146.97 212.52 153.61 209.263C157.452 207.38 161.269 205.396 165.136 203.513C166.357 203.971 167.451 204.683 168.672 205.167C168.978 205.294 170.199 204.836 170.733 206.184L179.282 202.419C179.027 202.012 178.62 200.74 178.264 200.027C178.239 199.951 177.755 199.9 177.628 199.468C177.221 198.043 178.01 196.898 178.239 195.575C175.465 196.822 169.614 201.732 166.586 200.918C164.932 200.434 164.551 199.315 164.194 197.941Z" fill="#FBC5A9"/>
<path d="M194.317 182.167C183.886 185.932 180.171 193.539 171.038 198.094C168.213 199.493 166.967 199.976 164.194 197.915C164.575 199.289 164.931 200.409 166.585 200.867C169.613 201.681 175.439 196.796 178.238 195.524C178.009 196.847 177.195 197.992 177.627 199.417C177.754 199.849 178.212 199.925 178.238 199.976C178.67 194.099 183.555 189.774 188.287 186.899C190.832 185.347 195.03 183.998 197.192 182.447C197.65 182.116 198.21 181.836 198.108 181.124C197.93 181.022 194.775 182.014 194.317 182.167Z" fill="#232323"/>
<path d="M186.787 205.116C186.812 205.141 186.71 205.777 186.965 206.134C187.219 206.515 187.779 206.439 187.804 206.49C189.178 202.953 192.918 200.435 196.124 198.552C197.88 197.509 201.162 196.44 202.51 195.346C203.07 194.888 203.324 194.608 203.197 193.82C202.765 193.412 199.686 194.964 199.024 195.295C194.725 197.305 188.619 200.562 186.787 205.116Z" fill="#232323"/>
<path d="M194.318 182.167C194.776 181.989 197.93 181.022 198.083 181.149C197.142 180.411 195.284 181.684 194.318 182.167Z" fill="#41815F"/>
<path d="M123.181 44.0401C123.181 44.0401 127.786 36.2039 132.594 37.5778C137.403 38.9262 131.907 46.9914 131.907 46.9914L126.641 49.3321L122.341 48.06L123.181 44.0401Z" fill="#FBC5A9"/>
</g>
<defs>
<clipPath id="clip0_118_8752">
<rect width="295" height="365" fill="white" transform="matrix(-1 0 0 1 294 0)"/>
</clipPath>
</defs>
</svg>
