<svg width="192" height="46" viewBox="0 0 192 46" fill="none" xmlns="http://www.w3.org/2000/svg">
<rect width="192" height="46" rx="12" fill="#B70908"/>
<path d="M37.9669 39.5C36.9493 39.372 35.9293 39.2457 34.9502 38.9323C29.1536 37.0773 25.5123 33.2729 24.2526 27.3821C23.8093 25.3088 24.0018 23.2167 24.4267 21.1514C25.1653 17.5609 26.7922 14.4169 29.3807 11.7675C29.7053 11.4353 30.0629 11.1333 30.4148 10.8279C30.6225 10.6478 30.8647 10.5433 31.1331 10.7061C31.4188 10.8794 31.4138 11.1522 31.3301 11.4215C31.0324 12.3799 30.9134 13.3518 31.1062 14.3427C31.194 14.8549 31.4374 15.3292 31.8045 15.7032C31.863 15.7614 31.9137 15.8677 32.0098 15.8354C32.0982 15.8057 32.0927 15.6954 32.1087 15.6126C32.3819 14.1769 32.8358 12.78 33.4599 11.4543C34.1903 9.91394 35.1611 8.55318 36.6208 7.58639C37.6736 6.8769 38.9209 6.49807 40.1977 6.50001C40.4424 6.49926 40.6551 6.54427 40.781 6.77502C40.9074 7.00679 40.8346 7.21157 40.6846 7.40173C39.9108 8.3833 39.5307 9.48869 39.6296 10.7326C39.7214 11.8867 40.1168 12.9278 40.911 13.8006C41.1533 14.0668 41.1837 14.0577 41.3243 13.7485C41.8772 12.5276 42.0985 11.1868 41.9668 9.85681C41.9477 9.64328 41.9247 9.43009 41.9063 9.21652C41.8866 8.98848 41.9428 8.78657 42.1467 8.65357C42.2343 8.5974 42.3363 8.56686 42.4409 8.56552C42.5455 8.56418 42.6483 8.59209 42.7374 8.64599C45.6751 10.1054 48.3168 11.9442 50.3832 14.4952C52.1268 16.6347 53.2776 19.1805 53.7241 21.8855C53.979 23.3836 54.0854 24.8896 53.922 26.4032C53.6709 28.7505 52.8447 31.0032 51.514 32.9686C50.24 34.8734 48.63 36.4347 46.6209 37.5901C44.8354 38.6224 42.8421 39.2598 40.7799 39.4579C40.7159 39.468 40.6525 39.482 40.5902 39.5H37.9669ZM39.2334 7.65038C39.1409 7.66071 39.0998 7.66173 39.0603 7.67023C37.7112 7.96104 36.6442 8.69372 35.7846 9.72807C34.7313 10.9954 34.0765 12.4653 33.5968 14.0172C33.3241 14.911 33.1204 15.8238 32.9874 16.7477C32.9088 17.2787 32.5479 17.449 32.0641 17.1973C31.6558 16.9889 31.2901 16.7084 30.9853 16.3698C30.2096 15.4988 29.9354 14.4619 29.947 13.331C29.9488 13.1542 29.9472 12.9773 29.9472 12.6973C29.6226 13.0591 29.3542 13.3356 29.1116 13.6325C27.3654 15.7657 26.1479 18.2682 25.555 20.9425C25.1113 22.8945 24.9228 24.8687 25.2257 26.8508C25.7915 30.5539 27.7159 33.4766 30.7497 35.6904C33.9664 38.0378 37.5907 38.9181 41.5482 38.3027C44.6413 37.8218 47.2065 36.3386 49.2967 34.0639C50.8154 32.4186 51.9104 30.4397 52.4899 28.293C53.0404 26.2872 53.0253 24.2634 52.7011 22.2312C52.2193 19.2114 50.913 16.5796 48.8236 14.3149C47.2427 12.6014 45.3764 11.2552 43.3293 10.136C43.2486 10.0919 43.1767 10.0101 43.0497 10.0433C43.0926 10.791 43.0414 11.541 42.8973 12.2763C42.7212 13.2225 42.4206 14.1277 41.8784 14.9394C41.6549 15.2739 41.4348 15.3292 41.0652 15.1753C40.7903 15.0665 40.5416 14.9024 40.3351 14.6937C38.6854 12.9723 38.2042 10.9614 38.8071 8.68656C38.8997 8.33744 39.0732 8.01648 39.2334 7.65038Z" fill="white"/>
<path d="M39.2851 32.3053C36.3781 32.3055 33.471 32.3055 30.564 32.3052C29.0991 32.3045 28.2416 31.4633 28.2411 30.0266C28.2399 26.8926 28.24 23.7586 28.2412 20.6246C28.2419 19.2107 29.1076 18.3593 30.5482 18.3587C34.6902 18.3569 38.8322 18.3567 42.9742 18.3582C43.0507 18.3582 43.1275 18.3558 43.2036 18.3618C43.5357 18.3884 43.7411 18.5683 43.7591 18.845C43.7789 19.1465 43.5978 19.3485 43.2465 19.3975C43.1053 19.4122 42.9632 19.4171 42.8213 19.4123C38.7777 19.413 34.734 19.4132 30.6904 19.4131C30.5374 19.4132 30.3838 19.4096 30.2316 19.4216C30.0005 19.4378 29.7826 19.5337 29.6165 19.6924C29.4504 19.851 29.3467 20.0623 29.3238 20.2887C29.3133 20.3956 29.3086 20.5029 29.3098 20.6102C29.3091 23.7549 29.3091 26.8997 29.3097 30.0444C29.3085 30.1517 29.3128 30.2591 29.3226 30.366C29.3406 30.5929 29.4408 30.8059 29.605 30.9665C29.7692 31.1271 29.9866 31.2246 30.2177 31.2414C30.3588 31.2539 30.5015 31.2524 30.6435 31.2524C36.4029 31.2529 42.1624 31.2529 47.9218 31.2525C48.0529 31.2525 48.1845 31.2534 48.315 31.2434C48.5578 31.2312 48.7871 31.1302 48.9578 30.9603C49.1286 30.7904 49.2284 30.5639 49.2376 30.3253C49.244 30.2398 49.2453 30.1537 49.2453 30.0679C49.2457 26.9125 49.2452 23.757 49.2439 20.6015C49.2505 20.4409 49.2355 20.2801 49.1995 20.1233C49.1413 19.9197 49.0166 19.7405 48.8445 19.6133C48.6725 19.486 48.4627 19.4178 48.2474 19.4191C47.5044 19.4078 46.7611 19.4142 46.018 19.4126C45.9087 19.4124 45.7988 19.4167 45.6903 19.407C45.3249 19.3742 45.0998 19.169 45.1028 18.8786C45.106 18.5712 45.3422 18.3642 45.7287 18.3612C46.5702 18.3547 47.4123 18.3418 48.2531 18.3655C48.8021 18.3728 49.326 18.5923 49.7113 18.9764C50.0967 19.3605 50.3123 19.8782 50.3116 20.4174C50.3242 23.7017 50.3239 26.9859 50.3109 30.2702C50.3059 31.4378 49.3673 32.3008 48.1374 32.3032C45.1866 32.3091 42.2359 32.3098 39.2851 32.3053Z" fill="white"/>
<path d="M34.8079 25.7834C35.0928 25.5165 35.3241 25.2977 35.5579 25.0815C35.7248 24.9273 35.8914 24.7722 36.0649 24.6253C36.3018 24.4246 36.5247 24.4358 36.7216 24.6527C36.9248 24.8766 36.881 25.0745 36.6566 25.2591C36.5229 25.3692 36.4024 25.4946 36.2717 25.6083C35.8813 25.9478 35.8844 25.8711 36.1807 26.2901C36.4297 26.6423 36.6842 26.991 36.9263 27.3477C37.1044 27.61 37.051 27.826 36.7845 28.0021C36.5242 28.1741 36.3368 28.1453 36.1435 27.8808C35.9081 27.5586 35.6934 27.2216 35.4536 26.9028C35.3731 26.7957 35.3386 26.5554 35.1525 26.6376C34.9772 26.715 34.7946 26.858 34.7851 27.0944C34.7782 27.2658 34.787 27.4377 34.7787 27.609C34.7648 27.8979 34.574 28.0559 34.2555 28.0515C33.9526 28.0473 33.7595 27.8956 33.7584 27.6152C33.752 26.0391 33.7524 24.463 33.7597 22.8869C33.7613 22.5883 33.9503 22.4638 34.3026 22.4759C34.6344 22.4873 34.7763 22.6082 34.7785 22.9153C34.7846 23.7516 34.7805 24.5879 34.7824 25.4242C34.7826 25.5167 34.7951 25.6091 34.8079 25.7834Z" fill="white"/>
<path d="M42.5019 27.6451C42.16 27.9414 41.8096 28.1443 41.3633 28.1168C40.8727 28.0865 40.5317 27.8162 40.4508 27.3865C40.3472 26.8358 40.5445 26.4048 40.9967 26.1959C41.374 26.0216 41.7783 26.0071 42.183 26.0169C42.4535 26.0235 42.5084 25.918 42.4178 25.6832C42.3024 25.3843 42.0718 25.2793 41.7725 25.3068C41.5758 25.3181 41.3831 25.3656 41.2042 25.4468C40.9993 25.5477 40.8188 25.5191 40.7069 25.3041C40.5935 25.0865 40.6097 24.8859 40.831 24.7396C41.2868 24.4383 41.7996 24.4156 42.3125 24.5048C43.0679 24.6363 43.4871 25.1461 43.4974 25.9003C43.5044 26.4148 43.4938 26.9295 43.502 27.444C43.5064 27.7188 43.4897 27.9753 43.1499 28.0391C42.8347 28.0982 42.5932 28.0012 42.5019 27.6451ZM42.1956 26.5725C41.7209 26.5768 41.4536 26.7396 41.4692 27.0104C41.4811 27.2168 41.5991 27.3176 41.807 27.3219C42.1133 27.3283 42.4755 26.9883 42.4555 26.711C42.4417 26.5214 42.2887 26.5901 42.1956 26.5725Z" fill="white"/>
<path d="M38.3067 26.3124C38.3056 27.1512 38.6836 27.4035 39.4849 27.0957C39.6205 27.0436 39.7513 26.9986 39.8951 27.0565C40.1861 27.1737 40.27 27.5726 40.0239 27.7679C39.4684 28.2087 38.8297 28.2066 38.1929 28.0064C37.6427 27.8335 37.3634 27.4179 37.2818 26.8578C37.2223 26.4544 37.2267 26.0444 37.2949 25.6424C37.3781 25.1516 37.6424 24.7879 38.1196 24.6034C38.3787 24.5014 38.656 24.4513 38.9352 24.4559C39.2143 24.4604 39.4897 24.5196 39.7453 24.63C40.0864 24.77 40.1981 24.997 40.0859 25.2539C39.9796 25.4971 39.8069 25.6048 39.5377 25.4969C39.3519 25.4047 39.1461 25.358 38.938 25.3608C38.5008 25.3983 38.3207 25.5897 38.3071 26.0231C38.3041 26.1194 38.3067 26.216 38.3067 26.3124Z" fill="white"/>
<path d="M44.239 25.2609C44.239 24.4994 44.2369 23.7378 44.2399 22.9762C44.2414 22.5989 44.375 22.4721 44.7494 22.4757C45.115 22.4791 45.2629 22.618 45.2637 22.9881C45.2672 24.5005 45.2672 26.0129 45.2639 27.5254C45.2632 27.8861 45.0775 28.058 44.7193 28.0518C44.3703 28.0458 44.2407 27.9039 44.2395 27.5135C44.2374 26.7627 44.2389 26.0118 44.239 25.2609Z" fill="white"/>
<path d="M65.04 30V17.88L62.64 18.48V17.28L65.6 16H66.74V30H65.04ZM68.7905 31.9L73.8105 14.72H75.4705L70.4505 31.9H68.7905ZM81.1413 30.24C80.2479 30.24 79.4346 30.08 78.7013 29.76C77.9813 29.4267 77.4079 28.9333 76.9813 28.28C76.5546 27.6267 76.3279 26.8133 76.3013 25.84H78.0013C78.0146 26.3733 78.1413 26.8667 78.3813 27.32C78.6346 27.76 78.9946 28.1133 79.4613 28.38C79.9279 28.6467 80.4879 28.78 81.1413 28.78C81.7946 28.78 82.3413 28.6533 82.7813 28.4C83.2213 28.1467 83.5546 27.8133 83.7813 27.4C84.0079 26.9733 84.1213 26.5 84.1213 25.98C84.1213 25.3267 83.9613 24.8 83.6413 24.4C83.3346 23.9867 82.9146 23.68 82.3813 23.48C81.8613 23.28 81.2879 23.18 80.6613 23.18H79.6213V21.76H80.6613C81.5813 21.76 82.3013 21.5533 82.8213 21.14C83.3413 20.7133 83.6013 20.1267 83.6013 19.38C83.6013 18.7667 83.3946 18.2533 82.9813 17.84C82.5813 17.4267 81.9679 17.22 81.1413 17.22C80.3546 17.22 79.7279 17.4467 79.2613 17.9C78.7946 18.3533 78.5279 18.9333 78.4613 19.64H76.7613C76.8013 18.88 77.0079 18.2067 77.3813 17.62C77.7546 17.0333 78.2613 16.58 78.9013 16.26C79.5413 15.9267 80.2946 15.76 81.1612 15.76C82.0679 15.76 82.8279 15.92 83.4413 16.24C84.0546 16.56 84.5146 16.9867 84.8213 17.52C85.1413 18.0533 85.3013 18.64 85.3013 19.28C85.3013 19.7467 85.2146 20.1933 85.0413 20.62C84.8679 21.0467 84.6079 21.42 84.2613 21.74C83.9146 22.06 83.4746 22.28 82.9413 22.4C83.4879 22.52 83.9746 22.7333 84.4013 23.04C84.8413 23.3467 85.1879 23.7467 85.4413 24.24C85.6946 24.7333 85.8213 25.3133 85.8213 25.98C85.8213 26.74 85.6413 27.4467 85.2812 28.1C84.9346 28.74 84.4146 29.26 83.7213 29.66C83.0279 30.0467 82.1679 30.24 81.1413 30.24ZM99.9902 30.24C98.6302 30.24 97.4502 29.94 96.4502 29.34C95.4635 28.7267 94.7035 27.88 94.1702 26.8C93.6368 25.7067 93.3702 24.44 93.3702 23C93.3702 21.56 93.6368 20.3 94.1702 19.22C94.7035 18.1267 95.4635 17.28 96.4502 16.68C97.4502 16.0667 98.6302 15.76 99.9902 15.76C101.59 15.76 102.89 16.14 103.89 16.9C104.89 17.66 105.53 18.7333 105.81 20.12H103.95C103.737 19.2533 103.303 18.56 102.65 18.04C101.997 17.5067 101.11 17.24 99.9902 17.24C99.0035 17.24 98.1368 17.4733 97.3902 17.94C96.6568 18.3933 96.0902 19.0533 95.6902 19.92C95.2902 20.7733 95.0902 21.8 95.0902 23C95.0902 24.2 95.2902 25.2333 95.6902 26.1C96.0902 26.9533 96.6568 27.6133 97.3902 28.08C98.1368 28.5333 99.0035 28.76 99.9902 28.76C101.11 28.76 101.997 28.5067 102.65 28C103.303 27.48 103.737 26.7933 103.95 25.94H105.81C105.53 27.2867 104.89 28.34 103.89 29.1C102.89 29.86 101.59 30.24 99.9902 30.24ZM111.426 30.24C110.613 30.24 109.933 30.1 109.386 29.82C108.839 29.5267 108.433 29.1467 108.166 28.68C107.899 28.2 107.766 27.68 107.766 27.12C107.766 26.44 107.939 25.8667 108.286 25.4C108.646 24.92 109.146 24.56 109.786 24.32C110.439 24.0667 111.206 23.94 112.086 23.94H114.746C114.746 23.3133 114.646 22.7933 114.446 22.38C114.259 21.9533 113.979 21.6333 113.606 21.42C113.246 21.2067 112.793 21.1 112.246 21.1C111.606 21.1 111.053 21.26 110.586 21.58C110.119 21.9 109.833 22.3733 109.726 23H108.006C108.086 22.28 108.326 21.68 108.726 21.2C109.139 20.7067 109.659 20.3333 110.286 20.08C110.913 19.8133 111.566 19.68 112.246 19.68C113.179 19.68 113.953 19.8533 114.566 20.2C115.193 20.5333 115.659 21.0067 115.966 21.62C116.273 22.22 116.426 22.9333 116.426 23.76V30H114.926L114.826 28.22C114.693 28.5 114.519 28.7667 114.306 29.02C114.106 29.26 113.866 29.4733 113.586 29.66C113.319 29.8333 113.006 29.9733 112.646 30.08C112.286 30.1867 111.879 30.24 111.426 30.24ZM111.686 28.82C112.153 28.82 112.573 28.7267 112.946 28.54C113.333 28.34 113.659 28.0733 113.926 27.74C114.193 27.3933 114.393 27.0133 114.526 26.6C114.673 26.1867 114.746 25.7533 114.746 25.3V25.24H112.226C111.573 25.24 111.046 25.32 110.646 25.48C110.246 25.6267 109.959 25.84 109.786 26.12C109.613 26.3867 109.526 26.6933 109.526 27.04C109.526 27.4 109.606 27.7133 109.766 27.98C109.939 28.2467 110.186 28.4533 110.506 28.6C110.839 28.7467 111.233 28.82 111.686 28.82ZM119.025 30V15.6H120.705V30H119.025ZM127.978 30.24C127.045 30.24 126.205 30.0267 125.458 29.6C124.711 29.16 124.125 28.5467 123.698 27.76C123.271 26.96 123.058 26.0333 123.058 24.98C123.058 23.9 123.271 22.9667 123.698 22.18C124.138 21.38 124.731 20.7667 125.478 20.34C126.238 19.9 127.085 19.68 128.018 19.68C128.978 19.68 129.825 19.9 130.558 20.34C131.305 20.7667 131.891 21.38 132.318 22.18C132.758 22.9667 132.978 23.8933 132.978 24.96C132.978 26.0267 132.758 26.96 132.318 27.76C131.878 28.5467 131.285 29.16 130.538 29.6C129.791 30.0267 128.938 30.24 127.978 30.24ZM127.998 28.8C128.571 28.8 129.105 28.66 129.598 28.38C130.091 28.0867 130.491 27.6533 130.798 27.08C131.105 26.5067 131.258 25.8 131.258 24.96C131.258 24.1067 131.105 23.4 130.798 22.84C130.505 22.2667 130.111 21.84 129.618 21.56C129.138 21.2667 128.605 21.12 128.018 21.12C127.458 21.12 126.925 21.2667 126.418 21.56C125.925 21.84 125.525 22.2667 125.218 22.84C124.925 23.4 124.778 24.1067 124.778 24.96C124.778 25.8 124.925 26.5067 125.218 27.08C125.525 27.6533 125.918 28.0867 126.398 28.38C126.891 28.66 127.425 28.8 127.998 28.8ZM135.494 30V19.92H137.174V30H135.494ZM136.334 17.78C136 17.78 135.72 17.6733 135.494 17.46C135.28 17.2333 135.174 16.9533 135.174 16.62C135.174 16.2867 135.28 16.02 135.494 15.82C135.72 15.6067 136 15.5 136.334 15.5C136.654 15.5 136.927 15.6067 137.154 15.82C137.38 16.02 137.494 16.2867 137.494 16.62C137.494 16.9533 137.38 17.2333 137.154 17.46C136.927 17.6733 136.654 17.78 136.334 17.78ZM140.138 30V19.92H141.658L141.778 21.84C142.005 21.3867 142.292 21 142.638 20.68C142.998 20.36 143.425 20.1133 143.918 19.94C144.425 19.7667 144.998 19.68 145.638 19.68V21.44H145.018C144.592 21.44 144.185 21.5 143.798 21.62C143.412 21.7267 143.065 21.9067 142.758 22.16C142.465 22.4133 142.232 22.76 142.058 23.2C141.898 23.6267 141.818 24.16 141.818 24.8V30H140.138ZM151.59 30.24C150.656 30.24 149.823 30.02 149.09 29.58C148.356 29.14 147.783 28.5267 147.37 27.74C146.956 26.94 146.75 26.0133 146.75 24.96C146.75 23.8933 146.95 22.9667 147.35 22.18C147.763 21.3933 148.336 20.78 149.07 20.34C149.816 19.9 150.67 19.68 151.63 19.68C152.616 19.68 153.456 19.9 154.15 20.34C154.843 20.78 155.37 21.36 155.73 22.08C156.103 22.7867 156.29 23.5667 156.29 24.42C156.29 24.5533 156.29 24.6933 156.29 24.84C156.29 24.9867 156.283 25.1533 156.27 25.34H148.01V24.04H154.63C154.59 23.12 154.283 22.4 153.71 21.88C153.15 21.36 152.443 21.1 151.59 21.1C151.03 21.1 150.503 21.2333 150.01 21.5C149.516 21.7533 149.123 22.1333 148.83 22.64C148.536 23.1333 148.39 23.7533 148.39 24.5V25.06C148.39 25.8867 148.536 26.58 148.83 27.14C149.136 27.7 149.53 28.12 150.01 28.4C150.503 28.68 151.03 28.82 151.59 28.82C152.296 28.82 152.876 28.6667 153.33 28.36C153.796 28.04 154.136 27.6067 154.35 27.06H156.01C155.836 27.6733 155.55 28.22 155.15 28.7C154.75 29.1667 154.25 29.54 153.65 29.82C153.063 30.1 152.376 30.24 151.59 30.24ZM162.337 30.24C161.51 30.24 160.783 30.1 160.157 29.82C159.53 29.54 159.03 29.1533 158.657 28.66C158.297 28.1533 158.077 27.56 157.997 26.88H159.717C159.783 27.2267 159.923 27.5467 160.137 27.84C160.35 28.1333 160.637 28.3733 160.997 28.56C161.37 28.7333 161.823 28.82 162.357 28.82C162.823 28.82 163.21 28.7533 163.517 28.62C163.823 28.4733 164.05 28.28 164.197 28.04C164.357 27.8 164.437 27.54 164.437 27.26C164.437 26.8467 164.337 26.5333 164.137 26.32C163.95 26.1067 163.67 25.94 163.297 25.82C162.923 25.6867 162.47 25.5733 161.937 25.48C161.497 25.4 161.063 25.2933 160.637 25.16C160.21 25.0267 159.83 24.8533 159.497 24.64C159.163 24.4133 158.897 24.14 158.697 23.82C158.51 23.5 158.417 23.1067 158.417 22.64C158.417 22.0667 158.563 21.56 158.857 21.12C159.163 20.6667 159.59 20.3133 160.137 20.06C160.683 19.8067 161.323 19.68 162.057 19.68C163.137 19.68 164.01 19.94 164.677 20.46C165.343 20.98 165.737 21.7333 165.857 22.72H164.197C164.13 22.2133 163.91 21.82 163.537 21.54C163.177 21.2467 162.677 21.1 162.037 21.1C161.41 21.1 160.93 21.2267 160.597 21.48C160.277 21.7333 160.117 22.0667 160.117 22.48C160.117 22.7467 160.203 22.9867 160.377 23.2C160.563 23.4 160.837 23.5733 161.197 23.72C161.557 23.8667 161.99 23.9867 162.497 24.08C163.163 24.2 163.77 24.36 164.317 24.56C164.863 24.76 165.303 25.06 165.637 25.46C165.983 25.8467 166.157 26.4 166.157 27.12C166.157 27.7467 165.997 28.2933 165.677 28.76C165.37 29.2267 164.93 29.5933 164.357 29.86C163.783 30.1133 163.11 30.24 162.337 30.24Z" fill="white"/>
</svg>
