<svg width="40" height="40" viewBox="0 0 40 40" fill="none" xmlns="http://www.w3.org/2000/svg">
<rect width="40" height="40" rx="20" fill="#FEF4EB"/>
<path d="M29.9716 20.0605C29.9716 14.5514 25.4964 10.0853 19.976 10.0853C14.4556 10.0853 9.98047 14.5514 9.98047 20.0605C9.98047 25.0394 13.6357 29.1661 18.4142 29.9144V22.9439H15.8763V20.0605H18.4142V17.8628C18.4142 15.3628 19.9065 13.9819 22.1897 13.9819C23.2833 13.9819 24.4272 14.1767 24.4272 14.1767V16.6315H23.1668C21.9251 16.6315 21.5379 17.4004 21.5379 18.1893V20.0605H24.3101L23.8669 22.9439H21.5379V29.9144C26.3164 29.1661 29.9716 25.0394 29.9716 20.0605Z" fill="#58231B"/>
</svg>
