<svg width="160" height="160" viewBox="0 0 160 160" fill="none" xmlns="http://www.w3.org/2000/svg">
<g clip-path="url(#clip0_242_5475)">
<rect width="160" height="160" rx="80" fill="#52BC49" fill-opacity="0.08"/>
<g clip-path="url(#clip1_242_5475)">
<path d="M96.3185 121.845C98.8241 126.122 93.6252 126.918 90.5787 127.327C85.0045 128.078 79.2205 127.957 73.5911 127.946C72.7854 127.946 71.7809 128.067 71.0634 127.791C70.666 127.791 70.2687 127.78 69.8713 127.791C69.3304 127.802 68.7785 127.758 68.2377 127.791C67.2222 127.857 67.2884 127.89 66.4606 128.388C66.6924 128.421 67.2222 128.929 67.3546 129.095C69.7389 131.924 72.2886 135.129 74.5404 138.069C75.2579 139.009 77.2668 141.473 77.6311 142.413C77.7525 142.7 77.8297 142.733 77.5207 142.965L66.008 128.686C65.5223 129.029 65.2353 129.371 64.8159 129.725L64.6724 129.869C64.5289 130.001 64.3081 130.112 64.0763 130.311C63.8997 130.465 63.8004 130.709 63.4803 130.753C63.3589 130.874 63.1602 131.084 63.0388 131.195L62.8953 131.339C62.8732 131.361 62.7738 131.316 62.7518 131.339L62.6083 131.493C62.4758 131.615 62.1999 131.714 62.1667 131.935C62.1005 132.311 62.531 132.587 62.4648 132.974C62.4317 133.007 61.4934 132.709 61.4272 132.676C60.7097 133.217 60.2241 134.378 59.1975 133.571C58.7118 134.046 58.1268 134.444 57.6301 134.897C53.3253 138.777 47.74 143.805 42.8612 146.657C42.8833 148.856 42.8722 151.088 42.806 153.354C42.2431 172.728 38.2583 190.069 32.938 204.978H124.587C118.196 182.763 112.081 160.372 106.264 137.815C106.209 137.594 106.032 136.92 105.977 136.688L105.822 136.544C105.789 136.467 105.855 136.323 105.822 136.246L105.679 136.091C105.557 135.77 105.48 135.439 105.381 135.196C105.127 135.207 105.039 135.251 105.083 134.975L105.226 134.897C104.807 133.151 103.946 130.499 102.08 127.714C100.105 124.774 97.8196 122.895 96.3185 121.845ZM94.1881 154.901C94.3206 155.122 94.3427 155.432 94.5082 155.697C94.8394 156.239 96.4509 158.604 96.473 158.946C96.5172 159.709 96.0094 159.455 95.6672 159.002C94.718 157.731 93.7356 155.686 92.8194 154.26C87.5984 146.093 81.8476 138.257 75.8429 130.653C75.3351 130.068 76.1961 129.802 76.5273 130.2C76.6266 130.311 76.6266 130.664 76.7922 130.897C77.0902 131.305 77.5428 131.703 77.907 132.156C83.6026 139.296 89.4087 147.143 94.1881 154.901Z" fill="#386742"/>
<path d="M17.2965 105.775C22.5064 107.455 27.904 108.571 33.1581 110.052L41.6574 111.732C41.6133 111.81 41.3484 113.092 41.2159 113.445C40.1011 116.33 38.8648 119.192 37.9486 122.143C37.9266 122.154 37.7389 122.353 37.5513 122.408C34.6262 123.359 31.5797 124.508 28.6988 125.602C28.0144 125.868 23.3012 127.581 23.2349 127.868C23.1908 128.056 23.4115 128.189 23.5219 128.31L38.1915 122.917C38.4674 122.895 38.4895 122.475 38.5226 122.442C38.6661 122.32 41.4698 121.447 42.0106 121.248C43.9865 120.519 45.9733 119.833 47.9602 119.148C48.0595 119.214 48.192 119.203 48.2803 119.126C48.2913 119.115 48.3134 119.104 48.3244 119.093C48.3134 119.314 48.3575 119.524 48.4458 119.734C50.4879 124.984 54.8369 130.189 59.1748 133.604C58.6891 134.079 58.1041 134.488 57.6074 134.941C53.3026 138.821 47.7173 143.849 42.8385 146.701C33.3347 152.238 21.0494 156.636 13.6649 145.198C5.66236 132.786 12.5943 117.988 17.2965 105.775Z" fill="#FBC5A9"/>
<path d="M125.425 96.4145C126.628 97.4975 129.013 100.36 130.183 101.023C130.26 101.067 130.558 100.957 130.712 101.167C130.845 101.355 130.735 101.653 130.779 101.764C130.801 101.819 131.54 102.371 131.684 102.581C131.938 102.957 131.397 104.04 131.209 104.504C129.598 108.34 126.33 112.484 122.765 114.65C122.6 114.75 122.478 115.004 122.467 115.004L128.527 131.173L128.328 131.659L127.776 131.317C126.11 126.73 124.355 122.166 122.6 117.612C122.445 117.225 122.003 115.479 121.86 115.302C121.849 115.28 121.551 115.269 121.407 115.092C121.187 114.805 121.176 114.462 120.822 114.263C120.745 114.219 120.447 114.319 120.293 114.12C120.105 113.865 120.381 113.689 120.381 113.667C120.37 112.992 119.41 111.854 119.034 111.213C118.946 111.047 118.902 110.716 118.88 110.705C118.758 110.605 118.217 110.826 117.964 110.804C116.551 110.683 115.789 109.622 115.37 109.522C115.083 109.456 113.637 109.721 113.018 109.644C111.495 109.478 110.491 108.395 109.674 107.267C109.63 107.201 109.431 107.466 109.376 106.969C109.365 106.892 109.354 106.715 109.376 106.671L107.003 106.074C106.517 106.748 105.844 107.245 105.292 107.853C104.773 108.417 104.309 109.378 103.581 109.644C103.669 109.71 104.022 110.008 104.287 110.196C105.193 110.837 107.61 112.429 107.919 113.401C108.217 114.297 107.775 117.048 107.444 117.966C107.963 118.132 108.427 118.684 108.78 119.082C112.191 122.74 115.623 126.421 119.244 129.869C125.977 136.29 136.397 146.049 145.768 138.125C152.579 132.366 152.104 122.994 147.888 116.076C144.168 109.964 138.991 104.361 134.245 98.9343C132.688 97.1549 131.176 95.3203 129.565 93.5741L125.425 96.4145Z" fill="#FBC5A9"/>
<path d="M16.9991 99.2327L44.1858 105.632C44.815 103.93 45.4662 101.432 46.2499 99.8958C46.3272 99.7411 46.1726 99.6195 46.559 99.6858C48.0602 103.985 49.4951 108.516 51.3605 112.661C51.4599 112.882 51.3826 113.147 51.7579 113.07C51.6917 108.66 51.0846 104.007 51.0184 99.5311C47.6738 97.9064 45.5324 95.044 44.9254 91.3526C44.9033 91.22 44.9254 91.209 44.9254 91.1979C44.815 90.358 44.7267 89.518 44.7819 88.667C44.9916 88.667 45.3227 88.6117 45.4552 88.8107C45.5324 88.9323 45.6318 91.1316 45.7311 91.651C46.4044 94.9887 48.1926 96.7902 50.8638 98.6359C50.9521 97.0223 50.6651 95.2982 51.0073 93.7288C51.0184 92.5904 51.1287 91.4521 51.1619 90.3027C50.9852 90.148 50.9852 90.0043 51.1619 89.8606C51.1729 89.6175 51.1508 89.3633 51.1619 89.1201C50.9852 88.9765 50.9852 88.8217 51.1619 88.6781C51.2391 86.6887 51.9124 82.1463 51.6034 80.4996C51.5703 80.3338 51.1729 80.0686 51.3053 79.7591C51.4488 79.7591 51.6034 79.7591 51.7469 79.7591C51.7248 79.5712 51.78 79.3281 51.7469 79.1623C51.7358 79.1292 51.6144 79.0739 51.6034 79.0186C51.5923 78.9744 51.6144 78.9192 51.6034 78.8639C51.4047 78.1234 51.6806 78.4881 51.7469 78.2671C52.078 77.1398 52.0228 73.5258 52.1884 72.0227C52.1884 72.0117 52.1774 72.0227 52.1884 71.8791C52.2546 71.3486 52.4091 70.6744 52.4864 70.0887C52.4864 70.0666 52.4533 70.0334 52.4864 69.7903C52.6961 68.3093 52.961 66.8062 53.226 65.3253C53.248 65.2037 53.3695 65.1816 53.3695 65.1816C53.3915 65.049 53.3474 64.8721 53.3695 64.7395C53.3695 64.7174 53.3143 64.7285 53.3695 64.4411C53.3915 64.3306 53.4798 64.1759 53.513 63.999C53.513 63.9769 53.4578 63.988 53.513 63.7006C53.6785 62.8607 53.8882 61.8439 54.109 61.026C54.1311 60.9597 54.1973 60.9045 54.2635 60.8713C54.2967 60.6834 54.2415 60.4624 54.2635 60.2745C54.1421 60.2082 54.1532 60.0314 54.109 59.9761C53.6785 59.3793 53.1045 59.3683 52.6299 58.9372C51.5371 59.4456 50.334 59.6114 49.175 60.0203C41.8789 62.5844 36.1501 69.735 31.6245 75.7694C26.0172 83.2626 21.4805 91.0211 16.9991 99.2327Z" fill="#FECE07"/>
<path d="M54.7265 14.0109C54.5279 14.0109 54.3292 13.9999 54.1305 14.0109C53.8435 14.022 53.5013 13.9667 53.2364 14.0109L53.0929 14.1657C52.0995 14.3756 51.0067 14.8951 50.2009 15.5029C48.6998 16.6192 48.1147 18.6196 48.49 20.41L48.6335 20.5537C48.9757 21.8136 49.3731 22.6094 50.1237 23.6814L50.4217 23.9798C51.0177 24.7534 51.3158 25.096 52.0553 25.7702L52.3534 26.0686C52.4858 26.1791 52.6624 26.2565 52.7949 26.367L53.0929 26.6654C55.0135 28.0469 57.3757 28.92 59.7709 28.7542C58.921 30.2794 58.7554 32.1472 58.8879 33.8824C58.9541 34.7665 59.3294 35.8385 59.3404 36.7117C59.3625 38.8226 57.7289 41.2651 56.5037 42.8786C56.3271 43.1107 56.1946 43.3539 55.9076 43.4755C55.7089 43.7186 55.5213 43.9838 55.3116 44.2159L55.0135 44.5143C54.859 44.7022 54.7265 44.9233 54.572 45.1111L54.1305 45.5532C54.1084 45.5864 54.1526 45.6748 54.1305 45.6969L53.987 45.8406C52.254 48.1615 51.0509 49.764 50.4217 52.6817L50.2672 52.8254C50.0906 53.7759 50.0133 55.0026 50.2672 55.9531L50.4217 56.0968C50.6314 56.6825 50.6425 56.6715 51.0178 57.1357C51.1833 57.3346 51.5586 57.4893 51.6138 57.8762C51.7242 57.9867 51.7794 58.064 51.9118 58.1746C52.1326 58.2961 52.3202 58.4509 52.5079 58.6166C52.5741 58.6829 52.5962 58.8598 52.6624 58.915C53.1371 59.3461 53.711 59.3571 54.1526 59.9539C54.2519 59.965 54.3623 59.9318 54.4506 59.9539C54.7928 60.0423 55.5544 60.3297 55.6427 60.6944H56.6803C57.3646 60.6944 58.0821 60.7386 58.7554 60.6944C59.7047 60.6391 60.5105 60.4844 61.4266 60.2523C61.6143 60.4513 60.7202 64.9163 60.676 65.6899C60.665 65.933 60.6209 66.4083 60.9189 66.4967C61.3494 66.6293 66.8573 63.1258 67.6631 62.6396C67.4755 62.3301 67.6411 62.5069 67.3651 62.1975L61.5701 65.3252L62.2655 59.8545C62.3318 59.6997 64.0647 58.7603 64.3959 58.484C67.5969 55.8094 68.9215 51.4771 69.2968 47.4763C69.3188 47.211 69.4403 47.2 69.4403 47.1779C69.4623 46.9347 69.4292 46.6805 69.4403 46.4374C69.4403 46.349 69.4403 46.0285 69.4403 45.8406C69.4623 45.0006 69.4292 44.1496 69.4403 43.3097C68.8994 43.1771 68.9546 42.2155 68.8442 41.9724C68.8111 41.895 68.1046 41.1988 67.928 40.8893C67.1112 39.4304 67.1443 37.839 68.2592 36.5459C69.661 34.9212 70.7538 35.6949 72.4205 35.3633C74.5619 34.9323 78.9109 30.9867 79.9595 29.0858C80.1803 28.6769 80.0589 28.058 80.5556 28.6879C81.8912 30.401 82.3217 32.6224 83.8449 34.5344C85.6551 29.3842 81.8029 24.1235 76.4936 23.6814C76.2397 23.6593 75.9858 23.8582 75.6436 23.803C75.2132 23.7367 73.6126 22.8525 72.9393 22.6315C70.9635 22.0015 69.0098 21.7362 66.9677 22.1783C66.6476 22.2446 67.0229 22.3109 66.4048 22.3441C66.3717 22.3441 66.2944 22.5209 65.8639 22.6315C65.7756 22.6536 65.6432 22.8635 65.4224 22.7751C65.4114 22.6757 65.4445 22.5651 65.4224 22.4767C64.9036 20.2553 63.4797 18.5091 61.8571 16.9729L61.2611 16.6744C61.239 16.6634 61.2831 16.5418 61.2611 16.5308L60.665 16.2324C59.1638 15.293 58.049 14.5193 56.2056 14.1546C56.029 14.1214 55.7862 14.0109 55.7641 13.9999C55.444 13.9778 55.0577 14.022 54.7265 14.0109Z" fill="#232323"/>
<path d="M83.6905 58.1858C84.132 59.4678 84.7722 60.6283 85.2468 61.9103C85.9643 63.8886 86.4169 66.0216 87.0571 67.9668C88.1057 71.1497 89.4523 74.2553 90.225 77.5267C90.9425 77.6041 90.81 77.6151 90.6665 78.1235C90.5892 78.4219 90.4347 78.6651 90.512 79.0187C91.0308 79.0077 90.8873 79.3282 90.9535 79.6155C92.267 84.5779 93.713 88.8881 94.6623 94.0384C95.2583 93.4415 95.8213 92.7011 96.2297 91.9606C96.7154 91.0875 97.0907 89.8055 97.179 88.7555C97.2562 87.9266 96.7485 86.0699 97.9185 86.302C97.9075 87.4293 97.9627 88.6118 97.775 89.7281C97.7309 89.9712 97.6536 90.0596 97.6205 90.1702C97.1569 92.049 96.2076 93.5079 94.9493 94.9336C94.9603 95.022 94.9382 95.1325 94.9493 95.232C94.9603 95.2762 94.9382 95.3314 94.9493 95.3756C95.0376 95.873 95.2363 96.5471 95.2473 97.0113C95.5895 97.0666 95.6999 96.9008 95.9206 96.724C98.0179 94.9888 99.5963 92.4579 102.179 90.9438C104.563 89.5402 111.341 87.7498 113.957 88.4682C115.535 88.8992 119.134 91.2312 120.491 92.259L127.92 87.794C115.866 75.3826 101.694 60.9156 83.6905 58.1858Z" fill="#FEC30E"/>
<path d="M81.9129 57.8874C80.0916 57.6553 78.2372 57.5558 76.4159 57.2906L78.458 64.9938L78.3365 66.0658L71.217 62.6508C70.8527 62.6287 69.7931 63.7781 69.7269 64.1428C69.4951 65.3695 69.8262 66.8616 69.8704 68.0883C69.9476 70.3208 70.058 72.5423 70.1574 74.7637C70.7644 75.2721 72.2104 74.5537 72.1 75.6037H68.1595C68.016 75.6037 67.7731 75.1395 68.0822 74.9295C68.3581 74.7416 69.0646 74.9184 69.4178 74.8632C69.2302 72.4539 69.2412 70.0556 69.1198 67.6462C69.0646 66.6074 69.0977 65.0822 68.9763 64.1538C68.888 63.5239 68.4023 63.2365 68.0049 62.8055C67.8945 62.6839 67.6407 62.6839 67.6407 62.6618C66.8459 63.1481 61.338 66.6516 60.8964 66.5189C60.5984 66.4305 60.6426 65.9664 60.6536 65.7122C60.6977 64.9385 61.5918 60.4735 61.3931 60.2746C60.477 60.5067 59.6712 60.6614 58.7219 60.7167C58.2252 60.9598 57.1766 60.9709 56.6468 60.7167H55.6092L55.3112 65.3916C55.2891 68.2983 55.3001 71.205 55.4657 74.1006C55.7085 74.2443 55.7085 74.8411 55.4657 74.9958C55.5099 75.6368 55.6313 78.024 55.7637 78.4109C55.7858 78.4661 56.1059 78.4993 56.0618 79.0077C56.0397 79.2287 55.7969 79.5713 55.9072 79.9029C55.9183 79.936 56.3488 80.1681 56.2053 80.4997C66.0512 80.1902 76.4159 79.5382 86.2067 79.6045C86.2067 79.4608 86.2067 79.3061 86.2067 79.1624C86.2177 78.3114 85.9749 78.4772 85.9086 78.2672C85.8203 77.9688 86.0632 77.7146 86.0521 77.6704C85.9969 75.3605 84.8821 71.9234 84.4627 69.5251C83.7893 65.7011 83.3589 61.8329 82.4868 58.0421C82.3434 58.02 82.1557 57.9205 81.9129 57.8874Z" fill="#FEC30E"/>
<path d="M83.8337 34.5343C82.2995 32.6223 81.88 30.4008 80.5444 28.6878C80.0477 28.0578 80.1802 28.6767 79.9484 29.0856C78.8997 30.9866 74.5397 34.9321 72.4094 35.3632C70.7316 35.7058 69.6388 34.9321 68.248 36.5457C67.1332 37.8278 67.1001 39.4192 67.9169 40.8891C68.0935 41.1986 68.7999 41.8949 68.833 41.9722C69.0538 41.718 69.3629 41.5744 69.6167 41.3754C69.7602 41.2649 69.7051 41.0881 69.7271 41.077C68.1266 40.2923 68.7227 36.5126 70.5439 36.7668C70.842 37.2199 70.1907 37.3857 69.8927 37.7504C68.8993 39.0103 69.7602 39.795 70.0141 41.077C71.5153 41.4196 71.2724 43.7627 69.4181 43.3095C69.407 44.1495 69.4401 45.0005 69.4181 45.8404V46.4372C69.407 46.6804 69.4401 46.9346 69.4181 47.1777L69.2746 47.4761C68.8993 51.4769 67.5747 55.7982 64.3737 58.4839C64.6607 59.4896 65.8307 60.219 66.5261 61.0037C66.8241 61.3353 67.1221 61.9431 67.3429 62.1973C67.6189 62.5178 67.4533 62.3299 67.6409 62.6394C67.652 62.6505 67.8948 62.6615 68.0052 62.7831C68.4026 63.2031 68.8882 63.5015 68.9765 64.1204H69.7161C69.7823 63.7667 70.842 62.6173 71.2062 62.6284C71.0958 62.2636 71.427 62.1531 71.5043 62.0315C72.1886 60.9153 74.7936 58.1634 74.926 57.1245C75.0364 56.2293 74.8709 55.1462 74.915 54.2178C74.9481 53.5989 75.3565 50.2612 75.202 50.007C74.6501 49.8412 71.3939 48.7029 71.5153 48.1282C71.6477 47.4982 72.6522 48.2829 72.895 48.3824C74.9702 49.2334 76.4493 50.0623 78.7894 49.9849C79.8821 49.9518 82.4871 49.6423 83.326 48.946C83.6351 48.6918 84.9817 47.1777 85.1031 46.8683C85.5226 45.7741 85.8427 43.2543 85.3239 42.2154C85.2356 42.0385 85.0369 42.1159 85.0369 42.1049C84.4077 42.9338 81.8911 41.917 81.7696 41.1433C81.7255 40.8449 81.9131 40.8781 82.1339 40.9223C82.9507 41.1102 83.8448 42.0717 85.0369 41.6628C85.0259 41.276 85.1252 40.7123 85.0369 40.2813C85.0259 40.226 84.3967 39.7287 84.5954 39.2866C88.9002 38.5682 85.3901 36.5236 84.0655 34.9763C83.9 34.8106 83.8889 34.6006 83.8337 34.5343ZM81.2619 31.0197C81.6372 31.3845 81.7365 31.915 81.4716 32.3902C81.0853 33.0644 79.2861 34.1032 78.7783 34.899C78.1271 35.4074 77.3875 34.5674 77.233 33.9485C76.7473 32.147 79.838 29.6161 81.2619 31.0197ZM82.3547 34.8327C82.5644 34.7885 82.7962 34.9542 82.8734 35.1311C83.5357 36.5568 80.1912 37.662 79.6834 36.391C79.562 36.0815 79.8821 36.181 80.0477 36.17C81.2177 36.0926 82.0787 36.3578 82.3547 34.8327Z" fill="#FBC5A9"/>
<path d="M96.163 105.035C96.1409 105.157 95.876 105.333 96.0416 105.61L105.424 111.909C106.406 112.561 107.985 113.943 106.263 114.783C105.038 115.391 101.329 115.755 99.7283 116.12C94.706 117.247 90.0369 119.104 85.1691 120.287C84.0764 120.552 83.4693 120.817 82.3544 120.43C81.063 119.988 79.5508 117.988 78.4911 117.015C77.1334 115.766 75.7095 114.584 74.3298 113.379C73.6344 113.921 71.791 114.705 70.908 115.159L70.7645 115.755C70.93 115.8 71.0404 115.822 71.206 115.91C71.2612 115.932 71.3053 116.021 71.3495 116.054C71.8462 116.385 72.2325 116.861 72.6851 117.247C72.8838 117.413 72.961 117.524 72.9831 117.546C73.7337 118.187 74.7271 118.784 75.3563 119.624C75.7316 119.59 75.7868 119.922 75.9524 120.066C76.9127 120.95 77.8178 121.867 78.7781 122.74C78.8995 122.851 78.9878 122.961 79.0761 123.039C79.4073 123.337 79.617 123.503 79.9702 123.779C80.0254 123.823 80.0695 123.89 80.1247 123.923C80.4338 124.155 80.6877 124.321 81.0188 124.52C81.085 124.553 81.1292 124.641 81.1734 124.663C81.2065 124.685 81.2837 124.641 81.3168 124.663C81.3831 124.696 81.4272 124.752 81.4603 124.818C83.7342 125.713 85.7652 124.796 88.028 124.177C90.1142 123.613 92.1562 122.862 94.2314 122.287C94.5073 122.21 94.7612 122.199 94.9709 122.143C95.4676 122.011 95.876 121.955 96.3065 121.845C97.3441 121.58 98.3817 121.348 99.4303 121.104C101.307 120.651 104.166 120.209 105.854 119.579C106.66 119.281 107.157 118.773 107.444 117.977C107.786 117.059 108.217 114.308 107.919 113.412C107.598 112.451 105.181 110.859 104.287 110.207C104.022 110.019 103.669 109.71 103.581 109.655C102.024 108.561 100.159 107.367 98.5252 106.383C98.47 106.35 98.2492 106.394 98.0947 106.295C97.4545 105.897 96.8695 105.367 96.163 105.035Z" fill="#F39E4E"/>
<path d="M16.7009 99.8295C16.6788 99.8737 16.4029 100.006 16.2815 100.227C15.6413 101.41 14.5706 103.134 14.107 104.306C14.0518 104.46 13.9966 104.571 14.0297 104.748C14.99 104.98 15.9614 105.223 16.8996 105.532C17.1093 105.599 17.2528 105.775 17.297 105.798C22.5069 107.477 27.9045 108.594 33.1586 110.075L41.658 111.755C41.669 111.732 41.9229 111.766 42.0774 111.511C42.7618 110.329 43.1591 107.488 43.7441 106.405L16.7009 99.8295Z" fill="#FEC30E"/>
<path d="M78.789 50.0072C76.4379 50.0736 74.9699 49.2557 72.8947 48.4047C72.6519 48.3052 71.6364 47.5316 71.515 48.1505C71.3935 48.7252 74.6498 49.8525 75.2017 50.0293C75.3672 50.2835 74.9588 53.6212 74.9147 54.2401C74.8595 55.1685 75.0251 56.2516 74.9257 57.1468C75.2017 57.1468 75.6984 57.1468 75.8198 57.401L77.5969 65.0268L71.5039 62.0539C71.4267 62.1754 71.0955 62.2749 71.2059 62.6507L78.3254 66.0657L78.4468 64.9937L76.4048 57.2905C78.2261 57.5447 80.0805 57.6441 81.9018 57.8873C81.8576 57.622 81.957 57.2352 81.9018 56.9921L81.7472 56.8373C81.1843 54.4943 80.2792 52.6044 79.076 50.6261C78.9656 50.4383 78.8994 50.2062 78.789 50.0072Z" fill="#232323"/>
<path d="M82.498 58.0419C83.37 61.8217 83.8005 65.7009 84.4738 69.5249C84.8932 71.9232 86.0081 75.3604 86.0633 77.6702C87.3768 77.8802 88.9773 77.3939 90.2246 77.5265C89.4519 74.2552 88.1053 71.1496 87.0567 67.9666C86.4165 66.0325 85.9639 63.8884 85.2465 61.9101C84.7829 60.6391 84.1316 59.4676 83.6901 58.1856C83.2927 58.1303 82.8953 58.0972 82.498 58.0419Z" fill="white"/>
<path d="M120.823 92.69C122.368 93.8836 123.968 95.1104 125.425 96.4035L129.587 93.5742C129.741 93.0326 132.037 91.9274 131.96 91.5738C131.905 91.3417 128.991 88.6671 128.549 88.214L120.823 92.69Z" fill="#FEC30E"/>
<path d="M16.9982 99.2327C16.8767 99.4537 16.7884 99.6637 16.7001 99.8295L43.7323 106.372C43.7875 106.284 43.9531 106.229 44.1738 105.632L16.9982 99.2327Z" fill="#232323"/>
<path d="M127.953 87.783L120.524 92.248C120.546 92.259 120.546 92.4801 120.822 92.6901L128.549 88.2251C128.383 88.0593 127.997 87.8272 127.953 87.783Z" fill="#232323"/>
<path d="M85.0264 41.674C83.8343 42.0829 82.9402 41.1214 82.1234 40.9335C81.9026 40.8783 81.7039 40.8451 81.7591 41.1546C81.8916 41.9392 84.4082 42.945 85.0264 42.1161C85.0043 42.094 85.0264 41.7956 85.0264 41.674Z" fill="#232323"/>
<path d="M105.226 134.931L105.083 135.008C105.028 135.284 105.127 135.24 105.381 135.229C105.326 135.107 105.259 135.008 105.226 134.931Z" fill="#F9C5DA"/>
<path d="M81.9131 56.9923C81.8799 56.8704 81.7693 56.8483 81.7693 56.8483L81.9131 56.9923Z" fill="#F9C5DA"/>
<path d="M50.4219 56.1083L50.2781 55.9643C50.2891 56.0529 50.4108 56.0862 50.4219 56.1083Z" fill="#41815F"/>
<path d="M105.821 136.268C105.777 136.157 105.677 136.124 105.677 136.113L105.821 136.268Z" fill="#F9C5DA"/>
<path d="M105.977 136.71C105.954 136.644 105.844 136.599 105.833 136.566L105.977 136.71Z" fill="#F9C5DA"/>
<path d="M71.0634 107.566C70.2797 107.743 68.4254 108.13 67.7962 108.461C67.6858 108.527 68.1163 108.671 67.2001 108.76H67.0566C66.9683 108.771 66.8469 108.737 66.7586 108.76L66.6041 108.903C66.5599 108.914 66.4937 108.892 66.4495 108.903L66.1625 109.047C66.1184 109.058 66.0522 109.036 66.0191 109.047C66.0522 109.367 66.0411 109.378 65.721 109.345C65.6217 109.423 63.8004 109.909 63.3478 110.086C63.0829 110.185 62.7518 110.417 62.4538 110.528C60.7649 111.18 59.9481 111.301 58.2924 112.318C58.182 112.595 57.9282 112.65 57.6964 112.76C57.6522 112.782 57.586 112.738 57.5529 112.76C57.3652 113.114 56.9789 113.302 56.6588 113.501C56.6257 113.523 56.5484 113.479 56.5043 113.501L56.3608 113.645C55.279 114.352 54.098 115.137 53.0935 115.877C53.0714 115.899 52.9721 116.087 52.652 116.319C52.089 116.728 51.0294 117.745 50.4223 117.955C52.1222 121.712 54.6609 125.083 57.4756 128.067C58.458 129.106 60.2572 130.963 61.4052 131.714C61.6701 131.891 61.8246 131.991 62.1557 131.924C62.1889 131.703 62.4758 131.604 62.5973 131.482C62.6525 131.438 62.6966 131.383 62.7408 131.339C62.7628 131.317 62.8622 131.361 62.8953 131.339C62.9394 131.283 62.9946 131.239 63.0388 131.184C63.1602 131.073 63.3699 130.863 63.4803 130.742C63.5796 130.642 63.4913 130.156 64.0764 130.3C64.3082 130.101 64.5289 129.979 64.6724 129.858C64.7276 129.814 64.7718 129.758 64.8159 129.714C65.2243 129.36 65.5113 129.018 66.008 128.675C66.1625 128.565 66.284 128.476 66.4495 128.377C67.2774 127.879 67.2222 127.846 68.2377 127.78C68.613 127.526 69.5292 127.537 69.8713 127.78C70.2687 127.769 70.6661 127.78 71.0634 127.78C71.0745 127.78 71.1407 127.681 71.2511 127.681C71.9134 127.681 72.9399 127.758 73.5912 127.924C79.2206 127.935 85.0045 128.067 90.5787 127.305C93.6252 126.896 98.8241 126.1 96.3185 121.823C95.888 121.933 95.4796 121.989 94.9829 122.121C95.9984 123.116 96.5172 124.21 95.2036 125.238C92.4221 127.426 80.3906 126.631 76.6487 126.266C76.3617 126.233 75.7767 126.188 75.9643 125.769C76.0526 125.57 76.2734 125.536 76.4721 125.536C77.9622 125.547 79.8166 125.934 81.373 126.001C84.1656 126.1 92.4662 126.277 94.6297 124.829C95.1816 124.464 95.3803 124.177 95.1595 123.503C94.9387 122.851 94.3979 122.807 94.2323 122.276C92.1571 122.851 90.1151 123.602 88.0289 124.166C85.7661 124.774 83.7351 125.702 81.4613 124.807C81.4061 124.785 81.3509 124.719 81.3067 124.663C81.2626 124.641 81.1964 124.685 81.1633 124.663L81.0198 124.52C80.6886 124.321 80.4347 124.155 80.1257 123.923L79.9711 123.779C79.6179 123.503 79.4082 123.337 79.0771 123.039L78.779 122.74C77.8187 121.867 76.9136 120.939 75.9533 120.066C75.3572 120.176 75.4787 119.778 75.3572 119.624C74.7281 118.784 73.7236 118.187 72.9841 117.546C72.675 117.59 72.6419 117.557 72.686 117.247C72.2335 116.872 71.8361 116.396 71.3504 116.054L71.2069 115.91C71.0414 115.822 70.9199 115.811 70.7654 115.755C70.6881 115.733 70.5557 115.778 70.4674 115.755L68.7234 117.093C67.9728 117.358 67.3657 117.9 66.6041 118.132C66.4827 118.176 66.0853 118.518 66.008 118.132C65.9528 117.855 66.0301 117.723 66.2509 117.557C67.2332 116.794 69.0435 116.198 70.1694 115.612C70.3901 115.49 70.644 115.302 70.9089 115.17C71.7809 114.717 73.6353 113.921 74.3307 113.379C74.408 113.324 75.5228 112.197 75.6663 112.042C76.7039 110.937 77.9291 109.025 76.5383 107.665C75.2469 106.383 72.6529 107.201 71.0634 107.566Z" fill="#FAFCF8"/>
<path d="M48.4574 119.005C48.4684 119.005 48.4794 118.994 48.4905 118.994C48.5015 118.983 48.5236 118.983 48.5457 118.983C48.5898 118.972 48.6229 118.96 48.6671 118.949C48.8216 118.916 48.9651 118.894 49.1196 118.839C49.3845 118.75 49.6163 118.574 49.8371 118.419C49.8923 118.441 49.9475 118.463 49.9696 118.518C51.5039 122.442 57.7845 130.565 61.416 132.687C60.7096 133.229 60.2129 134.389 59.1863 133.582C54.8484 130.167 50.4994 124.951 48.4574 119.712C48.369 119.502 48.3249 119.292 48.3359 119.071C48.369 119.049 48.4022 119.027 48.4574 119.005Z" fill="#FAFCF8"/>
<path d="M94.1879 154.901C89.4084 147.143 83.6024 139.296 77.8958 132.168C77.5315 131.714 77.0789 131.306 76.7809 130.908C76.6153 130.676 76.6153 130.322 76.516 130.211C76.1849 129.825 75.3239 130.079 75.8316 130.665C81.8363 138.279 87.5761 146.104 92.8082 154.272C93.7243 155.697 94.6957 157.731 95.656 159.013C95.9982 159.466 96.5169 159.72 96.4618 158.958C96.4397 158.604 94.8281 156.239 94.497 155.708C94.3424 155.432 94.3204 155.123 94.1879 154.901Z" fill="#232323"/>
<path d="M50.0907 118.264C50.19 118.209 50.2342 118.087 50.2011 117.977C50.2783 117.988 50.3556 117.988 50.4108 117.977C52.1107 121.734 54.6494 125.105 57.4641 128.089C58.4465 129.128 60.2457 130.985 61.3937 131.736C61.6586 131.913 61.8131 132.013 62.1442 131.946C62.078 132.322 62.5085 132.598 62.4423 132.985C62.3981 133.029 61.4709 132.731 61.4047 132.687C57.7732 130.565 51.4925 122.442 49.9582 118.518C49.9362 118.463 49.881 118.43 49.8258 118.419C49.9141 118.374 50.0024 118.319 50.0907 118.264Z" fill="#232323"/>
<path d="M66.4605 128.388C66.2839 128.487 66.1735 128.576 66.019 128.686L77.5316 142.965C77.8297 142.744 77.7524 142.7 77.642 142.413C77.2667 141.484 75.2688 139.009 74.5514 138.069C72.2996 135.129 69.7498 131.924 67.3656 129.095C67.2221 128.929 66.7033 128.421 66.4605 128.388Z" fill="#232323"/>
<path d="M71.0631 127.791C71.7806 128.067 72.785 127.935 73.5908 127.946C72.9396 127.78 71.9241 127.703 71.2508 127.692C71.1404 127.692 71.0741 127.791 71.0631 127.791Z" fill="#F9C5DA"/>
<path d="M68.2482 127.791C68.7891 127.758 69.341 127.802 69.8818 127.791C69.5286 127.548 68.6235 127.537 68.2482 127.791Z" fill="#F9C5DA"/>
<path d="M63.4909 130.764C63.811 130.72 63.9103 130.477 64.0869 130.322C63.5019 130.178 63.5902 130.664 63.4909 130.764Z" fill="#F9C5DA"/>
<path d="M64.682 129.869L64.8369 129.714C64.7705 129.769 64.7263 129.825 64.682 129.869Z" fill="#FBC5A9"/>
<path d="M62.8949 131.361L63.0498 131.217C62.9945 131.261 62.9502 131.305 62.8949 131.361Z" fill="#FBC5A9"/>
<path d="M62.5961 131.505L62.751 131.361C62.6957 131.405 62.6514 131.46 62.5961 131.505Z" fill="#FBC5A9"/>
<path d="M37.9374 122.143C37.9154 122.155 37.7277 122.353 37.5401 122.409C34.615 123.359 31.5685 124.509 28.6876 125.603C28.0032 125.868 23.29 127.581 23.2237 127.879C23.1796 128.067 23.4003 128.2 23.5218 128.322L38.1913 122.928C38.4673 122.906 38.4893 122.475 38.5225 122.453C38.4673 122.177 38.1803 122.077 37.9374 122.143Z" fill="#232323"/>
<path d="M95.2804 97.0001C95.3024 97.9948 94.3642 98.4479 94.5408 99.8294C94.5408 99.8625 94.6733 99.9289 94.6843 99.9731C95.8874 100.868 96.4393 100.658 97.6535 100.05C101.605 98.0721 103.228 94.7676 107.753 93.1319C108.173 92.9219 108.979 92.3693 109.387 92.6898C109.431 92.9882 109.199 93.1098 108.99 93.2645C108.051 93.9387 106.23 94.5244 105.126 95.1986C103.073 96.4475 100.965 98.3263 100.766 100.879C100.932 101.189 101.097 101.741 101.208 101.918C101.373 102.161 102.4 102.913 102.72 103.012C103.173 103.145 104.42 103.045 104.475 103.112C105.27 101.134 107.93 99.7189 109.795 98.8458C110.082 98.7131 111.429 98.039 111.606 98.2047C111.661 98.5474 111.55 98.6689 111.308 98.8679C110.723 99.3431 109.299 99.8073 108.537 100.26C107.146 101.078 105.524 102.172 104.928 103.709C104.994 103.786 105.115 104.482 105.369 104.825C105.877 105.51 106.749 105.455 107.003 106.085L109.376 106.682C109.486 106.372 112.014 105.289 112.5 105.123C112.996 104.946 114.509 104.294 114.045 105.212C112.776 105.389 110.8 106.925 109.674 106.98V107.278C110.48 108.406 111.495 109.489 113.018 109.655C113.637 109.721 115.072 109.456 115.37 109.533C115.789 109.632 116.551 110.693 117.964 110.815C118.217 110.837 118.769 110.616 118.88 110.716C118.902 110.738 118.935 111.069 119.034 111.224C119.41 111.865 120.37 113.003 120.381 113.677C124.951 111.102 127.876 106.461 129.962 101.786C130.072 101.542 130.216 101.332 130.183 101.034C129.013 100.371 126.639 97.4974 125.425 96.4254C123.968 95.1212 122.368 93.8945 120.822 92.7119C120.546 92.5019 120.546 92.2809 120.524 92.2698C119.167 91.242 115.568 88.91 113.99 88.479C111.374 87.7606 104.596 89.5511 102.212 90.9547C99.6293 92.4688 98.0509 94.9997 95.9537 96.7348C95.7329 96.8896 95.6115 97.0553 95.2804 97.0001Z" fill="#FAFCF8"/>
<path d="M97.5103 103.543C97.5545 103.642 97.4993 103.919 97.5876 104.128C97.8966 104.88 98.283 105.598 98.5589 106.361C100.193 107.345 102.047 108.538 103.614 109.632C104.343 109.367 104.806 108.417 105.325 107.842C105.877 107.234 106.55 106.726 107.036 106.063C106.782 105.433 105.91 105.477 105.403 104.803C105.149 104.46 105.027 103.764 104.961 103.686C104.939 103.664 104.707 103.697 104.597 103.532C104.486 103.377 104.53 103.101 104.519 103.09C104.453 103.023 103.217 103.123 102.764 102.99C102.444 102.902 101.418 102.15 101.252 101.896L97.5103 103.543Z" fill="#FEC30E"/>
<path d="M120.822 114.252C121.187 114.451 121.187 114.794 121.407 115.081C121.551 115.258 121.838 115.269 121.86 115.291C121.738 114.772 122.191 115.092 122.456 114.993C122.478 114.982 122.599 114.728 122.754 114.628C126.319 112.462 129.576 108.317 131.198 104.482C131.397 104.018 131.927 102.946 131.673 102.559C131.529 102.349 130.79 101.808 130.768 101.753C129.94 102.99 129.432 104.427 128.715 105.72C126.783 109.202 124.266 112.197 120.822 114.252Z" fill="#FAFCF8"/>
<path d="M122.456 115.004C122.192 115.103 121.75 114.783 121.86 115.302C121.993 115.49 122.445 117.225 122.6 117.612C124.355 122.176 126.099 126.73 127.777 131.316L128.329 131.659L128.527 131.173L122.456 115.004Z" fill="#232323"/>
<path d="M130.183 101.023C130.216 101.311 130.072 101.521 129.962 101.775C127.876 106.461 124.94 111.092 120.381 113.667C120.381 113.7 120.105 113.866 120.304 114.12C120.458 114.319 120.756 114.219 120.833 114.263C124.277 112.208 126.794 109.213 128.726 105.731C129.454 104.438 129.951 103.002 130.779 101.764C130.735 101.653 130.845 101.344 130.712 101.167C130.558 100.957 130.26 101.067 130.183 101.023Z" fill="#232323"/>
<path d="M109.387 106.671C109.365 106.715 109.376 106.892 109.387 106.969C109.487 106.969 109.586 106.969 109.685 106.969C110.811 106.914 112.787 105.378 114.056 105.201C114.52 104.295 113.008 104.947 112.511 105.112C112.025 105.278 109.498 106.372 109.387 106.671Z" fill="#41815F"/>
<path d="M109.388 106.969C109.443 107.466 109.641 107.201 109.686 107.267V106.969C109.586 106.969 109.487 106.969 109.388 106.969Z" fill="#F9C5DA"/>
<path d="M50.1904 117.922C50.1573 117.866 50.1132 117.833 50.058 117.811C50.6982 116.452 51.7799 114.396 51.7689 113.07C51.7027 108.66 51.0956 104.007 51.0293 99.5422C51.0293 99.299 51.0293 99.0448 51.0293 98.8017C51.0073 97.177 51.0183 95.3645 51.0293 93.7399C51.0404 92.6015 51.1508 91.4632 51.1839 90.3138C51.1839 90.1701 51.1839 90.0154 51.1839 89.8717C51.1949 89.6285 51.1728 89.3744 51.1839 89.1312C51.1839 89.0538 51.1839 88.7333 51.1839 88.6891C51.2611 86.6998 51.9345 82.1574 51.6254 80.5107C53.0051 80.4444 54.3408 80.6765 55.7205 80.6654C55.9413 80.6654 56.151 80.5217 56.2283 80.5107C66.0742 80.2012 76.4389 79.5492 86.2297 79.6155C86.3069 79.6155 86.5277 79.7591 86.7374 79.7702C88.1613 79.7812 89.5632 79.7702 90.976 79.6155C92.2896 84.5888 93.7355 88.8991 94.6848 94.0383C94.7621 94.4472 94.9718 94.8451 94.9828 94.9335C94.9939 95.0219 94.9608 95.1435 94.9828 95.2319L94.8393 95.3093L94.9828 95.3866C95.0711 95.884 95.2698 96.5581 95.2809 97.0223C95.3029 98.017 94.3647 98.4701 94.5413 99.8516C93.9342 100.216 93.2388 100.393 92.5765 100.636C92.3227 100.736 92.0026 100.692 91.8701 100.736C90.4572 96.2929 84.5298 98.2933 81.1963 99.0559C79.2426 99.509 77.2226 100.227 75.313 100.437C72.4873 100.758 66.4716 101.377 64.0542 102.559C62.5089 103.322 61.7252 106.649 62.0453 108.207C62.2219 109.047 63.127 109.356 63.3478 110.097C63.0056 110.097 62.6082 110.196 62.4537 110.539C60.7649 111.191 59.9481 111.312 58.2924 112.318C58.0826 112.451 57.7957 112.484 57.6963 112.76C57.6522 112.782 57.5859 112.738 57.5418 112.76C57.2217 112.937 56.8353 113.169 56.6477 113.501C56.6146 113.523 56.5373 113.479 56.4932 113.501C56.4159 113.545 56.3828 113.622 56.3497 113.644C55.2679 114.352 54.0869 115.136 53.0824 115.877C52.5967 115.766 52.3097 115.313 51.7468 115.435C51.6585 115.987 52.1883 116.264 52.6409 116.33C52.0779 116.739 51.0183 117.756 50.4112 117.966C50.356 117.988 50.2787 117.977 50.2015 117.966C50.2015 117.955 50.2015 117.933 50.1904 117.922Z" fill="#386742"/>
<path d="M54.2852 60.2744C54.2632 60.4623 54.3184 60.6834 54.2852 60.8713C54.2742 60.9376 54.208 61.0039 54.1418 61.026C53.921 61.8438 53.7223 62.8606 53.5457 63.7006V63.999C53.5126 64.1868 53.4132 64.3416 53.4022 64.441V64.7394C53.3801 64.8721 53.4243 65.0489 53.4022 65.1815L53.2477 65.3252C52.9828 66.8062 52.7178 68.3092 52.5081 69.7902V70.0886C52.4309 70.6743 52.2763 71.3375 52.2101 71.868V72.0227C52.0445 73.5258 52.0997 77.1397 51.7686 78.267L55.7754 78.4107C55.6429 78.0128 55.5215 75.6256 55.4774 74.9957C55.4553 74.6973 55.4884 74.3989 55.4774 74.1005C55.3118 71.2048 55.3008 68.3092 55.3228 65.3915L55.6319 60.7165C55.5436 60.3518 54.782 60.0645 54.4398 59.976C54.4398 60.0866 54.2852 60.2192 54.2852 60.2744Z" fill="white"/>
<path d="M50.863 98.6358C48.1918 96.8012 46.4037 94.9887 45.7304 91.651C45.631 91.1315 45.5317 88.9211 45.4544 88.8106C45.3109 88.6117 44.9908 88.678 44.7811 88.6669C44.7369 89.5179 44.8252 90.3579 44.9246 91.1978V91.3415C45.5317 95.0329 47.673 97.8953 51.0176 99.52C51.0176 99.2768 51.0176 99.0226 51.0176 98.7795C50.9072 98.7905 50.8962 98.6579 50.863 98.6358Z" fill="#232323"/>
<path d="M51.6028 78.864C51.6139 78.9083 51.5918 78.9635 51.6028 79.0188L51.7574 79.1624C51.7905 79.3282 51.7353 79.5714 51.7574 79.7593C53.093 79.7924 54.5279 80.0356 55.9187 79.9029C55.8083 79.5714 56.0512 79.2288 56.0732 79.0077C54.5831 78.9525 53.0709 79.1514 51.6028 78.864Z" fill="#41815F"/>
<path d="M51.7569 79.7482C51.6134 79.7482 51.4589 79.7482 51.3154 79.7482C51.1829 80.0576 51.5803 80.3339 51.6134 80.4887C52.9931 80.4224 54.3287 80.6544 55.7085 80.6434C55.9293 80.6434 56.139 80.4997 56.2163 80.4887C56.3708 80.1571 55.9293 79.9361 55.9182 79.8919C54.5274 80.0355 53.0925 79.7813 51.7569 79.7482Z" fill="#232323"/>
<path d="M51.7571 78.2671C51.6909 78.4881 51.4039 78.1234 51.6136 78.8639C53.0706 79.1512 54.5939 78.9523 56.073 79.0186C56.1171 78.5102 55.797 78.4771 55.7749 78.4218L51.7571 78.2671Z" fill="#232323"/>
<path d="M50.863 98.6358C50.8962 98.6579 50.9072 98.7795 51.0176 98.7906C50.9955 97.1659 51.0065 95.3534 51.0176 93.7288C50.6644 95.2981 50.9624 97.0333 50.863 98.6358Z" fill="#FBC5A9"/>
<path d="M51.1611 89.12C51.1611 89.0427 51.1611 88.7222 51.1611 88.6779C50.9845 88.8216 50.9845 88.9764 51.1611 89.12Z" fill="#FBC5A9"/>
<path d="M51.1611 90.3138C51.1611 90.1701 51.1611 90.0154 51.1611 89.8717C50.9845 90.0154 50.9845 90.1591 51.1611 90.3138Z" fill="#FBC5A9"/>
<path d="M53.3906 64.7285V64.4301C53.3354 64.7174 53.3906 64.7174 53.3906 64.7285Z" fill="#FBC5A9"/>
<path d="M53.5349 63.9879V63.6895C53.4797 63.9769 53.5459 63.9658 53.5349 63.9879Z" fill="#FBC5A9"/>
<path d="M52.4971 70.0886V69.7902C52.464 70.0334 52.4971 70.0665 52.4971 70.0886Z" fill="#FBC5A9"/>
<path d="M54.1303 61.0153C54.2077 61.0042 54.2741 60.9377 54.2852 60.8713C54.2188 60.8934 54.1524 60.9488 54.1303 61.0153Z" fill="#FBC5A9"/>
<path d="M44.9248 91.3529V91.2089C44.9248 91.2089 44.9027 91.22 44.9248 91.3529Z" fill="#FBC5A9"/>
<path d="M51.7578 79.1625L51.614 79.0185C51.6251 79.0739 51.7467 79.1293 51.7578 79.1625Z" fill="#FBC5A9"/>
<path d="M52.1992 72.023V71.879C52.1882 72.0119 52.1992 72.0119 52.1992 72.023Z" fill="#FBC5A9"/>
<path d="M53.2357 65.3255L53.3906 65.1815C53.3906 65.1926 53.2579 65.2037 53.2357 65.3255Z" fill="#FBC5A9"/>
<path d="M64.3853 58.4841C64.0541 58.7604 62.3211 59.7109 62.2549 59.8546L61.5595 65.3253L67.3545 62.1976C67.1337 61.9434 66.8357 61.3355 66.5377 61.004C65.8423 60.2193 64.6612 59.4899 64.3853 58.4841Z" fill="#FEC30E"/>
<path d="M69.7279 41.0882C69.7169 41.0993 69.761 41.2761 69.6175 41.3866C69.3636 41.5855 69.0435 41.7292 68.8338 41.9834C68.9442 42.2266 68.889 43.1881 69.4299 43.3207C71.2843 43.7738 71.5271 41.4308 70.0259 41.0882C69.9707 41.0661 69.75 41.0771 69.7279 41.0882Z" fill="#FEC30E"/>
<path d="M56.6582 60.7164C57.1881 60.9706 58.2367 60.9596 58.7334 60.7164C58.0601 60.7496 57.3426 60.7164 56.6582 60.7164Z" fill="#41815F"/>
<path d="M69.4297 46.4373V45.8405C69.4297 46.0284 69.4407 46.3489 69.4297 46.4373Z" fill="#41815F"/>
<path d="M69.2859 47.4763L69.4404 47.1779C69.4294 47.2 69.308 47.211 69.2859 47.4763Z" fill="#41815F"/>
<path d="M97.7967 89.717C97.9954 88.6007 97.9402 87.4292 97.9402 86.2909C96.7592 86.0588 97.2669 87.9044 97.2007 88.7444C97.1013 89.7943 96.726 91.0764 96.2404 91.9495C95.832 92.6899 95.269 93.4304 94.673 94.0272C94.7502 94.4362 94.96 94.834 94.971 94.9224C96.2293 93.4967 97.1786 92.0379 97.6422 90.159L97.7967 89.717Z" fill="#232323"/>
<path d="M85.9206 78.2669C85.9869 78.4658 86.2297 78.3111 86.2187 79.1621L90.5235 79.0184C90.4352 78.6647 90.5897 78.4216 90.667 78.1232C89.1548 78.4548 87.477 78.1785 85.9206 78.2669Z" fill="#41815F"/>
<path d="M90.2251 77.5266C88.9778 77.394 87.3883 77.8913 86.0637 77.6813C86.0637 77.7255 85.8209 77.9797 85.9203 78.2781C87.4766 78.1897 89.1544 78.466 90.6776 78.1234C90.8101 77.615 90.9426 77.5929 90.2251 77.5266Z" fill="#232323"/>
<path d="M90.5233 79.0075L86.2185 79.1623C86.2185 79.3059 86.2185 79.4607 86.2185 79.6043C86.2958 79.6043 86.5165 79.748 86.7262 79.7591C88.1501 79.7701 89.552 79.7591 90.9648 79.6043C90.8986 79.317 91.0421 78.9965 90.5233 79.0075Z" fill="#232323"/>
<path d="M97.6541 90.1591C97.6872 90.0486 97.7644 89.9491 97.8086 89.717L97.6541 90.1591Z" fill="#FBC5A9"/>
<path d="M94.9822 95.365C94.9711 95.3207 94.9932 95.2653 94.9822 95.2209L94.8383 95.2985L94.9822 95.365Z" fill="#232323"/>
<path d="M68.9874 64.1315C69.1199 65.071 69.0757 66.5851 69.1309 67.624C69.2524 70.0222 69.2413 72.4316 69.429 74.8409C69.0757 74.8961 68.3583 74.7193 68.0934 74.9072C67.7843 75.1172 68.0271 75.5814 68.1706 75.5814H72.1112C72.2216 74.5425 70.7756 75.2609 70.1685 74.7414C70.0692 72.52 69.9588 70.2985 69.8815 68.066C69.8374 66.8393 69.5062 65.3473 69.738 64.1205H68.9874V64.1315Z" fill="#232323"/>
<path d="M55.4663 74.9957C55.7091 74.841 55.7091 74.2442 55.4663 74.1005C55.4884 74.3989 55.4442 74.6973 55.4663 74.9957Z" fill="#FBC5A9"/>
<path d="M74.9262 57.1467C74.8047 58.1856 72.1887 60.9375 71.5154 62.0538L77.6084 65.0267L75.8313 57.4009C75.6988 57.1467 75.2021 57.1467 74.9262 57.1467Z" fill="#FEC30E"/>
<path d="M69.7276 41.0884C69.7497 41.0773 69.9705 41.0773 70.0257 41.0884C69.7608 39.8063 68.9108 39.0217 69.9043 37.7617C70.1912 37.397 70.8425 37.2312 70.5555 36.7781C68.7232 36.5129 68.1271 40.2926 69.7276 41.0884Z" fill="#232323"/>
<path d="M82.3547 34.8328C82.0788 36.358 81.2178 36.0927 80.0478 36.1701C79.8822 36.1811 79.5621 36.0817 79.6835 36.3911C80.1913 37.6621 83.5358 36.5569 82.8735 35.1312C82.7963 34.9654 82.5645 34.7996 82.3547 34.8328Z" fill="#232323"/>
<path d="M90.0817 104.891C90.5232 105.079 91.1634 105.123 91.5608 105.267C92.1237 105.488 92.5763 106.306 93.6139 106.494C94.0554 106.571 94.3755 106.317 94.7287 106.394C95.1481 106.494 96.0312 107.058 96.0312 107.555C95.9429 107.555 95.7001 107.621 95.6228 107.665C94.9274 108.041 96.0202 108.66 96.0312 107.555C97.3668 107.555 100.491 110.252 100.634 111.644C100.866 113.854 97.6207 115.258 95.7994 115.435C95.1813 115.501 91.9471 115.358 91.7153 115.59C91.627 115.678 92.0023 116.474 90.9316 117.104C89.8499 117.734 88.4481 117.601 87.3001 117.258C85.9424 116.861 84.6179 115.391 83.216 115.766C82.5979 115.932 82.5758 116.595 81.461 116.253C80.0591 115.822 80.2578 114.197 79.3748 113.435C78.3593 112.55 76.5049 113.335 75.677 112.009C75.5335 112.164 74.4187 113.291 74.3414 113.346C75.7212 114.562 77.1451 115.744 78.5028 116.982C79.5624 117.955 81.0857 119.966 82.3661 120.397C83.492 120.784 84.088 120.519 85.1808 120.254C90.0486 119.071 94.7177 117.214 99.74 116.087C101.352 115.722 105.049 115.358 106.274 114.75C107.996 113.91 106.407 112.517 105.436 111.876L96.0533 105.577C95.8877 105.311 96.1526 105.123 96.1747 105.002C96.3182 104.283 96.7818 103.631 96.6162 103.068C96.0864 102.858 95.6117 102.548 95.0819 102.349C93.4041 103.2 91.7484 104.062 90.0817 104.891Z" fill="#E2D6C7"/>
<path d="M94.2321 122.287C94.3976 122.818 94.9385 122.862 95.1592 123.514C95.391 124.188 95.1924 124.464 94.6294 124.84C92.477 126.277 84.1654 126.111 81.3727 126.012C79.8164 125.956 77.962 125.558 76.4718 125.547C76.2732 125.547 76.0413 125.581 75.9641 125.779C75.7764 126.21 76.3615 126.255 76.6484 126.277C80.3793 126.641 92.4108 127.437 95.2034 125.249C96.5169 124.221 95.9871 123.116 94.9826 122.121C94.7729 122.199 94.519 122.21 94.2321 122.287Z" fill="#232323"/>
<path d="M96.6162 103.101C96.7818 103.676 96.3182 104.317 96.1747 105.035C96.8701 105.366 97.4551 105.897 98.1174 106.295C98.2719 106.383 98.4927 106.35 98.5479 106.383C98.2829 105.61 97.8856 104.902 97.5765 104.151C97.4882 103.93 97.5434 103.664 97.4992 103.565C97.2674 102.957 96.7486 103.156 96.6162 103.101Z" fill="#41815F"/>
<path d="M70.1686 115.589C70.2901 115.578 70.4115 115.722 70.4667 115.744C70.555 115.766 70.6874 115.722 70.7647 115.744L70.9082 115.147C70.6433 115.291 70.4004 115.479 70.1686 115.589Z" fill="#F9C5DA"/>
<path d="M75.3678 119.613C75.4892 119.778 75.3678 120.176 75.9639 120.055C75.8093 119.911 75.7431 119.579 75.3678 119.613Z" fill="#F9C5DA"/>
<path d="M72.6961 117.236C72.652 117.546 72.6851 117.579 72.9941 117.535C72.9721 117.513 72.8948 117.402 72.6961 117.236Z" fill="#F9C5DA"/>
<path d="M71.3613 116.043C71.306 116.01 71.2618 115.921 71.2175 115.899L71.3613 116.043Z" fill="#F9C5DA"/>
<path d="M79.0879 123.028C79.0106 122.95 78.9113 122.84 78.7899 122.729L79.0879 123.028Z" fill="#F9C5DA"/>
<path d="M80.125 123.923C80.0697 123.879 80.0365 123.812 79.9812 123.779L80.125 123.923Z" fill="#F9C5DA"/>
<path d="M81.1621 124.664C81.1179 124.641 81.0736 124.553 81.0183 124.52L81.1621 124.664Z" fill="#F9C5DA"/>
<path d="M81.4609 124.818C81.4277 124.763 81.3724 124.696 81.3171 124.663C81.3503 124.719 81.4056 124.796 81.4609 124.818Z" fill="#F9C5DA"/>
<path d="M71.0628 107.566C72.6523 107.212 75.2462 106.394 76.5487 107.654C77.9395 109.014 76.7143 110.926 75.6767 112.031C76.5046 113.357 78.37 112.572 79.3745 113.457C80.2575 114.219 80.0478 115.855 81.4606 116.275C82.5755 116.617 82.5865 115.954 83.2157 115.789C84.6175 115.413 85.9421 116.883 87.2998 117.281C88.4588 117.623 89.8606 117.756 90.9313 117.126C92.002 116.496 91.6377 115.689 91.715 115.612C91.9468 115.38 95.1809 115.523 95.7991 115.457C97.6203 115.28 100.866 113.877 100.634 111.666C100.49 110.274 97.3665 107.577 96.0198 107.577C96.0088 108.671 94.916 108.052 95.6114 107.687C95.6887 107.643 95.9315 107.577 96.0198 107.577C96.0309 107.08 95.1368 106.516 94.7173 106.416C94.3641 106.328 94.044 106.593 93.6025 106.516C92.5649 106.317 92.1234 105.499 91.5494 105.289C91.152 105.134 90.5118 105.09 90.0703 104.913C87.1894 106.328 85.059 107.942 81.7587 106.019C81.262 105.731 80.8867 105.599 81.4606 105.145C82.3989 104.405 85.0811 103.51 86.3174 103.012C86.5161 102.935 86.6265 102.692 86.6485 102.681C86.6265 100.172 84.6065 101.664 83.1605 101.797C82.5424 101.852 81.3834 101.863 80.7763 101.797C80.0478 101.719 79.3193 101.156 78.5797 101.377C78.1934 101.498 77.2772 102.758 76.5818 102.946C75.8423 103.145 74.6833 102.88 73.8334 103.012C71.9127 103.289 69.4071 105.61 71.0628 107.566Z" fill="#E76C25"/>
<path d="M67.796 108.461C68.4252 108.129 70.2795 107.743 71.0632 107.566C69.4075 105.61 71.9021 103.289 73.8448 102.99C74.6948 102.858 75.8538 103.112 76.5933 102.924C77.2887 102.736 78.2049 101.465 78.5912 101.355C79.3418 101.134 80.0593 101.697 80.7878 101.775C81.3949 101.841 82.5539 101.83 83.172 101.775C84.618 101.653 86.6269 100.15 86.66 102.659C87.9294 102.15 89.5961 101.686 90.9648 101.167C90.5454 97.4865 86.1633 98.669 83.6797 99.1553C81.3617 99.6084 78.4367 100.68 76.3174 101.001C72.8956 101.52 69.4075 101.587 66.0409 102.604C64.9702 102.924 63.5795 103.322 63.9658 104.759C64.2528 105.842 67.0785 107.466 67.796 108.461Z" fill="#E2D6C7"/>
<path d="M63.3361 110.097C63.7997 109.92 65.6099 109.434 65.7093 109.356C65.8307 109.268 65.4554 109.257 66.0073 109.058C66.0514 109.047 66.1066 109.069 66.1508 109.058C66.1618 109.058 66.2722 108.958 66.4488 108.903C66.493 108.892 66.5482 108.914 66.6034 108.903C66.6144 108.903 66.6475 108.77 66.7468 108.759C66.8351 108.737 66.9566 108.77 67.0449 108.759C67.1663 108.737 67.1884 108.759 67.1994 108.759C68.1156 108.682 67.6851 108.527 67.7955 108.461C67.078 107.466 64.2522 105.853 63.9653 104.781C63.5789 103.344 64.9808 102.946 66.0404 102.626C69.407 101.609 72.895 101.542 76.3168 101.023C78.4361 100.702 81.3612 99.6194 83.6792 99.1663C86.1517 98.68 90.5449 97.4974 90.9643 101.178C91.3838 101.023 91.7149 100.78 91.8584 100.736C90.4455 96.2928 84.5181 98.2932 81.1956 99.0557C79.2419 99.5089 77.222 100.227 75.3124 100.437C72.4866 100.758 66.4709 101.377 64.0536 102.57C62.5082 103.333 61.7245 106.659 62.0446 108.218C62.2102 109.047 63.1264 109.345 63.3361 110.097Z" fill="#F39E4E"/>
<path d="M70.1688 115.59C69.0318 116.186 67.2326 116.783 66.2503 117.535C66.0295 117.701 65.9633 117.844 66.0074 118.12H66.6035C67.3541 117.877 67.9722 117.336 68.7228 117.071L70.4668 115.733C70.4116 115.733 70.2902 115.59 70.1688 115.59Z" fill="#232323"/>
<path d="M53.0928 115.888C52.6071 115.777 52.3201 115.324 51.7572 115.446C51.6689 115.998 52.1987 116.275 52.6512 116.341C52.9714 116.098 53.0597 115.91 53.0928 115.888Z" fill="#232323"/>
<path d="M66.0182 118.12C66.0844 118.507 66.4928 118.165 66.6143 118.12H66.0182Z" fill="#F9C5DA"/>
<path d="M66.0189 109.047C65.467 109.246 65.8422 109.257 65.7208 109.345C66.0299 109.378 66.052 109.367 66.0189 109.047Z" fill="#F9C5DA"/>
<path d="M62.4536 110.539C62.7516 110.428 63.0827 110.196 63.3477 110.097C62.9944 110.097 62.6081 110.196 62.4536 110.539Z" fill="#F9C5DA"/>
<path d="M56.6587 113.512C56.9788 113.313 57.3651 113.125 57.5527 112.771C57.2216 112.948 56.8353 113.18 56.6587 113.512Z" fill="#F9C5DA"/>
<path d="M66.1619 109.047L66.46 108.903C66.2944 108.958 66.184 109.047 66.1619 109.047Z" fill="#F9C5DA"/>
<path d="M57.6959 112.771C57.9277 112.661 58.1816 112.595 58.292 112.329C58.0823 112.451 57.7953 112.484 57.6959 112.771Z" fill="#F9C5DA"/>
<path d="M67.056 108.749H67.2109C67.1999 108.76 67.1777 108.737 67.056 108.749Z" fill="#F9C5DA"/>
<path d="M66.6029 108.904L66.7578 108.759C66.6582 108.771 66.614 108.904 66.6029 108.904Z" fill="#F9C5DA"/>
<path d="M56.3598 113.667L56.5146 113.523C56.4261 113.556 56.3929 113.645 56.3598 113.667Z" fill="#F9C5DA"/>
<path d="M94.6849 99.9842C94.6739 99.94 94.5414 99.8737 94.5414 99.8405C93.9343 100.216 93.2389 100.382 92.5766 100.625C92.3228 100.725 92.0027 100.68 91.8702 100.736C91.7378 100.791 91.3956 101.023 90.9761 101.178C89.6074 101.686 87.9296 102.161 86.6713 102.67C86.6492 102.681 86.5388 102.913 86.3401 103.001C85.1039 103.499 82.4216 104.405 81.4834 105.134C80.9094 105.588 81.2847 105.72 81.7814 106.008C85.0818 107.931 87.2122 106.317 90.0931 104.902C91.7598 104.084 93.4155 103.222 95.0933 102.405C95.6231 102.604 96.0978 102.913 96.6276 103.123C96.7601 103.178 97.2899 102.979 97.5217 103.565L101.23 101.929C101.12 101.753 100.943 101.2 100.789 100.89C100.778 100.857 100.568 100.835 100.513 100.647C100.336 100.028 100.679 99.5311 100.778 98.9564C99.5748 99.4979 97.036 101.631 95.7225 101.277C95.005 101.067 94.8394 100.581 94.6849 99.9842Z" fill="#FBC5A9"/>
<path d="M107.753 93.1319C103.228 94.7676 101.616 98.0721 97.6536 100.05C96.4284 100.658 95.8875 100.868 94.6843 99.9731C94.8499 100.57 95.0044 101.056 95.7219 101.255C97.0354 101.609 99.5632 99.4868 100.777 98.9342C100.678 99.5089 100.325 100.006 100.512 100.625C100.568 100.813 100.766 100.846 100.777 100.868C100.965 98.3153 103.084 96.4365 105.137 95.1876C106.241 94.5134 108.062 93.9277 109.001 93.2535C109.199 93.1098 109.442 92.9882 109.398 92.6788C109.321 92.6346 107.952 93.0656 107.753 93.1319Z" fill="#232323"/>
<path d="M104.487 103.101C104.498 103.112 104.454 103.388 104.564 103.543C104.674 103.709 104.917 103.676 104.928 103.698C105.524 102.161 107.147 101.067 108.538 100.249C109.299 99.7963 110.723 99.3322 111.308 98.8569C111.551 98.658 111.661 98.5364 111.606 98.1938C111.419 98.017 110.083 98.6911 109.796 98.8348C107.93 99.7079 105.281 101.123 104.487 103.101Z" fill="#232323"/>
<path d="M107.753 93.1321C107.952 93.0547 109.32 92.6348 109.387 92.69C108.978 92.3695 108.173 92.9221 107.753 93.1321Z" fill="#41815F"/>
<path d="M76.8912 33.1307C76.8912 33.1307 78.8891 29.7267 80.9753 30.3235C83.0615 30.9093 80.6773 34.4127 80.6773 34.4127L78.3924 35.4295L76.5269 34.8769L76.8912 33.1307Z" fill="#FBC5A9"/>
</g>
</g>
<rect x="113" y="1" width="32" height="32" rx="16" fill="#60D66A"/>
<path d="M137 11L126 22L121 17" stroke="white" stroke-width="2" stroke-linecap="round" stroke-linejoin="round"/>
<defs>
<clipPath id="clip0_242_5475">
<rect width="160" height="160" rx="80" fill="white"/>
</clipPath>
<clipPath id="clip1_242_5475">
<rect width="141" height="191" fill="white" transform="matrix(-1 0 0 1 151 14)"/>
</clipPath>
</defs>
</svg>
