<svg width="37" height="27" viewBox="0 0 37 27" fill="none" xmlns="http://www.w3.org/2000/svg">
<path d="M36.3494 22.525C36.0282 23.3485 35.4219 23.696 34.5524 23.6886C32.5557 23.6716 30.5587 23.683 28.5619 23.6835C28.0917 23.6836 28.0917 23.6847 28.0784 24.1448C28.047 25.2319 27.2109 26.0404 26.0907 26.0427C23.3376 26.0485 20.5845 26.0493 17.8315 26.0449C15.362 26.045 12.8925 26.0448 10.423 26.0445C9.26062 26.0438 8.55644 25.4813 8.32003 24.3426C8.27451 24.1233 8.15196 24.1187 7.9918 24.1188C7.28285 24.1193 6.57391 24.1193 5.86496 24.1188C4.51796 24.1187 3.16939 24.0784 1.82448 24.1318C0.799433 24.1726 -0.0781686 23.4864 0.00553536 22.2766C0.0743514 21.2819 -0.0778743 20.2755 0.124547 19.286C0.34424 18.1601 0.825003 17.1025 1.52761 16.1995C2.23023 15.2965 3.13478 14.5736 4.16748 14.0898C5.20018 13.606 6.33177 13.375 7.46994 13.4157C8.6081 13.4564 9.72059 13.7676 10.7166 14.324C10.9785 14.4671 11.1283 14.4597 11.3491 14.2479C13.1322 12.5412 15.4803 11.5617 17.9389 11.4991C20.3976 11.4365 22.7918 12.2952 24.6582 13.909C24.9335 14.1479 25.1246 14.2096 25.4748 14.0001C26.4802 13.3945 27.6168 13.0445 28.7864 12.9803C29.9561 12.916 31.1237 13.1393 32.1885 13.6311C33.2534 14.1228 34.1835 14.8682 34.8987 15.8029C35.6138 16.7376 36.0925 17.8335 36.2935 18.9962C36.308 19.0776 36.3306 19.1576 36.3494 19.2382L36.3494 22.525ZM18.1903 24.7882C20.7782 24.7882 23.3661 24.7879 25.954 24.7873C26.5868 24.7867 26.832 24.5381 26.8335 23.9009C26.8357 22.9605 26.8325 22.02 26.8306 21.0795C26.8255 20.3764 26.7172 19.6779 26.5094 19.0067C25.0417 14.1528 19.9992 11.5875 15.2452 13.271C13.5963 13.8596 12.1664 14.944 11.1488 16.3776C10.1312 17.8111 9.57483 19.5249 9.55494 21.2872C9.54823 22.1205 9.55587 22.9539 9.55272 23.7872C9.54976 24.5684 9.76067 24.7879 10.533 24.7881C13.0855 24.7888 15.6379 24.7888 18.1903 24.7882ZM31.5155 22.4289C32.5427 22.4289 33.5699 22.4289 34.5971 22.429C34.8648 22.429 35.1241 22.3853 35.1213 22.0454C35.1132 21.0836 35.2186 20.1153 35.0463 19.1613C34.2956 15.004 29.7483 13.023 26.209 15.0066C25.9722 15.1394 25.952 15.25 26.1203 15.4684C26.6304 16.1399 27.0499 16.8765 27.3679 17.6591C27.9118 19.0079 28.1561 20.4603 28.0839 21.9144C28.0667 22.4281 28.0817 22.4291 28.5756 22.4293C29.5555 22.4296 30.5355 22.4295 31.5155 22.4289ZM4.86185 22.8618C5.87725 22.8618 6.89282 22.8513 7.90795 22.8681C8.21783 22.8732 8.3185 22.7777 8.31335 22.4625C8.27959 21.7494 8.29045 21.0349 8.34589 20.3232C8.51863 18.6705 9.1136 17.0911 10.0728 15.7392C10.2213 15.5284 10.1593 15.4461 9.96187 15.3394C6.70851 13.5804 2.46189 15.4209 1.46898 19.0121C1.16453 20.1133 1.28559 21.2322 1.26096 22.3458C1.25113 22.7897 1.33023 22.8594 1.78022 22.8607C2.80743 22.8636 3.83464 22.8616 4.86185 22.8618Z" fill="#B70908"/>
<path d="M17.9884 10.8924C15.0118 10.892 12.5198 8.44518 12.5333 5.45927C12.5476 2.28176 15.1036 0.00262616 17.9912 2.24708e-06C20.9904 -0.00272169 23.4619 2.4714 23.4532 5.46144C23.4445 8.42679 20.9632 10.8928 17.9884 10.8924ZM18.0038 1.25565C16.8979 1.25093 15.835 1.68722 15.0473 2.46927C14.2596 3.25131 13.811 4.31559 13.7995 5.42972C13.7739 7.5089 15.4092 9.59912 18.0144 9.62915C20.2906 9.6554 22.1783 7.73687 22.1948 5.45513C22.2113 3.17378 20.2967 1.2553 18.0038 1.25565Z" fill="#B70908"/>
<path d="M33.4083 7.93891C33.4059 9.06507 32.9606 10.1444 32.1698 10.9403C31.3791 11.7363 30.3074 12.184 29.1897 12.1854C26.8374 12.1898 24.9155 10.2859 24.9141 7.94992C24.9243 6.8228 25.3755 5.74528 26.1697 4.95141C26.964 4.15753 28.037 3.71141 29.1558 3.70996C30.2745 3.70851 31.3487 4.15185 32.1449 4.94366C32.9412 5.73548 33.3951 6.81183 33.4083 7.93891ZM32.1535 7.95496C32.1558 7.56112 32.0804 7.17074 31.9316 6.80654C31.7828 6.44234 31.5636 6.11158 31.2868 5.8335C31.01 5.55543 30.681 5.33558 30.3191 5.18676C29.9571 5.03794 29.5694 4.96311 29.1785 4.96663C27.5293 4.96554 26.1591 6.31349 26.1615 7.93471C26.1712 8.72988 26.4907 9.48934 27.0511 10.0493C27.6115 10.6094 28.3679 10.925 29.1573 10.9283C29.5481 10.9327 29.936 10.8591 30.2986 10.7118C30.6611 10.5644 30.9911 10.3463 31.2696 10.0699C31.5481 9.79356 31.7696 9.4644 31.9213 9.10142C32.073 8.73843 32.1519 8.3488 32.1535 7.95496Z" fill="#B70908"/>
<path d="M2.98047 8.22077C2.99167 5.85098 4.89582 3.98548 7.29132 3.99743C8.40902 4.01247 9.47562 4.47156 10.2591 5.27482C11.0426 6.07808 11.4795 7.16053 11.4749 8.28669C11.46 10.6194 9.53387 12.4857 7.15471 12.4726C6.0433 12.4608 4.98144 12.0076 4.19983 11.2114C3.41823 10.4153 2.98003 9.34057 2.98047 8.22077ZM4.23548 8.23651C4.23486 8.63036 4.31189 9.02041 4.46207 9.38403C4.61226 9.74766 4.83262 10.0776 5.11037 10.3548C5.38812 10.6319 5.71773 10.8507 6.08008 10.9985C6.44243 11.1464 6.8303 11.2202 7.2212 11.2158C8.86753 11.2141 10.2277 9.86528 10.2274 8.23466C10.2153 7.43944 9.89299 6.68098 9.3302 6.12329C8.76741 5.5656 8.00935 5.25349 7.21996 5.25447C6.82899 5.25043 6.44111 5.32462 6.07882 5.47275C5.71652 5.62087 5.38702 5.83997 5.10941 6.11736C4.83179 6.39475 4.61159 6.7249 4.46158 7.08867C4.31156 7.45243 4.23471 7.84259 4.23548 8.23651Z" fill="#B70908"/>
</svg>
