<svg width="201" height="46" viewBox="0 0 201 46" fill="none" xmlns="http://www.w3.org/2000/svg">
<rect width="201" height="46" rx="12" fill="#B70908"/>
<path d="M24 29.8044C24.7037 27.1844 25.7656 24.7051 26.9825 22.29C29.0103 18.2651 31.4162 14.4678 34.0106 10.7896C34.9605 9.44298 36.3162 8.72732 37.9528 8.53363C39.2204 8.38363 40.4924 8.25671 41.751 8.04978C43.7605 7.7194 45.2122 9.08261 45.4168 10.6805C45.4997 11.3273 45.648 11.9655 45.745 12.6108C46.0439 14.5978 44.3858 16.1305 42.4278 15.6824C41.544 15.4801 40.6595 15.2799 39.7804 15.0587C39.5446 14.9993 39.4743 15.0762 39.4208 15.2844C38.8968 17.3236 38.3687 19.3617 37.8365 21.3988C37.8119 21.5032 37.7815 21.6061 37.7454 21.707C37.6803 21.8957 37.5455 22.0524 37.3687 22.1452C37.1919 22.2379 36.9863 22.2597 36.794 22.206C36.6016 22.1524 36.437 22.0274 36.3338 21.8565C36.2305 21.6857 36.1964 21.4818 36.2384 21.2867C36.3187 20.8956 36.4276 20.5102 36.5283 20.1235C37.0666 18.0578 37.6055 15.9923 38.1451 13.927C38.3008 13.3299 38.697 13.1467 39.2973 13.3016C40.4861 13.6086 41.6806 13.8996 42.8835 14.1444C43.6751 14.3054 44.2622 13.7595 44.1838 12.9583C44.1045 12.163 43.9651 11.3748 43.7669 10.6005C43.5854 9.88689 42.9104 9.50456 42.1612 9.60286C40.7411 9.78918 39.3177 9.95153 37.8988 10.1462C37.3635 10.2136 36.8488 10.3949 36.3895 10.678C35.9303 10.9611 35.5371 11.3393 35.2365 11.7872C33.5134 14.2498 31.8778 16.7693 30.368 19.3692C29.0147 21.6996 27.7612 24.0808 26.77 26.5899C26.3692 27.6042 25.9353 28.6124 25.664 29.6699C25.299 31.0926 25.8236 32.0269 27.1992 32.5479C27.5737 32.6884 27.9597 32.7964 28.3528 32.8709C30.0573 33.2109 31.7118 33.7659 33.2765 34.5225C35.2586 35.4757 37.3876 36.0868 39.5735 36.3302C43.3174 36.7354 46.8509 36.0224 50.1745 34.2589C50.4933 34.0898 50.8035 33.9047 51.1224 33.7357C51.5794 33.4934 52.0142 33.5919 52.2449 33.9811C52.4825 34.3819 52.3564 34.8324 51.9053 35.1018C50.1159 36.1837 48.1725 36.9874 46.1415 37.4854C45.1763 37.7257 44.1929 37.8853 43.2012 37.9624C43.1438 37.9706 43.087 37.9832 43.0315 38H40.1621C40.1164 37.9839 40.0694 37.972 40.0216 37.9643C37.8911 37.7909 35.7995 37.2941 33.8187 36.491C32.7768 36.0778 31.7866 35.5453 30.7298 35.165C29.635 34.7711 28.4946 34.5558 27.3739 34.2619C25.6895 33.8203 24.3796 32.9408 24 31.0923V29.8044Z" fill="white"/>
<path d="M42.2326 21.8839C44.2359 21.9204 46.0274 22.6231 47.6626 23.7627C47.8977 23.9266 48.0439 23.9201 48.2692 23.7514C49.5856 22.7573 51.1662 22.1738 52.8129 22.0741C52.9491 22.0635 53.0859 22.0625 53.2223 22.0711C53.6759 22.1045 53.9853 22.4108 53.9998 22.8313C54.0149 23.2695 53.7222 23.6023 53.2598 23.6575C52.9699 23.6922 52.6774 23.674 52.3854 23.715C50.9742 23.9123 49.6584 24.5407 48.6182 25.5141C48.1963 25.8987 47.82 25.8936 47.3761 25.5371C45.8232 24.2898 44.1032 23.463 42.058 23.4921C40.4892 23.5144 39.1693 24.1539 38.0081 25.1604C37.0111 26.0246 36.2217 27.0625 35.541 28.1868C35.4905 28.2702 35.4417 28.3549 35.3866 28.4352C35.1211 28.8224 34.6965 28.9308 34.3161 28.7106C33.9317 28.4881 33.8076 28.0359 34.0436 27.6173C34.4655 26.8694 34.9514 26.1594 35.4958 25.4953C36.5731 24.1796 37.8233 23.083 39.421 22.4333C40.3157 22.0765 41.2693 21.8902 42.2326 21.8839Z" fill="white"/>
<path d="M43.7831 34.0369C42.6765 34.0191 41.5798 33.824 40.5349 33.459C40.0688 33.2957 39.8349 32.8993 39.9585 32.4889C40.098 32.026 40.5036 31.799 40.9945 31.9537C41.9874 32.2667 42.9926 32.4712 44.0405 32.4287C45.7416 32.3596 47.2104 31.7578 48.41 30.5374C48.6432 30.3002 48.8971 30.1412 49.2402 30.2237C49.8536 30.3711 50.0546 31.0698 49.6161 31.5652C49.0699 32.1658 48.4224 32.6657 47.703 33.0421C46.4977 33.6899 45.1516 34.0315 43.7831 34.0369Z" fill="white"/>
<path d="M72.44 30V16H74.12V30H72.44ZM63.5 30V16H65.18V30H63.5ZM64.86 23.56V22.18H72.86V23.56H64.86ZM77.1733 30V19.92H78.8533V30H77.1733ZM78.0133 17.78C77.6799 17.78 77.3999 17.6733 77.1733 17.46C76.9599 17.2333 76.8533 16.9533 76.8533 16.62C76.8533 16.2867 76.9599 16.02 77.1733 15.82C77.3999 15.6067 77.6799 15.5 78.0133 15.5C78.3333 15.5 78.6066 15.6067 78.8333 15.82C79.0599 16.02 79.1733 16.2867 79.1733 16.62C79.1733 16.9533 79.0599 17.2333 78.8333 17.46C78.6066 17.6733 78.3333 17.78 78.0133 17.78ZM85.798 34.64C84.8913 34.64 84.0846 34.52 83.378 34.28C82.6846 34.0533 82.1446 33.7 81.758 33.22C81.3713 32.74 81.178 32.1467 81.178 31.44C81.178 31.1333 81.238 30.8067 81.358 30.46C81.4913 30.1133 81.7113 29.7733 82.018 29.44C82.338 29.1067 82.7846 28.8067 83.358 28.54L84.518 29.22C83.8113 29.5133 83.3513 29.8467 83.138 30.22C82.9246 30.6067 82.818 30.96 82.818 31.28C82.818 31.72 82.9446 32.0867 83.198 32.38C83.4513 32.6733 83.8046 32.8933 84.258 33.04C84.7113 33.1867 85.2246 33.26 85.798 33.26C86.3713 33.26 86.8646 33.1733 87.278 33C87.6913 32.84 88.0113 32.6133 88.238 32.32C88.4646 32.04 88.578 31.7 88.578 31.3C88.578 30.8333 88.4046 30.44 88.058 30.12C87.7113 29.8133 87.0513 29.6333 86.078 29.58C85.2913 29.5267 84.6313 29.4533 84.098 29.36C83.5646 29.2667 83.1246 29.16 82.778 29.04C82.4313 28.9067 82.138 28.76 81.898 28.6C81.6713 28.44 81.4646 28.2733 81.278 28.1V27.64L83.218 25.72L84.678 26.24L82.678 28.04L82.938 27.34C83.0846 27.4467 83.2246 27.5467 83.358 27.64C83.4913 27.7333 83.6713 27.8133 83.898 27.88C84.1246 27.9467 84.438 28.0067 84.838 28.06C85.2513 28.1133 85.7913 28.1667 86.458 28.22C87.378 28.2867 88.1113 28.4467 88.658 28.7C89.218 28.9533 89.618 29.2933 89.858 29.72C90.1113 30.1467 90.238 30.6533 90.238 31.24C90.238 31.8133 90.078 32.3533 89.758 32.86C89.4513 33.38 88.9713 33.8067 88.318 34.14C87.6646 34.4733 86.8246 34.64 85.798 34.64ZM85.778 26.84C84.938 26.84 84.218 26.68 83.618 26.36C83.0313 26.04 82.5846 25.6133 82.278 25.08C81.9713 24.5333 81.818 23.9267 81.818 23.26C81.818 22.5933 81.9713 21.9933 82.278 21.46C82.598 20.9267 83.0513 20.5 83.638 20.18C84.2246 19.8467 84.938 19.68 85.778 19.68C86.618 19.68 87.3313 19.8467 87.918 20.18C88.5046 20.5 88.9513 20.9267 89.258 21.46C89.5646 21.9933 89.718 22.5933 89.718 23.26C89.718 23.9267 89.5646 24.5333 89.258 25.08C88.9513 25.6133 88.5046 26.04 87.918 26.36C87.3313 26.68 86.618 26.84 85.778 26.84ZM85.778 25.46C86.498 25.46 87.0646 25.2733 87.478 24.9C87.8913 24.5267 88.098 23.98 88.098 23.26C88.098 22.5533 87.8913 22.0133 87.478 21.64C87.0646 21.2667 86.498 21.08 85.778 21.08C85.0713 21.08 84.498 21.2667 84.058 21.64C83.6313 22.0133 83.418 22.5533 83.418 23.26C83.418 23.98 83.6313 24.5267 84.058 24.9C84.4846 25.2733 85.058 25.46 85.778 25.46ZM87.418 21.34L86.918 19.92H91.038V21.18L87.418 21.34ZM92.9703 30V15.6H94.6503V21.62C94.9836 21.02 95.4503 20.5467 96.0503 20.2C96.6636 19.8533 97.3303 19.68 98.0503 19.68C98.8236 19.68 99.497 19.84 100.07 20.16C100.644 20.4667 101.084 20.94 101.39 21.58C101.697 22.22 101.85 23.0267 101.85 24V30H100.19V24.18C100.19 23.1667 99.977 22.4067 99.5503 21.9C99.1236 21.38 98.5036 21.12 97.6903 21.12C97.117 21.12 96.597 21.26 96.1303 21.54C95.677 21.82 95.317 22.22 95.0503 22.74C94.7836 23.26 94.6503 23.9 94.6503 24.66V30H92.9703ZM109.887 30V16H114.467C115.56 16 116.46 16.1867 117.167 16.56C117.887 16.92 118.413 17.4067 118.747 18.02C119.093 18.6333 119.267 19.3333 119.267 20.12C119.267 20.88 119.093 21.5733 118.747 22.2C118.413 22.8133 117.893 23.3067 117.187 23.68C116.48 24.04 115.573 24.22 114.467 24.22H111.567V30H109.887ZM111.567 22.8H114.427C115.547 22.8 116.347 22.56 116.827 22.08C117.307 21.5867 117.547 20.9333 117.547 20.12C117.547 19.2533 117.307 18.5867 116.827 18.12C116.347 17.64 115.547 17.4 114.427 17.4H111.567V22.8ZM121.388 30V19.92H122.908L123.028 21.84C123.255 21.3867 123.542 21 123.888 20.68C124.248 20.36 124.675 20.1133 125.168 19.94C125.675 19.7667 126.248 19.68 126.888 19.68V21.44H126.268C125.842 21.44 125.435 21.5 125.048 21.62C124.662 21.7267 124.315 21.9067 124.008 22.16C123.715 22.4133 123.482 22.76 123.308 23.2C123.148 23.6267 123.068 24.16 123.068 24.8V30H121.388ZM132.92 30.24C131.986 30.24 131.146 30.0267 130.4 29.6C129.653 29.16 129.066 28.5467 128.64 27.76C128.213 26.96 128 26.0333 128 24.98C128 23.9 128.213 22.9667 128.64 22.18C129.08 21.38 129.673 20.7667 130.42 20.34C131.18 19.9 132.026 19.68 132.96 19.68C133.92 19.68 134.766 19.9 135.5 20.34C136.246 20.7667 136.833 21.38 137.26 22.18C137.7 22.9667 137.92 23.8933 137.92 24.96C137.92 26.0267 137.7 26.96 137.26 27.76C136.82 28.5467 136.226 29.16 135.48 29.6C134.733 30.0267 133.88 30.24 132.92 30.24ZM132.94 28.8C133.513 28.8 134.046 28.66 134.54 28.38C135.033 28.0867 135.433 27.6533 135.74 27.08C136.046 26.5067 136.2 25.8 136.2 24.96C136.2 24.1067 136.046 23.4 135.74 22.84C135.446 22.2667 135.053 21.84 134.56 21.56C134.08 21.2667 133.546 21.12 132.96 21.12C132.4 21.12 131.866 21.2667 131.36 21.56C130.866 21.84 130.466 22.2667 130.16 22.84C129.866 23.4 129.72 24.1067 129.72 24.96C129.72 25.8 129.866 26.5067 130.16 27.08C130.466 27.6533 130.86 28.0867 131.34 28.38C131.833 28.66 132.366 28.8 132.94 28.8ZM143.844 30C143.244 30 142.724 29.9067 142.284 29.72C141.844 29.5333 141.504 29.22 141.264 28.78C141.038 28.3267 140.924 27.72 140.924 26.96V21.34H139.164V19.92H140.924L141.144 17.48H142.604V19.92H145.524V21.34H142.604V26.96C142.604 27.5867 142.731 28.0133 142.984 28.24C143.238 28.4533 143.684 28.56 144.324 28.56H145.404V30H143.844ZM151.863 30.24C150.93 30.24 150.096 30.02 149.363 29.58C148.63 29.14 148.056 28.5267 147.643 27.74C147.23 26.94 147.023 26.0133 147.023 24.96C147.023 23.8933 147.223 22.9667 147.623 22.18C148.036 21.3933 148.61 20.78 149.343 20.34C150.09 19.9 150.943 19.68 151.903 19.68C152.89 19.68 153.73 19.9 154.423 20.34C155.116 20.78 155.643 21.36 156.003 22.08C156.376 22.7867 156.563 23.5667 156.563 24.42C156.563 24.5533 156.563 24.6933 156.563 24.84C156.563 24.9867 156.556 25.1533 156.543 25.34H148.283V24.04H154.903C154.863 23.12 154.556 22.4 153.983 21.88C153.423 21.36 152.716 21.1 151.863 21.1C151.303 21.1 150.776 21.2333 150.283 21.5C149.79 21.7533 149.396 22.1333 149.103 22.64C148.81 23.1333 148.663 23.7533 148.663 24.5V25.06C148.663 25.8867 148.81 26.58 149.103 27.14C149.41 27.7 149.803 28.12 150.283 28.4C150.776 28.68 151.303 28.82 151.863 28.82C152.57 28.82 153.15 28.6667 153.603 28.36C154.07 28.04 154.41 27.6067 154.623 27.06H156.283C156.11 27.6733 155.823 28.22 155.423 28.7C155.023 29.1667 154.523 29.54 153.923 29.82C153.336 30.1 152.65 30.24 151.863 30.24ZM158.97 30V19.92H160.65V30H158.97ZM159.81 17.78C159.477 17.78 159.197 17.6733 158.97 17.46C158.757 17.2333 158.65 16.9533 158.65 16.62C158.65 16.2867 158.757 16.02 158.97 15.82C159.197 15.6067 159.477 15.5 159.81 15.5C160.13 15.5 160.403 15.6067 160.63 15.82C160.857 16.02 160.97 16.2867 160.97 16.62C160.97 16.9533 160.857 17.2333 160.63 17.46C160.403 17.6733 160.13 17.78 159.81 17.78ZM163.615 30V19.92H165.135L165.215 21.68C165.535 21.0533 165.988 20.5667 166.575 20.22C167.175 19.86 167.855 19.68 168.615 19.68C169.402 19.68 170.082 19.84 170.655 20.16C171.228 20.4667 171.675 20.94 171.995 21.58C172.315 22.2067 172.475 23.0067 172.475 23.98V30H170.795V24.16C170.795 23.1467 170.568 22.3867 170.115 21.88C169.675 21.3733 169.048 21.12 168.235 21.12C167.675 21.12 167.175 21.26 166.735 21.54C166.295 21.8067 165.942 22.2 165.675 22.72C165.422 23.2267 165.295 23.86 165.295 24.62V30H163.615Z" fill="white"/>
</svg>
