<svg width="173" height="46" viewBox="0 0 173 46" fill="none" xmlns="http://www.w3.org/2000/svg">
<rect width="173" height="46" rx="12" fill="#B70908"/>
<path d="M24 29.8575C24.5164 28.4545 25.2711 27.9237 26.7504 27.9231C27.3944 27.9228 28.0388 27.9097 28.6823 27.9283C29.0266 27.9382 29.1911 27.8501 29.233 27.4611C29.3426 26.443 29.5038 25.4305 29.6462 24.416C29.7204 23.8868 30.0242 23.6145 30.4634 23.6784C30.8812 23.7391 31.0854 24.1054 31.0125 24.6365C30.8773 25.6229 30.7572 26.6115 30.6132 27.5965C30.5748 27.8597 30.6621 27.9257 30.903 27.9253C33.7509 27.9208 36.5988 27.9205 39.4467 27.9245C39.7231 27.9248 39.7774 27.8139 39.7403 27.5484C39.3716 24.9047 39.0157 22.2592 38.6542 19.6145C38.5548 18.8873 38.1457 18.5025 37.4186 18.497C35.916 18.4856 34.4134 18.4858 32.9107 18.4978C32.2254 18.5034 31.8512 18.8238 31.7276 19.5099C31.6227 20.0913 31.5601 20.6806 31.4835 21.2671C31.396 21.9371 31.1026 22.2838 30.6648 22.2257C30.1887 22.1625 29.9952 21.7613 30.0976 21.064C30.1794 20.5073 30.2575 19.95 30.3321 19.3923C30.5187 18.0041 31.5494 17.0898 32.9453 17.0816C33.5893 17.0778 34.2337 17.0662 34.8771 17.0863C35.2235 17.0972 35.3833 17.0119 35.4195 16.6199C35.4965 15.7874 35.6309 14.9599 35.7547 14.1322C35.8459 13.5334 36.1448 12.9868 36.598 12.5898C37.0512 12.1927 37.6292 11.9711 38.2291 11.9644C38.9017 11.9572 39.5762 11.9324 40.2463 11.9733C40.6698 11.9991 40.7543 11.7821 40.7973 11.446C40.9089 10.573 41.0312 9.70135 41.1493 8.82916C41.3301 7.49387 42.3417 6.54598 43.6862 6.52123C45.217 6.49304 46.7482 6.49292 48.2798 6.52088C49.6258 6.54472 50.639 7.48971 50.8208 8.82487C50.9396 9.697 51.0685 10.5679 51.1698 11.4422C51.2139 11.8228 51.3486 11.9948 51.763 11.972C52.4194 11.936 53.0792 11.9574 53.7374 11.9643C54.3445 11.9707 54.9292 12.197 55.385 12.6019C55.8409 13.0068 56.1378 13.5635 56.2216 14.1707C56.3394 15.0139 56.4686 15.8558 56.5621 16.7018C56.5959 17.0081 56.7274 17.0881 57.0033 17.0838C57.69 17.0731 58.3771 17.0766 59.064 17.082C60.3899 17.0925 61.4368 17.9834 61.624 19.3026C61.9848 21.8454 62.3115 24.3932 62.6758 26.9355C62.8375 28.0646 62.5971 27.9108 63.7508 27.9221C64.3518 27.9279 64.9529 27.9173 65.5539 27.925C66.2033 27.9325 66.8237 28.1975 67.2813 28.6628C67.7389 29.1281 67.997 29.7564 68 30.4122C68.0029 31.068 67.7505 31.6987 67.2972 32.1682C66.8438 32.6377 66.2258 32.9084 65.5766 32.9219C64.5878 32.942 64.8064 32.7497 64.4041 33.7494C63.9033 34.994 63.4236 36.2473 62.9311 37.4953C62.4031 38.8333 61.4432 39.4984 60.0236 39.4987C50.6642 39.5005 41.3048 39.5004 31.9454 39.4986C30.5263 39.4984 29.5667 38.8314 29.0394 37.4936C28.4945 36.1112 27.9482 34.7292 27.4117 33.3435C27.3091 33.0786 27.1959 32.8915 26.8646 32.9187C25.4517 33.0348 24.5089 32.3928 24 31.0717L24 29.8575ZM45.9512 31.5574C52.2916 31.5574 58.632 31.5575 64.9724 31.5578C65.2441 31.5691 65.5163 31.5472 65.7829 31.4925C66.0521 31.4353 66.2885 31.2741 66.4416 31.0434C66.5948 30.8126 66.6526 30.5305 66.6026 30.2573C66.5089 29.6562 66.11 29.3413 65.3991 29.3399C62.8228 29.335 60.2466 29.3343 57.6704 29.3377C57.4271 29.3521 57.183 29.3304 56.946 29.2734C56.5993 29.1687 56.418 28.9279 56.4447 28.5631C56.4715 28.1975 56.6933 27.9907 57.0455 27.9343C57.1736 27.9206 57.3026 27.917 57.4313 27.9235C58.6192 27.9228 59.8072 27.9164 60.995 27.9276C61.2849 27.9304 61.4059 27.8749 61.3529 27.5399C61.213 26.6566 61.1095 25.7674 60.9896 24.8808C60.7536 23.1362 60.5254 21.3904 60.2759 19.6478C60.1577 18.8221 59.7705 18.4979 58.9423 18.494C57.4968 18.4872 56.0512 18.4876 54.6057 18.4952C53.805 18.5004 53.4163 18.8816 53.308 19.69C52.961 22.2787 52.6159 24.8678 52.2444 27.453C52.1889 27.8392 52.2784 27.9414 52.6436 27.9285C53.201 27.9087 53.7603 27.9116 54.3177 27.9322C54.4045 27.9303 54.4908 27.9459 54.5716 27.9779C54.6524 28.01 54.7262 28.0579 54.7885 28.1188C54.8509 28.1798 54.9007 28.2527 54.935 28.3332C54.9693 28.4137 54.9875 28.5003 54.9885 28.588C55.0006 28.7571 54.9474 28.9244 54.8399 29.0546C54.7324 29.1849 54.5791 29.2679 54.4122 29.2864C54.1723 29.3241 53.9295 29.3405 53.6868 29.3355C44.7702 29.3377 35.8536 29.3385 26.937 29.3378C26.7367 29.3378 26.5355 29.333 26.3362 29.3492C26.0759 29.364 25.8303 29.4759 25.6471 29.6632C25.4638 29.8505 25.3559 30.0999 25.3443 30.3629C25.3285 30.6248 25.407 30.8837 25.5651 31.0919C25.7233 31.3001 25.9505 31.4436 26.2051 31.4961C26.4578 31.5469 26.7156 31.5675 26.9731 31.5575C33.2991 31.5571 39.6252 31.5571 45.9512 31.5574ZM45.9617 38.0782C50.6419 38.0782 55.3221 38.078 60.0023 38.0776C60.915 38.0774 61.3235 37.7959 61.6644 36.9346C62.1264 35.7674 62.5856 34.5992 63.0421 33.4299C63.2403 32.9244 63.2387 32.9225 62.6905 32.9225C56.7508 32.9222 50.8111 32.9221 44.8714 32.9223C39.676 32.9223 34.4806 32.9224 29.2852 32.9226C28.733 32.9227 28.7312 32.9246 28.9274 33.4255C29.3695 34.554 29.8128 35.682 30.2573 36.8095C30.6638 37.8397 31.0093 38.0781 32.0929 38.0782C36.7159 38.0786 41.3388 38.0786 45.9617 38.0782ZM45.998 27.923C47.357 27.923 48.716 27.9153 50.0749 27.9282C50.4364 27.9317 50.6042 27.9032 50.5361 27.4359C50.1578 24.8386 49.824 22.2348 49.4687 19.6341C49.3653 18.878 48.9522 18.5014 48.2043 18.4961C46.731 18.4858 45.2576 18.4856 43.7841 18.4956C43.0108 18.5005 42.6044 18.8787 42.4986 19.659C42.1442 22.2745 41.7994 24.8913 41.4306 27.5048C41.3818 27.851 41.4686 27.931 41.7924 27.9282C43.1941 27.9158 44.5961 27.9229 45.998 27.923ZM45.9973 7.93426C45.2681 7.93426 44.5389 7.93014 43.8097 7.9354C43.0493 7.94088 42.6077 8.32844 42.5012 9.08129C42.3862 9.89483 42.2844 10.7104 42.163 11.5229C42.1159 11.8373 42.1985 11.9984 42.5374 11.9636C42.6373 11.9578 42.7375 11.9575 42.8374 11.9627C44.2077 11.972 45.2199 12.8701 45.4142 14.2509C45.5286 15.0645 45.6416 15.8784 45.7531 16.6924C45.7745 16.848 45.7638 17.0492 45.9734 17.055C46.2168 17.0617 46.1962 16.8414 46.2183 16.6737C46.2824 16.1878 46.3437 15.7014 46.4109 15.2159C46.4523 14.9161 46.5224 14.619 46.5454 14.3181C46.6047 13.6412 46.9246 13.0149 47.4363 12.5737C47.9481 12.1326 48.6108 11.9118 49.282 11.9588C49.5604 11.9805 49.888 12.039 49.8122 11.5461C49.6851 10.7199 49.5874 9.88917 49.4666 9.06194C49.3593 8.32658 48.9197 7.9422 48.1848 7.93587C47.4557 7.92958 46.7265 7.93449 45.9973 7.93426ZM51.3517 23.1946L51.4319 23.2007C51.5855 22.0613 51.7555 20.9237 51.8888 19.7818C52.0623 18.296 52.7674 17.3812 54.0075 17.1313C54.3041 17.0861 54.6044 17.0701 54.9042 17.0837C55.1267 17.0836 55.2098 17.016 55.1739 16.7761C55.0694 16.0772 54.9737 15.3766 54.8944 14.6743C54.79 13.7502 54.3676 13.3443 53.4338 13.3304C52.6757 13.3191 51.9174 13.3271 51.1592 13.3274C50.5297 13.3276 49.8998 13.314 49.2709 13.3335C48.4518 13.3588 48.0128 13.7433 47.9085 14.491C47.8208 15.1196 47.7334 15.7482 47.6514 16.3775C47.5606 17.0737 47.5633 17.0741 48.2498 17.0811C49.6164 17.095 50.634 18.0058 50.8239 19.3833C50.9991 20.6538 51.175 21.9243 51.3517 23.1946ZM40.5403 23.2014L40.6184 23.1873C40.7961 21.9023 40.9738 20.6172 41.1516 19.3322C41.2199 18.7828 41.4618 18.2703 41.8413 17.8708C42.2209 17.4712 42.7179 17.2059 43.2586 17.1142C43.5137 17.0789 43.7716 17.0688 44.0286 17.084C44.2979 17.0915 44.4162 17.0328 44.3615 16.7135C44.2423 16.0174 44.1565 15.3149 44.0746 14.613C43.9783 13.7875 43.5981 13.3599 42.7788 13.3422C41.3061 13.3104 39.8328 13.3107 38.359 13.3431C37.6191 13.3587 37.2172 13.7495 37.1063 14.4671C36.9896 15.2224 36.9162 15.9844 36.7997 16.7397C36.7547 17.0312 36.8627 17.0955 37.1168 17.0828C37.5889 17.039 38.0644 17.1122 38.5022 17.296C39.58 17.793 39.9664 18.7128 40.088 19.8311C40.2105 20.9577 40.3873 22.0782 40.5403 23.2014Z" fill="white"/>
<path d="M34.4984 21.8247C34.5022 21.9152 34.4874 22.0055 34.4549 22.0899C34.4225 22.1744 34.373 22.2511 34.3098 22.3153C34.2465 22.3795 34.1707 22.4297 34.0873 22.4629C34.0038 22.496 33.9144 22.5114 33.8248 22.5079C33.7354 22.5067 33.647 22.4875 33.565 22.4515C33.4829 22.4155 33.4087 22.3634 33.3468 22.2983C33.2848 22.2331 33.2362 22.1562 33.2039 22.0719C33.1716 21.9877 33.1561 21.8978 33.1584 21.8075C33.1645 21.6307 33.2389 21.4632 33.3657 21.3411C33.4925 21.219 33.6616 21.1519 33.8368 21.1541C34.012 21.1564 34.1793 21.2278 34.303 21.3532C34.4267 21.4785 34.4968 21.6478 34.4984 21.8247Z" fill="white"/>
<path d="M58.0564 25.7689C58.0563 25.904 58.0167 26.036 57.9426 26.1484C57.8685 26.2608 57.7631 26.3486 57.6398 26.4007C57.5164 26.4528 57.3806 26.467 57.2493 26.4414C57.118 26.4158 56.9971 26.3517 56.9018 26.2569C56.8065 26.1622 56.741 26.0412 56.7136 25.909C56.6862 25.7768 56.6981 25.6394 56.7478 25.514C56.7974 25.3887 56.8827 25.2809 56.9928 25.2043C57.1029 25.1277 57.2329 25.0856 57.3666 25.0834C57.5465 25.0871 57.7182 25.1602 57.8464 25.2877C57.9747 25.4152 58.0498 25.5874 58.0564 25.7689Z" fill="white"/>
<path d="M48.8539 36.2118C46.1925 36.2118 43.531 36.2117 40.8696 36.2114C40.7124 36.2198 40.5548 36.2155 40.3982 36.1986C40.036 36.1391 39.7865 35.9421 39.7722 35.5466C39.7582 35.1611 39.9569 34.9151 40.3293 34.8375C40.512 34.8043 40.6976 34.7899 40.8832 34.7943C46.1918 34.7922 51.5004 34.7924 56.809 34.7949C57.0086 34.7893 57.2082 34.8091 57.4029 34.854C57.5604 34.8857 57.7003 34.9763 57.7946 35.1076C57.889 35.2389 57.9308 35.4012 57.9119 35.5623C57.8899 35.9217 57.6592 36.1365 57.3094 36.1958C57.153 36.214 56.9955 36.2192 56.8383 36.2113C54.1768 36.212 51.5154 36.2122 48.8539 36.2118Z" fill="white"/>
<path d="M36.2024 36.2095C35.7311 36.2094 35.2595 36.2201 34.7887 36.2063C34.3472 36.1933 34.0449 35.9111 34.0353 35.5353C34.0333 35.4404 34.0503 35.346 34.0851 35.2579C34.1199 35.1697 34.172 35.0896 34.2381 35.0221C34.3042 34.9547 34.3831 34.9013 34.47 34.8653C34.557 34.8292 34.6502 34.8112 34.7442 34.8122C35.7 34.7849 36.6565 34.7844 37.6135 34.8107C37.7073 34.8102 37.8002 34.8284 37.8869 34.8645C37.9736 34.9005 38.0523 34.9536 38.1185 35.0207C38.1846 35.0878 38.2369 35.1675 38.2722 35.2552C38.3076 35.3429 38.3253 35.4368 38.3243 35.5315C38.3078 35.9153 38.0114 36.194 37.5733 36.2067C37.1167 36.22 36.6594 36.2097 36.2024 36.2095Z" fill="white"/>
<path d="M46.0086 21.5149C46.0088 21.648 45.9701 21.7782 45.8974 21.8892C45.8247 22.0002 45.7212 22.0871 45.5998 22.1391C45.4785 22.191 45.3446 22.2056 45.2151 22.1812C45.0855 22.1567 44.966 22.0942 44.8714 22.0015C44.7768 21.9088 44.7114 21.79 44.6834 21.66C44.6553 21.5299 44.6658 21.3944 44.7136 21.2704C44.7614 21.1463 44.8443 21.0392 44.952 20.9625C45.0597 20.8858 45.1875 20.8429 45.3192 20.8391C45.4989 20.8379 45.6719 20.9081 45.8009 21.0345C45.9298 21.1609 46.0044 21.3334 46.0086 21.5149Z" fill="white"/>
<path d="M44.9759 24.8464C44.9772 24.9366 44.9606 25.0261 44.9271 25.1097C44.8936 25.1933 44.8438 25.2693 44.7808 25.3332C44.7178 25.3971 44.6427 25.4476 44.5601 25.4818C44.4775 25.5159 44.3889 25.5331 44.2996 25.5322C44.2103 25.5313 44.1221 25.5123 44.0401 25.4765C43.9582 25.4406 43.8842 25.3886 43.8225 25.3234C43.7607 25.2582 43.7125 25.1813 43.6807 25.097C43.6489 25.0127 43.6341 24.9229 43.6371 24.8328C43.6358 24.7429 43.6523 24.6538 43.6856 24.5705C43.7189 24.4872 43.7684 24.4115 43.8311 24.3478C43.8938 24.2841 43.9686 24.2338 44.0509 24.1997C44.1332 24.1656 44.2214 24.1485 44.3104 24.1494C44.3994 24.1509 44.4873 24.1702 44.569 24.206C44.6507 24.2419 44.7246 24.2937 44.7864 24.3584C44.8482 24.4232 44.8968 24.4996 44.9293 24.5834C44.9618 24.6671 44.9777 24.7565 44.9759 24.8464Z" fill="white"/>
<path d="M45.3825 10.5335C45.3829 10.7155 45.3128 10.8904 45.1871 11.0209C45.0614 11.1513 44.8902 11.2268 44.71 11.2314C44.5299 11.2359 44.3551 11.1691 44.2231 11.0451C44.0912 10.9212 44.0125 10.75 44.0039 10.5683C44.0055 10.3876 44.0766 10.2147 44.2021 10.0859C44.3276 9.95714 44.4977 9.88265 44.6766 9.87815C44.8554 9.87364 45.029 9.93947 45.1607 10.0617C45.2924 10.184 45.3719 10.3532 45.3825 10.5335Z" fill="white"/>
<path d="M51.0788 15.3796C51.0785 15.4694 51.0604 15.5583 51.0255 15.6409C50.9906 15.7236 50.9396 15.7983 50.8755 15.8607C50.8115 15.923 50.7357 15.9718 50.6527 16.004C50.5696 16.0362 50.481 16.0513 50.3921 16.0483C50.2125 16.041 50.0429 15.9623 49.9205 15.8293C49.7981 15.6963 49.7327 15.5198 49.7387 15.3383C49.7451 15.1572 49.8212 14.9858 49.9508 14.8604C50.0804 14.7351 50.2533 14.6657 50.4328 14.667C50.6118 14.6757 50.7801 14.7555 50.9011 14.8889C51.0221 15.0224 51.086 15.1988 51.0788 15.3796Z" fill="white"/>
<path d="M40.3256 15.1002C40.5059 15.1086 40.676 15.1869 40.8006 15.3187C40.9252 15.4506 40.9946 15.6259 40.9944 15.8081C40.9924 15.8995 40.9726 15.9897 40.936 16.0734C40.8994 16.157 40.8468 16.2326 40.7813 16.2957C40.7157 16.3588 40.6385 16.4081 40.5539 16.441C40.4694 16.4739 40.3793 16.4895 40.2888 16.4871C40.1982 16.4847 40.1091 16.4643 40.0264 16.427C39.9437 16.3897 39.8691 16.3362 39.8069 16.2697C39.7447 16.2033 39.6961 16.125 39.664 16.0395C39.6318 15.954 39.6167 15.863 39.6195 15.7715C39.6302 15.5898 39.7093 15.4191 39.8406 15.2943C39.9718 15.1695 40.1453 15.1001 40.3256 15.1002Z" fill="white"/>
<path d="M80.62 30.24C79.78 30.24 79.0533 30.08 78.44 29.76C77.84 29.44 77.3733 28.98 77.04 28.38C76.72 27.78 76.56 27.0667 76.56 26.24H78.26C78.26 26.7067 78.3333 27.1333 78.48 27.52C78.64 27.8933 78.8867 28.1933 79.22 28.42C79.5667 28.6333 80.0267 28.74 80.6 28.74C81.16 28.74 81.6 28.6333 81.92 28.42C82.2533 28.2067 82.4867 27.92 82.62 27.56C82.7667 27.1867 82.84 26.7667 82.84 26.3V16H84.52V26.3C84.52 27.5533 84.1733 28.5267 83.48 29.22C82.8 29.9 81.8467 30.24 80.62 30.24ZM90.6995 30.24C89.8862 30.24 89.2062 30.1 88.6595 29.82C88.1129 29.5267 87.7062 29.1467 87.4395 28.68C87.1729 28.2 87.0395 27.68 87.0395 27.12C87.0395 26.44 87.2129 25.8667 87.5595 25.4C87.9195 24.92 88.4195 24.56 89.0595 24.32C89.7129 24.0667 90.4795 23.94 91.3595 23.94H94.0195C94.0195 23.3133 93.9195 22.7933 93.7195 22.38C93.5329 21.9533 93.2529 21.6333 92.8795 21.42C92.5195 21.2067 92.0662 21.1 91.5195 21.1C90.8795 21.1 90.3262 21.26 89.8595 21.58C89.3929 21.9 89.1062 22.3733 88.9995 23H87.2795C87.3595 22.28 87.5995 21.68 87.9995 21.2C88.4129 20.7067 88.9329 20.3333 89.5595 20.08C90.1862 19.8133 90.8395 19.68 91.5195 19.68C92.4529 19.68 93.2262 19.8533 93.8395 20.2C94.4662 20.5333 94.9329 21.0067 95.2395 21.62C95.5462 22.22 95.6995 22.9333 95.6995 23.76V30H94.1995L94.0995 28.22C93.9662 28.5 93.7929 28.7667 93.5795 29.02C93.3795 29.26 93.1395 29.4733 92.8595 29.66C92.5929 29.8333 92.2795 29.9733 91.9195 30.08C91.5595 30.1867 91.1529 30.24 90.6995 30.24ZM90.9595 28.82C91.4262 28.82 91.8462 28.7267 92.2195 28.54C92.6062 28.34 92.9329 28.0733 93.1995 27.74C93.4662 27.3933 93.6662 27.0133 93.7995 26.6C93.9462 26.1867 94.0195 25.7533 94.0195 25.3V25.24H91.4995C90.8462 25.24 90.3195 25.32 89.9195 25.48C89.5195 25.6267 89.2329 25.84 89.0595 26.12C88.8862 26.3867 88.7995 26.6933 88.7995 27.04C88.7995 27.4 88.8795 27.7133 89.0395 27.98C89.2129 28.2467 89.4595 28.4533 89.7795 28.6C90.1129 28.7467 90.5062 28.82 90.9595 28.82ZM102.278 34.64C101.372 34.64 100.565 34.52 99.8584 34.28C99.1651 34.0533 98.6251 33.7 98.2384 33.22C97.8518 32.74 97.6584 32.1467 97.6584 31.44C97.6584 31.1333 97.7184 30.8067 97.8384 30.46C97.9718 30.1133 98.1918 29.7733 98.4984 29.44C98.8184 29.1067 99.2651 28.8067 99.8384 28.54L100.998 29.22C100.292 29.5133 99.8318 29.8467 99.6184 30.22C99.4051 30.6067 99.2984 30.96 99.2984 31.28C99.2984 31.72 99.4251 32.0867 99.6784 32.38C99.9318 32.6733 100.285 32.8933 100.738 33.04C101.192 33.1867 101.705 33.26 102.278 33.26C102.852 33.26 103.345 33.1733 103.758 33C104.172 32.84 104.492 32.6133 104.718 32.32C104.945 32.04 105.058 31.7 105.058 31.3C105.058 30.8333 104.885 30.44 104.538 30.12C104.192 29.8133 103.532 29.6333 102.558 29.58C101.772 29.5267 101.112 29.4533 100.578 29.36C100.045 29.2667 99.6051 29.16 99.2584 29.04C98.9118 28.9067 98.6184 28.76 98.3784 28.6C98.1518 28.44 97.9451 28.2733 97.7584 28.1V27.64L99.6984 25.72L101.158 26.24L99.1584 28.04L99.4184 27.34C99.5651 27.4467 99.7051 27.5467 99.8384 27.64C99.9718 27.7333 100.152 27.8133 100.378 27.88C100.605 27.9467 100.918 28.0067 101.318 28.06C101.732 28.1133 102.272 28.1667 102.938 28.22C103.858 28.2867 104.592 28.4467 105.138 28.7C105.698 28.9533 106.098 29.2933 106.338 29.72C106.592 30.1467 106.718 30.6533 106.718 31.24C106.718 31.8133 106.558 32.3533 106.238 32.86C105.932 33.38 105.452 33.8067 104.798 34.14C104.145 34.4733 103.305 34.64 102.278 34.64ZM102.258 26.84C101.418 26.84 100.698 26.68 100.098 26.36C99.5118 26.04 99.0651 25.6133 98.7584 25.08C98.4518 24.5333 98.2984 23.9267 98.2984 23.26C98.2984 22.5933 98.4518 21.9933 98.7584 21.46C99.0784 20.9267 99.5318 20.5 100.118 20.18C100.705 19.8467 101.418 19.68 102.258 19.68C103.098 19.68 103.812 19.8467 104.398 20.18C104.985 20.5 105.432 20.9267 105.738 21.46C106.045 21.9933 106.198 22.5933 106.198 23.26C106.198 23.9267 106.045 24.5333 105.738 25.08C105.432 25.6133 104.985 26.04 104.398 26.36C103.812 26.68 103.098 26.84 102.258 26.84ZM102.258 25.46C102.978 25.46 103.545 25.2733 103.958 24.9C104.372 24.5267 104.578 23.98 104.578 23.26C104.578 22.5533 104.372 22.0133 103.958 21.64C103.545 21.2667 102.978 21.08 102.258 21.08C101.552 21.08 100.978 21.2667 100.538 21.64C100.112 22.0133 99.8984 22.5533 99.8984 23.26C99.8984 23.98 100.112 24.5267 100.538 24.9C100.965 25.2733 101.538 25.46 102.258 25.46ZM103.898 21.34L103.398 19.92H107.518V21.18L103.898 21.34ZM113.431 34.64C112.524 34.64 111.717 34.52 111.011 34.28C110.317 34.0533 109.777 33.7 109.391 33.22C109.004 32.74 108.811 32.1467 108.811 31.44C108.811 31.1333 108.871 30.8067 108.991 30.46C109.124 30.1133 109.344 29.7733 109.651 29.44C109.971 29.1067 110.417 28.8067 110.991 28.54L112.151 29.22C111.444 29.5133 110.984 29.8467 110.771 30.22C110.557 30.6067 110.451 30.96 110.451 31.28C110.451 31.72 110.577 32.0867 110.831 32.38C111.084 32.6733 111.437 32.8933 111.891 33.04C112.344 33.1867 112.857 33.26 113.431 33.26C114.004 33.26 114.497 33.1733 114.911 33C115.324 32.84 115.644 32.6133 115.871 32.32C116.097 32.04 116.211 31.7 116.211 31.3C116.211 30.8333 116.037 30.44 115.691 30.12C115.344 29.8133 114.684 29.6333 113.711 29.58C112.924 29.5267 112.264 29.4533 111.731 29.36C111.197 29.2667 110.757 29.16 110.411 29.04C110.064 28.9067 109.771 28.76 109.531 28.6C109.304 28.44 109.097 28.2733 108.911 28.1V27.64L110.851 25.72L112.311 26.24L110.311 28.04L110.571 27.34C110.717 27.4467 110.857 27.5467 110.991 27.64C111.124 27.7333 111.304 27.8133 111.531 27.88C111.757 27.9467 112.071 28.0067 112.471 28.06C112.884 28.1133 113.424 28.1667 114.091 28.22C115.011 28.2867 115.744 28.4467 116.291 28.7C116.851 28.9533 117.251 29.2933 117.491 29.72C117.744 30.1467 117.871 30.6533 117.871 31.24C117.871 31.8133 117.711 32.3533 117.391 32.86C117.084 33.38 116.604 33.8067 115.951 34.14C115.297 34.4733 114.457 34.64 113.431 34.64ZM113.411 26.84C112.571 26.84 111.851 26.68 111.251 26.36C110.664 26.04 110.217 25.6133 109.911 25.08C109.604 24.5333 109.451 23.9267 109.451 23.26C109.451 22.5933 109.604 21.9933 109.911 21.46C110.231 20.9267 110.684 20.5 111.271 20.18C111.857 19.8467 112.571 19.68 113.411 19.68C114.251 19.68 114.964 19.8467 115.551 20.18C116.137 20.5 116.584 20.9267 116.891 21.46C117.197 21.9933 117.351 22.5933 117.351 23.26C117.351 23.9267 117.197 24.5333 116.891 25.08C116.584 25.6133 116.137 26.04 115.551 26.36C114.964 26.68 114.251 26.84 113.411 26.84ZM113.411 25.46C114.131 25.46 114.697 25.2733 115.111 24.9C115.524 24.5267 115.731 23.98 115.731 23.26C115.731 22.5533 115.524 22.0133 115.111 21.64C114.697 21.2667 114.131 21.08 113.411 21.08C112.704 21.08 112.131 21.2667 111.691 21.64C111.264 22.0133 111.051 22.5533 111.051 23.26C111.051 23.98 111.264 24.5267 111.691 24.9C112.117 25.2733 112.691 25.46 113.411 25.46ZM115.051 21.34L114.551 19.92H118.671V21.18L115.051 21.34ZM124.633 30.24C123.699 30.24 122.866 30.02 122.133 29.58C121.399 29.14 120.826 28.5267 120.413 27.74C119.999 26.94 119.793 26.0133 119.793 24.96C119.793 23.8933 119.993 22.9667 120.393 22.18C120.806 21.3933 121.379 20.78 122.113 20.34C122.859 19.9 123.713 19.68 124.673 19.68C125.659 19.68 126.499 19.9 127.193 20.34C127.886 20.78 128.413 21.36 128.773 22.08C129.146 22.7867 129.333 23.5667 129.333 24.42C129.333 24.5533 129.333 24.6933 129.333 24.84C129.333 24.9867 129.326 25.1533 129.313 25.34H121.053V24.04H127.673C127.633 23.12 127.326 22.4 126.753 21.88C126.193 21.36 125.486 21.1 124.633 21.1C124.073 21.1 123.546 21.2333 123.053 21.5C122.559 21.7533 122.166 22.1333 121.873 22.64C121.579 23.1333 121.433 23.7533 121.433 24.5V25.06C121.433 25.8867 121.579 26.58 121.873 27.14C122.179 27.7 122.573 28.12 123.053 28.4C123.546 28.68 124.073 28.82 124.633 28.82C125.339 28.82 125.919 28.6667 126.373 28.36C126.839 28.04 127.179 27.6067 127.393 27.06H129.053C128.879 27.6733 128.593 28.22 128.193 28.7C127.793 29.1667 127.293 29.54 126.693 29.82C126.106 30.1 125.419 30.24 124.633 30.24ZM131.58 30V19.92H133.1L133.22 21.84C133.446 21.3867 133.733 21 134.08 20.68C134.44 20.36 134.866 20.1133 135.36 19.94C135.866 19.7667 136.44 19.68 137.08 19.68V21.44H136.46C136.033 21.44 135.626 21.5 135.24 21.62C134.853 21.7267 134.506 21.9067 134.2 22.16C133.906 22.4133 133.673 22.76 133.5 23.2C133.34 23.6267 133.26 24.16 133.26 24.8V30H131.58ZM140.082 34.4L142.542 28.88H141.962L138.002 19.92H139.822L143.102 27.62L146.562 19.92H148.302L141.842 34.4H140.082Z" fill="white"/>
</svg>
