<svg width="26" height="37" viewBox="0 0 26 37" fill="none" xmlns="http://www.w3.org/2000/svg">
<path d="M20.4552 31.6084C20.8583 31.6084 21.2615 31.6048 21.6646 31.6091C22.204 31.6011 22.7262 31.798 23.1253 32.1598C23.5244 32.5215 23.7704 33.021 23.8135 33.5569C23.8956 34.3618 23.857 35.1688 23.8444 35.9742C23.836 36.5162 23.6057 36.7127 23.0577 36.7128C17.1105 36.7142 11.1633 36.7142 5.21617 36.7128C4.65946 36.7126 4.43508 36.4952 4.42724 35.9376C4.41763 35.2533 4.41717 34.569 4.42588 33.8845C4.44201 32.5241 5.35669 31.622 6.72309 31.6072C6.82839 31.6061 6.93358 31.5959 7.0917 31.587C6.69902 31.2666 6.34545 30.9902 6.00524 30.6983C4.80325 29.665 3.83185 28.3922 3.15367 26.9618C3.10895 26.8374 3.0224 26.7322 2.90872 26.6642C2.79504 26.5962 2.66124 26.5695 2.53005 26.5886C1.91769 26.61 1.30401 26.5988 0.690957 26.5928C0.278393 26.5888 0.0239909 26.3762 0.00141172 26.0354C-0.0215579 25.6886 0.237377 25.4373 0.660791 25.3961C0.697331 25.3926 0.734263 25.3918 0.771015 25.3918C3.8243 25.3916 6.87759 25.3919 9.93088 25.3927C10.0166 25.3925 10.1022 25.4016 10.1859 25.4199C10.5361 25.4984 10.7363 25.7554 10.7002 26.0717C10.6824 26.2191 10.6094 26.3543 10.4959 26.4504C10.3824 26.5465 10.2367 26.5963 10.0879 26.59C9.61399 26.6013 9.1396 26.5928 8.60878 26.5928C8.78297 26.8646 9.00781 27.1005 9.27114 27.2878C11.3876 28.9472 13.7427 29.3841 16.2525 28.417C18.7418 27.4578 20.2489 25.5954 20.6721 22.9541C21.1419 20.0217 19.7502 17.2484 17.1632 15.777C16.8891 15.6211 16.6889 15.6004 16.4082 15.7987C15.9879 16.0985 15.5108 16.3101 15.006 16.4205C14.5011 16.5308 13.979 16.5377 13.4714 16.4407C13.1302 16.3823 12.9915 16.487 12.8472 16.7623C12.1666 18.062 11.4753 19.3561 10.7733 20.6447C10.3218 21.4731 9.70204 21.7736 8.76293 21.6371C8.6932 21.6164 8.6182 21.6226 8.55283 21.6545C8.48747 21.6863 8.43653 21.7415 8.41015 21.8091C8.2532 22.1133 8.09176 22.4154 7.92281 22.7131C7.52944 23.4063 6.84237 23.6071 6.13582 23.2369C5.46305 22.8845 4.79161 22.5295 4.1215 22.172C3.39372 21.7814 3.18107 21.1091 3.54641 20.3774C3.58742 20.2885 3.63308 20.2019 3.6832 20.1178C3.99336 19.6325 4.18296 19.2271 3.67109 18.6667C3.21684 18.1693 3.32754 17.484 3.65503 16.8734C4.7472 14.8368 5.82899 12.7948 6.91615 10.7556C8.29666 8.16623 9.69136 5.58423 11.0526 2.9848C11.5061 2.11873 12.1527 1.5829 13.2402 1.80555C13.4202 1.8424 13.4812 1.73758 13.5461 1.61441C13.7056 1.31148 13.8571 1.00394 14.0276 0.707321C14.422 0.0216361 15.0755 -0.18468 15.7832 0.172763C16.5047 0.537197 17.2184 0.916822 17.9244 1.31164C18.5425 1.65712 18.7468 2.3054 18.4519 2.94954C18.2995 3.2824 18.1169 3.60203 17.9387 3.92246C17.8939 3.9871 17.8748 4.06602 17.8852 4.14388C17.8955 4.22175 17.9346 4.29299 17.9947 4.34376C18.6534 5.08442 18.727 5.71269 18.2666 6.59151C17.8354 7.4146 17.402 8.23677 16.9527 9.05008C16.8303 9.27163 16.8425 9.41446 17.0344 9.58456C17.3713 9.89065 17.6374 10.266 17.8144 10.6846C17.8532 10.7731 17.9095 10.853 17.9799 10.9194C18.0503 10.9859 18.1333 11.0376 18.2242 11.0714C22.0955 12.7726 24.5151 15.6849 25.2967 19.8242C25.9749 23.4159 25.0455 26.65 22.7032 29.4726C22.0428 30.2684 21.26 30.9296 20.4552 31.6084ZM13.7415 31.6077C14.9918 31.6077 16.2422 31.6079 17.4925 31.6084C17.6761 31.6183 17.8596 31.5879 18.0301 31.5192C19.4053 30.9124 20.6343 30.0196 21.6348 28.9005C22.6353 27.7815 23.3841 26.4621 23.8309 25.0309C24.2777 23.5998 24.4123 22.0899 24.2255 20.6027C24.0387 19.1154 23.5349 17.6852 22.7479 16.4079C21.7397 14.7448 20.2832 13.3971 18.5442 12.5185C18.2952 12.3907 18.2148 12.4169 18.2039 12.716C18.1812 13.2926 18.0186 13.8551 17.73 14.3553C17.5993 14.5854 17.6589 14.6847 17.8674 14.8149C20.8631 16.685 22.2454 19.3817 21.8878 22.889C21.4799 26.8894 17.9493 30.0649 13.8929 30.0926C11.1788 30.1111 8.94702 29.0377 7.25296 26.9075C7.18286 26.8025 7.08621 26.7178 6.97276 26.6619C6.8593 26.606 6.73307 26.581 6.60679 26.5892C5.98219 26.608 5.35663 26.5942 4.73146 26.5953C4.29801 26.596 4.28879 26.6046 4.50308 26.9833C5.61898 28.9874 7.35559 30.5779 9.45343 31.5171C9.62341 31.587 9.80689 31.6182 9.99051 31.6085C11.2408 31.6069 12.4912 31.6067 13.7415 31.6077ZM10.0595 12.3645C10.0667 12.1466 10.0871 11.9294 10.1207 11.714C10.6222 9.22303 12.9935 7.82455 15.4434 8.58421C15.7314 8.67352 15.8587 8.60689 15.9875 8.35384C16.3588 7.62431 16.7551 6.90746 17.1392 6.18438C17.4973 5.51019 17.4337 5.30545 16.7455 4.93986C15.5778 4.31945 14.4089 3.70103 13.239 3.0846C12.7403 2.8212 12.4639 2.90355 12.1923 3.41122C11.0969 5.45855 10.0036 7.50699 8.91245 9.55657C7.52159 12.1665 6.13197 14.7771 4.7436 17.3884C4.49527 17.856 4.56563 18.1344 5.0002 18.3672C6.25206 19.038 7.50742 19.7023 8.76628 20.36C9.2146 20.5941 9.50027 20.5022 9.74003 20.0558C10.4283 18.7747 11.103 17.4863 11.7962 16.2079C11.9275 15.9657 11.894 15.8385 11.6729 15.667C10.6235 14.8527 10.08 13.7763 10.0595 12.3645ZM14.152 35.5107C15.5621 35.5107 16.9721 35.5107 18.3822 35.5107C19.6574 35.5107 20.9328 35.4993 22.2077 35.5179C22.5674 35.5232 22.6868 35.4037 22.6595 35.0548C22.6338 34.7269 22.6551 34.3954 22.6538 34.0654C22.65 33.1402 22.3201 32.8095 21.3929 32.8093C17.9106 32.8082 14.4284 32.8081 10.9461 32.8089C9.51156 32.809 8.07693 32.8038 6.64242 32.814C6.01228 32.8185 5.64622 33.1973 5.63335 33.8265C5.62536 34.2174 5.6309 34.6086 5.63129 34.9996C5.6318 35.5087 5.6322 35.5103 6.13302 35.5104C8.80602 35.511 11.479 35.5111 14.152 35.5107ZM17.0069 12.4418C17.0078 12.0649 16.934 11.6915 16.7899 11.343C16.6458 10.9945 16.4342 10.6778 16.1671 10.4109C15.9 10.1441 15.5827 9.93234 15.2333 9.78787C14.884 9.6434 14.5095 9.56902 14.1313 9.569C13.7531 9.56898 13.3786 9.6433 13.0293 9.78773C12.6799 9.93215 12.3626 10.1438 12.0955 10.4107C11.8283 10.6775 11.6166 10.9942 11.4725 11.3427C11.3283 11.6912 11.2546 12.0646 11.2554 12.4415C11.2534 12.8191 11.3263 13.1935 11.4698 13.543C11.6134 13.8925 11.8249 14.2103 12.0921 14.478C12.3594 14.7458 12.677 14.9583 13.0269 15.1033C13.3768 15.2484 13.752 15.323 14.131 15.323C14.5099 15.3231 14.8851 15.2484 15.235 15.1035C15.5849 14.9585 15.9027 14.746 16.1699 14.4783C16.4372 14.2106 16.6487 13.8928 16.7923 13.5433C16.9359 13.1938 17.0089 12.8195 17.0069 12.4418ZM17.3398 2.5243C17.3534 2.32905 17.2415 2.28815 17.1462 2.23712C16.7792 2.04069 16.4121 1.84456 16.0433 1.65157C15.0822 1.14856 15.0818 1.14925 14.6225 2.12146C14.6121 2.14355 14.6031 2.1665 14.5909 2.18757C14.5035 2.33845 14.5568 2.43862 14.7013 2.51425C15.3196 2.83778 15.9363 3.16411 16.5547 3.4875C16.6285 3.52609 16.7306 3.59278 16.7864 3.50042C16.9882 3.1667 17.1725 2.82253 17.3398 2.5243ZM5.28377 19.878C5.14509 19.8755 5.11029 19.9778 5.06512 20.0606C4.93637 20.2966 4.82147 20.5405 4.68511 20.7718C4.57196 20.9638 4.61327 21.0834 4.80729 21.1826C5.1888 21.3775 5.56599 21.581 5.94333 21.784C6.84282 22.2678 6.83473 22.2646 7.30714 21.3433C7.42964 21.1044 7.40714 20.982 7.15934 20.859C6.58938 20.5758 6.03233 20.2669 5.46971 19.9691C5.40513 19.9349 5.33844 19.9047 5.28377 19.878Z" fill="#B70908"/>
</svg>
