<svg width="1552" height="58" viewBox="0 0 1552 58" fill="none" xmlns="http://www.w3.org/2000/svg">
<g clip-path="url(#clip0_447_1073)">
<rect x="0.5" width="196" height="58" rx="29" fill="#B70908"/>
<path d="M25.82 39V22.464H31.412C34.132 22.464 36.18 22.912 37.556 23.808C38.948 24.688 39.644 25.992 39.644 27.72C39.644 28.92 39.34 29.944 38.732 30.792C38.14 31.624 37.3 32.264 36.212 32.712C35.124 33.144 33.844 33.36 32.372 33.36H31.124V39H25.82ZM32.156 30.024C33.004 30.024 33.66 29.848 34.124 29.496C34.588 29.144 34.82 28.616 34.82 27.912C34.82 27.256 34.596 26.768 34.148 26.448C33.7 26.112 33.052 25.944 32.204 25.944H31.124V30.024H32.156ZM47.2229 39.192C45.8629 39.192 44.6629 38.928 43.6229 38.4C42.5829 37.872 41.7669 37.144 41.1749 36.216C40.5989 35.272 40.3109 34.192 40.3109 32.976C40.3109 31.728 40.6069 30.648 41.1989 29.736C41.8069 28.808 42.6309 28.088 43.6709 27.576C44.7109 27.064 45.9029 26.808 47.2469 26.808C48.6229 26.808 49.8309 27.072 50.8709 27.6C51.9109 28.112 52.7189 28.832 53.2949 29.76C53.8709 30.672 54.1589 31.744 54.1589 32.976C54.1589 34.208 53.8629 35.296 53.2709 36.24C52.6949 37.168 51.8869 37.896 50.8469 38.424C49.8069 38.936 48.5989 39.192 47.2229 39.192ZM47.2709 35.592C47.9269 35.592 48.4629 35.352 48.8789 34.872C49.3109 34.376 49.5269 33.744 49.5269 32.976C49.5269 32.208 49.3189 31.584 48.9029 31.104C48.4869 30.608 47.9589 30.36 47.3189 30.36C46.6309 30.36 46.0709 30.608 45.6389 31.104C45.2229 31.584 45.0149 32.208 45.0149 32.976C45.0149 33.744 45.2229 34.376 45.6389 34.872C46.0709 35.352 46.6149 35.592 47.2709 35.592ZM58.0258 39L54.9058 26.976H60.0418L61.6497 34.536L63.5458 26.976H67.6738L69.5938 34.728L71.2018 26.976H75.3058L72.4018 39H66.6658L65.0818 32.88L63.5698 39H58.0258ZM84.0234 35.832C84.4874 35.832 84.9754 35.784 85.4874 35.688C86.0154 35.592 86.5514 35.416 87.0954 35.16L87.6714 38.256C87.0794 38.56 86.4314 38.792 85.7274 38.952C85.0394 39.112 84.2474 39.192 83.3514 39.192C81.7354 39.192 80.3754 38.928 79.2714 38.4C78.1834 37.872 77.3594 37.144 76.7994 36.216C76.2394 35.288 75.9594 34.216 75.9594 33C75.9594 31.752 76.2554 30.664 76.8474 29.736C77.4554 28.808 78.2634 28.088 79.2714 27.576C80.2794 27.064 81.3914 26.808 82.6074 26.808C84.4154 26.808 85.7994 27.376 86.7594 28.512C87.7194 29.632 88.1994 31.232 88.1994 33.312L81.0474 34.224C81.5754 35.296 82.5674 35.832 84.0234 35.832ZM80.6634 32.016L84.4314 31.224C84.3674 30.712 84.1914 30.336 83.9034 30.096C83.6154 29.84 83.2554 29.712 82.8234 29.712C82.1834 29.712 81.6714 29.936 81.2874 30.384C80.9194 30.816 80.7114 31.36 80.6634 32.016ZM89.8719 39V26.976H94.8639V29.976C95.1839 28.888 95.6799 28.088 96.3519 27.576C97.0399 27.064 97.8559 26.808 98.7999 26.808L99.3999 31.056C99.0159 31.008 98.6399 30.984 98.2719 30.984C96.0479 30.984 94.9359 31.896 94.9359 33.72V39H89.8719ZM111.443 39H105.203V22.488H111.947C114.587 22.488 116.523 22.856 117.755 23.592C118.987 24.312 119.603 25.312 119.603 26.592C119.603 28.256 118.731 29.4 116.987 30.024C119.227 30.456 120.347 31.776 120.347 33.984C120.347 35.68 119.571 36.944 118.019 37.776C116.483 38.592 114.291 39 111.443 39ZM110.555 29.016H112.451C113.091 29.016 113.611 28.872 114.011 28.584C114.411 28.296 114.611 27.912 114.611 27.432C114.611 26.328 113.859 25.776 112.355 25.776H110.555V29.016ZM112.595 35.616C113.395 35.616 114.011 35.456 114.443 35.136C114.875 34.816 115.091 34.368 115.091 33.792C115.091 33.168 114.875 32.688 114.443 32.352C114.011 32 113.395 31.824 112.595 31.824H110.531V35.616H112.595ZM128.457 39.192C127.097 39.192 125.897 38.928 124.857 38.4C123.817 37.872 123.001 37.144 122.409 36.216C121.833 35.272 121.545 34.192 121.545 32.976C121.545 31.728 121.841 30.648 122.433 29.736C123.041 28.808 123.865 28.088 124.905 27.576C125.945 27.064 127.137 26.808 128.481 26.808C129.857 26.808 131.065 27.072 132.105 27.6C133.145 28.112 133.953 28.832 134.529 29.76C135.105 30.672 135.393 31.744 135.393 32.976C135.393 34.208 135.097 35.296 134.505 36.24C133.929 37.168 133.121 37.896 132.081 38.424C131.041 38.936 129.833 39.192 128.457 39.192ZM128.505 35.592C129.161 35.592 129.697 35.352 130.113 34.872C130.545 34.376 130.761 33.744 130.761 32.976C130.761 32.208 130.553 31.584 130.137 31.104C129.721 30.608 129.193 30.36 128.553 30.36C127.865 30.36 127.305 30.608 126.873 31.104C126.457 31.584 126.249 32.208 126.249 32.976C126.249 33.744 126.457 34.376 126.873 34.872C127.305 35.352 127.849 35.592 128.505 35.592ZM143.504 39.192C142.144 39.192 140.944 38.928 139.904 38.4C138.864 37.872 138.048 37.144 137.456 36.216C136.88 35.272 136.592 34.192 136.592 32.976C136.592 31.728 136.888 30.648 137.48 29.736C138.088 28.808 138.912 28.088 139.952 27.576C140.992 27.064 142.184 26.808 143.528 26.808C144.904 26.808 146.112 27.072 147.152 27.6C148.192 28.112 149 28.832 149.576 29.76C150.152 30.672 150.44 31.744 150.44 32.976C150.44 34.208 150.144 35.296 149.552 36.24C148.976 37.168 148.168 37.896 147.128 38.424C146.088 38.936 144.88 39.192 143.504 39.192ZM143.552 35.592C144.208 35.592 144.744 35.352 145.16 34.872C145.592 34.376 145.808 33.744 145.808 32.976C145.808 32.208 145.6 31.584 145.184 31.104C144.768 30.608 144.24 30.36 143.6 30.36C142.912 30.36 142.352 30.608 141.92 31.104C141.504 31.584 141.296 32.208 141.296 32.976C141.296 33.744 141.504 34.376 141.92 34.872C142.352 35.352 142.896 35.592 143.552 35.592ZM156.103 39.192C155.383 39.192 154.655 39.12 153.919 38.976C153.183 38.832 152.519 38.632 151.927 38.376L152.623 35.352C152.991 35.544 153.495 35.712 154.135 35.856C154.775 35.984 155.343 36.048 155.839 36.048C156.639 36.048 157.039 35.832 157.039 35.4C157.039 35.192 156.911 35.04 156.655 34.944C156.415 34.848 156.095 34.768 155.695 34.704C155.311 34.624 154.895 34.528 154.447 34.416C153.999 34.288 153.575 34.104 153.175 33.864C152.791 33.608 152.471 33.248 152.215 32.784C151.975 32.32 151.855 31.712 151.855 30.96C151.855 29.696 152.351 28.688 153.343 27.936C154.351 27.184 155.727 26.808 157.471 26.808C158.143 26.808 158.767 26.856 159.343 26.952C159.935 27.048 160.495 27.248 161.023 27.552L160.519 30.48C159.671 30.128 158.783 29.952 157.855 29.952C157.263 29.952 156.831 30 156.559 30.096C156.303 30.192 156.175 30.352 156.175 30.576C156.175 30.752 156.303 30.888 156.559 30.984C156.815 31.08 157.143 31.176 157.543 31.272C157.959 31.352 158.391 31.472 158.839 31.632C159.287 31.776 159.711 31.984 160.111 32.256C160.527 32.528 160.863 32.896 161.119 33.36C161.375 33.808 161.503 34.392 161.503 35.112C161.503 36.392 161.031 37.392 160.087 38.112C159.143 38.832 157.815 39.192 156.103 39.192ZM168.32 39.192C167.184 39.192 166.256 39 165.536 38.616C164.832 38.232 164.32 37.712 164 37.056C163.68 36.4 163.52 35.664 163.52 34.848V29.952H161.984V26.976H163.88L166.112 23.184H168.584V26.976H171.368V29.952H168.584V34.152C168.584 34.52 168.704 34.808 168.944 35.016C169.184 35.208 169.496 35.304 169.88 35.304C170.264 35.304 170.648 35.208 171.032 35.016L171.392 38.352C171.008 38.624 170.52 38.832 169.928 38.976C169.336 39.12 168.8 39.192 168.32 39.192Z" fill="#FEF4EB"/>
<rect x="228.5" width="204" height="58" rx="29" fill="#58231B"/>
<path d="M269.789 39.384C268.061 39.384 266.557 39.032 265.277 38.328C264.013 37.624 263.029 36.648 262.325 35.4C261.621 34.152 261.269 32.712 261.269 31.08C261.269 29.336 261.637 27.792 262.373 26.448C263.109 25.104 264.141 24.048 265.469 23.28C266.797 22.512 268.341 22.128 270.101 22.128C272.021 22.128 273.549 22.512 274.685 23.28L273.965 27.048C272.957 26.616 271.909 26.4 270.821 26.4C269.509 26.4 268.477 26.792 267.725 27.576C266.973 28.36 266.597 29.448 266.597 30.84C266.597 32.248 266.933 33.344 267.605 34.128C268.293 34.912 269.165 35.304 270.221 35.304C270.605 35.304 270.925 35.272 271.181 35.208V31.104L275.333 30.624V38.136C274.421 38.552 273.493 38.864 272.549 39.072C271.605 39.28 270.685 39.384 269.789 39.384ZM283.907 43.68C283.299 43.68 282.731 43.64 282.203 43.56C281.675 43.48 281.259 43.384 280.955 43.272L281.339 39.792C281.627 39.856 281.939 39.904 282.275 39.936C282.611 39.984 282.939 40.008 283.259 40.008C284.331 40.008 285.099 39.784 285.563 39.336C286.043 38.888 286.283 38.2 286.283 37.272V35.904C285.899 36.88 285.355 37.592 284.651 38.04C283.947 38.472 283.115 38.688 282.155 38.688C280.667 38.688 279.515 38.152 278.699 37.08C277.883 35.992 277.475 34.464 277.475 32.496V26.976H282.539V32.76C282.539 34.184 283.043 34.896 284.051 34.896C284.675 34.896 285.171 34.64 285.539 34.128C285.923 33.616 286.115 32.944 286.115 32.112V26.976H291.179V36.192C291.179 38.752 290.547 40.64 289.283 41.856C288.019 43.072 286.227 43.68 283.907 43.68ZM293.579 39V26.976H298.571V29.592C298.923 28.696 299.427 28.008 300.083 27.528C300.755 27.048 301.595 26.808 302.603 26.808C303.595 26.808 304.435 27.056 305.123 27.552C305.827 28.032 306.323 28.656 306.611 29.424C307.155 28.608 307.795 27.968 308.531 27.504C309.283 27.04 310.187 26.808 311.243 26.808C312.731 26.808 313.883 27.352 314.699 28.44C315.515 29.512 315.923 31.032 315.923 33V39H310.859V32.736C310.859 31.312 310.355 30.6 309.347 30.6C308.723 30.6 308.219 30.856 307.835 31.368C307.467 31.864 307.283 32.536 307.283 33.384V39H302.219V32.736C302.219 31.984 302.091 31.44 301.835 31.104C301.579 30.768 301.203 30.6 300.707 30.6C300.083 30.6 299.579 30.848 299.195 31.344C298.827 31.824 298.643 32.504 298.643 33.384V39H293.579ZM335.312 39.384C334.16 39.384 333.208 39.216 332.456 38.88C331.704 38.528 331.104 38.048 330.656 37.44C330.208 36.832 329.872 36.12 329.648 35.304C329.424 34.488 329.272 33.608 329.192 32.664H328.064V39H322.808V22.488H329.6C332.224 22.488 334.112 22.952 335.264 23.88C336.432 24.792 337.016 26.032 337.016 27.6C337.016 28.544 336.76 29.392 336.248 30.144C335.736 30.88 334.912 31.496 333.776 31.992C333.84 32.344 333.896 32.632 333.944 32.856C333.992 33.08 334.064 33.328 334.16 33.6C334.368 34.176 334.624 34.576 334.928 34.8C335.248 35.024 335.68 35.136 336.224 35.136C336.576 35.136 336.928 35.088 337.28 34.992L337.568 38.928C337.248 39.056 336.904 39.16 336.536 39.24C336.184 39.336 335.776 39.384 335.312 39.384ZM328.064 29.376H328.976C330.16 29.376 330.992 29.248 331.472 28.992C331.968 28.72 332.216 28.264 332.216 27.624C332.216 27.08 332.016 26.688 331.616 26.448C331.216 26.192 330.584 26.064 329.72 26.064H328.064V29.376ZM346.371 35.832C346.835 35.832 347.323 35.784 347.835 35.688C348.363 35.592 348.899 35.416 349.443 35.16L350.019 38.256C349.427 38.56 348.779 38.792 348.075 38.952C347.387 39.112 346.595 39.192 345.699 39.192C344.083 39.192 342.723 38.928 341.619 38.4C340.531 37.872 339.707 37.144 339.147 36.216C338.587 35.288 338.307 34.216 338.307 33C338.307 31.752 338.603 30.664 339.195 29.736C339.803 28.808 340.611 28.088 341.619 27.576C342.627 27.064 343.739 26.808 344.955 26.808C346.763 26.808 348.147 27.376 349.107 28.512C350.067 29.632 350.547 31.232 350.547 33.312L343.395 34.224C343.923 35.296 344.915 35.832 346.371 35.832ZM343.011 32.016L346.779 31.224C346.715 30.712 346.539 30.336 346.251 30.096C345.963 29.84 345.603 29.712 345.171 29.712C344.531 29.712 344.019 29.936 343.635 30.384C343.267 30.816 343.059 31.36 343.011 32.016ZM357.524 39.192C356.42 39.192 355.42 38.928 354.524 38.4C353.628 37.856 352.916 37.112 352.388 36.168C351.876 35.224 351.62 34.144 351.62 32.928C351.62 31.712 351.876 30.648 352.388 29.736C352.916 28.824 353.628 28.112 354.524 27.6C355.42 27.072 356.42 26.808 357.524 26.808C358.308 26.808 359.068 27.024 359.804 27.456C360.54 27.888 361.108 28.6 361.508 29.592V26.976H366.5V39H361.46V36.768C361.076 37.552 360.564 38.152 359.924 38.568C359.284 38.984 358.484 39.192 357.524 39.192ZM359.084 35.4C359.74 35.4 360.3 35.168 360.764 34.704C361.228 34.224 361.46 33.64 361.46 32.952C361.46 32.264 361.228 31.704 360.764 31.272C360.3 30.824 359.74 30.6 359.084 30.6C358.396 30.6 357.82 30.832 357.356 31.296C356.892 31.76 356.66 32.328 356.66 33C356.66 33.672 356.892 34.24 357.356 34.704C357.82 35.168 358.396 35.4 359.084 35.4ZM374.211 39.192C373.107 39.192 372.107 38.928 371.211 38.4C370.315 37.856 369.603 37.112 369.075 36.168C368.563 35.224 368.307 34.144 368.307 32.928C368.307 31.712 368.563 30.648 369.075 29.736C369.603 28.824 370.315 28.112 371.211 27.6C372.107 27.072 373.107 26.808 374.211 26.808C374.995 26.808 375.747 27.024 376.467 27.456C377.203 27.872 377.747 28.552 378.099 29.496V23.184L383.163 22.44V39H378.147V36.768C377.763 37.552 377.251 38.152 376.611 38.568C375.971 38.984 375.171 39.192 374.211 39.192ZM375.771 35.4C376.427 35.4 376.987 35.168 377.451 34.704C377.915 34.224 378.147 33.64 378.147 32.952C378.147 32.264 377.915 31.704 377.451 31.272C376.987 30.824 376.427 30.6 375.771 30.6C375.083 30.6 374.507 30.832 374.043 31.296C373.579 31.76 373.347 32.328 373.347 33C373.347 33.672 373.579 34.24 374.043 34.704C374.507 35.168 375.083 35.4 375.771 35.4ZM391.883 43.68C391.275 43.68 390.707 43.64 390.179 43.56C389.651 43.48 389.235 43.384 388.931 43.272L389.315 39.792C389.603 39.856 389.915 39.904 390.251 39.936C390.587 39.984 390.915 40.008 391.235 40.008C392.307 40.008 393.075 39.784 393.539 39.336C394.019 38.888 394.259 38.2 394.259 37.272V35.904C393.875 36.88 393.331 37.592 392.627 38.04C391.923 38.472 391.091 38.688 390.131 38.688C388.643 38.688 387.491 38.152 386.675 37.08C385.859 35.992 385.451 34.464 385.451 32.496V26.976H390.515V32.76C390.515 34.184 391.019 34.896 392.027 34.896C392.651 34.896 393.147 34.64 393.515 34.128C393.899 33.616 394.091 32.944 394.091 32.112V26.976H399.155V36.192C399.155 38.752 398.523 40.64 397.259 41.856C395.995 43.072 394.203 43.68 391.883 43.68Z" fill="#FEF4EB"/>
<rect x="464.5" width="235" height="58" rx="29" fill="#FF9800"/>
<path d="M494.86 39.384C493.852 39.384 492.828 39.256 491.788 39C490.748 38.76 489.868 38.432 489.148 38.016L490.012 34.104C490.94 34.6 491.804 34.928 492.604 35.088C493.42 35.232 494.172 35.304 494.86 35.304C495.5 35.304 495.98 35.2 496.3 34.992C496.636 34.784 496.804 34.504 496.804 34.152C496.804 33.832 496.62 33.584 496.252 33.408C495.884 33.216 495.404 33.04 494.812 32.88C494.236 32.72 493.62 32.536 492.964 32.328C492.308 32.104 491.684 31.816 491.092 31.464C490.516 31.096 490.044 30.616 489.676 30.024C489.308 29.416 489.124 28.656 489.124 27.744C489.124 26.592 489.404 25.6 489.964 24.768C490.524 23.92 491.324 23.272 492.364 22.824C493.404 22.36 494.628 22.128 496.036 22.128C496.98 22.128 497.9 22.256 498.796 22.512C499.708 22.752 500.436 23.08 500.98 23.496L500.164 27.024C499.348 26.688 498.612 26.448 497.956 26.304C497.316 26.144 496.708 26.064 496.132 26.064C495.46 26.064 494.948 26.16 494.596 26.352C494.244 26.544 494.068 26.8 494.068 27.12C494.068 27.424 494.252 27.672 494.62 27.864C494.988 28.056 495.46 28.24 496.036 28.416C496.612 28.592 497.228 28.792 497.884 29.016C498.54 29.24 499.156 29.536 499.732 29.904C500.308 30.272 500.78 30.752 501.148 31.344C501.516 31.936 501.7 32.68 501.7 33.576C501.7 35.432 501.092 36.864 499.876 37.872C498.676 38.88 497.004 39.384 494.86 39.384ZM503.223 39V26.976H508.215V29.592C508.567 28.696 509.071 28.008 509.727 27.528C510.399 27.048 511.239 26.808 512.247 26.808C513.239 26.808 514.079 27.056 514.767 27.552C515.471 28.032 515.967 28.656 516.255 29.424C516.799 28.608 517.439 27.968 518.175 27.504C518.927 27.04 519.831 26.808 520.887 26.808C522.375 26.808 523.527 27.352 524.343 28.44C525.159 29.512 525.567 31.032 525.567 33V39H520.503V32.736C520.503 31.312 519.999 30.6 518.991 30.6C518.367 30.6 517.863 30.856 517.479 31.368C517.111 31.864 516.927 32.536 516.927 33.384V39H511.863V32.736C511.863 31.984 511.735 31.44 511.479 31.104C511.223 30.768 510.847 30.6 510.351 30.6C509.727 30.6 509.223 30.848 508.839 31.344C508.471 31.824 508.287 32.504 508.287 33.384V39H503.223ZM534.168 39.192C532.808 39.192 531.608 38.928 530.568 38.4C529.528 37.872 528.712 37.144 528.12 36.216C527.544 35.272 527.256 34.192 527.256 32.976C527.256 31.728 527.552 30.648 528.144 29.736C528.752 28.808 529.576 28.088 530.616 27.576C531.656 27.064 532.848 26.808 534.192 26.808C535.568 26.808 536.776 27.072 537.816 27.6C538.856 28.112 539.664 28.832 540.24 29.76C540.816 30.672 541.104 31.744 541.104 32.976C541.104 34.208 540.808 35.296 540.216 36.24C539.64 37.168 538.832 37.896 537.792 38.424C536.752 38.936 535.544 39.192 534.168 39.192ZM534.216 35.592C534.872 35.592 535.408 35.352 535.824 34.872C536.256 34.376 536.472 33.744 536.472 32.976C536.472 32.208 536.264 31.584 535.848 31.104C535.432 30.608 534.904 30.36 534.264 30.36C533.576 30.36 533.016 30.608 532.584 31.104C532.168 31.584 531.96 32.208 531.96 32.976C531.96 33.744 532.168 34.376 532.584 34.872C533.016 35.352 533.56 35.592 534.216 35.592ZM549.215 39.192C547.855 39.192 546.655 38.928 545.615 38.4C544.575 37.872 543.759 37.144 543.167 36.216C542.591 35.272 542.303 34.192 542.303 32.976C542.303 31.728 542.599 30.648 543.191 29.736C543.799 28.808 544.623 28.088 545.663 27.576C546.703 27.064 547.895 26.808 549.239 26.808C550.615 26.808 551.823 27.072 552.863 27.6C553.903 28.112 554.711 28.832 555.287 29.76C555.863 30.672 556.151 31.744 556.151 32.976C556.151 34.208 555.855 35.296 555.263 36.24C554.687 37.168 553.879 37.896 552.839 38.424C551.799 38.936 550.591 39.192 549.215 39.192ZM549.263 35.592C549.919 35.592 550.455 35.352 550.871 34.872C551.303 34.376 551.519 33.744 551.519 32.976C551.519 32.208 551.311 31.584 550.895 31.104C550.479 30.608 549.951 30.36 549.311 30.36C548.623 30.36 548.063 30.608 547.631 31.104C547.215 31.584 547.007 32.208 547.007 32.976C547.007 33.744 547.215 34.376 547.631 34.872C548.063 35.352 548.607 35.592 549.263 35.592ZM562.992 39.192C561.856 39.192 560.928 39 560.208 38.616C559.504 38.232 558.992 37.712 558.672 37.056C558.352 36.4 558.192 35.664 558.192 34.848V29.952H556.656V26.976H558.552L560.784 23.184H563.256V26.976H566.04V29.952H563.256V34.152C563.256 34.52 563.376 34.808 563.616 35.016C563.856 35.208 564.168 35.304 564.552 35.304C564.936 35.304 565.32 35.208 565.704 35.016L566.064 38.352C565.68 38.624 565.192 38.832 564.6 38.976C564.008 39.12 563.472 39.192 562.992 39.192ZM567.794 39V23.184L572.858 22.44V29.448C573.194 28.616 573.722 27.968 574.442 27.504C575.162 27.04 576.026 26.808 577.034 26.808C578.602 26.808 579.818 27.352 580.682 28.44C581.546 29.512 581.978 31.032 581.978 33V39H576.914V32.736C576.914 31.312 576.338 30.6 575.186 30.6C574.498 30.6 573.938 30.856 573.506 31.368C573.074 31.864 572.858 32.536 572.858 33.384V39H567.794ZM591.435 39V26.28H587.715V22.488H600.747V26.28H597.027V39H591.435ZM608.211 35.832C608.675 35.832 609.163 35.784 609.675 35.688C610.203 35.592 610.739 35.416 611.283 35.16L611.859 38.256C611.267 38.56 610.619 38.792 609.915 38.952C609.227 39.112 608.435 39.192 607.539 39.192C605.923 39.192 604.563 38.928 603.459 38.4C602.371 37.872 601.547 37.144 600.987 36.216C600.427 35.288 600.147 34.216 600.147 33C600.147 31.752 600.443 30.664 601.035 29.736C601.643 28.808 602.451 28.088 603.459 27.576C604.467 27.064 605.579 26.808 606.795 26.808C608.603 26.808 609.987 27.376 610.947 28.512C611.907 29.632 612.387 31.232 612.387 33.312L605.235 34.224C605.763 35.296 606.755 35.832 608.211 35.832ZM604.851 32.016L608.619 31.224C608.555 30.712 608.379 30.336 608.091 30.096C607.803 29.84 607.443 29.712 607.011 29.712C606.371 29.712 605.859 29.936 605.475 30.384C605.107 30.816 604.899 31.36 604.851 32.016ZM612.814 39L616.462 32.76L613.054 26.976H618.118L619.462 29.808L620.854 26.976H625.774L622.414 32.76L626.014 39H621.094L619.462 35.928L617.878 39H612.814ZM632.297 39.192C631.161 39.192 630.233 39 629.513 38.616C628.809 38.232 628.297 37.712 627.977 37.056C627.657 36.4 627.497 35.664 627.497 34.848V29.952H625.961V26.976H627.857L630.089 23.184H632.561V26.976H635.345V29.952H632.561V34.152C632.561 34.52 632.681 34.808 632.921 35.016C633.161 35.208 633.473 35.304 633.857 35.304C634.241 35.304 634.625 35.208 635.009 35.016L635.369 38.352C634.985 38.624 634.497 38.832 633.905 38.976C633.313 39.12 632.777 39.192 632.297 39.192ZM643.458 39.192C641.426 39.192 639.834 38.68 638.682 37.656C637.546 36.616 636.978 35.184 636.978 33.36V26.976H641.922V33.576C641.922 34.216 642.058 34.688 642.33 34.992C642.618 35.296 643.002 35.448 643.482 35.448C643.946 35.448 644.306 35.296 644.562 34.992C644.834 34.688 644.97 34.216 644.97 33.576V26.976H649.818V33.36C649.818 35.2 649.258 36.632 648.138 37.656C647.034 38.68 645.474 39.192 643.458 39.192ZM652.098 39V26.976H657.09V29.976C657.41 28.888 657.906 28.088 658.578 27.576C659.266 27.064 660.082 26.808 661.026 26.808L661.626 31.056C661.242 31.008 660.866 30.984 660.498 30.984C658.274 30.984 657.162 31.896 657.162 33.72V39H652.098ZM669.945 35.832C670.409 35.832 670.897 35.784 671.409 35.688C671.937 35.592 672.473 35.416 673.017 35.16L673.593 38.256C673.001 38.56 672.353 38.792 671.649 38.952C670.961 39.112 670.169 39.192 669.273 39.192C667.657 39.192 666.297 38.928 665.193 38.4C664.105 37.872 663.281 37.144 662.721 36.216C662.161 35.288 661.881 34.216 661.881 33C661.881 31.752 662.177 30.664 662.769 29.736C663.377 28.808 664.185 28.088 665.193 27.576C666.201 27.064 667.313 26.808 668.529 26.808C670.337 26.808 671.721 27.376 672.681 28.512C673.641 29.632 674.121 31.232 674.121 33.312L666.969 34.224C667.497 35.296 668.489 35.832 669.945 35.832ZM666.585 32.016L670.353 31.224C670.289 30.712 670.113 30.336 669.825 30.096C669.537 29.84 669.177 29.712 668.745 29.712C668.105 29.712 667.593 29.936 667.209 30.384C666.841 30.816 666.633 31.36 666.585 32.016Z" fill="#FEF4EB"/>
<rect x="731.5" width="222" height="58" rx="29" fill="#58231B"/>
<path d="M785.035 39.384C783.307 39.384 781.803 39.032 780.523 38.328C779.259 37.624 778.275 36.648 777.571 35.4C776.867 34.152 776.515 32.712 776.515 31.08C776.515 29.336 776.883 27.792 777.619 26.448C778.355 25.104 779.387 24.048 780.715 23.28C782.043 22.512 783.587 22.128 785.347 22.128C787.267 22.128 788.795 22.512 789.931 23.28L789.211 27.048C788.203 26.616 787.155 26.4 786.067 26.4C784.755 26.4 783.723 26.792 782.971 27.576C782.219 28.36 781.843 29.448 781.843 30.84C781.843 32.248 782.179 33.344 782.851 34.128C783.539 34.912 784.411 35.304 785.467 35.304C785.851 35.304 786.171 35.272 786.427 35.208V31.104L790.579 30.624V38.136C789.667 38.552 788.739 38.864 787.795 39.072C786.851 39.28 785.931 39.384 785.035 39.384ZM792.841 39V26.976H797.833V29.976C798.153 28.888 798.649 28.088 799.321 27.576C800.009 27.064 800.825 26.808 801.769 26.808L802.369 31.056C801.985 31.008 801.609 30.984 801.241 30.984C799.017 30.984 797.905 31.896 797.905 33.72V39H792.841ZM810.687 35.832C811.151 35.832 811.639 35.784 812.151 35.688C812.679 35.592 813.215 35.416 813.759 35.16L814.335 38.256C813.743 38.56 813.095 38.792 812.391 38.952C811.703 39.112 810.911 39.192 810.015 39.192C808.399 39.192 807.039 38.928 805.935 38.4C804.847 37.872 804.023 37.144 803.463 36.216C802.903 35.288 802.623 34.216 802.623 33C802.623 31.752 802.919 30.664 803.511 29.736C804.119 28.808 804.927 28.088 805.935 27.576C806.943 27.064 808.055 26.808 809.271 26.808C811.079 26.808 812.463 27.376 813.423 28.512C814.383 29.632 814.863 31.232 814.863 33.312L807.711 34.224C808.239 35.296 809.231 35.832 810.687 35.832ZM807.327 32.016L811.095 31.224C811.031 30.712 810.855 30.336 810.567 30.096C810.279 29.84 809.919 29.712 809.487 29.712C808.847 29.712 808.335 29.936 807.951 30.384C807.583 30.816 807.375 31.36 807.327 32.016ZM821.84 39.192C820.736 39.192 819.736 38.928 818.84 38.4C817.944 37.856 817.232 37.112 816.704 36.168C816.192 35.224 815.936 34.144 815.936 32.928C815.936 31.712 816.192 30.648 816.704 29.736C817.232 28.824 817.944 28.112 818.84 27.6C819.736 27.072 820.736 26.808 821.84 26.808C822.624 26.808 823.384 27.024 824.12 27.456C824.856 27.888 825.424 28.6 825.824 29.592V26.976H830.816V39H825.776V36.768C825.392 37.552 824.88 38.152 824.24 38.568C823.6 38.984 822.8 39.192 821.84 39.192ZM823.4 35.4C824.056 35.4 824.616 35.168 825.08 34.704C825.544 34.224 825.776 33.64 825.776 32.952C825.776 32.264 825.544 31.704 825.08 31.272C824.616 30.824 824.056 30.6 823.4 30.6C822.712 30.6 822.136 30.832 821.672 31.296C821.208 31.76 820.976 32.328 820.976 33C820.976 33.672 821.208 34.24 821.672 34.704C822.136 35.168 822.712 35.4 823.4 35.4ZM838.359 39.192C837.223 39.192 836.295 39 835.575 38.616C834.871 38.232 834.359 37.712 834.039 37.056C833.719 36.4 833.559 35.664 833.559 34.848V29.952H832.023V26.976H833.919L836.151 23.184H838.623V26.976H841.407V29.952H838.623V34.152C838.623 34.52 838.743 34.808 838.983 35.016C839.223 35.208 839.535 35.304 839.919 35.304C840.303 35.304 840.687 35.208 841.071 35.016L841.431 38.352C841.047 38.624 840.559 38.832 839.967 38.976C839.375 39.12 838.839 39.192 838.359 39.192ZM850.35 39V26.28H846.63V22.488H859.661V26.28H855.942V39H850.35ZM864.965 39.192C863.861 39.192 862.861 38.928 861.965 38.4C861.069 37.856 860.357 37.112 859.829 36.168C859.317 35.224 859.061 34.144 859.061 32.928C859.061 31.712 859.317 30.648 859.829 29.736C860.357 28.824 861.069 28.112 861.965 27.6C862.861 27.072 863.861 26.808 864.965 26.808C865.749 26.808 866.509 27.024 867.245 27.456C867.981 27.888 868.549 28.6 868.949 29.592V26.976H873.941V39H868.901V36.768C868.517 37.552 868.005 38.152 867.365 38.568C866.725 38.984 865.925 39.192 864.965 39.192ZM866.525 35.4C867.181 35.4 867.741 35.168 868.205 34.704C868.669 34.224 868.901 33.64 868.901 32.952C868.901 32.264 868.669 31.704 868.205 31.272C867.741 30.824 867.181 30.6 866.525 30.6C865.837 30.6 865.261 30.832 864.797 31.296C864.333 31.76 864.101 32.328 864.101 33C864.101 33.672 864.333 34.24 864.797 34.704C865.261 35.168 865.837 35.4 866.525 35.4ZM880.212 39.192C879.492 39.192 878.764 39.12 878.028 38.976C877.292 38.832 876.628 38.632 876.036 38.376L876.732 35.352C877.1 35.544 877.604 35.712 878.244 35.856C878.884 35.984 879.452 36.048 879.948 36.048C880.748 36.048 881.148 35.832 881.148 35.4C881.148 35.192 881.02 35.04 880.764 34.944C880.524 34.848 880.204 34.768 879.804 34.704C879.42 34.624 879.004 34.528 878.556 34.416C878.108 34.288 877.684 34.104 877.284 33.864C876.9 33.608 876.58 33.248 876.324 32.784C876.084 32.32 875.964 31.712 875.964 30.96C875.964 29.696 876.46 28.688 877.452 27.936C878.46 27.184 879.836 26.808 881.58 26.808C882.252 26.808 882.876 26.856 883.452 26.952C884.044 27.048 884.604 27.248 885.132 27.552L884.628 30.48C883.78 30.128 882.892 29.952 881.964 29.952C881.372 29.952 880.94 30 880.668 30.096C880.412 30.192 880.284 30.352 880.284 30.576C880.284 30.752 880.412 30.888 880.668 30.984C880.924 31.08 881.252 31.176 881.652 31.272C882.068 31.352 882.5 31.472 882.948 31.632C883.396 31.776 883.82 31.984 884.22 32.256C884.636 32.528 884.972 32.896 885.228 33.36C885.484 33.808 885.612 34.392 885.612 35.112C885.612 36.392 885.14 37.392 884.196 38.112C883.252 38.832 881.924 39.192 880.212 39.192ZM892.43 39.192C891.294 39.192 890.366 39 889.646 38.616C888.942 38.232 888.43 37.712 888.11 37.056C887.79 36.4 887.63 35.664 887.63 34.848V29.952H886.094V26.976H887.99L890.222 23.184H892.694V26.976H895.478V29.952H892.694V34.152C892.694 34.52 892.814 34.808 893.054 35.016C893.294 35.208 893.606 35.304 893.99 35.304C894.374 35.304 894.758 35.208 895.142 35.016L895.502 38.352C895.118 38.624 894.63 38.832 894.038 38.976C893.446 39.12 892.91 39.192 892.43 39.192ZM904.461 35.832C904.925 35.832 905.413 35.784 905.925 35.688C906.453 35.592 906.989 35.416 907.533 35.16L908.109 38.256C907.517 38.56 906.869 38.792 906.165 38.952C905.477 39.112 904.685 39.192 903.789 39.192C902.173 39.192 900.813 38.928 899.709 38.4C898.621 37.872 897.797 37.144 897.237 36.216C896.677 35.288 896.397 34.216 896.397 33C896.397 31.752 896.693 30.664 897.285 29.736C897.893 28.808 898.701 28.088 899.709 27.576C900.717 27.064 901.829 26.808 903.045 26.808C904.853 26.808 906.237 27.376 907.197 28.512C908.157 29.632 908.637 31.232 908.637 33.312L901.485 34.224C902.013 35.296 903.005 35.832 904.461 35.832ZM901.101 32.016L904.869 31.224C904.805 30.712 904.629 30.336 904.341 30.096C904.053 29.84 903.693 29.712 903.261 29.712C902.621 29.712 902.109 29.936 901.725 30.384C901.357 30.816 901.149 31.36 901.101 32.016Z" fill="#FEF4EB"/>
<rect x="985.5" width="194" height="58" rx="29" fill="#E0181E"/>
<path d="M1010.82 39V22.464H1016.41C1019.13 22.464 1021.18 22.912 1022.56 23.808C1023.95 24.688 1024.64 25.992 1024.64 27.72C1024.64 28.92 1024.34 29.944 1023.73 30.792C1023.14 31.624 1022.3 32.264 1021.21 32.712C1020.12 33.144 1018.84 33.36 1017.37 33.36H1016.12V39H1010.82ZM1017.16 30.024C1018 30.024 1018.66 29.848 1019.12 29.496C1019.59 29.144 1019.82 28.616 1019.82 27.912C1019.82 27.256 1019.6 26.768 1019.15 26.448C1018.7 26.112 1018.05 25.944 1017.2 25.944H1016.12V30.024H1017.16ZM1032.6 39.192C1030.57 39.192 1028.98 38.68 1027.82 37.656C1026.69 36.616 1026.12 35.184 1026.12 33.36V26.976H1031.06V33.576C1031.06 34.216 1031.2 34.688 1031.47 34.992C1031.76 35.296 1032.14 35.448 1032.62 35.448C1033.09 35.448 1033.45 35.296 1033.7 34.992C1033.98 34.688 1034.11 34.216 1034.11 33.576V26.976H1038.96V33.36C1038.96 35.2 1038.4 36.632 1037.28 37.656C1036.18 38.68 1034.62 39.192 1032.6 39.192ZM1041.24 39V26.976H1046.23V29.976C1046.55 28.888 1047.05 28.088 1047.72 27.576C1048.41 27.064 1049.22 26.808 1050.17 26.808L1050.77 31.056C1050.38 31.008 1050.01 30.984 1049.64 30.984C1047.42 30.984 1046.3 31.896 1046.3 33.72V39H1041.24ZM1059.09 35.832C1059.55 35.832 1060.04 35.784 1060.55 35.688C1061.08 35.592 1061.61 35.416 1062.16 35.16L1062.73 38.256C1062.14 38.56 1061.49 38.792 1060.79 38.952C1060.1 39.112 1059.31 39.192 1058.41 39.192C1056.8 39.192 1055.44 38.928 1054.33 38.4C1053.25 37.872 1052.42 37.144 1051.86 36.216C1051.3 35.288 1051.02 34.216 1051.02 33C1051.02 31.752 1051.32 30.664 1051.91 29.736C1052.52 28.808 1053.33 28.088 1054.33 27.576C1055.34 27.064 1056.45 26.808 1057.67 26.808C1059.48 26.808 1060.86 27.376 1061.82 28.512C1062.78 29.632 1063.26 31.232 1063.26 33.312L1056.11 34.224C1056.64 35.296 1057.63 35.832 1059.09 35.832ZM1055.73 32.016L1059.49 31.224C1059.43 30.712 1059.25 30.336 1058.97 30.096C1058.68 29.84 1058.32 29.712 1057.89 29.712C1057.25 29.712 1056.73 29.936 1056.35 30.384C1055.98 30.816 1055.77 31.36 1055.73 32.016ZM1069.53 39V22.488H1081.12V26.136H1075.36V29.064H1080.62V32.088H1075.36V35.232H1081.12V39H1069.53ZM1083.17 39V26.976H1088.16V29.592C1088.53 28.696 1089.07 28.008 1089.79 27.528C1090.53 27.048 1091.4 26.808 1092.41 26.808C1093.98 26.808 1095.19 27.352 1096.06 28.44C1096.92 29.512 1097.35 31.032 1097.35 33V39H1092.29V32.736C1092.29 31.312 1091.71 30.6 1090.56 30.6C1089.87 30.6 1089.31 30.856 1088.88 31.368C1088.45 31.864 1088.23 32.536 1088.23 33.384V39H1083.17ZM1107.09 35.832C1107.55 35.832 1108.04 35.784 1108.55 35.688C1109.08 35.592 1109.61 35.416 1110.16 35.16L1110.73 38.256C1110.14 38.56 1109.49 38.792 1108.79 38.952C1108.1 39.112 1107.31 39.192 1106.41 39.192C1104.8 39.192 1103.44 38.928 1102.33 38.4C1101.25 37.872 1100.42 37.144 1099.86 36.216C1099.3 35.288 1099.02 34.216 1099.02 33C1099.02 31.752 1099.32 30.664 1099.91 29.736C1100.52 28.808 1101.33 28.088 1102.33 27.576C1103.34 27.064 1104.45 26.808 1105.67 26.808C1107.48 26.808 1108.86 27.376 1109.82 28.512C1110.78 29.632 1111.26 31.232 1111.26 33.312L1104.11 34.224C1104.64 35.296 1105.63 35.832 1107.09 35.832ZM1103.73 32.016L1107.49 31.224C1107.43 30.712 1107.25 30.336 1106.97 30.096C1106.68 29.84 1106.32 29.712 1105.89 29.712C1105.25 29.712 1104.73 29.936 1104.35 30.384C1103.98 30.816 1103.77 31.36 1103.73 32.016ZM1112.93 39V26.976H1117.93V29.976C1118.25 28.888 1118.74 28.088 1119.41 27.576C1120.1 27.064 1120.92 26.808 1121.86 26.808L1122.46 31.056C1122.08 31.008 1121.7 30.984 1121.33 30.984C1119.11 30.984 1118 31.896 1118 33.72V39H1112.93ZM1130.47 43.68C1129.86 43.68 1129.29 43.64 1128.77 43.56C1128.24 43.48 1127.82 43.384 1127.52 43.272L1127.9 39.792C1128.19 39.856 1128.5 39.904 1128.84 39.936C1129.17 39.984 1129.5 40.008 1129.82 40.008C1130.89 40.008 1131.66 39.784 1132.13 39.336C1132.61 38.888 1132.85 38.2 1132.85 37.272V36.144C1132.4 37.024 1131.85 37.672 1131.19 38.088C1130.53 38.504 1129.71 38.712 1128.72 38.712C1127.58 38.712 1126.56 38.456 1125.65 37.944C1124.73 37.416 1124.01 36.704 1123.49 35.808C1122.97 34.896 1122.72 33.856 1122.72 32.688C1122.72 31.52 1122.97 30.496 1123.49 29.616C1124.01 28.736 1124.73 28.048 1125.65 27.552C1126.56 27.056 1127.58 26.808 1128.72 26.808C1129.52 26.808 1130.29 27.024 1131.02 27.456C1131.76 27.872 1132.32 28.552 1132.7 29.496V26.976H1137.74V36.192C1137.74 38.752 1137.11 40.64 1135.85 41.856C1134.58 43.072 1132.79 43.68 1130.47 43.68ZM1130.28 34.92C1130.97 34.92 1131.54 34.704 1132.01 34.272C1132.47 33.84 1132.7 33.32 1132.7 32.712C1132.7 32.104 1132.47 31.6 1132.01 31.2C1131.54 30.8 1130.97 30.6 1130.28 30.6C1129.54 30.6 1128.93 30.808 1128.45 31.224C1127.99 31.64 1127.76 32.152 1127.76 32.76C1127.76 33.352 1127.99 33.864 1128.45 34.296C1128.93 34.712 1129.54 34.92 1130.28 34.92ZM1146.46 43.68C1145.85 43.68 1145.28 43.64 1144.75 43.56C1144.23 43.48 1143.81 43.384 1143.51 43.272L1143.89 39.792C1144.18 39.856 1144.49 39.904 1144.83 39.936C1145.16 39.984 1145.49 40.008 1145.81 40.008C1146.88 40.008 1147.65 39.784 1148.11 39.336C1148.59 38.888 1148.83 38.2 1148.83 37.272V35.904C1148.45 36.88 1147.91 37.592 1147.2 38.04C1146.5 38.472 1145.67 38.688 1144.71 38.688C1143.22 38.688 1142.07 38.152 1141.25 37.08C1140.43 35.992 1140.03 34.464 1140.03 32.496V26.976H1145.09V32.76C1145.09 34.184 1145.59 34.896 1146.6 34.896C1147.23 34.896 1147.72 34.64 1148.09 34.128C1148.47 33.616 1148.67 32.944 1148.67 32.112V26.976H1153.73V36.192C1153.73 38.752 1153.1 40.64 1151.83 41.856C1150.57 43.072 1148.78 43.68 1146.46 43.68Z" fill="#FEF4EB"/>
<rect x="1211.5" width="127" height="58" rx="29" fill="#58231B"/>
<path d="M1240.37 39L1235.48 22.488H1241.14L1243.68 32.784L1246.23 22.488H1251.65L1246.49 39H1240.37ZM1258.95 35.832C1259.42 35.832 1259.91 35.784 1260.42 35.688C1260.95 35.592 1261.48 35.416 1262.03 35.16L1262.6 38.256C1262.01 38.56 1261.36 38.792 1260.66 38.952C1259.97 39.112 1259.18 39.192 1258.28 39.192C1256.67 39.192 1255.31 38.928 1254.2 38.4C1253.11 37.872 1252.29 37.144 1251.73 36.216C1251.17 35.288 1250.89 34.216 1250.89 33C1250.89 31.752 1251.19 30.664 1251.78 29.736C1252.39 28.808 1253.19 28.088 1254.2 27.576C1255.21 27.064 1256.32 26.808 1257.54 26.808C1259.35 26.808 1260.73 27.376 1261.69 28.512C1262.65 29.632 1263.13 31.232 1263.13 33.312L1255.98 34.224C1256.51 35.296 1257.5 35.832 1258.95 35.832ZM1255.59 32.016L1259.36 31.224C1259.3 30.712 1259.12 30.336 1258.83 30.096C1258.55 29.84 1258.19 29.712 1257.75 29.712C1257.11 29.712 1256.6 29.936 1256.22 30.384C1255.85 30.816 1255.64 31.36 1255.59 32.016ZM1271.95 43.68C1271.35 43.68 1270.78 43.64 1270.25 43.56C1269.72 43.48 1269.31 43.384 1269 43.272L1269.39 39.792C1269.67 39.856 1269.99 39.904 1270.32 39.936C1270.66 39.984 1270.99 40.008 1271.31 40.008C1272.38 40.008 1273.15 39.784 1273.61 39.336C1274.09 38.888 1274.33 38.2 1274.33 37.272V36.144C1273.88 37.024 1273.33 37.672 1272.67 38.088C1272.02 38.504 1271.19 38.712 1270.2 38.712C1269.07 38.712 1268.04 38.456 1267.13 37.944C1266.22 37.416 1265.5 36.704 1264.97 35.808C1264.46 34.896 1264.2 33.856 1264.2 32.688C1264.2 31.52 1264.46 30.496 1264.97 29.616C1265.5 28.736 1266.22 28.048 1267.13 27.552C1268.04 27.056 1269.07 26.808 1270.2 26.808C1271 26.808 1271.77 27.024 1272.51 27.456C1273.24 27.872 1273.8 28.552 1274.19 29.496V26.976H1279.23V36.192C1279.23 38.752 1278.59 40.64 1277.33 41.856C1276.07 43.072 1274.27 43.68 1271.95 43.68ZM1271.76 34.92C1272.45 34.92 1273.03 34.704 1273.49 34.272C1273.95 33.84 1274.19 33.32 1274.19 32.712C1274.19 32.104 1273.95 31.6 1273.49 31.2C1273.03 30.8 1272.45 30.6 1271.76 30.6C1271.03 30.6 1270.42 30.808 1269.94 31.224C1269.47 31.64 1269.24 32.152 1269.24 32.76C1269.24 33.352 1269.47 33.864 1269.94 34.296C1270.42 34.712 1271.03 34.92 1271.76 34.92ZM1286.93 39.192C1285.83 39.192 1284.83 38.928 1283.93 38.4C1283.04 37.856 1282.33 37.112 1281.8 36.168C1281.29 35.224 1281.03 34.144 1281.03 32.928C1281.03 31.712 1281.29 30.648 1281.8 29.736C1282.33 28.824 1283.04 28.112 1283.93 27.6C1284.83 27.072 1285.83 26.808 1286.93 26.808C1287.72 26.808 1288.48 27.024 1289.21 27.456C1289.95 27.888 1290.52 28.6 1290.92 29.592V26.976H1295.91V39H1290.87V36.768C1290.49 37.552 1289.97 38.152 1289.33 38.568C1288.69 38.984 1287.89 39.192 1286.93 39.192ZM1288.49 35.4C1289.15 35.4 1289.71 35.168 1290.17 34.704C1290.64 34.224 1290.87 33.64 1290.87 32.952C1290.87 32.264 1290.64 31.704 1290.17 31.272C1289.71 30.824 1289.15 30.6 1288.49 30.6C1287.81 30.6 1287.23 30.832 1286.77 31.296C1286.3 31.76 1286.07 32.328 1286.07 33C1286.07 33.672 1286.3 34.24 1286.77 34.704C1287.23 35.168 1287.81 35.4 1288.49 35.4ZM1298.32 39V26.976H1303.31V29.592C1303.68 28.696 1304.22 28.008 1304.94 27.528C1305.68 27.048 1306.55 26.808 1307.56 26.808C1309.13 26.808 1310.34 27.352 1311.21 28.44C1312.07 29.512 1312.5 31.032 1312.5 33V39H1307.44V32.736C1307.44 31.312 1306.86 30.6 1305.71 30.6C1305.02 30.6 1304.46 30.856 1304.03 31.368C1303.6 31.864 1303.38 32.536 1303.38 33.384V39H1298.32Z" fill="#FEF4EB"/>
<rect x="1370.5" width="182" height="58" rx="29" fill="#B70908"/>
<path d="M1403.64 39.384C1401.92 39.384 1400.41 39.032 1399.13 38.328C1397.87 37.624 1396.88 36.648 1396.18 35.4C1395.48 34.152 1395.12 32.712 1395.12 31.08C1395.12 29.336 1395.49 27.792 1396.23 26.448C1396.96 25.104 1398 24.048 1399.32 23.28C1400.65 22.512 1402.2 22.128 1403.96 22.128C1405.88 22.128 1407.4 22.512 1408.54 23.28L1407.82 27.048C1406.81 26.616 1405.76 26.4 1404.68 26.4C1403.36 26.4 1402.33 26.792 1401.58 27.576C1400.83 28.36 1400.45 29.448 1400.45 30.84C1400.45 32.248 1400.79 33.344 1401.46 34.128C1402.15 34.912 1403.02 35.304 1404.08 35.304C1404.46 35.304 1404.78 35.272 1405.04 35.208V31.104L1409.19 30.624V38.136C1408.28 38.552 1407.35 38.864 1406.4 39.072C1405.46 39.28 1404.54 39.384 1403.64 39.384ZM1416.18 39.192C1415.04 39.192 1414.11 39 1413.39 38.616C1412.69 38.232 1412.18 37.712 1411.86 37.056C1411.54 36.4 1411.38 35.664 1411.38 34.848V22.704L1416.44 21.96V34.152C1416.44 34.52 1416.56 34.808 1416.8 35.016C1417.04 35.208 1417.35 35.304 1417.74 35.304C1418.12 35.304 1418.51 35.208 1418.89 35.016L1419.25 38.352C1418.87 38.624 1418.38 38.832 1417.79 38.976C1417.19 39.12 1416.66 39.192 1416.18 39.192ZM1426.69 39.192C1424.66 39.192 1423.07 38.68 1421.92 37.656C1420.78 36.616 1420.21 35.184 1420.21 33.36V26.976H1425.16V33.576C1425.16 34.216 1425.29 34.688 1425.56 34.992C1425.85 35.296 1426.24 35.448 1426.72 35.448C1427.18 35.448 1427.54 35.296 1427.8 34.992C1428.07 34.688 1428.2 34.216 1428.2 33.576V26.976H1433.05V33.36C1433.05 35.2 1432.49 36.632 1431.37 37.656C1430.27 38.68 1428.71 39.192 1426.69 39.192ZM1440.47 39.192C1439.33 39.192 1438.4 39 1437.68 38.616C1436.98 38.232 1436.47 37.712 1436.15 37.056C1435.83 36.4 1435.67 35.664 1435.67 34.848V29.952H1434.13V26.976H1436.03L1438.26 23.184H1440.73V26.976H1443.52V29.952H1440.73V34.152C1440.73 34.52 1440.85 34.808 1441.09 35.016C1441.33 35.208 1441.64 35.304 1442.03 35.304C1442.41 35.304 1442.8 35.208 1443.18 35.016L1443.54 38.352C1443.16 38.624 1442.67 38.832 1442.08 38.976C1441.48 39.12 1440.95 39.192 1440.47 39.192ZM1452.5 35.832C1452.96 35.832 1453.45 35.784 1453.96 35.688C1454.49 35.592 1455.03 35.416 1455.57 35.16L1456.15 38.256C1455.56 38.56 1454.91 38.792 1454.2 38.952C1453.52 39.112 1452.72 39.192 1451.83 39.192C1450.21 39.192 1448.85 38.928 1447.75 38.4C1446.66 37.872 1445.84 37.144 1445.28 36.216C1444.72 35.288 1444.44 34.216 1444.44 33C1444.44 31.752 1444.73 30.664 1445.32 29.736C1445.93 28.808 1446.74 28.088 1447.75 27.576C1448.76 27.064 1449.87 26.808 1451.08 26.808C1452.89 26.808 1454.28 27.376 1455.24 28.512C1456.2 29.632 1456.68 31.232 1456.68 33.312L1449.52 34.224C1450.05 35.296 1451.04 35.832 1452.5 35.832ZM1449.14 32.016L1452.91 31.224C1452.84 30.712 1452.67 30.336 1452.38 30.096C1452.09 29.84 1451.73 29.712 1451.3 29.712C1450.66 29.712 1450.15 29.936 1449.76 30.384C1449.4 30.816 1449.19 31.36 1449.14 32.016ZM1458.35 39V26.976H1463.34V29.592C1463.71 28.696 1464.25 28.008 1464.97 27.528C1465.71 27.048 1466.58 26.808 1467.59 26.808C1469.16 26.808 1470.37 27.352 1471.24 28.44C1472.1 29.512 1472.53 31.032 1472.53 33V39H1467.47V32.736C1467.47 31.312 1466.89 30.6 1465.74 30.6C1465.05 30.6 1464.49 30.856 1464.06 31.368C1463.63 31.864 1463.41 32.536 1463.41 33.384V39H1458.35ZM1479.4 39V22.488H1490.77V26.136H1484.56V29.472H1490.32V32.688H1484.56V39H1479.4ZM1492.38 39V26.976H1497.37V29.976C1497.69 28.888 1498.19 28.088 1498.86 27.576C1499.55 27.064 1500.36 26.808 1501.31 26.808L1501.91 31.056C1501.52 31.008 1501.15 30.984 1500.78 30.984C1498.56 30.984 1497.44 31.896 1497.44 33.72V39H1492.38ZM1510.23 35.832C1510.69 35.832 1511.18 35.784 1511.69 35.688C1512.22 35.592 1512.75 35.416 1513.3 35.16L1513.87 38.256C1513.28 38.56 1512.63 38.792 1511.93 38.952C1511.24 39.112 1510.45 39.192 1509.55 39.192C1507.94 39.192 1506.58 38.928 1505.47 38.4C1504.39 37.872 1503.56 37.144 1503 36.216C1502.44 35.288 1502.16 34.216 1502.16 33C1502.16 31.752 1502.46 30.664 1503.05 29.736C1503.66 28.808 1504.47 28.088 1505.47 27.576C1506.48 27.064 1507.59 26.808 1508.81 26.808C1510.62 26.808 1512 27.376 1512.96 28.512C1513.92 29.632 1514.4 31.232 1514.4 33.312L1507.25 34.224C1507.78 35.296 1508.77 35.832 1510.23 35.832ZM1506.87 32.016L1510.63 31.224C1510.57 30.712 1510.39 30.336 1510.11 30.096C1509.82 29.84 1509.46 29.712 1509.03 29.712C1508.39 29.712 1507.87 29.936 1507.49 30.384C1507.12 30.816 1506.91 31.36 1506.87 32.016ZM1523.54 35.832C1524 35.832 1524.49 35.784 1525 35.688C1525.53 35.592 1526.07 35.416 1526.61 35.16L1527.19 38.256C1526.6 38.56 1525.95 38.792 1525.24 38.952C1524.56 39.112 1523.76 39.192 1522.87 39.192C1521.25 39.192 1519.89 38.928 1518.79 38.4C1517.7 37.872 1516.88 37.144 1516.32 36.216C1515.76 35.288 1515.48 34.216 1515.48 33C1515.48 31.752 1515.77 30.664 1516.36 29.736C1516.97 28.808 1517.78 28.088 1518.79 27.576C1519.8 27.064 1520.91 26.808 1522.12 26.808C1523.93 26.808 1525.32 27.376 1526.28 28.512C1527.24 29.632 1527.72 31.232 1527.72 33.312L1520.56 34.224C1521.09 35.296 1522.08 35.832 1523.54 35.832ZM1520.18 32.016L1523.95 31.224C1523.88 30.712 1523.71 30.336 1523.42 30.096C1523.13 29.84 1522.77 29.712 1522.34 29.712C1521.7 29.712 1521.19 29.936 1520.8 30.384C1520.44 30.816 1520.23 31.36 1520.18 32.016Z" fill="#FEF4EB"/>
</g>
<defs>
<clipPath id="clip0_447_1073">
<rect width="1552" height="58" fill="white"/>
</clipPath>
</defs>
</svg>
