<svg width="177" height="46" viewBox="0 0 177 46" fill="none" xmlns="http://www.w3.org/2000/svg">
<rect width="177" height="46" rx="12" fill="#B70908"/>
<path d="M38.1105 36.393C38.1104 37.1945 38.1124 37.9961 38.1095 38.7976C38.1079 39.2528 37.8939 39.4974 37.5063 39.5C37.1141 39.5026 36.894 39.2601 36.8933 38.8072C36.8908 37.1926 36.8847 35.5781 36.8983 33.9636C36.901 33.6397 36.8166 33.6049 36.5096 33.7191C35.0524 34.261 33.5449 34.6056 31.9705 34.6154C28.7479 34.6353 26.3269 33.1106 25.0862 30.307C24.4725 28.9203 24.1616 27.4674 24.0047 25.9806C23.953 25.4902 24.3311 25.1768 24.8526 25.2731C26.378 25.5549 27.9057 25.8279 29.4549 25.9618C30.1051 26.0179 30.7602 26.1006 31.4163 26.0038C31.5065 25.9905 31.6371 26.0295 31.6673 25.917C31.6939 25.818 31.5835 25.7594 31.5132 25.7001C31.1038 25.3751 30.6543 25.0977 30.1744 24.8739C28.4852 24.0246 26.6929 23.4084 24.8916 22.8135C24.2163 22.5905 24.0911 22.3986 24.2248 21.7386C24.6223 19.8131 25.3593 17.964 26.4052 16.2678C26.6785 15.8186 26.9762 15.7352 27.4668 15.9824C28.8385 16.6737 30.2056 17.3732 31.6489 17.9274C32.0621 18.0947 32.4897 18.2287 32.927 18.3279C33.0208 18.3475 33.1283 18.3975 33.2001 18.3143C33.2758 18.2266 33.1901 18.1404 33.143 18.0654C32.8797 17.6662 32.5695 17.2963 32.2183 16.9626C31.2542 16.0046 30.1844 15.1577 29.0932 14.3335C29.0174 14.2762 28.9403 14.2202 28.8663 14.1608C28.4313 13.8118 28.4001 13.5225 28.7709 13.103C29.4239 12.3633 30.1216 11.6596 30.8605 10.9953C32.7041 9.32852 34.7501 7.87238 36.956 6.65713C37.3361 6.44904 37.6646 6.44645 38.0442 6.65643C41.1187 8.34233 43.87 10.5036 46.1829 13.0496C46.6218 13.5342 46.5917 13.8182 46.049 14.2264C44.8608 15.12 43.693 16.0347 42.6558 17.0869C42.3606 17.376 42.0993 17.6942 41.8764 18.036C41.8238 18.1199 41.7184 18.2149 41.8032 18.3134C41.8853 18.409 42.0075 18.3386 42.1102 18.3147C42.905 18.1298 43.6516 17.8241 44.3892 17.4983C45.435 17.0363 46.4553 16.5275 47.4725 16.0125C48.0523 15.7191 48.3013 15.7894 48.6284 16.3341C49.6594 18.051 50.4116 19.866 50.7859 21.8127C50.896 22.3856 50.7593 22.6043 50.1706 22.7964C48.3669 23.385 46.5761 24.0033 44.883 24.8447C44.3814 25.0786 43.9098 25.3658 43.4775 25.7007C43.4064 25.7586 43.2919 25.8108 43.3226 25.9137C43.3553 26.0234 43.4834 25.9928 43.575 26.0024C44.464 26.0958 45.3447 25.9851 46.2242 25.891C47.5523 25.7489 48.8626 25.5021 50.1746 25.2663C50.6565 25.1797 51.0427 25.4854 50.9962 25.9373C50.8179 27.6675 50.455 29.355 49.6062 30.9198C48.0862 33.7215 45.3313 34.8625 42.2043 34.5731C40.9096 34.4499 39.6398 34.1553 38.4324 33.6981C38.1473 33.5915 38.1039 33.6719 38.1069 33.9197C38.1168 34.744 38.1107 35.5685 38.1105 36.393ZM38.1106 24.4386C38.1106 26.9347 38.1098 29.4308 38.1083 31.9269C38.1079 32.1447 38.1232 32.3076 38.3881 32.4133C40.0527 33.0774 41.7679 33.4982 43.5912 33.4147C45.3116 33.3359 46.7415 32.6968 47.803 31.3998C48.7938 30.1892 49.2573 28.7749 49.5376 27.2943C49.68 26.5421 49.686 26.5565 48.8936 26.6885C47.1593 26.9773 45.424 27.2651 43.6499 27.2037C43.2968 27.2015 42.9472 27.1377 42.6188 27.0154C41.9462 26.7449 41.7148 26.1202 42.0547 25.5102C42.2341 25.2097 42.4775 24.9473 42.7696 24.7395C43.3341 24.322 43.9435 23.9613 44.588 23.6636C46.0575 22.9757 47.5767 22.3861 49.1342 21.8992C49.4295 21.8039 49.4969 21.6821 49.4257 21.4015C49.0826 20.0653 48.5764 18.771 47.9173 17.5445C47.7681 17.2644 47.6385 17.2493 47.3658 17.3913C46.1692 18.0268 44.9302 18.5886 43.6564 19.073C43.1065 19.2895 42.5326 19.447 41.9453 19.5425C41.4641 19.6114 41.0064 19.5542 40.6773 19.1879C40.3354 18.8073 40.3618 18.3645 40.5485 17.9232C40.7584 17.4588 41.0471 17.0296 41.4033 16.6523C42.3808 15.5617 43.5272 14.6404 44.7028 13.7506C44.9288 13.5796 44.931 13.4807 44.7368 13.2769C42.7567 11.1988 40.4732 9.46888 37.9752 7.97697C37.6459 7.78031 37.3898 7.76083 37.0524 7.96216C34.5437 9.45932 32.2491 11.1942 30.2604 13.2808C30.0562 13.4952 30.0916 13.5927 30.3065 13.7538C31.3446 14.5117 32.3186 15.3444 33.2197 16.2444C33.7304 16.7676 34.224 17.3071 34.4746 17.9969C34.8305 18.9763 34.1747 19.707 33.0845 19.5471C32.6883 19.488 32.2987 19.3949 31.9204 19.269C30.4237 18.7758 29.0145 18.1041 27.6303 17.3851C27.3452 17.237 27.2247 17.2842 27.0824 17.5523C26.4376 18.7344 25.9459 19.9852 25.6181 21.2779C25.4807 21.845 25.4519 21.7463 26.0179 21.9394C27.7557 22.5323 29.4845 23.1444 31.094 24.0142C31.6748 24.3281 32.2438 24.6645 32.6844 25.1507C33.4647 26.0117 33.1391 26.9256 31.9563 27.1301C30.9435 27.3052 29.9213 27.2081 28.9069 27.0961C27.8094 26.9749 26.7193 26.8051 25.6346 26.606C25.4305 26.5685 25.3431 26.6017 25.3796 26.8298C25.5892 28.1401 25.933 29.4111 26.6233 30.577C27.7012 32.3974 29.3455 33.3543 31.5662 33.4197C33.2757 33.4701 34.8851 33.0753 36.4564 32.4803C36.79 32.354 36.9013 32.1894 36.9004 31.8498C36.8882 26.9492 36.8856 22.0486 36.8925 17.148C36.8864 17.0107 36.8901 16.8732 36.9035 16.7364C36.9222 16.5987 36.9938 16.4723 37.1048 16.3809C37.2158 16.2896 37.3585 16.2397 37.5059 16.2407C37.6533 16.2418 37.7951 16.2936 37.9047 16.3865C38.0142 16.4793 38.0839 16.6068 38.1004 16.7447C38.1122 16.8702 38.1155 16.9962 38.1102 17.1221C38.1107 19.5609 38.1108 21.9998 38.1106 24.4386Z" fill="white"/>
<path d="M59.6 30L64.76 16H66.54L71.68 30H69.9L65.64 18.1L61.36 30H59.6ZM61.96 26.4L62.44 25.04H68.78L69.26 26.4H61.96ZM73.6813 30V15.6H75.3613V30H73.6813ZM78.1344 30V15.6H79.8144V30H78.1344ZM88 30V16H89.68L97.14 27.22V16H98.82V30H97.14L89.68 18.78V30H88ZM105.008 30.24C104.195 30.24 103.515 30.1 102.968 29.82C102.421 29.5267 102.015 29.1467 101.748 28.68C101.481 28.2 101.348 27.68 101.348 27.12C101.348 26.44 101.521 25.8667 101.868 25.4C102.228 24.92 102.728 24.56 103.368 24.32C104.021 24.0667 104.788 23.94 105.668 23.94H108.328C108.328 23.3133 108.228 22.7933 108.028 22.38C107.841 21.9533 107.561 21.6333 107.188 21.42C106.828 21.2067 106.375 21.1 105.828 21.1C105.188 21.1 104.635 21.26 104.168 21.58C103.701 21.9 103.415 22.3733 103.308 23H101.588C101.668 22.28 101.908 21.68 102.308 21.2C102.721 20.7067 103.241 20.3333 103.868 20.08C104.495 19.8133 105.148 19.68 105.828 19.68C106.761 19.68 107.535 19.8533 108.148 20.2C108.775 20.5333 109.241 21.0067 109.548 21.62C109.855 22.22 110.008 22.9333 110.008 23.76V30H108.508L108.408 28.22C108.275 28.5 108.101 28.7667 107.888 29.02C107.688 29.26 107.448 29.4733 107.168 29.66C106.901 29.8333 106.588 29.9733 106.228 30.08C105.868 30.1867 105.461 30.24 105.008 30.24ZM105.268 28.82C105.735 28.82 106.155 28.7267 106.528 28.54C106.915 28.34 107.241 28.0733 107.508 27.74C107.775 27.3933 107.975 27.0133 108.108 26.6C108.255 26.1867 108.328 25.7533 108.328 25.3V25.24H105.808C105.155 25.24 104.628 25.32 104.228 25.48C103.828 25.6267 103.541 25.84 103.368 26.12C103.195 26.3867 103.108 26.6933 103.108 27.04C103.108 27.4 103.188 27.7133 103.348 27.98C103.521 28.2467 103.768 28.4533 104.088 28.6C104.421 28.7467 104.815 28.82 105.268 28.82ZM116.294 30C115.694 30 115.174 29.9067 114.734 29.72C114.294 29.5333 113.954 29.22 113.714 28.78C113.487 28.3267 113.374 27.72 113.374 26.96V21.34H111.614V19.92H113.374L113.594 17.48H115.054V19.92H117.974V21.34H115.054V26.96C115.054 27.5867 115.18 28.0133 115.434 28.24C115.687 28.4533 116.134 28.56 116.774 28.56H117.854V30H116.294ZM123.826 30.24C123.052 30.24 122.372 30.0867 121.786 29.78C121.212 29.4733 120.766 29 120.446 28.36C120.139 27.72 119.986 26.92 119.986 25.96V19.92H121.666V25.78C121.666 26.78 121.886 27.5333 122.326 28.04C122.766 28.5467 123.386 28.8 124.186 28.8C124.746 28.8 125.252 28.6667 125.706 28.4C126.159 28.12 126.512 27.7267 126.766 27.22C127.032 26.7 127.166 26.06 127.166 25.3V19.92H128.846V30H127.326L127.226 28.24C126.919 28.8667 126.466 29.36 125.866 29.72C125.266 30.0667 124.586 30.24 123.826 30.24ZM131.63 30V19.92H133.15L133.27 21.84C133.497 21.3867 133.784 21 134.13 20.68C134.49 20.36 134.917 20.1133 135.41 19.94C135.917 19.7667 136.49 19.68 137.13 19.68V21.44H136.51C136.084 21.44 135.677 21.5 135.29 21.62C134.904 21.7267 134.557 21.9067 134.25 22.16C133.957 22.4133 133.724 22.76 133.55 23.2C133.39 23.6267 133.31 24.16 133.31 24.8V30H131.63ZM142.313 30.24C141.499 30.24 140.819 30.1 140.273 29.82C139.726 29.5267 139.319 29.1467 139.053 28.68C138.786 28.2 138.653 27.68 138.653 27.12C138.653 26.44 138.826 25.8667 139.173 25.4C139.533 24.92 140.033 24.56 140.673 24.32C141.326 24.0667 142.093 23.94 142.973 23.94H145.633C145.633 23.3133 145.533 22.7933 145.333 22.38C145.146 21.9533 144.866 21.6333 144.493 21.42C144.133 21.2067 143.679 21.1 143.133 21.1C142.493 21.1 141.939 21.26 141.473 21.58C141.006 21.9 140.719 22.3733 140.613 23H138.893C138.973 22.28 139.213 21.68 139.613 21.2C140.026 20.7067 140.546 20.3333 141.173 20.08C141.799 19.8133 142.453 19.68 143.133 19.68C144.066 19.68 144.839 19.8533 145.453 20.2C146.079 20.5333 146.546 21.0067 146.853 21.62C147.159 22.22 147.313 22.9333 147.313 23.76V30H145.813L145.713 28.22C145.579 28.5 145.406 28.7667 145.193 29.02C144.993 29.26 144.753 29.4733 144.473 29.66C144.206 29.8333 143.893 29.9733 143.533 30.08C143.173 30.1867 142.766 30.24 142.313 30.24ZM142.573 28.82C143.039 28.82 143.459 28.7267 143.833 28.54C144.219 28.34 144.546 28.0733 144.813 27.74C145.079 27.3933 145.279 27.0133 145.413 26.6C145.559 26.1867 145.633 25.7533 145.633 25.3V25.24H143.113C142.459 25.24 141.933 25.32 141.533 25.48C141.133 25.6267 140.846 25.84 140.673 26.12C140.499 26.3867 140.413 26.6933 140.413 27.04C140.413 27.4 140.493 27.7133 140.653 27.98C140.826 28.2467 141.073 28.4533 141.393 28.6C141.726 28.7467 142.119 28.82 142.573 28.82ZM149.912 30V15.6H151.592V30H149.912Z" fill="white"/>
</svg>
