<svg width="277" height="22" viewBox="0 0 277 22" fill="none" xmlns="http://www.w3.org/2000/svg">
<g clip-path="url(#clip0_242_5450)">
<path d="M14.0003 5.66669H2.00033C1.26395 5.66669 0.666992 6.26364 0.666992 7.00002V15C0.666992 15.7364 1.26395 16.3334 2.00033 16.3334H14.0003C14.7367 16.3334 15.3337 15.7364 15.3337 15V7.00002C15.3337 6.26364 14.7367 5.66669 14.0003 5.66669Z" stroke="#58231B" stroke-width="1.5" stroke-linecap="round" stroke-linejoin="round"/>
<path d="M0.666992 9.66669H15.3337" stroke="#58231B" stroke-width="1.5" stroke-linecap="round" stroke-linejoin="round"/>
</g>
<path d="M24.994 16V6.2H28.522C29.306 6.2 29.9547 6.33533 30.468 6.606C30.9813 6.86733 31.364 7.222 31.616 7.67C31.868 8.118 31.994 8.63133 31.994 9.21C31.994 9.75133 31.8727 10.2507 31.63 10.708C31.3873 11.156 31.0093 11.52 30.496 11.8C29.9827 12.0707 29.3247 12.206 28.522 12.206H26.674V16H24.994ZM26.674 10.834H28.424C29.0867 10.834 29.5627 10.6893 29.852 10.4C30.1413 10.1013 30.286 9.70467 30.286 9.21C30.286 8.69667 30.1413 8.29533 29.852 8.006C29.5627 7.71667 29.0867 7.572 28.424 7.572H26.674V10.834ZM35.3154 16.168C34.7367 16.168 34.2561 16.07 33.8734 15.874C33.4907 15.678 33.2061 15.4167 33.0194 15.09C32.8327 14.7633 32.7394 14.4087 32.7394 14.026C32.7394 13.578 32.8514 13.1907 33.0754 12.864C33.3087 12.5373 33.6494 12.2853 34.0974 12.108C34.5454 11.9213 35.0961 11.828 35.7494 11.828H37.5274C37.5274 11.4547 37.4761 11.1467 37.3734 10.904C37.2707 10.652 37.1121 10.4653 36.8974 10.344C36.6827 10.2227 36.4074 10.162 36.0714 10.162C35.6887 10.162 35.3621 10.2507 35.0914 10.428C34.8207 10.596 34.6527 10.8573 34.5874 11.212H32.9354C32.9914 10.708 33.1594 10.2787 33.4394 9.924C33.7194 9.56 34.0881 9.28 34.5454 9.084C35.0121 8.87867 35.5207 8.776 36.0714 8.776C36.7341 8.776 37.2987 8.89267 37.7654 9.126C38.2321 9.35 38.5867 9.67667 38.8294 10.106C39.0814 10.526 39.2074 11.0347 39.2074 11.632V16H37.7794L37.6114 14.866C37.5181 15.0527 37.3967 15.2253 37.2474 15.384C37.1074 15.5427 36.9441 15.6827 36.7574 15.804C36.5707 15.916 36.3561 16.0047 36.1134 16.07C35.8801 16.1353 35.6141 16.168 35.3154 16.168ZM35.6934 14.838C35.9641 14.838 36.2021 14.7913 36.4074 14.698C36.6221 14.5953 36.8041 14.4553 36.9534 14.278C37.1121 14.0913 37.2334 13.886 37.3174 13.662C37.4014 13.438 37.4574 13.2 37.4854 12.948V12.92H35.9314C35.6047 12.92 35.3341 12.962 35.1194 13.046C34.9047 13.1207 34.7507 13.2327 34.6574 13.382C34.5641 13.5313 34.5174 13.704 34.5174 13.9C34.5174 14.096 34.5641 14.264 34.6574 14.404C34.7507 14.544 34.8861 14.6513 35.0634 14.726C35.2407 14.8007 35.4507 14.838 35.6934 14.838ZM41.624 19.08L43.346 15.216H42.926L40.112 8.944H41.946L44.046 13.732L46.034 8.944H47.812L43.402 19.08H41.624ZM56.9678 16.168C56.0251 16.168 55.1898 15.958 54.4618 15.538C53.7431 15.1087 53.1785 14.516 52.7678 13.76C52.3571 12.9947 52.1518 12.108 52.1518 11.1C52.1518 10.1013 52.3571 9.224 52.7678 8.468C53.1785 7.70267 53.7431 7.10533 54.4618 6.676C55.1898 6.24667 56.0251 6.032 56.9678 6.032C57.9291 6.032 58.7738 6.24667 59.5018 6.676C60.2298 7.10533 60.7945 7.70267 61.1958 8.468C61.5971 9.224 61.7978 10.1013 61.7978 11.1C61.7978 12.108 61.5971 12.9947 61.1958 13.76C60.7945 14.516 60.2298 15.1087 59.5018 15.538C58.7738 15.958 57.9291 16.168 56.9678 16.168ZM56.9818 14.656C57.6071 14.656 58.1531 14.516 58.6198 14.236C59.0865 13.9467 59.4458 13.536 59.6978 13.004C59.9498 12.472 60.0758 11.8373 60.0758 11.1C60.0758 10.3627 59.9498 9.728 59.6978 9.196C59.4458 8.664 59.0865 8.258 58.6198 7.978C58.1531 7.68867 57.6071 7.544 56.9818 7.544C56.3565 7.544 55.8105 7.68867 55.3438 7.978C54.8771 8.258 54.5131 8.664 54.2518 9.196C53.9998 9.728 53.8738 10.3627 53.8738 11.1C53.8738 11.8373 53.9998 12.472 54.2518 13.004C54.5131 13.536 54.8771 13.9467 55.3438 14.236C55.8105 14.516 56.3565 14.656 56.9818 14.656ZM63.3833 16V8.944H64.8673L64.9933 10.12C65.208 9.70933 65.516 9.38267 65.9173 9.14C66.3186 8.89733 66.7946 8.776 67.3453 8.776C67.9146 8.776 68.4 8.89733 68.8013 9.14C69.2026 9.37333 69.5106 9.71867 69.7253 10.176C69.9493 10.6333 70.0613 11.2027 70.0613 11.884V16H68.3813V12.038C68.3813 11.45 68.2506 10.9973 67.9893 10.68C67.728 10.3627 67.3406 10.204 66.8273 10.204C66.4913 10.204 66.188 10.2833 65.9173 10.442C65.656 10.6007 65.446 10.834 65.2873 11.142C65.138 11.4407 65.0633 11.8047 65.0633 12.234V16H63.3833ZM71.8325 16V5.92H73.5125V16H71.8325ZM75.4572 16V8.944H77.1372V16H75.4572ZM76.2972 7.824C75.9892 7.824 75.7326 7.73067 75.5272 7.544C75.3312 7.348 75.2332 7.11 75.2332 6.83C75.2332 6.54067 75.3312 6.30733 75.5272 6.13C75.7326 5.94333 75.9892 5.85 76.2972 5.85C76.6052 5.85 76.8572 5.94333 77.0532 6.13C77.2586 6.30733 77.3612 6.54067 77.3612 6.83C77.3612 7.11 77.2586 7.348 77.0532 7.544C76.8572 7.73067 76.6052 7.824 76.2972 7.824ZM79.0786 16V8.944H80.5626L80.6886 10.12C80.9033 9.70933 81.2113 9.38267 81.6126 9.14C82.014 8.89733 82.49 8.776 83.0406 8.776C83.61 8.776 84.0953 8.89733 84.4966 9.14C84.898 9.37333 85.206 9.71867 85.4206 10.176C85.6446 10.6333 85.7566 11.2027 85.7566 11.884V16H84.0766V12.038C84.0766 11.45 83.946 10.9973 83.6846 10.68C83.4233 10.3627 83.036 10.204 82.5226 10.204C82.1866 10.204 81.8833 10.2833 81.6126 10.442C81.3513 10.6007 81.1413 10.834 80.9826 11.142C80.8333 11.4407 80.7586 11.8047 80.7586 12.234V16H79.0786ZM90.8318 16.168C90.1318 16.168 89.5158 16.0187 88.9838 15.72C88.4518 15.412 88.0365 14.9827 87.7378 14.432C87.4392 13.8813 87.2898 13.2467 87.2898 12.528C87.2898 11.7813 87.4345 11.128 87.7238 10.568C88.0225 10.008 88.4378 9.56933 88.9698 9.252C89.5112 8.93467 90.1365 8.776 90.8458 8.776C91.5365 8.776 92.1385 8.93 92.6518 9.238C93.1652 9.546 93.5618 9.96133 93.8418 10.484C94.1218 10.9973 94.2618 11.576 94.2618 12.22C94.2618 12.3133 94.2618 12.416 94.2618 12.528C94.2618 12.64 94.2525 12.7567 94.2338 12.878H88.4938V11.8H92.5678C92.5492 11.2867 92.3765 10.8853 92.0498 10.596C91.7232 10.2973 91.3172 10.148 90.8318 10.148C90.4865 10.148 90.1692 10.2273 89.8798 10.386C89.5905 10.5447 89.3618 10.7827 89.1938 11.1C89.0258 11.408 88.9418 11.8 88.9418 12.276V12.682C88.9418 13.1207 89.0212 13.4987 89.1798 13.816C89.3478 14.1333 89.5718 14.376 89.8518 14.544C90.1412 14.7027 90.4632 14.782 90.8178 14.782C91.2098 14.782 91.5318 14.698 91.7838 14.53C92.0452 14.362 92.2365 14.138 92.3578 13.858H94.0658C93.9352 14.2967 93.7205 14.6933 93.4218 15.048C93.1232 15.3933 92.7545 15.6687 92.3158 15.874C91.8772 16.07 91.3825 16.168 90.8318 16.168Z" fill="#58231B"/>
<g clip-path="url(#clip1_242_5450)">
<path d="M116.704 15.0732H114.585L115.909 6.93269H118.029L116.704 15.0732ZM112.802 6.93269L110.781 12.5318L110.542 11.3261L110.542 11.3265L109.829 7.66565C109.829 7.66565 109.743 6.93269 108.824 6.93269H105.484L105.444 7.07053C105.444 7.07053 106.466 7.28305 107.661 8.00098L109.503 15.0734H111.711L115.083 6.93269H112.802ZM129.472 15.0732H131.418L129.721 6.93247H128.017C127.231 6.93247 127.039 7.53913 127.039 7.53913L123.878 15.0732H126.087L126.529 13.864H129.224L129.472 15.0732ZM127.14 12.1936L128.253 9.14723L128.88 12.1936H127.14ZM124.044 8.89029L124.346 7.14217C124.346 7.14217 123.413 6.78723 122.44 6.78723C121.388 6.78723 118.891 7.24691 118.891 9.48214C118.891 11.5852 121.822 11.6113 121.822 12.716C121.822 13.8206 119.193 13.6227 118.325 12.9261L118.01 14.7539C118.01 14.7539 118.956 15.2136 120.402 15.2136C121.849 15.2136 124.03 14.4648 124.03 12.4266C124.03 10.31 121.073 10.113 121.073 9.19274C121.073 8.2723 123.137 8.39054 124.044 8.89029Z" fill="#2566AF"/>
<path d="M110.542 11.3262L109.829 7.66533C109.829 7.66533 109.743 6.93237 108.824 6.93237H105.484L105.444 7.07021C105.444 7.07021 107.05 7.40294 108.59 8.64957C110.062 9.84111 110.542 11.3262 110.542 11.3262Z" fill="#E6A540"/>
</g>
<path d="M165.651 3.52441H144.654C143.909 3.52441 143.305 4.12842 143.305 4.87349V17.4369C143.305 18.182 143.909 18.786 144.654 18.786H165.651C166.396 18.786 167 18.182 167 17.4369V4.87349C167 4.12842 166.396 3.52441 165.651 3.52441Z" fill="#F9F9F9" stroke="black" stroke-width="0.05857" stroke-linecap="round" stroke-linejoin="round"/>
<path d="M147.963 13.1309L147.752 12.0914C147.739 12.0245 147.723 11.9582 147.704 11.8927C147.691 11.8442 147.672 11.7976 147.647 11.7541C147.628 11.7206 147.6 11.6927 147.567 11.6731C147.531 11.6543 147.49 11.6453 147.449 11.6469H147.299L146.795 13.1313H145.522L146.957 8.90784H148.648C149.239 8.90784 149.642 9.00454 149.859 9.19796C150.075 9.39139 150.117 9.68152 149.985 10.068C149.935 10.2207 149.862 10.3652 149.769 10.4968C149.593 10.7463 149.356 10.9468 149.081 11.0797C148.943 11.1472 148.799 11.2019 148.649 11.2431L148.64 11.2694C148.744 11.319 148.834 11.3939 148.901 11.4872C148.935 11.5348 148.965 11.5899 148.992 11.6525C149.019 11.7154 149.043 11.7889 149.066 11.8736L149.398 13.1309H147.963ZM148.573 10.2479C148.621 10.1066 148.615 9.99452 148.557 9.91205C148.499 9.82958 148.377 9.78835 148.193 9.78835H147.93L147.602 10.7543H147.832C147.93 10.7543 148.02 10.7393 148.102 10.7086C148.185 10.6782 148.257 10.6389 148.319 10.5909C148.381 10.5429 148.434 10.4889 148.477 10.429C148.52 10.369 148.552 10.309 148.573 10.2479ZM151.545 13.1309L151.703 12.6657H151.691C151.637 12.7167 151.573 12.7736 151.499 12.8366C151.422 12.9022 151.339 12.9608 151.251 13.0117C151.154 13.0678 151.052 13.1137 150.945 13.1485C150.834 13.186 150.711 13.2047 150.577 13.2047C150.393 13.2047 150.247 13.1729 150.14 13.1088C150.037 13.0493 149.958 12.9555 149.917 12.8437C149.874 12.7313 149.862 12.5971 149.878 12.4419C149.899 12.2693 149.938 12.0994 149.996 11.9355L150.614 10.1152H151.869L151.282 11.841C151.23 11.9943 151.221 12.1068 151.255 12.1784C151.288 12.2496 151.358 12.2856 151.464 12.2856C151.586 12.2856 151.691 12.2455 151.781 12.1649C151.869 12.0847 151.939 11.9707 151.989 11.8234L152.57 10.1152H153.824L152.799 13.1309H151.545ZM157.934 10.3008C157.862 10.5154 157.752 10.7157 157.611 10.893C157.466 11.0751 157.294 11.2327 157.099 11.3597C156.9 11.4902 156.678 11.5918 156.433 11.6645C156.176 11.7386 155.91 11.7752 155.643 11.7732H155.255L154.794 13.1309H153.521L154.956 8.90784H156.688C156.965 8.90784 157.202 8.9322 157.398 8.9813C157.594 9.03041 157.746 9.11063 157.855 9.22121C157.964 9.33254 158.026 9.47611 158.041 9.65304C158.057 9.82959 158.021 10.0455 157.934 10.3008ZM156.574 10.345C156.607 10.2449 156.62 10.1613 156.611 10.0946C156.606 10.0344 156.58 9.9779 156.538 9.93417C156.494 9.89164 156.439 9.86162 156.379 9.8472C156.308 9.82888 156.234 9.82007 156.16 9.82097H155.918L155.564 10.863H155.85C155.952 10.863 156.042 10.8507 156.12 10.8252C156.267 10.7794 156.393 10.6828 156.475 10.5527C156.515 10.4889 156.548 10.4196 156.574 10.345ZM159.037 13.1309L159.193 12.6717H159.182C159.03 12.8385 158.863 12.9689 158.679 13.0634C158.494 13.1578 158.289 13.2063 158.081 13.2047C157.928 13.2047 157.803 13.1807 157.705 13.1324C157.614 13.0902 157.539 13.0208 157.489 12.9337C157.44 12.8427 157.417 12.7406 157.42 12.6376C157.421 12.5251 157.444 12.4037 157.488 12.274C157.525 12.1641 157.577 12.0539 157.644 11.9441C157.716 11.8282 157.806 11.7248 157.912 11.6379C158.037 11.5353 158.177 11.4524 158.328 11.3919C158.494 11.3222 158.695 11.2728 158.93 11.2431L159.712 11.1457C159.728 11.1017 159.732 11.0538 159.722 11.0077C159.712 10.9665 159.689 10.9295 159.656 10.9017C159.618 10.8696 159.573 10.8466 159.525 10.8342C159.464 10.8175 159.4 10.8094 159.337 10.8102C159.237 10.8102 159.134 10.8188 159.029 10.8353C158.924 10.8522 158.822 10.8739 158.721 10.9017C158.623 10.9283 158.526 10.9592 158.431 10.9942C158.337 11.0287 158.251 11.0636 158.17 11.0992L158.447 10.2832C158.53 10.2517 158.627 10.2213 158.738 10.1917C158.85 10.1624 158.965 10.137 159.086 10.1152C159.206 10.0935 159.325 10.0759 159.444 10.0624C159.553 10.0492 159.662 10.0423 159.772 10.0418C160.047 10.0418 160.267 10.0717 160.434 10.1317C160.6 10.1913 160.72 10.2805 160.793 10.3994C160.866 10.5182 160.898 10.6666 160.886 10.8443C160.875 11.022 160.829 11.2296 160.748 11.4669L160.183 13.1313L159.037 13.1309ZM159.062 11.8088C158.961 11.8245 158.873 11.8564 158.799 11.9044C158.748 11.9371 158.706 11.9816 158.675 12.0341C158.645 12.0866 158.628 12.1456 158.625 12.2061C158.625 12.2399 158.632 12.2699 158.646 12.2976C158.66 12.325 158.683 12.3471 158.716 12.3639C158.757 12.3823 158.802 12.3907 158.847 12.3887C158.91 12.3887 158.973 12.3767 159.035 12.3519C159.098 12.3276 159.156 12.292 159.212 12.2459C159.33 12.1441 159.418 12.0124 159.468 11.8646L159.507 11.7499L159.062 11.8088ZM162.828 13.2163C162.708 13.3891 162.58 13.5556 162.443 13.7156C162.309 13.8726 162.16 14.0151 161.997 14.1411C161.835 14.2648 161.661 14.3634 161.472 14.4372C161.273 14.5125 161.062 14.5499 160.85 14.5474C160.739 14.546 160.629 14.5376 160.519 14.5223C160.455 14.5133 160.391 14.5011 160.327 14.4856C160.266 14.471 160.207 14.4513 160.149 14.4267L160.47 13.4814C160.496 13.5068 160.526 13.5277 160.559 13.5432C160.596 13.5608 160.634 13.5769 160.675 13.5904C160.752 13.6167 160.832 13.6306 160.914 13.6317C161.021 13.6328 161.127 13.6098 161.224 13.5642C161.323 13.5156 161.408 13.4437 161.473 13.3547L161.65 13.1193L161.411 10.1152H162.798L162.669 11.57C162.665 11.615 162.661 11.6637 162.656 11.7143C162.647 11.8114 162.636 11.9081 162.621 12.0045C162.614 12.0487 162.606 12.0865 162.598 12.118H162.609C162.643 12.0491 162.686 11.9681 162.739 11.8748C162.792 11.7818 162.851 11.6821 162.914 11.576L163.773 10.1152H164.992L162.828 13.2163Z" fill="#004A8C"/>
<path d="M194.201 16.3045H188.294V5.6955H194.201V16.3045Z" fill="#FF5F00"/>
<path d="M188.673 11.0004C188.672 9.9779 188.903 8.96863 189.349 8.04896C189.796 7.12929 190.445 6.32333 191.248 5.69209C190.253 4.9093 189.059 4.42251 187.801 4.28737C186.543 4.15223 185.272 4.37418 184.134 4.92786C182.996 5.48154 182.037 6.3446 181.365 7.41843C180.694 8.49226 180.338 9.73352 180.338 11.0004C180.338 12.2671 180.694 13.5081 181.365 14.5818C182.037 15.6555 182.996 16.5184 184.134 17.0721C185.272 17.6257 186.542 17.8477 187.8 17.7127C189.058 17.5777 190.253 17.0912 191.247 16.3087C190.444 15.6772 189.795 14.8712 189.349 13.9516C188.903 13.0319 188.672 12.0227 188.673 11.0004Z" fill="#EB001B"/>
<path d="M202.158 11C202.158 12.2668 201.802 13.508 201.131 14.5818C200.46 15.6555 199.5 16.5186 198.362 17.0722C197.224 17.6259 195.954 17.8478 194.696 17.7127C193.438 17.5775 192.243 17.0908 191.248 16.308C192.816 15.0718 193.824 13.1538 193.824 11C193.824 8.84623 192.816 6.92821 191.248 5.69201C192.243 4.90926 193.438 4.4225 194.696 4.28737C195.954 4.15224 197.224 4.37417 198.362 4.92782C199.5 5.48147 200.46 6.34449 201.131 7.41826C201.802 8.49203 202.158 9.73323 202.158 11Z" fill="#F79E1B"/>
<path d="M215.022 14.3015H215.213L215.034 15.0128C215.006 15.1173 215.012 15.1986 215.049 15.2508C215.085 15.3031 215.152 15.3292 215.253 15.3292C215.35 15.3292 215.432 15.3031 215.496 15.2508C215.56 15.1986 215.602 15.1173 215.629 15.0128L215.809 14.3015H216.003L215.821 15.0302C215.781 15.187 215.712 15.306 215.608 15.3844C215.508 15.4628 215.374 15.5034 215.21 15.5034C215.046 15.5034 214.933 15.4657 214.873 15.3873C214.812 15.3089 214.8 15.1899 214.839 15.0331L215.022 14.3015ZM215.976 15.4715L216.28 14.255L216.857 14.9692C216.873 14.9895 216.888 15.0099 216.903 15.0331C216.918 15.0563 216.933 15.0824 216.952 15.1115L217.155 14.3015H217.335L217.031 15.515L216.441 14.7863L216.395 14.7253C216.38 14.7021 216.368 14.6818 216.359 14.6557L216.155 15.4686H215.976V15.4715ZM217.319 15.4715L217.611 14.3015H217.806L217.514 15.4715H217.319ZM217.791 15.4715L218.082 14.3015H218.748L218.708 14.464H218.237L218.164 14.7544H218.635L218.593 14.9199H218.122L217.985 15.4686H217.791V15.4715ZM218.672 15.4715L218.964 14.3015H219.158L218.866 15.4715H218.672ZM219.143 15.4715L219.435 14.3015H220.1L220.061 14.464H219.59L219.517 14.7573H219.988L219.945 14.9228H219.474L219.38 15.3002H219.851L219.809 15.4715H219.143ZM220.034 15.4715L220.325 14.3015H220.587C220.757 14.3015 220.876 14.3102 220.939 14.3276C221.003 14.345 221.058 14.3711 221.1 14.4118C221.155 14.464 221.192 14.5308 221.207 14.6092C221.222 14.6905 221.216 14.7834 221.192 14.885C221.164 14.9895 221.125 15.0795 221.07 15.1608C221.015 15.2421 220.945 15.306 220.863 15.3583C220.803 15.3989 220.736 15.425 220.663 15.4425C220.593 15.4599 220.487 15.4686 220.347 15.4686H220.034V15.4715ZM220.271 15.2973H220.435C220.523 15.2973 220.593 15.2915 220.642 15.2799C220.69 15.2683 220.733 15.2479 220.772 15.2218C220.827 15.1841 220.873 15.1376 220.909 15.0795C220.945 15.0244 220.973 14.9576 220.991 14.8821C221.009 14.8066 221.015 14.7428 221.006 14.6876C220.997 14.6324 220.976 14.5831 220.939 14.5453C220.912 14.5163 220.879 14.4989 220.833 14.4873C220.787 14.4757 220.717 14.4698 220.617 14.4698H220.477L220.271 15.2973ZM222.085 14.946L221.955 15.4715H221.772L222.064 14.3015H222.359C222.447 14.3015 222.508 14.3073 222.547 14.316C222.587 14.3247 222.617 14.3392 222.641 14.3624C222.672 14.3886 222.693 14.4263 222.702 14.4728C222.711 14.5192 222.708 14.5686 222.696 14.6237C222.681 14.6789 222.66 14.7311 222.626 14.7776C222.593 14.8241 222.553 14.8618 222.511 14.8879C222.474 14.9083 222.435 14.9257 222.392 14.9344C222.35 14.9431 222.283 14.9489 222.198 14.9489H222.085V14.946ZM222.137 14.7892H222.186C222.292 14.7892 222.368 14.7776 222.41 14.7544C222.453 14.7311 222.48 14.6905 222.496 14.6324C222.511 14.5715 222.502 14.525 222.471 14.5018C222.438 14.4757 222.371 14.464 222.271 14.464H222.222L222.137 14.7892ZM223.356 15.4715L223.295 15.1695H222.821L222.608 15.4715H222.404L223.286 14.255L223.559 15.4715H223.356ZM222.936 15.0099H223.268L223.213 14.7428C223.21 14.7253 223.207 14.705 223.207 14.6847C223.204 14.6615 223.204 14.6382 223.204 14.6121C223.192 14.6382 223.179 14.6615 223.164 14.6847C223.152 14.7079 223.14 14.7282 223.128 14.7457L222.936 15.0099ZM223.839 15.4715L223.973 14.9373L223.73 14.3044H223.933L224.085 14.7021C224.088 14.7137 224.091 14.7253 224.097 14.7428C224.103 14.7602 224.106 14.7776 224.113 14.795L224.149 14.7428C224.161 14.7253 224.173 14.7108 224.185 14.6963L224.541 14.3044H224.736L224.167 14.9344L224.034 15.4686H223.839V15.4715ZM225.69 14.8937C225.69 14.885 225.693 14.8589 225.699 14.8182C225.702 14.7834 225.705 14.7573 225.708 14.7341C225.696 14.7602 225.684 14.7863 225.669 14.8153C225.654 14.8415 225.635 14.8705 225.614 14.8966L225.146 15.5209L224.994 14.885C224.988 14.8589 224.982 14.8328 224.979 14.8095C224.976 14.7863 224.973 14.7602 224.973 14.737C224.967 14.7602 224.958 14.7863 224.948 14.8153C224.939 14.8415 224.927 14.8705 224.912 14.8995L224.638 15.4744H224.459L225.046 14.255L225.213 14.9924C225.216 15.0041 225.219 15.0244 225.222 15.0505C225.225 15.0766 225.231 15.1115 225.237 15.1521C225.258 15.1173 225.286 15.0766 225.322 15.0244C225.331 15.0099 225.34 15.0012 225.344 14.9924L225.872 14.255L225.854 15.4744H225.675L225.69 14.8937ZM226.012 15.4715L226.304 14.3015H226.97L226.93 14.464H226.459L226.386 14.7573H226.857L226.815 14.9228H226.343L226.249 15.3002H226.72L226.678 15.4715H226.012ZM226.9 15.4715L227.204 14.255L227.781 14.9692C227.796 14.9895 227.812 15.0099 227.827 15.0331C227.842 15.0563 227.857 15.0824 227.875 15.1115L228.079 14.3015H228.258L227.954 15.515L227.365 14.7863L227.319 14.7253C227.304 14.7021 227.292 14.6818 227.283 14.6557L227.079 15.4686H226.9V15.4715ZM228.878 14.4611L228.626 15.4686H228.432L228.684 14.4611H228.368L228.407 14.2986H229.234L229.194 14.4611H228.878ZM229.082 15.2363L229.255 15.1666C229.258 15.2189 229.273 15.2596 229.307 15.2857C229.34 15.3118 229.386 15.3263 229.447 15.3263C229.504 15.3263 229.553 15.3118 229.596 15.2799C229.638 15.2479 229.666 15.2073 229.678 15.155C229.696 15.0854 229.653 15.0244 229.55 14.9721C229.535 14.9634 229.526 14.9576 229.517 14.9547C229.401 14.8908 229.328 14.8357 229.298 14.7834C229.267 14.7311 229.261 14.6702 229.28 14.5976C229.304 14.5018 229.356 14.4263 229.438 14.3653C229.52 14.3073 229.611 14.2753 229.72 14.2753C229.808 14.2753 229.878 14.2927 229.93 14.3247C229.982 14.3566 230.009 14.406 230.018 14.4669L229.848 14.5424C229.833 14.5047 229.815 14.4786 229.79 14.4611C229.766 14.4437 229.735 14.435 229.699 14.435C229.647 14.435 229.602 14.4495 229.565 14.4757C229.529 14.5018 229.504 14.5366 229.492 14.5831C229.474 14.6528 229.526 14.7195 229.644 14.7805C229.653 14.7863 229.66 14.7892 229.666 14.7921C229.769 14.8444 229.839 14.8966 229.869 14.9489C229.9 15.0012 229.906 15.0621 229.887 15.1405C229.86 15.2508 229.802 15.3379 229.714 15.4047C229.626 15.4686 229.523 15.5034 229.401 15.5034C229.301 15.5034 229.222 15.4802 229.167 15.4338C229.106 15.3873 229.079 15.3205 229.082 15.2363ZM230.514 15.4715L230.805 14.3015H231L230.708 15.4715H230.514ZM230.988 15.4715L231.292 14.255L231.869 14.9692C231.884 14.9895 231.9 15.0099 231.915 15.0331C231.93 15.0563 231.945 15.0824 231.963 15.1115L232.167 14.3015H232.346L232.042 15.515L231.453 14.7863L231.407 14.7253C231.392 14.7021 231.38 14.6818 231.371 14.6557L231.167 15.4686H230.988V15.4715ZM232.966 14.4611L232.714 15.4686H232.52L232.772 14.4611H232.456L232.495 14.2986H233.322L233.283 14.4611H232.966ZM233.176 15.4715L233.468 14.3015H234.137L234.097 14.464H233.626L233.553 14.7573H234.024L233.982 14.9228H233.51L233.416 15.3002H233.887L233.845 15.4715H233.176ZM234.377 14.946L234.246 15.4686H234.064L234.355 14.2986H234.626C234.705 14.2986 234.766 14.3044 234.805 14.3131C234.848 14.3218 234.881 14.3392 234.906 14.3624C234.936 14.3915 234.954 14.4263 234.963 14.4728C234.972 14.5163 234.969 14.5657 234.957 14.6208C234.933 14.7137 234.893 14.7892 234.833 14.8415C234.772 14.8937 234.696 14.9257 234.605 14.9373L234.881 15.4686H234.662L234.398 14.946H234.377ZM234.425 14.7979H234.462C234.565 14.7979 234.635 14.7863 234.675 14.7631C234.714 14.7399 234.741 14.6992 234.757 14.6382C234.772 14.5744 234.766 14.5279 234.735 14.5018C234.705 14.4757 234.641 14.4611 234.544 14.4611H234.507L234.425 14.7979ZM235 15.4715L235.292 14.3015H235.957L235.918 14.464H235.447L235.374 14.7544H235.845L235.802 14.9199H235.331L235.194 15.4686H235V15.4715ZM236.605 15.4715L236.544 15.1695H236.07L235.857 15.4715H235.653L236.535 14.255L236.808 15.4715H236.605ZM236.182 15.0099H236.513L236.459 14.7428C236.456 14.7253 236.453 14.705 236.453 14.6847C236.45 14.6615 236.45 14.6382 236.45 14.6121C236.437 14.6382 236.425 14.6615 236.41 14.6847C236.398 14.7079 236.386 14.7282 236.374 14.7457L236.182 15.0099ZM238.073 14.586C238.03 14.5395 237.978 14.5047 237.924 14.4844C237.869 14.4611 237.808 14.4495 237.738 14.4495C237.608 14.4495 237.492 14.4902 237.389 14.5715C237.285 14.6528 237.219 14.7602 237.185 14.8908C237.155 15.0157 237.167 15.1202 237.228 15.2044C237.285 15.2857 237.377 15.3263 237.498 15.3263C237.568 15.3263 237.638 15.3147 237.708 15.2886C237.778 15.2654 237.848 15.2276 237.921 15.1783L237.866 15.3931C237.805 15.4308 237.741 15.457 237.674 15.4744C237.608 15.4918 237.541 15.5005 237.468 15.5005C237.377 15.5005 237.295 15.486 237.225 15.457C237.155 15.4279 237.097 15.3844 237.051 15.3263C237.006 15.2712 236.978 15.2044 236.966 15.1289C236.954 15.0534 236.957 14.9721 236.981 14.885C237.003 14.7979 237.039 14.7195 237.088 14.644C237.136 14.5686 237.2 14.5018 237.273 14.4466C237.346 14.3886 237.425 14.345 237.51 14.316C237.595 14.2869 237.681 14.2724 237.769 14.2724C237.839 14.2724 237.902 14.2811 237.963 14.3015C238.021 14.3218 238.076 14.3508 238.124 14.3915L238.073 14.586ZM238.091 15.4715L238.383 14.3015H239.048L239.009 14.464H238.538L238.465 14.7573H238.936L238.893 14.9228H238.422L238.328 15.3002H238.799L238.757 15.4715H238.091Z" fill="#3D3D3C"/>
<path d="M234.603 13.1997H233.268L235.122 6.47906H236.457L234.603 13.1997ZM233.91 6.68956C233.818 6.56143 233.676 6.49737 233.481 6.49737H226.15L225.788 7.81527H232.457L232.068 9.22163H226.734V9.21858H225.399L224.293 13.2302H225.627L226.369 10.5395H232.366C232.554 10.5395 232.73 10.4755 232.894 10.3473C233.059 10.2192 233.168 10.0606 233.22 9.87143L233.961 7.18072C234.019 6.97938 234.001 6.81769 233.91 6.68956ZM223.515 12.7787C223.442 13.0441 223.199 13.2302 222.925 13.2302H216.047C215.859 13.2302 215.719 13.1662 215.628 13.038C215.536 12.9099 215.515 12.7513 215.57 12.5621L217.248 6.49737H218.582L217.083 11.9154H222.421L223.919 6.49737H225.253L223.515 12.7787Z" fill="#70706E"/>
<path d="M238.715 6.53931L240.435 9.88475L236.818 13.2302L238.715 6.53931Z" fill="#098041"/>
<path d="M237.508 6.53931L239.169 9.88475L235.673 13.2302L237.508 6.53931Z" fill="#E97626"/>
<defs>
<clipPath id="clip0_242_5450">
<rect width="16" height="16" fill="white" transform="translate(0 3)"/>
</clipPath>
<clipPath id="clip1_242_5450">
<rect width="30.8625" height="16.6368" fill="white" transform="translate(103 2.68164)"/>
</clipPath>
</defs>
</svg>
