<svg width="16" height="16" viewBox="0 0 16 16" fill="none" xmlns="http://www.w3.org/2000/svg">
<g clip-path="url(#clip0_359_6179)">
<path d="M11.334 1.99999C11.5091 1.8249 11.7169 1.686 11.9457 1.59124C12.1745 1.49648 12.4197 1.44771 12.6673 1.44771C12.9149 1.44771 13.1601 1.49648 13.3889 1.59124C13.6177 1.686 13.8256 1.8249 14.0007 1.99999C14.1757 2.17509 14.3146 2.38296 14.4094 2.61173C14.5042 2.84051 14.5529 3.0857 14.5529 3.33333C14.5529 3.58095 14.5042 3.82615 14.4094 4.05492C14.3146 4.28369 14.1757 4.49156 14.0007 4.66666L5.00065 13.6667L1.33398 14.6667L2.33398 11L11.334 1.99999Z" stroke="#5F5F5F" stroke-width="1.5" stroke-linecap="round" stroke-linejoin="round"/>
</g>
<defs>
<clipPath id="clip0_359_6179">
<rect width="16" height="16" fill="white"/>
</clipPath>
</defs>
</svg>
