<svg width="241" height="46" viewBox="0 0 241 46" fill="none" xmlns="http://www.w3.org/2000/svg">
<rect width="241" height="46" rx="12" fill="#B70908"/>
<path d="M40.2689 8C41.05 8.10602 41.832 8.20745 42.5979 8.40156C45.5371 9.12462 48.1856 10.7283 50.189 12.998C52.0618 15.0648 53.303 17.6254 53.7654 20.3763C54.2862 23.4073 53.9475 26.3462 52.6734 29.1526C51.2135 32.3682 48.8902 34.7807 45.7547 36.3959C44.0759 37.2583 42.2438 37.7821 40.363 37.9374C37.6306 38.1753 35.0174 37.7399 32.5411 36.5553C29.6463 35.1705 27.4179 33.0631 25.8468 30.2673C24.8344 28.4675 24.2171 26.4725 24.0364 24.4152C24.0282 24.3673 24.016 24.3203 24 24.2744V21.6986C24.0622 21.2654 24.1125 20.83 24.1885 20.3993C24.6952 17.5233 26.027 14.8568 28.0216 12.7246C30.0163 10.5924 32.5878 9.08637 35.4228 8.39007C36.1725 8.22009 36.9306 8.08989 37.694 8L40.2689 8ZM38.9742 37.0731C46.7589 37.0211 53.042 30.8541 53.0497 22.9935C53.0511 21.1451 52.6884 19.3145 51.9825 17.6062C51.2765 15.898 50.2411 14.3456 48.9354 13.0378C47.6296 11.7299 46.0791 10.6921 44.3723 9.98379C42.6656 9.27544 40.836 8.91036 38.9882 8.9094C37.1404 8.90844 35.3105 9.27161 33.603 9.97819C31.8956 10.6848 30.344 11.7209 29.0368 13.0274C27.7297 14.3339 26.6927 15.8852 25.9849 17.5927C25.2772 19.3002 24.9127 21.1304 24.9121 22.9788C24.9057 30.7571 31.1081 37.0019 38.9742 37.0731Z" fill="white"/>
<path d="M36.2967 25.1863C36.8269 25.3834 37.2876 25.3658 37.7386 25.1563C38.2832 24.9033 38.8433 24.7849 39.4428 24.8987C39.6828 24.9423 39.9158 25.0183 40.1354 25.1247C40.79 25.4473 41.4173 25.348 42.0415 25.0299C42.2139 24.9421 42.1518 24.8591 42.0795 24.7573C41.8762 24.471 41.6687 24.1877 41.4697 23.8984C41.2711 23.6096 41.2947 23.3411 41.5229 23.1769C41.7531 23.0112 42.0291 23.0697 42.2291 23.3485C43.139 24.6163 44.0498 25.8836 44.948 27.1598C45.3959 27.7962 45.4457 28.4759 45.0892 29.1776C44.886 29.5775 44.6951 29.9839 44.4861 30.3807C44.1216 31.0725 43.5431 31.4313 42.76 31.4325C40.2439 31.4364 37.7277 31.4364 35.2116 31.4325C34.4182 31.4313 33.8322 31.072 33.4666 30.3644C33.3189 30.0785 33.1926 29.7806 33.0315 29.5027C32.614 28.7823 32.469 28.0525 32.9244 27.2878C32.7993 27.2506 32.7382 27.3287 32.6689 27.3708C31.4681 28.0988 30.2713 28.8334 29.0671 29.5555C28.8748 29.6709 28.8266 29.7489 28.9726 29.9512C30.9944 32.752 33.686 34.4865 37.1065 35.0293C39.4901 35.4229 41.937 35.0807 44.1214 34.0482C44.1656 34.0277 44.21 34.0072 44.2555 33.9899C44.5547 33.8763 44.8059 33.9658 44.9151 34.224C45.018 34.4674 44.9219 34.7101 44.6349 34.8442C44.2593 35.0304 43.8729 35.194 43.4778 35.3343C38.5509 36.9552 34.0818 36.1355 30.1676 32.7085C27.8294 30.6614 26.4345 28.0368 25.9981 24.9622C25.418 20.8755 26.5179 17.2597 29.2579 14.1569C29.9037 13.4378 30.6296 12.7949 31.4214 12.2408C31.461 12.2125 31.5 12.1829 31.5414 12.1572C31.8107 11.9898 32.0866 12.028 32.2378 12.2525C32.3868 12.4738 32.3346 12.7266 32.09 12.9179C31.8827 13.0801 31.6622 13.2256 31.4575 13.3908C28.8294 15.511 27.2713 18.2355 26.8772 21.598C26.5826 24.0167 27.0319 26.4676 28.1652 28.6243C28.2874 28.8615 28.3854 28.8789 28.6045 28.7446C30.4499 27.6127 32.2992 26.4873 34.1524 25.3683C34.3042 25.2803 34.4358 25.1615 34.5387 25.0194C35.216 24.0649 35.8925 23.1097 36.5798 22.1624C36.931 21.6895 37.1142 21.1129 37.1004 20.524C37.085 19.1388 37.0933 17.7534 37.0982 16.368C37.1037 16.1842 37.0444 16.0042 36.9305 15.8597C36.5841 15.3999 36.5254 14.8915 36.791 14.3744C36.902 14.1381 37.0796 13.9394 37.3018 13.8025C37.5241 13.6657 37.7815 13.5968 38.0424 13.6042C38.6664 13.5975 39.2906 13.5975 39.9148 13.6041C40.1807 13.5959 40.443 13.6668 40.6685 13.8079C40.894 13.949 41.0726 14.1539 41.1816 14.3966C41.4395 14.9182 41.3656 15.4227 41.0178 15.8806C40.9182 15.9996 40.8638 16.1499 40.8641 16.3051C40.8686 17.788 40.8673 19.2709 40.868 20.7537C40.868 20.8122 40.8684 20.8711 40.874 20.9292C40.9011 21.2087 40.9534 21.237 41.1966 21.0894C43.7726 19.526 46.3488 17.9631 48.9253 16.4005C49.1025 16.2933 49.1244 16.2133 49.0019 16.0423C46.9821 13.2253 44.2822 11.4866 40.8509 10.9421C38.4572 10.5482 36.0003 10.8955 33.8095 11.9375C33.6864 11.9951 33.5609 12.0597 33.4182 12.0333C33.3147 12.0227 33.2181 11.9768 33.1444 11.9034C33.0707 11.83 33.0244 11.7335 33.0133 11.6301C32.98 11.3829 33.1175 11.2253 33.3291 11.1235C34.0109 10.7849 34.7255 10.5169 35.4618 10.3239C40.2249 9.13733 44.4579 10.1536 48.0566 13.5028C50.2953 15.5864 51.6059 18.2005 51.9922 21.247C52.4754 25.0584 51.4679 28.45 49.0478 31.4243C48.3012 32.3283 47.4314 33.123 46.4638 33.7849C46.1704 33.9893 45.8839 33.9565 45.7203 33.7134C45.5641 33.4812 45.6323 33.2252 45.9257 33.0167C48.1517 31.4349 49.7396 29.3678 50.568 26.7614C51.5967 23.5251 51.3315 20.3773 49.7916 17.3416C49.6809 17.1233 49.5886 17.0884 49.375 17.2185C45.0941 19.8255 40.811 22.429 36.5256 25.0288C36.4684 25.0636 36.415 25.1046 36.2967 25.1863ZM38.966 30.4794C40.1946 30.4794 41.4234 30.4702 42.6519 30.4839C43.1596 30.4895 43.5081 30.2967 43.7169 29.8283C43.8716 29.4813 44.0524 29.1458 44.2248 28.8068C44.3301 28.6237 44.3775 28.4131 44.3608 28.2025C44.3441 27.992 44.2641 27.7914 44.1312 27.6273C43.7675 27.1322 43.4142 26.6294 43.0576 26.129C42.7985 25.7653 42.7839 25.7596 42.3647 25.9171C42.3009 25.9411 42.2377 25.9672 42.1761 25.9963C41.3872 26.3684 40.5961 26.3807 39.806 26.0047C39.5486 25.8738 39.2638 25.806 38.975 25.8069C38.6863 25.8077 38.4019 25.8772 38.1452 26.0096C37.6063 26.2743 36.9933 26.3476 36.4071 26.2173C36.1144 26.1414 35.8306 26.0348 35.5602 25.8994C35.2932 25.7818 35.1031 25.8371 34.9359 26.0796C34.5706 26.6095 34.1923 27.1305 33.8146 27.6516C33.6899 27.8097 33.6148 28.0013 33.5988 28.202C33.5828 28.4028 33.6267 28.6038 33.7249 28.7796C33.8939 29.1203 34.08 29.4535 34.2311 29.802C34.4453 30.2956 34.8068 30.4924 35.3386 30.4849C36.5475 30.4679 37.7568 30.4796 38.966 30.4794ZM36.5171 23.8729L36.5444 23.9155C37.6746 23.2289 38.8049 22.5426 39.9355 21.8566C39.9887 21.8323 40.0301 21.7879 40.0507 21.7332C40.0712 21.6784 40.0693 21.6177 40.0452 21.5644C39.9362 21.1496 39.8892 20.721 39.9058 20.2924C39.91 19.1136 39.9026 17.9348 39.911 16.7561C39.9126 16.5199 39.8409 16.4208 39.5944 16.4296C39.1957 16.4439 38.7954 16.447 38.3969 16.4286C38.123 16.4159 38.0477 16.5227 38.0499 16.7851C38.0604 18.0417 38.054 19.2985 38.0546 20.5552C38.066 21.2916 37.8412 22.0122 37.4133 22.6114C37.1137 23.0313 36.815 23.4518 36.5171 23.8729ZM39.0085 14.56C38.6876 14.56 38.3665 14.5517 38.0461 14.5625C37.7654 14.572 37.6027 14.7367 37.5917 14.9925C37.585 15.0537 37.5916 15.1156 37.6109 15.1741C37.6303 15.2325 37.662 15.2861 37.7039 15.3311C37.7458 15.3762 37.7969 15.4117 37.8538 15.4353C37.9106 15.4588 37.9719 15.4699 38.0334 15.4676C38.6649 15.4819 39.2967 15.4817 39.9288 15.4671C39.9902 15.4685 40.0513 15.4568 40.1079 15.4328C40.1645 15.4088 40.2153 15.3731 40.2571 15.3279C40.2988 15.2827 40.3304 15.2292 40.3498 15.1709C40.3693 15.1125 40.3761 15.0507 40.3698 14.9896C40.3575 14.7344 40.1943 14.5721 39.9125 14.5623C39.6115 14.5518 39.3098 14.5599 39.0085 14.56Z" fill="white"/>
<path d="M63.5 30V16H65.18L72.64 27.22V16H74.32V30H72.64L65.18 18.78V30H63.5ZM81.7281 30.24C80.7948 30.24 79.9548 30.0267 79.2081 29.6C78.4615 29.16 77.8748 28.5467 77.4481 27.76C77.0215 26.96 76.8081 26.0333 76.8081 24.98C76.8081 23.9 77.0215 22.9667 77.4481 22.18C77.8881 21.38 78.4815 20.7667 79.2281 20.34C79.9881 19.9 80.8348 19.68 81.7681 19.68C82.7281 19.68 83.5748 19.9 84.3081 20.34C85.0548 20.7667 85.6415 21.38 86.0681 22.18C86.5081 22.9667 86.7281 23.8933 86.7281 24.96C86.7281 26.0267 86.5081 26.96 86.0681 27.76C85.6281 28.5467 85.0348 29.16 84.2881 29.6C83.5415 30.0267 82.6881 30.24 81.7281 30.24ZM81.7481 28.8C82.3215 28.8 82.8548 28.66 83.3481 28.38C83.8415 28.0867 84.2415 27.6533 84.5481 27.08C84.8548 26.5067 85.0081 25.8 85.0081 24.96C85.0081 24.1067 84.8548 23.4 84.5481 22.84C84.2548 22.2667 83.8615 21.84 83.3681 21.56C82.8881 21.2667 82.3548 21.12 81.7681 21.12C81.2081 21.12 80.6748 21.2667 80.1681 21.56C79.6748 21.84 79.2748 22.2667 78.9681 22.84C78.6748 23.4 78.5281 24.1067 78.5281 24.96C78.5281 25.8 78.6748 26.5067 78.9681 27.08C79.2748 27.6533 79.6681 28.0867 80.1481 28.38C80.6415 28.66 81.1748 28.8 81.7481 28.8ZM94.4961 30V16H99.0761C100.169 16 101.069 16.1867 101.776 16.56C102.496 16.92 103.023 17.4067 103.356 18.02C103.703 18.6333 103.876 19.3333 103.876 20.12C103.876 20.88 103.703 21.5733 103.356 22.2C103.023 22.8133 102.503 23.3067 101.796 23.68C101.089 24.04 100.183 24.22 99.0761 24.22H96.1761V30H94.4961ZM96.1761 22.8H99.0361C100.156 22.8 100.956 22.56 101.436 22.08C101.916 21.5867 102.156 20.9333 102.156 20.12C102.156 19.2533 101.916 18.5867 101.436 18.12C100.956 17.64 100.156 17.4 99.0361 17.4H96.1761V22.8ZM105.998 30V19.92H107.518L107.638 21.84C107.864 21.3867 108.151 21 108.498 20.68C108.858 20.36 109.284 20.1133 109.778 19.94C110.284 19.7667 110.858 19.68 111.498 19.68V21.44H110.878C110.451 21.44 110.044 21.5 109.658 21.62C109.271 21.7267 108.924 21.9067 108.618 22.16C108.324 22.4133 108.091 22.76 107.918 23.2C107.758 23.6267 107.678 24.16 107.678 24.8V30H105.998ZM117.449 30.24C116.516 30.24 115.682 30.02 114.949 29.58C114.216 29.14 113.642 28.5267 113.229 27.74C112.816 26.94 112.609 26.0133 112.609 24.96C112.609 23.8933 112.809 22.9667 113.209 22.18C113.622 21.3933 114.196 20.78 114.929 20.34C115.676 19.9 116.529 19.68 117.489 19.68C118.476 19.68 119.316 19.9 120.009 20.34C120.702 20.78 121.229 21.36 121.589 22.08C121.962 22.7867 122.149 23.5667 122.149 24.42C122.149 24.5533 122.149 24.6933 122.149 24.84C122.149 24.9867 122.142 25.1533 122.129 25.34H113.869V24.04H120.489C120.449 23.12 120.142 22.4 119.569 21.88C119.009 21.36 118.302 21.1 117.449 21.1C116.889 21.1 116.362 21.2333 115.869 21.5C115.376 21.7533 114.982 22.1333 114.689 22.64C114.396 23.1333 114.249 23.7533 114.249 24.5V25.06C114.249 25.8867 114.396 26.58 114.689 27.14C114.996 27.7 115.389 28.12 115.869 28.4C116.362 28.68 116.889 28.82 117.449 28.82C118.156 28.82 118.736 28.6667 119.189 28.36C119.656 28.04 119.996 27.6067 120.209 27.06H121.869C121.696 27.6733 121.409 28.22 121.009 28.7C120.609 29.1667 120.109 29.54 119.509 29.82C118.922 30.1 118.236 30.24 117.449 30.24ZM128.196 30.24C127.369 30.24 126.643 30.1 126.016 29.82C125.389 29.54 124.889 29.1533 124.516 28.66C124.156 28.1533 123.936 27.56 123.856 26.88H125.576C125.643 27.2267 125.783 27.5467 125.996 27.84C126.209 28.1333 126.496 28.3733 126.856 28.56C127.229 28.7333 127.683 28.82 128.216 28.82C128.683 28.82 129.069 28.7533 129.376 28.62C129.683 28.4733 129.909 28.28 130.056 28.04C130.216 27.8 130.296 27.54 130.296 27.26C130.296 26.8467 130.196 26.5333 129.996 26.32C129.809 26.1067 129.529 25.94 129.156 25.82C128.783 25.6867 128.329 25.5733 127.796 25.48C127.356 25.4 126.923 25.2933 126.496 25.16C126.069 25.0267 125.689 24.8533 125.356 24.64C125.023 24.4133 124.756 24.14 124.556 23.82C124.369 23.5 124.276 23.1067 124.276 22.64C124.276 22.0667 124.423 21.56 124.716 21.12C125.023 20.6667 125.449 20.3133 125.996 20.06C126.543 19.8067 127.183 19.68 127.916 19.68C128.996 19.68 129.869 19.94 130.536 20.46C131.203 20.98 131.596 21.7333 131.716 22.72H130.056C129.989 22.2133 129.769 21.82 129.396 21.54C129.036 21.2467 128.536 21.1 127.896 21.1C127.269 21.1 126.789 21.2267 126.456 21.48C126.136 21.7333 125.976 22.0667 125.976 22.48C125.976 22.7467 126.063 22.9867 126.236 23.2C126.423 23.4 126.696 23.5733 127.056 23.72C127.416 23.8667 127.849 23.9867 128.356 24.08C129.023 24.2 129.629 24.36 130.176 24.56C130.723 24.76 131.163 25.06 131.496 25.46C131.843 25.8467 132.016 26.4 132.016 27.12C132.016 27.7467 131.856 28.2933 131.536 28.76C131.229 29.2267 130.789 29.5933 130.216 29.86C129.643 30.1133 128.969 30.24 128.196 30.24ZM138.855 30.24C137.922 30.24 137.088 30.02 136.355 29.58C135.622 29.14 135.048 28.5267 134.635 27.74C134.222 26.94 134.015 26.0133 134.015 24.96C134.015 23.8933 134.215 22.9667 134.615 22.18C135.028 21.3933 135.602 20.78 136.335 20.34C137.082 19.9 137.935 19.68 138.895 19.68C139.882 19.68 140.722 19.9 141.415 20.34C142.108 20.78 142.635 21.36 142.995 22.08C143.368 22.7867 143.555 23.5667 143.555 24.42C143.555 24.5533 143.555 24.6933 143.555 24.84C143.555 24.9867 143.548 25.1533 143.535 25.34H135.275V24.04H141.895C141.855 23.12 141.548 22.4 140.975 21.88C140.415 21.36 139.708 21.1 138.855 21.1C138.295 21.1 137.768 21.2333 137.275 21.5C136.782 21.7533 136.388 22.1333 136.095 22.64C135.802 23.1333 135.655 23.7533 135.655 24.5V25.06C135.655 25.8867 135.802 26.58 136.095 27.14C136.402 27.7 136.795 28.12 137.275 28.4C137.768 28.68 138.295 28.82 138.855 28.82C139.562 28.82 140.142 28.6667 140.595 28.36C141.062 28.04 141.402 27.6067 141.615 27.06H143.275C143.102 27.6733 142.815 28.22 142.415 28.7C142.015 29.1667 141.515 29.54 140.915 29.82C140.328 30.1 139.642 30.24 138.855 30.24ZM145.802 30V19.92H147.322L147.442 21.84C147.669 21.3867 147.956 21 148.302 20.68C148.662 20.36 149.089 20.1133 149.582 19.94C150.089 19.7667 150.662 19.68 151.302 19.68V21.44H150.682C150.256 21.44 149.849 21.5 149.462 21.62C149.076 21.7267 148.729 21.9067 148.422 22.16C148.129 22.4133 147.896 22.76 147.722 23.2C147.562 23.6267 147.482 24.16 147.482 24.8V30H145.802ZM156.105 30L152.285 19.92H154.045L157.085 28.38L160.145 19.92H161.865L158.045 30H156.105ZM166.524 30.24C165.71 30.24 165.03 30.1 164.484 29.82C163.937 29.5267 163.53 29.1467 163.264 28.68C162.997 28.2 162.864 27.68 162.864 27.12C162.864 26.44 163.037 25.8667 163.384 25.4C163.744 24.92 164.244 24.56 164.884 24.32C165.537 24.0667 166.304 23.94 167.184 23.94H169.844C169.844 23.3133 169.744 22.7933 169.544 22.38C169.357 21.9533 169.077 21.6333 168.704 21.42C168.344 21.2067 167.89 21.1 167.344 21.1C166.704 21.1 166.15 21.26 165.684 21.58C165.217 21.9 164.93 22.3733 164.824 23H163.104C163.184 22.28 163.424 21.68 163.824 21.2C164.237 20.7067 164.757 20.3333 165.384 20.08C166.01 19.8133 166.664 19.68 167.344 19.68C168.277 19.68 169.05 19.8533 169.664 20.2C170.29 20.5333 170.757 21.0067 171.064 21.62C171.37 22.22 171.524 22.9333 171.524 23.76V30H170.024L169.924 28.22C169.79 28.5 169.617 28.7667 169.404 29.02C169.204 29.26 168.964 29.4733 168.684 29.66C168.417 29.8333 168.104 29.9733 167.744 30.08C167.384 30.1867 166.977 30.24 166.524 30.24ZM166.784 28.82C167.25 28.82 167.67 28.7267 168.044 28.54C168.43 28.34 168.757 28.0733 169.024 27.74C169.29 27.3933 169.49 27.0133 169.624 26.6C169.77 26.1867 169.844 25.7533 169.844 25.3V25.24H167.324C166.67 25.24 166.144 25.32 165.744 25.48C165.344 25.6267 165.057 25.84 164.884 26.12C164.71 26.3867 164.624 26.6933 164.624 27.04C164.624 27.4 164.704 27.7133 164.864 27.98C165.037 28.2467 165.284 28.4533 165.604 28.6C165.937 28.7467 166.33 28.82 166.784 28.82ZM177.809 30C177.209 30 176.689 29.9067 176.249 29.72C175.809 29.5333 175.469 29.22 175.229 28.78C175.003 28.3267 174.889 27.72 174.889 26.96V21.34H173.129V19.92H174.889L175.109 17.48H176.569V19.92H179.489V21.34H176.569V26.96C176.569 27.5867 176.696 28.0133 176.949 28.24C177.203 28.4533 177.649 28.56 178.289 28.56H179.369V30H177.809ZM181.841 30V19.92H183.521V30H181.841ZM182.681 17.78C182.348 17.78 182.068 17.6733 181.841 17.46C181.628 17.2333 181.521 16.9533 181.521 16.62C181.521 16.2867 181.628 16.02 181.841 15.82C182.068 15.6067 182.348 15.5 182.681 15.5C183.001 15.5 183.275 15.6067 183.501 15.82C183.728 16.02 183.841 16.2867 183.841 16.62C183.841 16.9533 183.728 17.2333 183.501 17.46C183.275 17.6733 183.001 17.78 182.681 17.78ZM189.386 30L185.566 19.92H187.326L190.366 28.38L193.426 19.92H195.146L191.326 30H189.386ZM200.945 30.24C200.012 30.24 199.178 30.02 198.445 29.58C197.712 29.14 197.138 28.5267 196.725 27.74C196.312 26.94 196.105 26.0133 196.105 24.96C196.105 23.8933 196.305 22.9667 196.705 22.18C197.118 21.3933 197.692 20.78 198.425 20.34C199.172 19.9 200.025 19.68 200.985 19.68C201.972 19.68 202.812 19.9 203.505 20.34C204.198 20.78 204.725 21.36 205.085 22.08C205.458 22.7867 205.645 23.5667 205.645 24.42C205.645 24.5533 205.645 24.6933 205.645 24.84C205.645 24.9867 205.638 25.1533 205.625 25.34H197.365V24.04H203.985C203.945 23.12 203.638 22.4 203.065 21.88C202.505 21.36 201.798 21.1 200.945 21.1C200.385 21.1 199.858 21.2333 199.365 21.5C198.872 21.7533 198.478 22.1333 198.185 22.64C197.892 23.1333 197.745 23.7533 197.745 24.5V25.06C197.745 25.8867 197.892 26.58 198.185 27.14C198.492 27.7 198.885 28.12 199.365 28.4C199.858 28.68 200.385 28.82 200.945 28.82C201.652 28.82 202.232 28.6667 202.685 28.36C203.152 28.04 203.492 27.6067 203.705 27.06H205.365C205.192 27.6733 204.905 28.22 204.505 28.7C204.105 29.1667 203.605 29.54 203.005 29.82C202.418 30.1 201.732 30.24 200.945 30.24ZM211.692 30.24C210.866 30.24 210.139 30.1 209.512 29.82C208.886 29.54 208.386 29.1533 208.012 28.66C207.652 28.1533 207.432 27.56 207.352 26.88H209.072C209.139 27.2267 209.279 27.5467 209.492 27.84C209.706 28.1333 209.992 28.3733 210.352 28.56C210.726 28.7333 211.179 28.82 211.712 28.82C212.179 28.82 212.566 28.7533 212.872 28.62C213.179 28.4733 213.406 28.28 213.552 28.04C213.712 27.8 213.792 27.54 213.792 27.26C213.792 26.8467 213.692 26.5333 213.492 26.32C213.306 26.1067 213.026 25.94 212.652 25.82C212.279 25.6867 211.826 25.5733 211.292 25.48C210.852 25.4 210.419 25.2933 209.992 25.16C209.566 25.0267 209.186 24.8533 208.852 24.64C208.519 24.4133 208.252 24.14 208.052 23.82C207.866 23.5 207.772 23.1067 207.772 22.64C207.772 22.0667 207.919 21.56 208.212 21.12C208.519 20.6667 208.946 20.3133 209.492 20.06C210.039 19.8067 210.679 19.68 211.412 19.68C212.492 19.68 213.366 19.94 214.032 20.46C214.699 20.98 215.092 21.7333 215.212 22.72H213.552C213.486 22.2133 213.266 21.82 212.892 21.54C212.532 21.2467 212.032 21.1 211.392 21.1C210.766 21.1 210.286 21.2267 209.952 21.48C209.632 21.7333 209.472 22.0667 209.472 22.48C209.472 22.7467 209.559 22.9867 209.732 23.2C209.919 23.4 210.192 23.5733 210.552 23.72C210.912 23.8667 211.346 23.9867 211.852 24.08C212.519 24.2 213.126 24.36 213.672 24.56C214.219 24.76 214.659 25.06 214.992 25.46C215.339 25.8467 215.512 26.4 215.512 27.12C215.512 27.7467 215.352 28.2933 215.032 28.76C214.726 29.2267 214.286 29.5933 213.712 29.86C213.139 30.1133 212.466 30.24 211.692 30.24Z" fill="white"/>
</svg>
