<svg width="29" height="29" viewBox="0 0 29 29" fill="none" xmlns="http://www.w3.org/2000/svg">
<path d="M0 1.48183C0.201072 0.873409 0.545396 0.388141 1.16339 0.147135C1.47677 0.013011 1.82133 -0.0306129 2.15815 0.0211917C2.49496 0.0729963 2.81062 0.218164 3.06945 0.440298C3.21451 0.559999 3.35251 0.688055 3.48273 0.823819C7.03867 4.38609 10.5941 7.94891 14.1489 11.5123C14.4351 11.7991 14.4357 11.7992 14.7163 11.5179C18.2915 7.93493 21.8666 4.35192 25.4417 0.768877C25.6502 0.538117 25.8968 0.344994 26.1707 0.197939C26.5717 0.00285692 27.0285 -0.0444148 27.4608 0.0644231C27.8931 0.173261 28.2734 0.431252 28.5348 0.793105C28.798 1.14882 28.9268 1.58652 28.8984 2.02844C28.87 2.47035 28.6861 2.88785 28.3796 3.20677C27.3675 4.24346 26.3373 5.26235 25.3141 6.28808C22.6829 8.92568 20.0515 11.5631 17.4198 14.2003C17.1256 14.4953 17.1255 14.4955 17.4119 14.7825C20.9936 18.3723 24.5756 21.9617 28.1579 25.5508C28.5688 25.9622 28.8823 26.4142 28.8894 27.0254C28.909 27.4142 28.807 27.7995 28.5976 28.1275C28.3882 28.4554 28.0819 28.7097 27.7214 28.8547C27.653 28.8851 27.5849 28.9161 27.5167 28.9468H26.5017C26.1037 28.801 25.7467 28.5607 25.4615 28.2466C21.8714 24.6411 18.2802 21.037 14.6876 17.434C14.4846 17.2298 14.3841 17.2323 14.1825 17.435C10.5887 21.0499 6.99074 24.6607 3.38851 28.2673C3.10851 28.5734 2.75834 28.8067 2.36824 28.9468H1.35328C1.02974 28.84 0.737233 28.6554 0.501327 28.4091C0.26542 28.1628 0.093296 27.8623 2.01416e-06 27.534V26.6863C0.138241 26.2444 0.389795 25.8466 0.729515 25.5327C4.31114 21.9483 7.89069 18.3619 11.4682 14.7734C11.7455 14.4954 11.7454 14.4951 11.4622 14.2112C7.88321 10.6242 4.30324 7.03815 0.72226 3.45314C0.388829 3.14731 0.140015 2.76023 2.01416e-06 2.32951L0 1.48183Z" fill="#B70908"/>
</svg>
