<svg width="19" height="19" viewBox="0 0 19 19" fill="none" xmlns="http://www.w3.org/2000/svg">
<path d="M7.94378 1.04495C8.18041 -0.348054 10.1815 -0.348053 10.4182 1.04495C10.5932 2.07563 11.878 2.45287 12.5825 1.68046C13.5347 0.63652 15.2181 1.71841 14.6641 3.0182C14.2541 3.97993 15.131 4.99187 16.1413 4.72297C17.5067 4.35953 18.338 6.17982 17.1692 6.97373C16.3043 7.56115 16.4949 8.88651 17.4902 9.2065C18.8353 9.63896 18.5505 11.6197 17.138 11.6557C16.0929 11.6823 15.5367 12.9003 16.201 13.7076C17.0988 14.7986 15.7883 16.311 14.5806 15.5776C13.687 15.0349 12.5606 15.7588 12.683 16.7971C12.8484 18.2003 10.9283 18.7641 10.3088 17.4942C9.85047 16.5546 8.51147 16.5546 8.05311 17.4942C7.43361 18.7641 5.51355 18.2003 5.67897 16.7971C5.80136 15.7588 4.67492 15.0349 3.78133 15.5776C2.57361 16.311 1.26316 14.7986 2.16096 13.7076C2.82525 12.9003 2.26901 11.6823 1.2239 11.6557C-0.188596 11.6197 -0.473385 9.63896 0.871761 9.2065C1.86704 8.88651 2.0576 7.56115 1.19278 6.97373C0.0239644 6.17982 0.855259 4.35953 2.22067 4.72296C3.23095 4.99187 4.1078 3.97993 3.69786 3.0182C3.14381 1.71841 4.82726 0.636519 5.77943 1.68046C6.48395 2.45287 7.7687 2.07563 7.94378 1.04495Z" fill="white"/>
</svg>
