<svg width="288" height="288" viewBox="0 0 288 288" fill="none" xmlns="http://www.w3.org/2000/svg">
<rect width="287.212" height="287.212" rx="28.7212" fill="white"/>
<g clip-path="url(#clip0_118_8657)">
<path d="M229.643 162.208C229.643 162.208 226.074 211.811 177.595 231.464C173.286 233.214 168.707 234.291 164.061 234.56L142.448 235.166H142.65L121.036 234.56C116.39 234.291 111.811 233.214 107.502 231.464C59.0902 211.744 55.5215 162.208 55.5215 162.208" fill="#FEC30E"/>
<path d="M229.71 162.209C227.892 183.275 217.792 203.87 201.7 217.735C191.465 226.08 179.413 232.946 166.215 234.695C158.338 235.234 150.392 235.301 142.514 235.705V234.628H142.716V235.705L126.893 235.503C121.641 235.503 116.053 235.301 111.003 233.686C82.6561 224.667 61.7831 198.957 56.4638 170.016C55.9925 167.458 55.5885 164.834 55.4539 162.209H55.6559C56.3292 167.391 57.6758 172.506 59.2918 177.487C65.7557 197.342 79.2221 214.975 97.4019 225.407C105.212 229.917 113.831 233.753 122.988 233.82L126.961 233.955L142.784 234.628V235.705H142.582V234.628C147.834 234.561 153.153 234.494 158.405 234.359C163.589 234.292 169.043 234.09 173.959 232.407C193.754 225.542 210.251 210.331 219.879 191.89C222.303 187.246 224.39 182.467 226.006 177.419C227.622 172.439 228.969 167.324 229.71 162.141V162.209Z" fill="#383636"/>
<path d="M229.643 161.535C229.643 169.141 190.725 175.333 142.717 175.333C94.7088 175.333 55.7907 169.141 55.7907 161.535C55.7907 153.93 94.7088 147.738 142.717 147.738C190.725 147.805 229.643 153.93 229.643 161.535Z" fill="#DDA727"/>
<path d="M229.711 161.535C229.172 166.852 214.426 169.409 209.915 170.554C173.017 177.688 135.041 177.217 97.7393 173.717C41.0455 168.467 40.9782 154.67 97.672 148.882C135.041 145.516 173.017 145.516 209.915 152.583C214.628 153.728 229.105 156.218 229.711 161.535ZM229.508 161.535C228.027 153.593 195.034 151.035 187.493 150.362C157.665 148.209 127.635 148.141 97.8066 150.632C92.9587 150.968 43.4022 156.016 59.6292 165.102C64.6118 167.66 70.1331 168.871 75.587 170.015C82.9262 171.429 90.4001 172.438 97.8066 173.044C114.37 175.4 226.142 176.746 229.508 161.535Z" fill="#732B2C"/>
<mask id="mask0_118_8657" style="mask-type:luminance" maskUnits="userSpaceOnUse" x="133" y="166" width="4" height="5">
<path d="M136.522 166.987H133.694V170.823H136.522V166.987Z" fill="white"/>
</mask>
<g mask="url(#mask0_118_8657)">
<path d="M134.098 168.938C134.233 169.611 134.233 170.352 133.694 170.823C134.771 170.958 135.849 170.419 136.387 169.477C136.455 169.275 136.522 169.073 136.522 168.871C136.455 168.737 136.387 168.602 136.32 168.535C135.916 168.063 135.243 167.121 134.569 167.054C133.627 166.852 133.963 168.333 134.098 168.938Z" fill="white"/>
</g>
<mask id="mask1_118_8657" style="mask-type:luminance" maskUnits="userSpaceOnUse" x="121" y="167" width="3" height="3">
<path d="M123.325 167.054H121.103V169.073H123.325V167.054Z" fill="white"/>
</mask>
<g mask="url(#mask1_118_8657)">
<path d="M122.247 167.189C121.708 167.324 121.102 167.862 121.17 168.333C121.17 168.535 121.304 168.737 121.506 168.872C121.506 168.939 121.641 169.006 121.708 169.006C121.91 169.074 122.18 169.006 122.382 168.872C122.651 168.737 122.92 168.468 123.055 168.199C123.257 167.929 123.324 167.593 123.257 167.324C123.19 167.054 122.718 166.987 122.247 167.189Z" fill="white"/>
</g>
<mask id="mask2_118_8657" style="mask-type:luminance" maskUnits="userSpaceOnUse" x="154" y="164" width="2" height="2">
<path d="M155.778 164.564H154.432V165.506H155.778V164.564Z" fill="white"/>
</mask>
<g mask="url(#mask2_118_8657)">
<path d="M155.778 164.766C155.846 164.968 155.778 165.17 155.644 165.304C155.509 165.439 155.307 165.506 155.105 165.506C154.97 165.506 154.768 165.506 154.634 165.439C154.499 165.372 154.432 165.17 154.499 164.968C154.566 164.901 154.634 164.833 154.701 164.766C154.903 164.631 155.172 164.497 155.442 164.497C155.509 164.497 155.509 164.497 155.576 164.564C155.644 164.631 155.711 164.699 155.778 164.766Z" fill="white"/>
</g>
<mask id="mask3_118_8657" style="mask-type:luminance" maskUnits="userSpaceOnUse" x="162" y="166" width="4" height="6">
<path d="M165.408 166.919H162.176V171.833H165.408V166.919Z" fill="white"/>
</mask>
<g mask="url(#mask3_118_8657)">
<path d="M162.445 168.199C162.311 168.468 162.109 168.737 162.176 169.073C162.243 169.477 162.58 169.814 162.917 170.083C163.253 170.42 163.59 170.756 163.859 171.227C163.994 171.429 164.128 171.631 164.33 171.766C164.532 171.9 164.869 171.9 165.004 171.698C165.071 171.631 165.071 171.564 165.138 171.496C165.475 170.487 165.542 169.343 165.408 168.266C165.34 167.795 165.138 167.189 164.667 167.054C164.398 166.92 164.061 166.987 163.792 167.122C163.522 167.256 163.253 167.458 163.051 167.66L162.445 168.199Z" fill="white"/>
</g>
<mask id="mask4_118_8657" style="mask-type:luminance" maskUnits="userSpaceOnUse" x="182" y="166" width="5" height="4">
<path d="M186.483 166.179H182.443V169.544H186.483V166.179Z" fill="white"/>
</mask>
<g mask="url(#mask4_118_8657)">
<path d="M184.058 169.14C184.126 169.275 184.26 169.409 184.395 169.477C184.53 169.544 184.664 169.477 184.799 169.477C185.203 169.409 185.674 169.275 186.078 169.073C186.28 169.005 186.482 168.871 186.415 168.669C186.415 168.602 186.348 168.534 186.348 168.534C186.146 168.332 185.944 168.131 185.809 167.929C185.607 167.727 185.472 167.525 185.203 167.457C184.799 167.256 184.328 167.256 183.856 167.121C183.722 167.054 183.654 167.054 183.587 166.986C183.52 166.852 183.52 166.784 183.452 166.65C183.25 165.977 182.106 165.909 182.51 166.784C182.981 167.659 183.587 168.4 184.058 169.14Z" fill="white"/>
</g>
<mask id="mask5_118_8657" style="mask-type:luminance" maskUnits="userSpaceOnUse" x="173" y="165" width="4" height="4">
<path d="M176.652 165.708H173.084V168.736H176.652V165.708Z" fill="white"/>
</mask>
<g mask="url(#mask5_118_8657)">
<path d="M173.959 166.179C173.622 166.179 173.285 166.448 173.151 166.785C173.016 167.121 173.016 167.458 173.083 167.795C173.083 167.862 173.083 167.996 173.151 168.064C173.218 168.198 173.42 168.266 173.555 168.4C173.824 168.535 174.093 168.669 174.363 168.737C174.632 168.804 174.969 168.804 175.238 168.602C175.575 168.4 175.709 167.929 175.844 167.593C175.979 167.323 176.113 167.054 176.315 166.852C176.45 166.718 176.585 166.583 176.585 166.381C176.585 166.247 176.45 166.112 176.315 165.977C175.844 165.641 175.103 165.775 174.565 165.91L173.959 166.179Z" fill="white"/>
</g>
<mask id="mask6_118_8657" style="mask-type:luminance" maskUnits="userSpaceOnUse" x="125" y="172" width="5" height="4">
<path d="M129.318 172.64H125.345V175.265H129.318V172.64Z" fill="white"/>
</mask>
<g mask="url(#mask6_118_8657)">
<path d="M127.701 172.64C128.442 173.246 128.981 174.121 129.317 174.996C129.115 175.265 128.779 175.265 128.509 175.265C127.567 175.197 126.153 175.399 125.345 174.996C125.412 174.659 127.365 172.371 127.701 172.64Z" fill="white"/>
</g>
<mask id="mask7_118_8657" style="mask-type:luminance" maskUnits="userSpaceOnUse" x="105" y="170" width="4" height="3">
<path d="M108.444 170.352H105.482V172.91H108.444V170.352Z" fill="white"/>
</mask>
<g mask="url(#mask7_118_8657)">
<path d="M105.482 172.439C105.818 171.833 106.088 171.227 106.424 170.689C106.492 170.554 106.559 170.42 106.761 170.42C106.828 170.42 106.963 170.42 107.03 170.487C107.569 170.689 108.04 171.16 108.242 171.698C108.512 171.968 108.512 172.506 108.242 172.708C108.04 172.843 107.771 172.91 107.569 172.91C107.03 172.91 106.424 172.843 105.886 172.641L105.482 172.439Z" fill="white"/>
</g>
<mask id="mask8_118_8657" style="mask-type:luminance" maskUnits="userSpaceOnUse" x="145" y="169" width="4" height="5">
<path d="M148.911 169.679H145.544V173.919H148.911V169.679Z" fill="white"/>
</mask>
<g mask="url(#mask8_118_8657)">
<path d="M145.544 171.362C145.612 170.689 145.881 170.083 146.42 169.679C146.689 170.823 147.497 171.833 148.44 172.506C148.709 172.708 148.978 172.977 148.844 173.179C148.776 173.246 148.709 173.314 148.642 173.381C146.689 174.66 145.342 173.381 145.544 171.362Z" fill="white"/>
</g>
<mask id="mask9_118_8657" style="mask-type:luminance" maskUnits="userSpaceOnUse" x="152" y="163" width="6" height="4">
<path d="M157.395 163.824H152.749V166.516H157.395V163.824Z" fill="white"/>
</mask>
<g mask="url(#mask9_118_8657)">
<path d="M155.173 163.891C155.577 163.824 156.049 163.757 156.453 163.958C156.857 164.093 157.261 164.43 157.328 164.901C157.463 165.439 157.126 165.91 156.789 166.314C156.722 166.381 156.655 166.449 156.52 166.516C156.251 166.651 155.914 166.516 155.577 166.449C154.837 166.247 152.817 166.853 152.682 165.776C152.682 164.766 154.433 164.093 155.173 163.891Z" fill="white"/>
</g>
<path d="M148.507 174.794C153.489 173.65 158.606 171.295 162.377 167.862C166.013 164.564 169.11 160.728 172.611 157.295C179.749 150.363 187.492 144.507 196.649 140.2C202.844 137.306 209.308 135.085 215.973 133.402C219.273 132.527 222.639 131.854 226.073 131.181C228.43 130.71 231.797 130.104 233.48 128.354C234.826 126.941 234.692 124.182 232.874 123.576C232.2 123.374 231.527 123.441 230.854 123.508C224.121 124.383 217.522 126.335 211.058 128.422C203.854 130.777 197.12 133.47 190.993 137.912C184.799 142.421 178.604 146.728 172.611 151.44C160.963 160.526 148.439 165.574 133.828 168.602C132.818 168.804 130.327 169.208 129.855 170.352C129.317 171.833 131.673 173.112 132.751 173.583C137.599 175.871 143.187 176.006 148.507 174.794Z" fill="#DBDAD9"/>
<path d="M148.507 174.794C160.088 172.236 164.6 165.371 172.073 157.497C186.55 142.353 204.528 134.95 225.199 131.248C228.161 130.508 231.662 130.373 233.682 127.95C235.096 125.527 233.75 123.037 230.652 123.777C221.293 125.123 212.271 128.152 203.585 131.517C198.939 133.402 194.562 135.825 190.59 138.786C182.375 144.507 174.767 150.834 166.418 156.42C157.934 161.872 148.372 165.573 138.542 167.862C136.118 168.535 133.559 168.737 131.203 169.544C130.664 169.746 130.125 170.083 129.991 170.554C129.789 172.304 132.347 173.246 133.694 173.919C138.34 175.804 143.659 175.871 148.507 174.794ZM148.574 174.861C143.659 176.006 138.407 176.006 133.627 174.188C132.011 173.515 129.452 172.573 129.654 170.487C130.395 168.602 133.155 168.669 134.771 168.131C145.747 165.641 156.52 161.67 165.879 155.612C174.093 149.959 181.837 143.699 190.051 138.046C194.091 135.017 198.602 132.662 203.248 130.844C211.53 127.748 219.947 125.056 228.7 123.643C229.979 123.508 231.191 123.172 232.538 123.306C234.76 123.71 235.096 126.537 233.952 128.085C231.932 130.575 228.229 130.844 225.266 131.517C205.201 135.219 186.819 143.565 172.545 157.833C168.976 161.266 165.812 165.102 162.041 168.333C158.136 171.563 153.422 173.717 148.574 174.861Z" fill="#383636"/>
<path d="M132.751 171.698C133.559 171.159 134.299 171.025 135.242 171.227C134.636 171.967 133.626 172.169 132.751 171.698Z" fill="#383636"/>
<path d="M135.378 172.909C136.051 172.304 136.724 172.169 137.6 172.304C137.061 173.044 136.186 173.313 135.378 172.909Z" fill="#383636"/>
<path d="M138.34 173.65C139.484 173.044 140.427 172.64 141.706 172.438C141.033 173.448 139.619 173.986 138.34 173.65Z" fill="#383636"/>
<path d="M142.65 173.986C143.189 173.582 143.727 173.448 144.199 173.179C144.67 172.909 145.209 172.438 145.815 172.506C145.007 173.515 143.997 174.39 142.65 173.986Z" fill="#383636"/>
<path d="M147.295 173.044C147.901 172.236 148.574 171.833 149.517 171.631C149.18 172.573 148.305 173.111 147.295 173.044Z" fill="#383636"/>
<path d="M152.951 171.16C153.153 170.487 153.625 170.15 154.365 170.285C154.163 171.025 153.692 171.294 152.951 171.16Z" fill="#383636"/>
<path d="M156.587 169.275C156.722 168.67 157.193 168.4 157.799 168.67C157.597 169.275 157.193 169.477 156.587 169.275Z" fill="#383636"/>
<path d="M160.088 167.12C160.02 166.515 160.289 166.314 160.895 166.515C160.895 167.12 160.626 167.322 160.088 167.12Z" fill="#383636"/>
<path d="M184.194 146.527C194.833 137.306 208.568 132.796 221.967 129.162C225.065 128.22 229.239 127.883 231.259 125.056C231.933 124.114 232.269 122.903 232 121.759C232.269 122.903 232 124.114 231.327 125.124C229.374 128.085 225.132 128.489 222.035 129.499C208.77 133.335 195.169 137.71 184.194 146.527Z" fill="#383636"/>
<path d="M112.349 170.621C112.618 170.756 115.177 168.939 115.648 168.737C116.793 168.131 118.005 167.593 119.284 167.121C121.775 166.179 124.401 165.506 127.095 165.17C131.875 164.564 137.194 164.295 140.426 168.535C142.446 165.708 145.476 163.689 148.708 162.612C152.007 161.535 155.509 161.266 158.943 161.535C160.626 161.67 162.309 161.939 163.858 162.545C165.945 163.42 167.696 165.035 168.706 167.054C171.736 164.362 175.978 163.218 180.018 163.622C182.374 163.824 184.664 164.564 186.751 165.641C188.569 166.583 190.454 168.669 192.474 169.073C193.013 169.208 193.619 169.006 194.157 169.006C196.043 168.871 197.995 170.083 198.669 171.9C196.918 172.371 177.93 174.592 175.843 174.727C168.1 175.265 160.155 175.602 152.411 175.938C136.79 176.611 121.102 175.804 105.548 174.727C101.239 174.39 96.9297 173.987 92.6878 173.515C89.0518 173.112 86.2239 172.371 81.4433 171.294C83.5979 168.871 91.0718 168.535 94.1018 168.198C100.229 167.391 106.626 168.198 112.349 170.621Z" fill="#CFB57C"/>
<path d="M112.349 170.554C113.426 170.15 114.504 169.275 115.514 168.669C118.88 166.919 122.584 165.775 126.287 165.169C129.99 164.631 134.097 164.16 137.599 165.91C138.743 166.515 139.821 167.39 140.629 168.4H140.023C144.938 161.333 154.701 159.785 162.579 161.602C165.34 162.342 167.763 164.294 169.11 166.852L168.235 166.65C170.457 164.698 173.217 163.554 176.045 163.15C179.614 162.612 183.25 163.419 186.482 164.967C188.636 165.91 190.32 168.063 192.542 168.602C193.552 168.669 194.696 168.333 195.706 168.736C197.39 169.207 198.736 170.621 199.208 172.371C196.514 172.909 193.888 173.111 191.262 173.448C174.16 175.669 157.125 176.14 139.821 176.409C129.99 176.409 120.16 176.14 110.396 175.601C100.768 174.928 90.87 174.323 81.3762 171.63L80.7702 171.496L81.2415 171.025C84.4061 168.333 88.8501 168.602 92.7553 168.131C99.3539 167.256 106.222 167.929 112.349 170.554ZM112.282 170.688C106.154 168.063 99.3539 167.458 92.8227 168.534C89.1194 169.073 84.6755 169.006 81.7129 171.563L81.5109 170.957L88.7154 172.438C91.1394 172.909 93.496 173.111 95.9873 173.38C110.598 174.659 125.277 175.736 140.023 175.938C154.634 175.871 169.514 175.198 184.058 173.38C188.906 172.775 193.821 172.169 198.534 171.361L198.198 172.034C197.524 170.284 195.572 169.207 193.686 169.544C193.013 169.679 192.07 169.544 191.397 169.207C188.771 167.929 187.088 165.842 184.26 165.102C179.277 163.285 173.217 163.89 169.11 167.39L168.571 167.861L168.235 167.188C165.811 162.141 159.549 161.602 154.566 161.871C149.314 162.141 143.928 164.294 140.763 168.602L140.494 169.006L140.225 168.602C135.242 162.141 121.843 165.708 115.648 168.804C114.84 169.275 114.032 169.813 113.224 170.284C112.888 170.419 112.686 170.621 112.282 170.688Z" fill="#383636"/>
<path d="M57.0696 139.19C56.1269 138.719 55.5209 137.978 55.3189 136.834C55.3189 136.699 55.2516 136.565 55.2516 136.363L58.4162 135.824C58.4836 136.296 58.6182 136.632 58.9549 136.834C59.2242 137.036 59.6282 137.103 60.1669 137.036C60.6382 136.969 60.9749 136.767 61.1769 136.497C61.3789 136.228 61.5135 135.959 61.4462 135.555C61.3789 135.151 61.1769 134.882 60.7729 134.68C60.3689 134.546 59.7629 134.411 59.0222 134.209C58.2816 134.007 57.6756 133.873 57.2043 133.671C56.7329 133.469 56.3289 133.2 55.9249 132.796C55.5209 132.392 55.2516 131.853 55.1843 131.18C54.9823 130.373 55.0496 129.632 55.3189 128.892C55.5883 128.219 56.1269 127.613 56.8003 127.142C57.4736 126.738 58.2816 126.402 59.2242 126.267C60.0995 126.133 60.8402 126.133 61.5808 126.267C62.2542 126.402 62.8602 126.738 63.2642 127.209C63.7355 127.681 64.0048 128.219 64.1395 128.959C64.1395 129.161 64.2068 129.296 64.2068 129.363L60.9749 129.902C60.9749 129.834 60.9749 129.767 60.9749 129.7C60.9075 129.296 60.7729 129.094 60.5035 128.892C60.2342 128.757 59.8975 128.69 59.4935 128.757C59.0896 128.825 58.7529 128.959 58.5509 129.229C58.2816 129.498 58.2142 129.834 58.2816 130.171C58.3489 130.507 58.5509 130.844 58.9549 130.979C59.3589 131.18 59.8975 131.382 60.6382 131.584C61.3789 131.786 61.9848 131.988 62.4562 132.19C62.9948 132.392 63.3988 132.728 63.8028 133.132C64.2068 133.536 64.4761 134.075 64.6108 134.748C64.7455 135.488 64.6781 136.228 64.4088 136.901C64.1395 137.574 63.6681 138.113 62.9948 138.584C62.2542 139.055 61.4462 139.324 60.4362 139.526C59.1569 139.728 58.0122 139.661 57.0696 139.19Z" fill="#010101"/>
<path d="M69.9306 134.277C69.9306 134.344 69.9306 134.412 69.9306 134.546C69.9306 134.748 70.0652 134.883 70.1999 135.017C70.3346 135.085 70.5366 135.085 70.8059 135.085L71.8832 134.95V137.575L70.3346 137.777C68.3819 138.046 67.2373 137.373 66.968 135.623C66.968 135.421 66.9006 135.085 66.9006 134.681L66.968 130.508L65.8233 130.71L65.8906 128.085L67.1026 127.883L67.1699 125.326L70.1999 124.854L70.0652 127.412L72.0179 127.143V129.768L69.9979 130.037L69.9306 134.277Z" fill="#010101"/>
<path d="M76.9325 126.47L76.5958 136.902L73.5659 137.306L73.9025 126.874L76.9325 126.47ZM74.3065 125.326C73.9698 125.124 73.8352 124.787 73.7679 124.384C73.7005 123.845 73.8352 123.374 74.1718 122.903C74.5758 122.432 75.0472 122.163 75.5858 122.095C76.0572 122.028 76.4611 122.095 76.7305 122.364C77.0671 122.566 77.2691 122.903 77.3365 123.307C77.4038 123.845 77.2691 124.316 76.9325 124.787C76.5958 125.259 76.1245 125.46 75.5185 125.595C75.0472 125.662 74.6432 125.528 74.3065 125.326Z" fill="#010101"/>
<path d="M83.5984 126.065C84.1371 125.662 84.7431 125.392 85.4164 125.325L85.2144 128.69L84.4064 128.825C83.5984 128.892 83.0598 129.161 82.6558 129.498C82.2518 129.902 82.0498 130.508 81.9824 131.382L81.7131 136.228L78.6832 136.632L79.2218 126.2L82.2518 125.864L82.1844 127.681C82.5211 127.008 82.9924 126.469 83.5984 126.065Z" fill="#010101"/>
<path d="M100.028 127.681C99.6239 128.354 99.0853 128.892 98.3446 129.363C97.604 129.767 96.7286 130.036 95.7187 130.104L93.8334 130.306L93.4294 135.017L90.3994 135.286L91.4767 122.162L96.392 121.691C97.7386 121.623 98.7486 121.825 99.4219 122.364C100.163 122.902 100.567 123.71 100.634 124.719C100.634 124.989 100.634 125.325 100.634 125.594C100.634 126.267 100.365 127.008 100.028 127.681ZM97.5366 125.796C97.5366 125.594 97.5366 125.46 97.5366 125.392C97.4693 124.989 97.3346 124.719 97.0653 124.517C96.796 124.315 96.392 124.248 95.9207 124.315L94.3047 124.45L94.0354 127.815L95.6513 127.681C96.8633 127.546 97.4693 126.94 97.5366 125.796Z" fill="#010101"/>
<path d="M106.761 124.047C107.367 123.643 107.973 123.441 108.579 123.374L108.242 126.806H107.434C106.626 126.874 106.088 127.076 105.616 127.479C105.212 127.816 105.01 128.422 104.876 129.297L104.404 134.143L101.307 134.345L102.384 123.98L105.482 123.71L105.28 125.595C105.684 124.989 106.155 124.451 106.761 124.047Z" fill="#010101"/>
<path d="M111.339 133.335C110.666 132.998 110.127 132.527 109.723 131.921C109.319 131.316 109.117 130.575 109.05 129.7C108.983 128.421 109.252 127.345 109.723 126.402C110.195 125.393 110.935 124.652 111.811 124.047C112.753 123.441 113.763 123.104 114.908 123.037C115.783 123.037 116.524 123.172 117.265 123.508C117.938 123.845 118.477 124.316 118.881 124.989C119.285 125.595 119.487 126.335 119.554 127.21C119.621 128.421 119.419 129.498 118.881 130.441C118.409 131.383 117.669 132.191 116.726 132.796C115.851 133.335 114.773 133.671 113.629 133.739C112.753 133.806 112.013 133.604 111.339 133.335ZM115.245 130.441C115.649 130.171 115.918 129.7 116.12 129.229C116.322 128.691 116.389 128.152 116.389 127.614C116.389 127.008 116.187 126.537 115.851 126.2C115.514 125.931 115.11 125.797 114.639 125.797C114.1 125.797 113.696 125.999 113.292 126.335C112.888 126.672 112.619 127.075 112.417 127.614C112.215 128.085 112.147 128.623 112.215 129.229C112.215 129.835 112.417 130.306 112.753 130.575C113.09 130.912 113.494 131.046 113.965 130.979C114.437 130.979 114.908 130.777 115.245 130.441Z" fill="#010101"/>
<path d="M126.018 123.171C126.624 122.835 127.23 122.7 127.97 122.7C129.048 122.7 129.923 123.036 130.596 123.71C131.27 124.45 131.606 125.392 131.674 126.671C131.674 127.075 131.674 127.479 131.606 127.882C131.472 128.959 131.135 129.902 130.596 130.709C130.058 131.517 129.452 132.19 128.711 132.594C127.97 133.065 127.23 133.267 126.355 133.267C125.681 133.267 125.075 133.132 124.604 132.863C124.133 132.594 123.729 132.19 123.527 131.719L122.584 138.113L119.554 138.18L121.843 122.902L124.873 122.835L124.671 124.315C125.008 123.844 125.479 123.44 126.018 123.171ZM128.509 127.344C128.509 126.738 128.307 126.267 127.97 125.931C127.634 125.594 127.163 125.459 126.691 125.459C126.085 125.459 125.547 125.729 125.008 126.2C124.537 126.671 124.2 127.277 124.065 128.084C124.065 128.286 123.998 128.488 123.998 128.69C123.998 129.296 124.2 129.767 124.537 130.103C124.873 130.44 125.277 130.575 125.816 130.575C126.422 130.575 126.961 130.305 127.499 129.834C127.97 129.363 128.307 128.757 128.442 127.95C128.509 127.748 128.509 127.546 128.509 127.344Z" fill="#010101"/>
<path d="M141.707 123.71C142.447 124.451 142.851 125.393 142.851 126.672C142.851 127.075 142.851 127.412 142.784 127.748C142.717 128.018 142.649 128.287 142.582 128.623H135.647C135.647 128.691 135.647 128.825 135.647 128.96C135.647 129.498 135.782 129.902 136.051 130.171C136.32 130.441 136.724 130.575 137.196 130.575C137.936 130.575 138.542 130.239 138.946 129.566H142.178C141.774 130.643 141.033 131.45 140.091 132.123C139.148 132.796 138.004 133.133 136.859 133.133C135.58 133.133 134.502 132.729 133.762 131.989C133.021 131.248 132.617 130.239 132.617 128.96C132.617 128.556 132.684 128.152 132.752 127.748C132.954 126.672 133.29 125.729 133.896 124.922C134.435 124.114 135.176 123.508 135.984 123.104C136.859 122.701 137.734 122.431 138.744 122.431C139.956 122.566 140.966 122.97 141.707 123.71ZM139.821 126.672C139.821 126.2 139.687 125.797 139.35 125.527C139.081 125.258 138.677 125.124 138.138 125.124C137.6 125.124 137.128 125.258 136.724 125.595C136.32 125.931 136.051 126.402 135.849 127.008H139.687C139.821 126.806 139.821 126.739 139.821 126.672Z" fill="#010101"/>
<path d="M149.718 123.306C150.324 122.969 150.93 122.835 151.604 122.835L150.93 126.132H150.055C149.314 126.132 148.708 126.267 148.237 126.604C147.766 126.94 147.496 127.546 147.294 128.353L146.486 133.132L143.456 133.065L145.409 122.767L148.506 122.835L148.17 124.652C148.574 124.113 149.112 123.642 149.718 123.306Z" fill="#010101"/>
<path d="M156.857 119.739L154.097 133.334L151.067 133.267L153.827 119.672L156.857 119.739Z" fill="#010101"/>
<path d="M160.762 123.306L161.638 129.768L165.341 123.508L168.64 123.71L159.079 138.45L155.78 138.248L159.214 133.2L157.328 123.172L160.762 123.306Z" fill="#010101"/>
<path d="M79.963 254.751C66.4293 252.059 57.5414 238.935 60.2347 225.339C62.928 211.811 76.0578 202.994 89.6589 205.619C103.193 208.311 112.013 221.436 109.387 235.031C106.694 248.627 93.4968 257.443 79.963 254.751Z" fill="white"/>
<path d="M79.963 254.751C66.4293 252.059 57.5414 238.935 60.2347 225.339C62.928 211.811 76.0578 202.994 89.6589 205.619C103.193 208.311 112.013 221.436 109.387 235.031C106.694 248.627 93.4968 257.443 79.963 254.751Z" stroke="#010101" stroke-width="1.88925" stroke-miterlimit="10"/>
<path d="M79.7611 221.368C80.9058 220.292 82.5218 219.753 84.5417 219.753C85.8884 219.753 87.033 220.022 87.9757 220.494C88.9183 220.965 89.659 221.638 90.1303 222.513C90.6016 223.388 90.871 224.263 90.871 225.339C90.871 226.551 90.6016 227.56 89.9956 228.368C89.3896 229.108 88.7163 229.647 87.9083 229.916V230.051C88.9183 230.387 89.7263 230.993 90.3323 231.801C90.9383 232.608 91.2076 233.685 91.2076 234.964C91.2076 236.108 90.9383 237.118 90.467 238.06C89.9283 238.935 89.1876 239.675 88.245 240.146C87.3023 240.618 86.0904 240.887 84.811 240.887C82.6564 240.887 80.9731 240.348 79.6938 239.204C78.4145 238.127 77.7412 236.445 77.6738 234.224H82.1178C82.1178 235.031 82.3871 235.704 82.7911 236.175C83.1951 236.647 83.8684 236.916 84.6764 236.916C85.3497 236.916 85.8884 236.714 86.2924 236.31C86.6964 235.906 86.8983 235.3 86.8983 234.627C86.8983 233.752 86.629 233.079 86.0904 232.676C85.5517 232.272 84.6764 232.07 83.4644 232.07H82.5218V228.166H83.3971C84.2724 228.166 85.013 228.032 85.619 227.695C86.1577 227.359 86.4944 226.753 86.4944 225.945C86.4944 225.272 86.2924 224.734 85.9557 224.397C85.619 223.993 85.0804 223.859 84.4744 223.859C83.8011 223.859 83.3297 224.061 82.9931 224.532C82.6564 224.936 82.4544 225.474 82.4544 226.147H77.8758C77.9432 223.993 78.6165 222.445 79.7611 221.368Z" fill="#FEC30E"/>
</g>
<defs>
<clipPath id="clip0_118_8657">
<rect width="179.508" height="136.426" fill="white" transform="translate(55.049 119.672)"/>
</clipPath>
</defs>
</svg>
