<svg width="288" height="288" viewBox="0 0 288 288" fill="none" xmlns="http://www.w3.org/2000/svg">
<rect width="287.212" height="287.212" rx="28.7212" fill="white"/>
<g clip-path="url(#clip0_118_8403)">
<path d="M80.0087 169.337C80.3252 169.464 82.7305 167.755 83.1103 167.565C84.2497 166.995 85.389 166.489 86.5917 166.046C88.9337 165.16 91.4023 164.527 93.9342 164.21C98.365 163.641 103.429 163.387 106.467 167.375C108.366 164.717 111.214 162.818 114.253 161.805C117.354 160.792 120.646 160.539 123.874 160.792C125.456 160.919 127.039 161.172 128.495 161.742C130.457 162.564 132.039 164.084 133.052 165.983C135.9 163.451 139.888 162.375 143.686 162.754C145.901 162.944 148.054 163.641 150.016 164.653C151.725 165.539 153.497 167.502 155.396 167.881C155.902 168.008 156.472 167.818 156.978 167.818C158.751 167.692 160.586 168.831 161.219 170.54C159.574 170.983 141.724 173.072 139.762 173.198C132.482 173.705 125.013 174.021 117.734 174.338C103.049 174.971 88.3007 174.211 73.679 173.198C69.6912 172.945 65.6402 172.565 61.6524 172.122C58.1711 171.743 55.5759 170.983 51.0818 170.034C53.1073 167.755 60.1333 167.438 62.9817 167.059C68.6785 166.299 74.6917 167.059 80.0087 169.337Z" fill="#CFB57C"/>
<path d="M80.0723 169.274C81.1483 168.894 82.0978 168.071 83.1105 167.501C86.2754 165.856 89.7568 164.78 93.2381 164.21C96.7195 163.704 100.581 163.261 103.872 164.906C104.948 165.476 105.961 166.299 106.721 167.248H106.151C110.772 160.602 119.95 159.146 127.355 160.855C129.951 161.551 132.229 163.387 133.495 165.792L132.672 165.603C134.761 163.767 137.356 162.691 140.015 162.311C143.37 161.805 146.788 162.564 149.826 164.02C151.852 164.906 153.371 166.932 155.523 167.438C156.472 167.501 157.548 167.185 158.498 167.565C160.08 168.008 161.346 169.337 161.789 170.983C159.257 171.489 156.789 171.679 154.32 171.996C138.243 174.084 122.228 174.527 105.961 174.781C96.7195 174.781 87.4781 174.527 78.2999 174.021C69.1218 173.451 59.817 172.882 50.8921 170.413L50.3224 170.287L50.7022 169.843C53.7405 167.312 57.9181 167.565 61.5894 167.058C67.8558 166.172 74.3122 166.805 80.0723 169.274ZM80.009 169.4C74.2489 166.995 67.8558 166.425 61.716 167.375C58.2346 167.945 54.057 167.818 51.2719 170.223L51.082 169.654L57.8548 171.109C60.0702 171.552 62.3489 171.742 64.691 171.996C78.4265 173.198 92.2254 174.211 106.088 174.401C119.823 174.338 133.812 173.705 147.484 171.996C152.042 171.426 156.662 170.856 161.093 170.097L160.777 170.73C160.144 169.084 158.308 168.071 156.536 168.388C155.903 168.514 155.017 168.388 154.384 168.071C151.915 166.868 150.332 164.906 147.674 164.21C142.99 162.501 137.293 163.071 133.432 166.362L132.926 166.805L132.609 166.172C130.33 161.425 124.507 160.918 119.76 161.172C114.823 161.425 109.759 163.45 106.784 167.501L106.531 167.881L106.277 167.501C101.72 161.298 89.0605 164.59 83.2371 167.501C82.4776 167.945 81.718 168.451 80.9584 168.894C80.5786 169.147 80.3887 169.4 80.009 169.4Z" fill="#383636"/>
<mask id="mask0_118_8403" style="mask-type:luminance" maskUnits="userSpaceOnUse" x="100" y="165" width="3" height="5">
<path d="M102.796 165.919H100.137V169.527H102.796V165.919Z" fill="white"/>
</mask>
<g mask="url(#mask0_118_8403)">
<path d="M100.455 167.755C100.581 168.388 100.581 169.084 100.075 169.527C101.088 169.654 102.1 169.147 102.543 168.261C102.607 168.071 102.733 167.881 102.67 167.691C102.607 167.565 102.543 167.438 102.48 167.375C102.1 166.932 101.467 166.046 100.834 165.982C100.075 165.856 100.391 167.248 100.455 167.755Z" fill="white"/>
</g>
<mask id="mask1_118_8403" style="mask-type:luminance" maskUnits="userSpaceOnUse" x="88" y="166" width="3" height="2">
<path d="M90.3882 166.046H88.2993V167.945H90.3882V166.046Z" fill="white"/>
</mask>
<g mask="url(#mask1_118_8403)">
<path d="M89.3766 166.109C88.8069 166.299 88.2372 166.742 88.3005 167.185C88.3005 167.375 88.4904 167.565 88.617 167.692C88.6803 167.755 88.7436 167.818 88.8702 167.882C89.0601 167.945 89.3133 167.882 89.5032 167.755C89.7564 167.629 90.0096 167.375 90.1362 167.122C90.2628 166.869 90.3894 166.552 90.3261 166.299C90.1995 165.983 89.8197 165.983 89.3766 166.109Z" fill="white"/>
</g>
<mask id="mask2_118_8403" style="mask-type:luminance" maskUnits="userSpaceOnUse" x="119" y="163" width="2" height="2">
<path d="M120.898 163.704H119.632V164.59H120.898V163.704Z" fill="white"/>
</mask>
<g mask="url(#mask2_118_8403)">
<path d="M120.899 163.894C120.963 164.083 120.899 164.273 120.773 164.4C120.646 164.527 120.456 164.59 120.266 164.59C120.14 164.59 119.95 164.59 119.823 164.527C119.697 164.463 119.633 164.273 119.697 164.083C119.76 164.02 119.823 163.957 119.886 163.894C120.076 163.767 120.33 163.64 120.583 163.64C120.646 163.64 120.646 163.64 120.709 163.704C120.773 163.704 120.836 163.83 120.899 163.894Z" fill="white"/>
</g>
<mask id="mask3_118_8403" style="mask-type:luminance" maskUnits="userSpaceOnUse" x="126" y="165" width="4" height="6">
<path d="M129.887 165.919H126.849V170.54H129.887V165.919Z" fill="white"/>
</mask>
<g mask="url(#mask3_118_8403)">
<path d="M127.165 167.058C127.038 167.311 126.848 167.565 126.911 167.881C126.975 168.261 127.291 168.577 127.608 168.831C127.924 169.147 128.241 169.464 128.494 169.907C128.62 170.097 128.747 170.286 128.937 170.413C129.127 170.54 129.443 170.54 129.57 170.35C129.633 170.286 129.633 170.223 129.697 170.16C130.013 169.21 130.076 168.134 129.95 167.122C129.886 166.678 129.697 166.109 129.253 165.982C129 165.856 128.684 165.919 128.431 166.046C128.177 166.172 127.924 166.362 127.734 166.552L127.165 167.058Z" fill="white"/>
</g>
<mask id="mask4_118_8403" style="mask-type:luminance" maskUnits="userSpaceOnUse" x="145" y="165" width="5" height="4">
<path d="M149.762 165.16H145.964V168.324H149.762V165.16Z" fill="white"/>
</mask>
<g mask="url(#mask4_118_8403)">
<path d="M147.485 168.008C147.548 168.135 147.674 168.262 147.801 168.325C147.928 168.388 148.054 168.325 148.181 168.325C148.561 168.262 149.004 168.135 149.383 167.945C149.573 167.882 149.763 167.755 149.7 167.565C149.7 167.502 149.637 167.439 149.637 167.439C149.447 167.249 149.257 167.059 149.13 166.869C148.94 166.679 148.814 166.489 148.561 166.426C148.181 166.236 147.738 166.236 147.295 166.11C147.168 166.046 147.105 166.046 147.041 165.983C146.978 165.92 146.978 165.793 146.978 165.73C146.788 165.097 145.712 165.033 146.092 165.856C146.472 166.553 147.041 167.249 147.485 168.008Z" fill="white"/>
</g>
<mask id="mask5_118_8403" style="mask-type:luminance" maskUnits="userSpaceOnUse" x="137" y="164" width="4" height="4">
<path d="M140.522 164.717H137.167V167.565H140.522V164.717Z" fill="white"/>
</mask>
<g mask="url(#mask5_118_8403)">
<path d="M137.99 165.159C137.673 165.222 137.42 165.412 137.293 165.729C137.167 166.045 137.167 166.362 137.23 166.678C137.23 166.742 137.23 166.868 137.293 166.931C137.357 167.058 137.483 167.121 137.673 167.248C137.926 167.375 138.179 167.501 138.433 167.564C138.686 167.628 139.002 167.628 139.256 167.438C139.572 167.248 139.699 166.805 139.825 166.488C139.952 166.235 140.078 165.982 140.268 165.792C140.395 165.666 140.521 165.539 140.521 165.349C140.521 165.222 140.395 165.096 140.268 164.969C139.825 164.653 139.192 164.779 138.623 164.906L137.99 165.159Z" fill="white"/>
</g>
<mask id="mask6_118_8403" style="mask-type:luminance" maskUnits="userSpaceOnUse" x="92" y="171" width="5" height="3">
<path d="M96.0233 171.236H92.2888V173.704H96.0233V171.236Z" fill="white"/>
</mask>
<g mask="url(#mask6_118_8403)">
<path d="M94.5041 171.299C95.2004 171.869 95.7068 172.692 96.0233 173.515C95.8334 173.704 95.5169 173.704 95.2637 173.704C94.3775 173.641 93.0483 173.831 92.2887 173.451C92.352 173.135 94.1876 171.046 94.5041 171.299Z" fill="white"/>
</g>
<mask id="mask7_118_8403" style="mask-type:luminance" maskUnits="userSpaceOnUse" x="61" y="168" width="5" height="2">
<path d="M65.2607 168.135H61.7793V169.337H65.2607V168.135Z" fill="white"/>
</mask>
<g mask="url(#mask7_118_8403)">
<path d="M65.1338 168.767C65.1971 168.831 65.2604 168.894 65.2604 169.021C65.2604 169.274 64.944 169.4 64.6908 169.4C63.7413 169.464 62.6652 169.21 61.8424 168.831C62.1589 167.881 64.6275 168.008 65.1338 168.767Z" fill="white"/>
</g>
<mask id="mask8_118_8403" style="mask-type:luminance" maskUnits="userSpaceOnUse" x="73" y="169" width="4" height="3">
<path d="M76.4002 169.084H73.6151V171.489H76.4002V169.084Z" fill="white"/>
</mask>
<g mask="url(#mask8_118_8403)">
<path d="M73.6151 171.109C73.9316 170.54 74.1848 169.97 74.5012 169.464C74.5645 169.337 74.6278 169.211 74.8177 169.211C74.881 169.211 75.0076 169.211 75.0709 169.274C75.5773 169.464 76.0204 169.907 76.2103 170.413C76.3369 170.73 76.4002 171.236 76.0837 171.426C75.8938 171.553 75.7039 171.553 75.4507 171.553C74.9443 171.553 74.3747 171.489 73.8683 171.299L73.6151 171.109Z" fill="white"/>
</g>
<mask id="mask9_118_8403" style="mask-type:luminance" maskUnits="userSpaceOnUse" x="111" y="168" width="4" height="5">
<path d="M114.442 168.451H111.277V172.439H114.442V168.451Z" fill="white"/>
</mask>
<g mask="url(#mask9_118_8403)">
<path d="M111.277 170.033C111.34 169.4 111.594 168.831 112.1 168.451C112.29 169.527 113.113 170.476 114.062 171.109C114.252 171.299 114.569 171.553 114.442 171.742C114.379 171.806 114.315 171.869 114.252 171.932C112.353 173.198 111.087 171.932 111.277 170.033Z" fill="white"/>
</g>
<mask id="mask10_118_8403" style="mask-type:luminance" maskUnits="userSpaceOnUse" x="118" y="163" width="5" height="3">
<path d="M122.417 163.008H118.05V165.539H122.417V163.008Z" fill="white"/>
</mask>
<g mask="url(#mask10_118_8403)">
<path d="M120.328 163.071C120.708 163.008 121.151 162.944 121.531 163.134C121.911 163.261 122.291 163.577 122.354 164.02C122.481 164.527 122.164 164.97 121.848 165.35C121.784 165.413 121.721 165.476 121.594 165.54C121.341 165.666 121.025 165.54 120.708 165.476C120.012 165.286 118.05 165.856 117.986 164.843C117.986 163.831 119.632 163.198 120.328 163.071Z" fill="white"/>
</g>
<path d="M190.398 161.425C188.689 181.237 179.195 200.606 164.067 213.645C154.445 221.494 143.115 227.951 130.709 229.596C123.303 230.103 115.834 230.166 108.428 230.546V229.533H108.618V230.546L93.743 230.356C88.8058 230.356 83.5521 230.166 78.8048 228.647C52.1565 220.228 32.5343 195.985 27.5971 168.831C27.154 166.362 26.7742 163.893 26.5843 161.425H26.7742C27.4072 166.299 28.6731 171.109 30.1923 175.793C36.2688 194.466 48.865 211.05 66.0187 220.861C73.3612 225.102 81.4633 228.71 90.0717 228.773L93.8063 228.9L108.681 229.533V230.546H108.491V229.533C113.429 229.47 118.429 229.406 123.366 229.28C128.24 229.217 133.367 229.027 137.988 227.444C156.597 220.988 172.105 206.683 181.157 189.339C183.436 184.972 185.398 180.477 186.917 175.73C188.436 171.046 189.702 166.235 190.398 161.362V161.425Z" fill="#383636"/>
<path d="M190.273 161.425C190.273 161.425 186.919 208.075 141.344 226.558C137.293 228.204 132.989 229.216 128.622 229.47L108.303 230.039H108.493L88.1744 229.47C83.8069 229.216 79.5026 228.204 75.4516 226.558C29.8774 208.012 26.5226 161.425 26.5226 161.425" fill="#FEC30E"/>
<path d="M190.273 160.855C190.273 168.008 153.687 173.831 108.556 173.831C63.4246 173.831 26.8387 168.008 26.8387 160.855C26.8387 153.702 63.4246 147.879 108.556 147.879C153.687 147.879 190.273 153.702 190.273 160.855Z" fill="#DDA727"/>
<path d="M190.4 160.855C189.893 165.856 176.031 168.261 171.79 169.337C137.103 176.047 101.404 175.54 66.3367 172.312C13.0402 167.375 12.9769 154.399 66.2734 148.955C101.34 145.79 137.103 145.79 171.79 152.373C176.221 153.449 189.83 155.791 190.4 160.855ZM190.21 160.855C188.817 153.386 157.802 150.981 150.712 150.348C122.671 148.322 94.4408 148.259 66.4 150.601C61.7793 150.854 15.1923 155.602 30.447 164.147C35.131 166.552 40.3214 167.691 45.4485 168.767C52.3479 170.097 59.374 171.046 66.3367 171.616C81.9712 173.831 186.982 175.161 190.21 160.855Z" fill="#383636"/>
<path d="M140.901 151.804C141.218 151.487 141.534 151.234 141.724 150.854C142.04 150.221 141.977 149.462 141.977 148.766C141.977 145.474 144.382 142.246 147.547 141.423C147.8 141.36 148.054 141.296 148.307 141.107C148.56 140.917 148.687 140.6 148.813 140.284C149.636 138.385 150.965 136.676 152.864 135.853C154.763 135.03 157.105 135.22 158.561 136.676C158.751 136.992 158.941 137.182 159.257 137.309C159.574 137.435 159.954 137.245 160.27 137.182C161.599 136.739 163.118 136.929 164.321 137.688C165.144 138.195 165.777 138.954 166.537 139.524C167.676 140.41 169.005 140.917 170.145 141.676C171.347 142.436 172.487 143.449 172.803 144.841C173.373 147.056 171.664 149.209 169.955 150.728C166.79 153.513 163.118 155.728 159.131 157.247C156.219 158.323 153.181 159.02 150.142 159.716C146.978 160.412 141.534 161.995 138.432 160.349C135.584 158.703 139.445 153.196 140.901 151.804Z" fill="#CFB57C"/>
<g opacity="0.5">
<mask id="mask11_118_8403" style="mask-type:luminance" maskUnits="userSpaceOnUse" x="144" y="143" width="7" height="8">
<path d="M150.207 143.195H144.573V150.095H150.207V143.195Z" fill="white"/>
</mask>
<g mask="url(#mask11_118_8403)">
<path d="M145.08 146.803C145.459 147.436 145.649 148.133 145.713 148.829C145.713 149.082 145.713 149.335 145.776 149.588C145.839 149.842 146.029 150.031 146.219 150.095C146.409 150.158 146.599 150.095 146.789 150.031C147.991 149.588 149.131 148.829 149.89 147.816C150.017 147.626 150.207 147.436 150.207 147.183C150.27 146.993 150.207 146.867 150.207 146.677C150.143 146.107 150.017 145.537 149.954 145.031C149.574 143.259 147.865 142.942 146.282 143.512C144.573 144.082 144.193 145.411 145.08 146.803Z" fill="#020302"/>
</g>
</g>
<g opacity="0.5">
<mask id="mask12_118_8403" style="mask-type:luminance" maskUnits="userSpaceOnUse" x="154" y="137" width="4" height="4">
<path d="M157.231 137.055H154.32V140.41H157.231V137.055Z" fill="white"/>
</mask>
<g mask="url(#mask12_118_8403)">
<path d="M154.32 137.751C154.256 138.131 154.51 138.448 154.763 138.701C155.079 139.017 155.332 139.334 155.649 139.587C155.839 139.84 156.092 140.03 156.282 140.283C156.345 140.347 156.472 140.473 156.598 140.41C156.662 140.41 156.725 140.347 156.788 140.283C158.497 138.005 154.51 135.979 154.32 137.751Z" fill="#020302"/>
</g>
</g>
<g opacity="0.5">
<mask id="mask13_118_8403" style="mask-type:luminance" maskUnits="userSpaceOnUse" x="154" y="143" width="5" height="5">
<path d="M158.878 143.828H154.953V147.12H158.878V143.828Z" fill="white"/>
</mask>
<g mask="url(#mask13_118_8403)">
<path d="M155.207 146.044C155.397 146.297 155.777 146.36 156.093 146.424C157.043 146.55 157.929 146.803 158.752 147.246C158.942 147.373 158.878 145.601 158.815 145.411C158.562 144.778 157.992 144.208 157.359 144.018C156.283 143.512 154.321 144.904 155.207 146.044Z" fill="#020302"/>
</g>
</g>
<g opacity="0.5">
<mask id="mask14_118_8403" style="mask-type:luminance" maskUnits="userSpaceOnUse" x="141" y="153" width="5" height="4">
<path d="M145.648 153.386H141.281V156.298H145.648V153.386Z" fill="white"/>
</mask>
<g mask="url(#mask14_118_8403)">
<path d="M142.926 153.64C143.37 153.386 143.876 153.323 144.319 153.45C144.889 153.64 145.332 154.209 145.648 154.716C144.952 155.032 144.129 155.095 143.37 155.412C142.99 155.538 141.977 156.425 141.597 156.298C140.458 155.855 142.547 153.893 142.926 153.64Z" fill="#020302"/>
</g>
</g>
<g opacity="0.5">
<mask id="mask15_118_8403" style="mask-type:luminance" maskUnits="userSpaceOnUse" x="163" y="141" width="5" height="4">
<path d="M167.675 141.043H163.687V144.145H167.675V141.043Z" fill="white"/>
</mask>
<g mask="url(#mask15_118_8403)">
<path d="M163.814 142.055C163.75 141.865 163.687 141.676 163.687 141.486C163.687 141.296 163.814 141.106 164.003 141.043C164.13 140.979 164.32 141.043 164.447 141.106C165.08 141.359 165.713 141.549 166.345 141.739C166.852 141.929 167.358 142.119 167.611 142.562C167.675 142.688 167.675 142.752 167.675 142.878C167.675 143.005 167.548 143.131 167.485 143.258C167.295 143.511 167.105 143.701 166.852 143.891C165.649 144.714 164.257 143.005 163.814 142.055Z" fill="#020302"/>
</g>
</g>
<path d="M152.99 165.286C157.674 164.147 162.485 161.868 166.029 158.514C169.447 155.285 172.359 151.551 175.651 148.196C182.36 141.423 189.639 135.663 198.248 131.486C204.071 128.637 210.148 126.485 216.414 124.839C219.516 124.016 222.681 123.32 225.846 122.687C228.061 122.244 231.226 121.674 232.808 119.965C234.074 118.573 233.948 115.914 232.239 115.281C231.606 115.028 230.973 115.155 230.34 115.218C224.01 116.041 217.807 118.003 211.73 120.029C204.957 122.307 198.628 124.966 192.868 129.27C187.044 133.638 181.221 137.879 175.587 142.499C164.637 151.424 152.864 156.298 139.128 159.273C138.178 159.463 135.836 159.843 135.393 160.982C134.887 162.438 137.102 163.704 138.115 164.147C142.736 166.362 147.99 166.489 152.99 165.286Z" fill="#DBDAD9"/>
<path d="M152.99 165.286C163.877 162.754 168.118 156.045 175.144 148.386C188.753 133.637 205.654 126.422 225.086 122.75C227.871 122.054 231.163 121.864 233.062 119.522C234.391 117.18 233.125 114.711 230.213 115.471C221.415 116.8 212.933 119.775 204.768 123.067C200.4 124.902 196.286 127.244 192.551 130.156C184.829 135.726 177.676 141.866 169.827 147.373C161.852 152.69 152.864 156.298 143.622 158.513C141.344 159.146 138.938 159.4 136.723 160.159C136.216 160.349 135.71 160.729 135.583 161.172C135.394 162.881 137.799 163.83 139.065 164.4C143.432 166.299 148.37 166.299 152.99 165.286ZM152.99 165.349C148.37 166.489 143.432 166.489 138.938 164.717C137.419 164.084 135.014 163.134 135.204 161.109C135.9 159.273 138.495 159.336 140.014 158.83C150.332 156.361 160.459 152.5 169.258 146.613C176.98 141.107 184.259 134.967 191.982 129.46C195.779 126.548 200.02 124.206 204.388 122.434C212.173 119.395 220.086 116.8 228.314 115.408C229.517 115.281 230.656 114.901 231.922 115.091C234.011 115.471 234.328 118.193 233.252 119.712C231.353 122.181 227.871 122.37 225.086 123.13C206.224 126.738 188.943 134.84 175.524 148.829C172.169 152.184 169.194 155.918 165.65 159.083C162.042 162.185 157.611 164.273 152.99 165.349Z" fill="#383636"/>
<path d="M137.99 162.122C138.749 161.615 139.446 161.489 140.332 161.679C139.762 162.375 138.813 162.565 137.99 162.122Z" fill="#383636"/>
<path d="M140.458 163.261C141.091 162.691 141.724 162.564 142.547 162.691C142.104 163.387 141.217 163.64 140.458 163.261Z" fill="#383636"/>
<path d="M143.306 163.957C144.382 163.387 145.268 163.008 146.471 162.818C145.774 163.767 144.445 164.273 143.306 163.957Z" fill="#383636"/>
<path d="M147.294 164.21C147.8 163.83 148.306 163.704 148.749 163.451C149.193 163.197 149.699 162.754 150.269 162.818C149.572 163.83 148.56 164.653 147.294 164.21Z" fill="#383636"/>
<path d="M151.662 163.324C152.232 162.565 152.865 162.185 153.751 161.995C153.434 162.881 152.611 163.387 151.662 163.324Z" fill="#383636"/>
<path d="M157.042 161.615C157.232 160.982 157.675 160.665 158.371 160.792C158.118 161.425 157.675 161.741 157.042 161.615Z" fill="#383636"/>
<path d="M160.396 159.843C160.523 159.273 160.966 159.02 161.536 159.273C161.409 159.843 160.966 160.033 160.396 159.843Z" fill="#383636"/>
<path d="M163.687 157.816C163.624 157.247 163.877 157.057 164.446 157.247C164.509 157.753 164.193 158.006 163.687 157.816Z" fill="#383636"/>
<path d="M186.411 138.385C196.412 129.713 209.325 125.472 221.921 122.054C224.833 121.168 228.757 120.851 230.656 118.193C231.289 117.307 231.605 116.167 231.352 115.091C231.605 116.167 231.352 117.307 230.719 118.256C228.884 121.041 224.896 121.421 221.984 122.371C209.451 125.978 196.728 130.156 186.411 138.385Z" fill="#383636"/>
<path d="M140.521 153.956C140.014 154.905 139.698 155.665 139.318 156.614C139.001 155.665 139.571 154.399 140.521 153.956Z" fill="#383636"/>
<path d="M140.584 155.158C140.648 155.981 140.648 156.551 140.458 157.311C140.015 156.678 140.078 155.728 140.584 155.158Z" fill="#383636"/>
<path d="M142.42 155.475C142.61 156.045 142.673 156.298 142.737 156.931C142.167 156.678 141.977 155.855 142.42 155.475Z" fill="#383636"/>
<path d="M145.142 155.728C145.584 155.791 145.711 155.855 145.964 156.234C145.648 156.487 145.015 156.171 145.142 155.728Z" fill="#383636"/>
<path d="M165.587 143.449C166.22 144.019 166.157 145.158 165.524 145.664C165.587 144.841 165.587 144.272 165.587 143.449Z" fill="#383636"/>
<path d="M167.675 143.069C168.182 143.765 168.182 144.715 167.675 145.411C167.549 144.588 167.549 143.955 167.675 143.069Z" fill="#383636"/>
<path d="M164.384 144.335C164.89 145.601 164.637 147.183 163.688 148.132C164.067 146.803 164.257 145.664 164.384 144.335Z" fill="#383636"/>
<path d="M162.612 145.601C162.992 146.17 162.739 147.056 162.106 147.31C162.169 146.613 162.296 146.234 162.612 145.601Z" fill="#383636"/>
<path d="M160.333 146.93C160.586 147.436 160.206 148.196 159.637 148.259C159.763 147.69 159.953 147.436 160.333 146.93Z" fill="#383636"/>
<path d="M182.677 117.433C183.12 116.104 183.5 114.965 183.753 114.142C184.006 113.256 184.133 112.496 184.26 111.737C184.323 110.977 184.26 110.344 184.006 109.838C183.943 109.711 183.88 109.584 183.816 109.458C183.627 109.205 183.437 109.015 183.183 109.015C182.93 108.951 182.677 109.078 182.424 109.268C181.791 109.711 181.664 110.534 182.171 111.61L180.019 113.129C179.449 111.863 179.322 110.66 179.639 109.584C179.955 108.508 180.588 107.685 181.538 106.989C182.424 106.356 183.247 106.103 184.006 106.23C184.766 106.356 185.336 106.736 185.842 107.432C185.969 107.622 186.095 107.875 186.222 108.065C186.728 109.078 186.855 110.281 186.665 111.547C186.475 112.876 186.032 114.332 185.462 115.914L189.007 113.446L190.02 115.534L183.373 120.092L182.487 118.193L182.677 117.433Z" fill="#010101"/>
<path d="M196.159 108.825C196.159 108.888 196.222 108.951 196.222 109.015C196.285 109.204 196.412 109.268 196.538 109.331C196.665 109.331 196.855 109.331 197.108 109.204L197.994 108.761L198.627 111.103L197.361 111.673C195.842 112.496 194.703 112.179 194.006 110.787C193.88 110.597 193.817 110.281 193.69 109.964L192.677 106.419L191.664 106.862L191.031 104.584L191.981 104.141L191.348 101.989L193.817 100.786L194.45 102.938L196.032 102.178L196.665 104.457L195.083 105.217L196.159 108.825Z" fill="#010101"/>
<path d="M201.477 100.343C201.856 99.8999 202.363 99.5834 202.933 99.3936C203.819 99.0771 204.642 99.0771 205.464 99.4569C206.224 99.8366 206.857 100.533 207.237 101.609C207.363 101.925 207.49 102.305 207.553 102.685C207.743 103.634 207.743 104.521 207.553 105.344C207.363 106.166 207.047 106.863 206.54 107.496C206.034 108.065 205.464 108.508 204.831 108.762C204.262 109.015 203.692 109.078 203.249 108.951C202.743 108.888 202.363 108.635 202.046 108.319L202.3 109.584L199.768 110.534L197.362 98.4441L199.894 97.4946L200.717 101.799C200.844 101.292 201.097 100.786 201.477 100.343ZM204.831 103.128C204.642 102.622 204.325 102.305 203.945 102.115C203.565 101.925 203.122 101.925 202.679 102.115C202.173 102.305 201.793 102.685 201.54 103.191C201.287 103.761 201.223 104.331 201.35 105.027C201.413 105.217 201.413 105.407 201.477 105.533C201.667 106.04 201.983 106.356 202.363 106.546C202.743 106.736 203.186 106.736 203.565 106.546C204.072 106.356 204.452 105.976 204.705 105.47C204.958 104.9 205.085 104.331 204.895 103.634C204.895 103.445 204.895 103.318 204.831 103.128Z" fill="#010101"/>
<path d="M211.351 106.103C210.718 106.04 210.212 105.85 209.832 105.596C209.389 105.28 209.136 104.9 208.946 104.394C208.946 104.331 208.882 104.204 208.882 104.014L211.414 103.254C211.478 103.571 211.667 103.824 211.921 103.951C212.174 104.077 212.49 104.077 212.87 103.951C213.187 103.824 213.44 103.698 213.63 103.508C213.82 103.318 213.883 103.128 213.82 102.875C213.756 102.685 213.566 102.495 213.313 102.432C213.06 102.368 212.617 102.305 212.047 102.305C211.414 102.305 210.908 102.242 210.528 102.178C210.085 102.115 209.705 101.925 209.325 101.672C208.946 101.419 208.692 101.039 208.503 100.469C208.376 99.963 208.376 99.4566 208.503 98.9502C208.692 98.4438 209.009 98.0008 209.452 97.621C209.895 97.1779 210.465 96.8614 211.161 96.6715C211.857 96.4816 212.49 96.4183 213.123 96.4816C213.693 96.5449 214.199 96.7348 214.642 97.1146C215.022 97.4311 215.339 97.8742 215.465 98.3805L215.529 98.6337L213.187 99.33C213.123 99.0135 212.933 98.7603 212.68 98.6337C212.427 98.5071 212.111 98.5071 211.731 98.6337C211.414 98.697 211.224 98.8869 211.098 99.0768C210.971 99.2667 210.908 99.4566 210.971 99.7098C211.034 99.963 211.224 100.09 211.541 100.153C211.857 100.216 212.3 100.279 212.87 100.279C213.503 100.279 214.009 100.343 214.389 100.406C214.832 100.469 215.212 100.659 215.529 100.912C215.908 101.166 216.162 101.545 216.288 102.052C216.478 102.621 216.415 103.128 216.225 103.698C216.035 104.204 215.655 104.647 215.149 105.027C214.642 105.407 214.009 105.723 213.313 105.913C212.554 106.103 211.921 106.166 211.351 106.103Z" fill="#010101"/>
<path d="M221.099 94.393C221.542 94.0132 222.048 93.76 222.681 93.6334C223.631 93.3802 224.454 93.5701 225.15 94.0132C225.846 94.5196 226.353 95.2792 226.606 96.3552C226.669 96.6717 226.732 97.0515 226.796 97.4313C226.859 98.3807 226.732 99.2669 226.479 100.09C226.226 100.913 225.783 101.546 225.213 102.115C224.644 102.622 224.011 103.001 223.314 103.191C222.745 103.318 222.175 103.318 221.732 103.191C221.289 103.065 220.846 102.748 220.592 102.432L220.972 108.129L218.314 108.762L217.364 95.0893L220.023 94.4563L220.086 95.7855C220.276 95.2159 220.656 94.7728 221.099 94.393ZM224.011 97.5579C223.884 97.0515 223.631 96.6717 223.251 96.4185C222.871 96.1653 222.491 96.1653 222.048 96.2286C221.542 96.3552 221.099 96.6717 220.782 97.1781C220.466 97.6845 220.276 98.3174 220.339 99.0137C220.339 99.2036 220.403 99.3935 220.403 99.5201C220.529 100.026 220.782 100.406 221.162 100.659C221.542 100.913 221.922 100.913 222.365 100.849C222.871 100.723 223.314 100.406 223.694 99.8999C224.011 99.3935 224.2 98.7605 224.137 98.0642C224.074 97.8744 224.074 97.7478 224.011 97.5579Z" fill="#010101"/>
<path d="M191.095 148.512C191.159 148.955 191.032 149.398 190.842 149.905C190.652 150.348 190.336 150.791 189.83 151.171L189.007 151.867L190.399 154.272L189.007 155.412L185.082 148.702L187.298 146.803C187.931 146.297 188.437 146.044 189.007 146.107C189.513 146.107 190.019 146.36 190.399 146.803C190.526 146.93 190.589 147.056 190.716 147.246C190.969 147.689 191.095 148.069 191.095 148.512ZM189.323 148.449C189.26 148.322 189.197 148.259 189.197 148.259C189.07 148.069 188.88 148.006 188.69 148.006C188.5 148.006 188.31 148.069 188.057 148.259L187.298 148.892L188.31 150.601L189.07 149.968C189.513 149.525 189.64 149.019 189.323 148.449Z" fill="#010101"/>
<path d="M194.704 143.385C195.337 143.449 195.843 143.702 196.349 144.271C196.476 144.461 196.603 144.651 196.729 144.778C196.792 144.904 196.919 145.094 196.982 145.284L193.818 147.879C193.818 147.943 193.881 147.943 193.944 148.069C194.134 148.322 194.387 148.449 194.577 148.449C194.83 148.449 195.02 148.386 195.273 148.196C195.59 147.879 195.78 147.563 195.716 147.057L197.236 145.791C197.425 146.424 197.425 147.057 197.236 147.753C197.046 148.449 196.666 148.955 196.16 149.462C195.59 149.968 194.957 150.158 194.324 150.095C193.691 150.031 193.121 149.778 192.678 149.145C192.552 148.955 192.425 148.766 192.298 148.576C191.982 148.006 191.792 147.436 191.729 146.867C191.665 146.297 191.792 145.727 191.982 145.221C192.172 144.715 192.552 144.271 192.995 143.892C193.501 143.575 194.071 143.385 194.704 143.385ZM194.957 145.474C194.767 145.284 194.577 145.158 194.324 145.158C194.071 145.158 193.881 145.221 193.628 145.411C193.374 145.601 193.248 145.854 193.185 146.17C193.121 146.487 193.185 146.803 193.311 147.12L195.083 145.664C195.02 145.601 194.957 145.537 194.957 145.474Z" fill="#010101"/>
<path d="M196.983 142.689C196.983 142.119 197.11 141.613 197.299 141.17C197.489 140.727 197.869 140.347 198.249 140.094C198.629 139.841 198.945 139.777 199.262 139.714C199.578 139.714 199.895 139.777 200.148 139.967L199.768 139.144L201.287 138.132L203.756 143.765L202.3 144.778L201.92 143.955C201.92 144.335 201.794 144.651 201.604 144.968C201.414 145.284 201.161 145.601 200.781 145.854C200.401 146.107 200.085 146.17 199.705 146.234C199.325 146.234 198.945 146.17 198.629 145.98C198.312 145.791 197.996 145.474 197.679 145.094C197.553 144.904 197.426 144.651 197.299 144.461C197.11 143.828 196.983 143.259 196.983 142.689ZM200.907 141.613C200.717 141.296 200.464 141.107 200.211 141.107C199.958 141.043 199.641 141.107 199.388 141.296C199.072 141.486 198.882 141.803 198.755 142.183C198.629 142.562 198.692 143.005 198.882 143.385C198.945 143.512 199.008 143.638 199.072 143.702C199.262 143.955 199.515 144.145 199.768 144.208C200.021 144.271 200.338 144.208 200.591 144.018C200.907 143.828 201.097 143.512 201.161 143.132C201.287 142.752 201.224 142.309 201.034 141.866C201.034 141.803 200.971 141.74 200.907 141.613Z" fill="#010101"/>
<path d="M207.617 135.283C208.06 135.41 208.44 135.789 208.756 136.296C208.819 136.486 208.946 136.675 209.009 136.929L210.149 140.347L208.566 141.17L207.553 137.941C207.427 137.878 207.364 137.815 207.3 137.688C207.174 137.435 206.984 137.245 206.731 137.182C206.477 137.119 206.288 137.119 205.971 137.245C205.655 137.435 205.465 137.625 205.338 137.941C205.211 138.258 205.275 138.574 205.338 139.017V138.954L206.414 142.182L204.832 143.005L202.933 137.119L204.515 136.296L204.832 137.182C204.895 136.865 205.085 136.486 205.275 136.232C205.528 135.916 205.781 135.726 206.161 135.536C206.667 135.22 207.174 135.156 207.617 135.283Z" fill="#010101"/>
<path d="M214.959 131.549L216.415 137.562L214.77 138.258L214.58 137.435C214.453 137.752 214.326 138.068 214.073 138.385C213.82 138.638 213.567 138.891 213.187 139.018C212.617 139.271 212.174 139.271 211.668 139.081C211.225 138.891 210.908 138.512 210.655 137.942C210.529 137.815 210.465 137.562 210.402 137.372L209.579 133.891L211.225 133.195L211.984 136.423C211.984 136.549 212.048 136.676 212.111 136.739C212.238 136.992 212.428 137.182 212.617 137.309C212.807 137.372 213.06 137.372 213.377 137.246C213.693 137.119 213.883 136.929 214.01 136.613C214.137 136.359 214.2 135.98 214.073 135.6L213.25 132.245L214.959 131.549Z" fill="#010101"/>
<path d="M219.073 134.334C219.073 134.397 219.073 134.397 219.136 134.46C219.199 134.587 219.263 134.65 219.326 134.714C219.389 134.714 219.516 134.714 219.706 134.65L220.339 134.46L220.655 136.043L219.769 136.359C218.63 136.802 217.933 136.486 217.554 135.536C217.49 135.41 217.427 135.22 217.364 134.967L216.921 132.561L216.288 132.751L215.971 131.169L216.667 130.916L216.414 129.46L218.123 128.827L218.376 130.346L219.516 129.903L219.769 131.485L218.63 131.928L219.073 134.334Z" fill="#010101"/>
<path d="M228.505 129.27C228.378 129.713 228.125 130.093 227.745 130.409C227.366 130.726 226.922 130.979 226.353 131.169L225.277 131.485L225.656 134.27L223.947 134.777L222.935 127.055L225.72 126.168C226.479 125.915 227.049 125.915 227.555 126.168C228.062 126.422 228.378 126.801 228.568 127.371C228.631 127.561 228.631 127.688 228.695 127.877C228.695 128.384 228.631 128.827 228.505 129.27ZM226.859 128.51C226.859 128.384 226.796 128.321 226.796 128.257C226.733 128.004 226.606 127.877 226.416 127.814C226.226 127.751 226.036 127.751 225.72 127.814L224.77 128.067L225.024 130.03L225.973 129.776C226.669 129.586 226.986 129.143 226.859 128.51Z" fill="#010101"/>
<path d="M231.417 132.371C230.974 132.308 230.594 132.055 230.278 131.738C229.961 131.422 229.771 131.042 229.645 130.536C229.455 129.839 229.455 129.206 229.645 128.573C229.835 127.941 230.088 127.371 230.594 126.928C231.037 126.485 231.607 126.168 232.24 125.978C232.746 125.852 233.19 125.852 233.633 125.915C234.076 126.042 234.456 126.231 234.772 126.548C235.088 126.864 235.278 127.308 235.405 127.751C235.595 128.447 235.595 129.08 235.405 129.713C235.215 130.346 234.899 130.852 234.456 131.359C234.012 131.802 233.443 132.118 232.746 132.308C232.303 132.435 231.86 132.435 231.417 132.371ZM233.316 130.219C233.506 129.966 233.633 129.713 233.633 129.396C233.696 129.08 233.696 128.763 233.569 128.447C233.506 128.067 233.316 127.877 233.063 127.687C232.81 127.561 232.557 127.497 232.303 127.561C231.987 127.624 231.797 127.814 231.607 128.067C231.417 128.32 231.354 128.573 231.291 128.89C231.227 129.206 231.291 129.523 231.354 129.839C231.417 130.219 231.607 130.409 231.86 130.599C232.05 130.726 232.303 130.789 232.62 130.726C232.936 130.599 233.19 130.472 233.316 130.219Z" fill="#010101"/>
<path d="M244.582 123.193L243.316 129.713L241.417 130.156L240.278 126.358L239.518 130.536L237.619 130.979L235.72 125.155L237.493 124.776L238.505 129.016L239.265 124.396L241.164 123.953L242.367 128.13L242.936 123.573L244.582 123.193Z" fill="#010101"/>
<path d="M245.406 124.459C245.595 123.953 245.912 123.51 246.292 123.193C246.672 122.877 247.115 122.624 247.558 122.56C247.937 122.497 248.254 122.497 248.634 122.624C248.95 122.75 249.203 122.94 249.393 123.193L249.33 120.345L251.102 120.028L251.229 128.194L249.457 128.51V127.624C249.267 127.941 249.014 128.257 248.76 128.447C248.444 128.7 248.127 128.827 247.684 128.89C247.241 128.953 246.861 128.953 246.545 128.827C246.165 128.7 245.912 128.447 245.659 128.131C245.406 127.814 245.216 127.434 245.152 126.928C245.089 126.738 245.089 126.485 245.089 126.232C245.089 125.599 245.152 125.029 245.406 124.459ZM249.393 125.092C249.33 124.776 249.14 124.459 248.95 124.333C248.697 124.143 248.444 124.079 248.127 124.206C247.748 124.269 247.494 124.459 247.241 124.776C246.988 125.092 246.861 125.472 246.861 125.978C246.861 126.105 246.861 126.232 246.925 126.358C246.988 126.738 247.115 126.991 247.368 127.118C247.621 127.308 247.874 127.371 248.191 127.308C248.57 127.244 248.824 127.054 249.077 126.738C249.33 126.421 249.457 126.042 249.457 125.535C249.393 125.282 249.393 125.156 249.393 125.092Z" fill="#010101"/>
<path d="M257.052 121.611C257.559 121.991 257.875 122.497 258.002 123.257C258.065 123.51 258.065 123.7 258.065 123.89C258.065 124.079 258.065 124.269 258.002 124.459L253.951 125.092C253.951 125.156 253.951 125.219 253.951 125.282C254.014 125.599 254.14 125.852 254.33 125.978C254.52 126.105 254.773 126.168 255.027 126.105C255.47 126.042 255.786 125.788 255.976 125.345L257.875 125.029C257.748 125.662 257.369 126.232 256.862 126.738C256.356 127.244 255.786 127.498 255.027 127.624C254.267 127.751 253.634 127.624 253.128 127.244C252.621 126.865 252.305 126.358 252.178 125.599C252.242 125.409 252.178 125.156 252.178 124.966C252.178 124.333 252.305 123.763 252.558 123.193C252.811 122.687 253.191 122.244 253.634 121.927C254.077 121.611 254.584 121.421 255.153 121.294C255.913 121.168 256.546 121.294 257.052 121.611ZM256.229 123.573C256.166 123.32 256.039 123.067 255.849 122.94C255.66 122.814 255.406 122.75 255.153 122.814C254.837 122.877 254.584 123.003 254.394 123.257C254.204 123.51 254.077 123.763 254.014 124.143L256.293 123.763C256.229 123.636 256.229 123.573 256.229 123.573Z" fill="#010101"/>
<path d="M261.736 120.661C262.053 120.408 262.433 120.282 262.812 120.218L262.749 122.244L262.243 122.307C261.8 122.37 261.42 122.497 261.23 122.75C260.977 123.003 260.85 123.383 260.85 123.89L260.787 126.738L259.015 126.991L259.205 120.788L260.977 120.535L260.914 121.674C261.103 121.231 261.42 120.915 261.736 120.661Z" fill="#010101"/>
<path d="M52.0306 245.421C39.3078 242.889 30.9525 230.546 33.4844 217.76C36.0163 205.037 48.3593 196.745 61.1454 199.214C73.8682 201.746 82.1602 214.089 79.6916 226.875C77.1597 239.661 64.7534 247.953 52.0306 245.421Z" fill="white"/>
<path d="M52.0306 245.421C39.3078 242.889 30.9525 230.546 33.4844 217.76C36.0163 205.037 48.3593 196.745 61.1454 199.214C73.8682 201.746 82.1602 214.089 79.6916 226.875C77.1597 239.661 64.7534 247.953 52.0306 245.421Z" stroke="#010101" stroke-width="1.58244" stroke-miterlimit="10"/>
<path d="M51.6517 215.798V211.557H58.6144V230.862H54.1836V215.798H51.6517Z" fill="#FEC30E"/>
</g>
<defs>
<clipPath id="clip0_118_8403">
<rect width="239.344" height="153.18" fill="white" transform="translate(23.9346 93.3441)"/>
</clipPath>
</defs>
</svg>
