<svg width="288" height="288" viewBox="0 0 288 288" fill="none" xmlns="http://www.w3.org/2000/svg">
<rect width="287.212" height="287.212" rx="28.7212" fill="white"/>
<g clip-path="url(#clip0_118_8549)">
<path d="M228.952 164.848C228.952 164.848 225.429 213.847 177.56 233.26C173.305 234.989 168.784 236.053 164.197 236.319L142.855 236.917H143.055L121.713 236.319C117.126 236.053 112.605 234.989 108.35 233.26C60.4811 213.78 56.9575 164.848 56.9575 164.848" fill="#FEC30E"/>
<path d="M229.084 164.848C227.289 185.657 217.317 206.002 201.427 219.697C191.321 227.941 179.421 234.723 166.39 236.451C158.611 236.983 150.766 237.05 142.987 237.449V236.385H143.187V237.449L127.563 237.249C122.377 237.249 116.859 237.05 111.873 235.454C83.8826 226.612 63.2725 201.148 58.0867 172.626C57.6213 170.034 57.2224 167.441 57.0229 164.848H57.2224C57.8872 169.967 59.2169 175.02 60.8126 179.94C67.1951 199.553 80.4919 216.971 98.4427 227.277C106.155 231.731 114.665 235.521 123.707 235.587L127.629 235.72L143.253 236.385V237.449H143.054V236.385C148.24 236.318 153.492 236.252 158.678 236.119C163.797 236.052 169.182 235.853 174.035 234.191C193.582 227.41 209.87 212.384 219.378 194.167C221.771 189.58 223.832 184.86 225.428 179.873C227.023 174.953 228.353 169.901 229.084 164.781V164.848Z" fill="#383636"/>
<path d="M228.952 164.25C228.952 171.762 190.524 177.879 143.121 177.879C95.7173 177.879 57.2894 171.762 57.2894 164.25C57.2894 156.737 95.7173 150.62 143.121 150.62C190.524 150.62 228.952 156.737 228.952 164.25Z" fill="#DDA727"/>
<path d="M229.085 164.25C228.553 169.502 213.993 172.028 209.538 173.159C173.105 180.206 135.608 179.674 98.7752 176.283C42.7954 171.098 42.7289 157.468 98.7087 151.751C135.541 148.493 173.105 148.493 209.538 155.407C214.192 156.471 228.486 158.931 229.085 164.25ZM228.885 164.25C227.422 156.405 194.845 153.878 187.399 153.213C157.946 151.086 128.294 151.019 98.8417 153.479C94.0548 153.812 45.1223 158.732 61.1451 167.707C66.0649 170.233 71.5166 171.43 76.9019 172.56C84.1487 173.956 91.5284 174.954 98.8417 175.552C115.197 177.946 225.494 179.275 228.885 164.25Z" fill="#DDA727"/>
<path d="M113.136 173.158C113.402 173.291 115.928 171.496 116.394 171.297C117.59 170.698 118.787 170.166 120.05 169.701C122.51 168.77 125.103 168.105 127.762 167.773C132.483 167.175 137.735 166.909 140.926 171.097C142.921 168.305 145.913 166.31 149.104 165.246C152.362 164.183 155.819 163.917 159.21 164.183C160.872 164.316 162.534 164.582 164.063 165.18C166.124 166.044 167.786 167.64 168.85 169.634C171.842 166.975 176.03 165.845 180.019 166.244C182.346 166.443 184.607 167.175 186.668 168.238C188.463 169.169 190.324 171.23 192.319 171.629C192.851 171.762 193.449 171.562 193.981 171.562C195.842 171.43 197.77 172.626 198.435 174.421C196.707 174.887 177.958 177.081 175.897 177.214C168.251 177.746 160.406 178.078 152.761 178.41C137.336 179.075 121.845 178.277 106.487 177.214C102.299 176.948 98.0439 176.549 93.8554 176.083C90.1988 175.685 87.4729 174.887 82.7525 173.889C84.88 171.496 92.2598 171.164 95.2516 170.765C101.235 169.967 107.551 170.765 113.136 173.158Z" fill="#CFB57C"/>
<path d="M113.202 173.158C114.332 172.759 115.33 171.895 116.327 171.296C119.651 169.568 123.308 168.437 127.031 167.839C130.687 167.307 134.743 166.842 138.2 168.57C139.33 169.169 140.394 170.033 141.192 171.03H140.594C145.447 164.049 155.087 162.52 162.866 164.315C165.592 165.047 167.985 166.975 169.315 169.501L168.451 169.302C170.645 167.374 173.37 166.243 176.163 165.845C179.686 165.313 183.277 166.11 186.468 167.64C188.595 168.57 190.191 170.698 192.451 171.23C193.449 171.296 194.579 170.964 195.576 171.363C197.238 171.828 198.568 173.224 199.033 174.953C196.374 175.485 193.781 175.684 191.188 176.017C174.301 178.211 157.481 178.676 140.394 178.942C130.687 178.942 120.981 178.676 111.341 178.144C101.634 177.546 91.9271 176.947 82.5528 174.355L81.9544 174.222L82.4198 173.756C85.611 171.097 89.999 171.363 93.8551 170.831C100.371 169.9 107.152 170.498 113.202 173.158ZM113.136 173.224C107.085 170.698 100.371 170.1 93.9216 171.097C90.265 171.695 85.877 171.562 82.9517 174.089L82.7522 173.49L89.866 175.019C92.2595 175.485 94.5864 175.684 97.0464 175.95C111.473 177.213 125.967 178.277 140.527 178.477C154.954 178.41 169.647 177.745 184.008 175.95C188.795 175.352 193.648 174.753 198.302 173.956L197.97 174.62C197.305 172.892 195.377 171.828 193.515 172.161C192.85 172.294 191.92 172.161 191.255 171.828C188.662 170.565 187 168.504 184.207 167.773C179.288 165.977 173.304 166.576 169.248 170.033L168.717 170.498L168.384 169.834C165.991 164.847 159.808 164.315 154.888 164.581C149.702 164.847 144.383 166.975 141.258 171.23L140.993 171.629L140.727 171.23C135.94 164.714 122.643 168.171 116.526 171.23C115.728 171.695 114.931 172.227 114.133 172.692C113.734 173.025 113.534 173.224 113.136 173.224Z" fill="#383636"/>
<mask id="mask0_118_8549" style="mask-type:luminance" maskUnits="userSpaceOnUse" x="134" y="169" width="4" height="5">
<path d="M137.07 169.568H134.278V173.358H137.07V169.568Z" fill="white"/>
</mask>
<g mask="url(#mask0_118_8549)">
<path d="M134.61 171.495C134.743 172.16 134.743 172.892 134.211 173.357C135.275 173.49 136.339 172.958 136.804 172.027C136.871 171.828 137.004 171.628 136.937 171.429C136.937 171.296 136.804 171.163 136.738 171.097C136.339 170.631 135.674 169.7 135.009 169.634C134.211 169.501 134.544 170.964 134.61 171.495Z" fill="white"/>
</g>
<mask id="mask1_118_8549" style="mask-type:luminance" maskUnits="userSpaceOnUse" x="121" y="169" width="4" height="3">
<path d="M124.039 169.701H121.845V171.696H124.039V169.701Z" fill="white"/>
</mask>
<g mask="url(#mask1_118_8549)">
<path d="M122.975 169.768C122.377 169.967 121.778 170.433 121.845 170.898C121.845 171.098 122.044 171.297 122.177 171.43C122.244 171.496 122.31 171.563 122.443 171.629C122.643 171.696 122.909 171.629 123.108 171.496C123.374 171.364 123.64 171.098 123.773 170.832C123.906 170.566 124.039 170.233 123.972 169.967C123.84 169.635 123.441 169.635 122.975 169.768Z" fill="white"/>
</g>
<mask id="mask2_118_8549" style="mask-type:luminance" maskUnits="userSpaceOnUse" x="154" y="167" width="3" height="2">
<path d="M156.085 167.241H154.755V168.172H156.085V167.241Z" fill="white"/>
</mask>
<g mask="url(#mask2_118_8549)">
<path d="M156.086 167.441C156.152 167.64 156.086 167.84 155.953 167.972C155.82 168.105 155.62 168.172 155.421 168.172C155.288 168.172 155.088 168.172 154.955 168.105C154.822 168.039 154.756 167.84 154.822 167.64C154.889 167.574 154.955 167.507 155.022 167.441C155.221 167.308 155.487 167.175 155.753 167.175C155.82 167.175 155.82 167.175 155.886 167.241C155.953 167.241 156.019 167.374 156.086 167.441Z" fill="white"/>
</g>
<mask id="mask3_118_8549" style="mask-type:luminance" maskUnits="userSpaceOnUse" x="162" y="169" width="4" height="6">
<path d="M165.527 169.568H162.335V174.421H165.527V169.568Z" fill="white"/>
</mask>
<g mask="url(#mask3_118_8549)">
<path d="M162.668 170.765C162.535 171.031 162.336 171.297 162.402 171.629C162.469 172.028 162.801 172.361 163.134 172.627C163.466 172.959 163.798 173.291 164.064 173.757C164.197 173.956 164.33 174.156 164.53 174.289C164.729 174.422 165.062 174.422 165.195 174.222C165.261 174.156 165.261 174.089 165.327 174.023C165.66 173.025 165.726 171.895 165.593 170.831C165.527 170.366 165.327 169.768 164.862 169.635C164.596 169.502 164.264 169.568 163.998 169.701C163.732 169.834 163.466 170.034 163.266 170.233L162.668 170.765Z" fill="white"/>
</g>
<mask id="mask4_118_8549" style="mask-type:luminance" maskUnits="userSpaceOnUse" x="182" y="168" width="5" height="5">
<path d="M186.403 168.77H182.414V172.095H186.403V168.77Z" fill="white"/>
</mask>
<g mask="url(#mask4_118_8549)">
<path d="M184.009 171.762C184.075 171.895 184.208 172.028 184.341 172.094C184.474 172.161 184.607 172.094 184.74 172.094C185.139 172.028 185.604 171.895 186.003 171.695C186.202 171.629 186.402 171.496 186.335 171.296C186.335 171.23 186.269 171.163 186.269 171.163C186.07 170.964 185.87 170.764 185.737 170.565C185.538 170.366 185.405 170.166 185.139 170.1C184.74 169.9 184.274 169.9 183.809 169.767C183.676 169.701 183.61 169.701 183.543 169.634C183.477 169.568 183.477 169.435 183.477 169.368C183.277 168.703 182.147 168.637 182.546 169.501C182.945 170.233 183.543 170.964 184.009 171.762Z" fill="white"/>
</g>
<mask id="mask5_118_8549" style="mask-type:luminance" maskUnits="userSpaceOnUse" x="173" y="168" width="4" height="4">
<path d="M176.696 168.305H173.173V171.297H176.696V168.305Z" fill="white"/>
</mask>
<g mask="url(#mask5_118_8549)">
<path d="M174.036 168.771C173.704 168.838 173.438 169.037 173.305 169.37C173.172 169.702 173.172 170.034 173.238 170.367C173.238 170.433 173.238 170.566 173.305 170.633C173.371 170.766 173.571 170.832 173.704 170.965C173.97 171.098 174.236 171.231 174.502 171.298C174.768 171.364 175.1 171.364 175.366 171.165C175.698 170.965 175.831 170.5 175.964 170.167C176.097 169.901 176.23 169.636 176.43 169.436C176.563 169.303 176.696 169.17 176.696 168.971C176.696 168.838 176.563 168.705 176.43 168.572C175.964 168.239 175.3 168.372 174.701 168.505L174.036 168.771Z" fill="white"/>
</g>
<mask id="mask6_118_8549" style="mask-type:luminance" maskUnits="userSpaceOnUse" x="126" y="175" width="4" height="3">
<path d="M129.957 175.153H126.035V177.745H129.957V175.153Z" fill="white"/>
</mask>
<g mask="url(#mask6_118_8549)">
<path d="M128.362 175.219C129.093 175.817 129.625 176.682 129.958 177.546C129.758 177.745 129.426 177.745 129.16 177.745C128.229 177.679 126.833 177.878 126.035 177.479C126.102 177.147 128.03 174.953 128.362 175.219Z" fill="white"/>
</g>
<mask id="mask7_118_8549" style="mask-type:luminance" maskUnits="userSpaceOnUse" x="93" y="171" width="5" height="3">
<path d="M97.645 171.895H93.9883V173.158H97.645V171.895Z" fill="white"/>
</mask>
<g mask="url(#mask7_118_8549)">
<path d="M97.5109 172.56C97.5774 172.626 97.6439 172.693 97.6439 172.826C97.6439 173.092 97.3114 173.225 97.0455 173.225C96.0482 173.291 94.918 173.025 94.0537 172.626C94.3861 171.629 96.979 171.828 97.5109 172.56Z" fill="white"/>
</g>
<mask id="mask8_118_8549" style="mask-type:luminance" maskUnits="userSpaceOnUse" x="106" y="172" width="4" height="4">
<path d="M109.347 172.959H106.421V175.486H109.347V172.959Z" fill="white"/>
</mask>
<g mask="url(#mask8_118_8549)">
<path d="M106.422 175.02C106.754 174.422 107.02 173.823 107.352 173.291C107.419 173.158 107.485 173.026 107.685 173.026C107.751 173.026 107.884 173.026 107.951 173.092C108.483 173.291 108.948 173.757 109.147 174.289C109.28 174.621 109.347 175.153 109.014 175.352C108.815 175.485 108.616 175.485 108.35 175.485C107.818 175.485 107.219 175.419 106.688 175.219L106.422 175.02Z" fill="white"/>
</g>
<mask id="mask9_118_8549" style="mask-type:luminance" maskUnits="userSpaceOnUse" x="145" y="172" width="5" height="5">
<path d="M149.304 172.227H145.98V176.416H149.304V172.227Z" fill="white"/>
</mask>
<g mask="url(#mask9_118_8549)">
<path d="M145.98 173.889C146.047 173.224 146.313 172.626 146.845 172.227C147.111 173.357 147.908 174.355 148.906 175.02C149.172 175.219 149.438 175.485 149.305 175.684C149.238 175.751 149.172 175.817 149.105 175.884C147.111 177.213 145.781 175.884 145.98 173.889Z" fill="white"/>
</g>
<mask id="mask10_118_8549" style="mask-type:luminance" maskUnits="userSpaceOnUse" x="153" y="166" width="5" height="4">
<path d="M157.681 166.51H153.093V169.17H157.681V166.51Z" fill="white"/>
</mask>
<g mask="url(#mask10_118_8549)">
<path d="M155.487 166.576C155.886 166.51 156.351 166.443 156.75 166.643C157.149 166.776 157.548 167.108 157.614 167.574C157.747 168.105 157.415 168.571 157.082 168.97C157.016 169.036 156.883 169.103 156.816 169.169C156.55 169.302 156.218 169.169 155.886 169.103C155.154 168.903 153.093 169.502 153.027 168.438C153.027 167.374 154.755 166.709 155.487 166.576Z" fill="white"/>
</g>
<g opacity="0.75">
<mask id="mask11_118_8549" style="mask-type:luminance" maskUnits="userSpaceOnUse" x="68" y="53" width="85" height="123">
<path d="M152.961 53.2869H68.9914V175.02H152.961V53.2869Z" fill="white"/>
</mask>
<g mask="url(#mask11_118_8549)">
<path d="M105.625 75.9576C106.489 77.0213 107.353 78.1516 108.284 79.2153C112.473 84.4011 116.728 89.6534 120.916 94.8391C132.418 109.067 144.119 123.826 149.172 141.378C152.297 152.282 152.629 163.584 152.962 174.953C149.238 174.753 145.249 174.421 141.726 174.155C141.593 159.994 140.928 146.099 139.598 132.07C139.465 130.674 139.332 129.212 138.601 128.015C137.737 126.552 136.208 125.688 134.745 124.89C116.595 114.917 97.2477 107.338 78.1667 99.3601C76.2386 98.5623 74.3106 97.7645 72.3825 96.9002C72.3825 96.9002 64.7368 94.9721 72.5155 73.0323C74.4435 67.3811 77.6348 55.4804 84.4827 53.4194C88.6047 52.2227 90.9982 57.8738 93.1921 60.5332C97.3142 65.719 101.503 70.8383 105.625 75.9576Z" fill="#BBE5F5"/>
</g>
</g>
<g opacity="0.5">
<mask id="mask12_118_8549" style="mask-type:luminance" maskUnits="userSpaceOnUse" x="68" y="53" width="20" height="44">
<path d="M87.9394 53.2206H68.9914V96.9008H87.9394V53.2206Z" fill="white"/>
</mask>
<g mask="url(#mask12_118_8549)">
<path d="M72.3149 96.9009C72.3149 96.9009 64.6692 94.9729 72.4479 73.033C80.2265 51.0932 84.814 53.3537 87.8058 53.2872C87.8058 53.2207 89.9997 78.4183 72.3149 96.9009Z" fill="#020302"/>
</g>
</g>
<path d="M137.935 131.805C136.207 130.741 136.406 128.946 136.207 127.55C135.874 123.096 135.941 118.641 136.14 114.187C136.539 102.086 143.054 91.7814 148.972 81.6758C151.232 77.8862 153.958 71.2377 157.149 68.113C170.978 60.0684 161.338 98.4963 158.811 103.616C155.354 113.389 149.238 122.165 142.124 129.611C140.927 130.542 139.93 132.071 137.935 131.805ZM138.201 131.074C143.254 129.212 144.251 121.699 145.913 117.045C149.636 101.621 157.216 87.061 159.011 71.3042C159.077 70.8388 158.811 70.7723 159.476 70.9718C147.575 80.2796 148.041 101.422 140.927 115.25C139.331 119.904 135.409 126.486 138.201 131.074Z" fill="#383636"/>
<path d="M159.874 69.1767C154.356 69.2432 149.17 68.1795 143.984 66.8498C144.982 67.1822 145.447 66.7833 145.314 66.9163C138.666 74.562 131.485 83.1385 130.288 93.776C128.826 103.549 126.1 113.588 125.369 123.229C125.435 124.159 125.236 123.561 124.837 123.295C124.704 123.229 124.504 123.029 124.238 122.963C123.839 122.83 124.305 123.029 124.305 123.029C129.092 125.356 133.746 127.949 138.134 131.207L137.868 131.938C133.48 131.739 129.225 131.074 125.103 130.209C123.773 129.744 121.114 129.678 120.116 128.547C114.731 121.899 118.853 111.261 120.914 104.214C125.967 91.449 132.15 82.3406 135.807 68.4454C137.801 64.8553 140.527 59.4035 146.112 60.6003C151.032 62.7278 155.752 64.9882 160.073 68.4454L159.874 69.1767Z" fill="#383636"/>
<path d="M141.991 65.5202C123.441 64.1241 97.0471 58.6059 84.2821 51.2926C70.7857 59.9355 66.3978 81.4765 70.4533 95.9036L68.5918 94.042C73.2457 95.9701 77.8331 97.9646 82.354 100.092C95.9833 106.741 109.147 113.921 121.713 122.564L121.38 123.295C101.9 117.777 83.2183 110.264 65.2675 100.956L63.7384 100.159C57.6218 81.1441 69.0571 61.1987 82.6864 48.5667L83.0189 48.3008C93.2575 49.8964 103.696 51.0266 113.535 54.2179C123.242 57.0102 132.749 60.268 142.057 64.7224L141.991 65.5202Z" fill="#383636"/>
<path d="M138.931 128.946C137.668 127.816 138.133 126.353 138.067 125.09C138.399 106.474 147.241 89.7204 155.685 73.6312C156.616 72.4345 157.214 70.4399 159.541 70.6394C161.27 71.7031 160.804 72.5674 161.07 73.2988C161.403 78.0191 160.339 82.6731 159.342 87.194C156.084 101.222 150.632 114.851 141.989 126.42C141.191 127.417 140.659 128.88 138.931 128.946ZM139.064 128.547C143.186 126.154 144.25 119.771 146.045 115.45L150.965 100.823C154.023 91.7814 157.812 81.4763 158.81 72.6339C149.036 83.1384 147.574 100.557 141.723 113.987C140.593 118.442 137.335 124.093 139.064 128.547Z" fill="#383636"/>
<path d="M71.4517 75.3593C72.5154 73.0989 72.5819 69.3093 75.0419 67.8466C77.4353 66.1845 81.0254 68.179 83.4854 68.5779C96.9152 71.6362 108.816 78.8165 121.913 82.8056C124.839 83.271 128.096 85.9968 126.9 89.587L125.769 93.5096C125.636 94.5733 124.639 96.9003 122.911 97.6981C121.381 98.7618 118.789 98.4294 117.658 97.8975C105.957 94.1079 94.1894 90.4513 83.0865 85.199L75.6402 81.7418C73.0473 81.0105 70.122 78.4841 71.4517 75.3593ZM71.7841 75.4923C70.8533 78.4176 73.2468 80.3457 76.0391 80.6781L84.0172 82.7391C95.9844 85.6644 107.42 90.2518 118.922 94.6398C120.251 95.2382 120.65 95.2382 121.581 94.9722C123.044 94.5733 123.775 91.2491 124.972 88.9222C125.371 87.9914 125.304 86.8611 124.639 85.9304C116.993 81.1435 106.755 79.6808 98.0454 76.822C91.53 74.894 85.1475 72.1681 79.0309 69.2428C74.1776 66.5834 73.0473 72.2346 71.7841 75.4923Z" fill="#383636"/>
<path d="M78.5629 60.467C80.7569 57.2757 82.4855 52.0899 87.2724 52.2894C99.3726 53.9515 110.542 58.5389 121.977 62.528C127.362 64.8549 137.402 64.1236 133.811 71.3039C132.282 73.5644 131.551 76.6227 129.091 78.4178C126.698 80.6117 122.709 79.8139 120.049 78.8831C107.218 75.6919 94.2533 71.6364 81.9536 66.5171C80.8234 65.9187 79.2278 65.8522 78.297 64.5225C77.4327 63.2593 77.7651 61.5972 78.5629 60.467ZM78.8954 60.7329C77.1003 63.7912 79.3607 65.1874 82.2861 65.4533L90.1977 66.9824C100.769 68.844 110.941 72.1017 121.113 75.3595C122.842 75.8249 125.567 77.2875 127.362 75.8249C128.892 74.9606 130.421 72.0353 132.016 70.1072C132.681 69.2429 132.881 68.1792 132.415 67.4478C119.65 61.4642 103.827 61.3313 90.6631 55.3477C88.2697 54.4169 86.2086 53.0872 83.6822 54.6164C81.6212 55.8796 80.4245 58.6054 78.8954 60.7329Z" fill="#383636"/>
<path d="M70.1208 85.4656C70.0543 88.0585 69.19 90.9174 69.9878 93.2443C70.9851 95.9702 73.445 96.2361 75.9049 97.0339C89.8667 100.691 102.233 110.53 115.929 113.921C116.793 113.655 117.258 112.658 117.325 111.594C117.325 109.068 117.923 105.81 117.325 104.214C116.859 101.954 113.801 101.422 112.139 100.691C102.166 96.768 92.1936 92.9119 82.8193 87.7261L75.772 83.9365C73.312 82.2744 70.6527 81.942 70.1208 85.4656ZM69.7219 85.3991C69.8549 84.0695 70.5862 82.5403 72.0488 82.1414C73.6445 81.676 74.9077 82.6733 76.1709 82.9392C89.0024 86.6624 101.568 91.6487 113.602 97.2998C116.194 98.2306 119.851 100.159 120.317 103.35C121.048 106.275 119.785 109.134 119.452 111.86C117.724 119.705 110.543 112.924 104.759 111.262C93.3903 107.14 81.822 103.682 71.3175 97.2998C67.4614 94.441 69.3895 89.3217 69.7219 85.3991Z" fill="#383636"/>
<path d="M104.896 38.4614C104.63 38.1954 104.564 37.863 104.63 37.4641C104.763 36.9322 105.029 36.5333 105.494 36.2009C105.96 35.935 106.492 35.802 107.024 35.935C107.489 36.0015 107.755 36.2009 108.021 36.5333C108.22 36.7993 108.287 37.1982 108.22 37.5306C108.087 38.0625 107.821 38.4614 107.356 38.7938C106.891 39.0597 106.425 39.1927 105.893 39.0597C105.428 38.9933 105.096 38.7938 104.896 38.4614Z" fill="#010101"/>
<path d="M119.983 31.6131L114.797 30.5494L113.867 32.8098C114.199 32.6104 114.598 32.4774 115.063 32.4109C115.529 32.3444 115.994 32.3444 116.459 32.4109C117.523 32.6104 118.188 33.0758 118.587 33.8071C118.986 34.5384 119.052 35.3362 118.853 36.267C118.786 36.533 118.653 36.8654 118.521 37.1978C117.989 38.5275 117.257 39.4583 116.194 40.0566C115.196 40.655 114 40.8544 112.67 40.522C111.473 40.2561 110.542 39.7907 110.011 39.0594C109.479 38.328 109.346 37.5302 109.545 36.533C109.545 36.4665 109.612 36.267 109.678 36.0011L112.47 36.5994C112.404 36.9319 112.47 37.2643 112.603 37.5302C112.803 37.8627 113.069 37.9956 113.534 38.1286C114.066 38.2616 114.531 38.1286 114.93 37.8626C115.329 37.5967 115.595 37.1978 115.861 36.5994C115.861 36.4665 115.861 36.3335 115.928 36.1341C116.127 35.3362 115.728 34.8044 114.864 34.6049C114.531 34.5384 114.133 34.5384 113.867 34.6714C113.534 34.8044 113.268 35.0038 113.069 35.3362L110.343 34.7379L113.135 27.4911L120.914 29.1532L119.983 31.6131Z" fill="#010101"/>
<path d="M127.097 40.3888C127.097 40.4552 127.031 40.5217 127.031 40.5882C126.964 40.7877 126.964 40.9871 127.097 41.0536C127.163 41.1866 127.363 41.2531 127.629 41.3195L128.626 41.5855L127.562 43.9789L126.1 43.58C124.238 43.1146 123.507 42.0509 123.906 40.4552C123.972 40.1893 124.039 39.9234 124.238 39.591L125.834 36.0008L124.704 35.7349L125.767 33.4079L126.898 33.6738L127.895 31.4799L130.754 32.2112L129.756 34.4052L131.618 34.8706L130.621 37.1975L128.759 36.7321L127.097 40.3888Z" fill="#010101"/>
<path d="M137.137 36.7989C137.735 36.6659 138.4 36.7324 138.999 36.8654C139.996 37.1313 140.661 37.7297 141.126 38.5275C141.525 39.3918 141.591 40.3226 141.259 41.5193C141.126 41.8517 140.993 42.2506 140.794 42.6495C140.328 43.5803 139.796 44.3116 139.065 44.91C138.334 45.5084 137.602 45.9073 136.805 46.1067C136.007 46.3062 135.209 46.3062 134.478 46.1067C133.813 45.9073 133.347 45.6413 132.948 45.2424C132.616 44.8435 132.35 44.3781 132.284 43.9127L131.685 45.1759L128.893 44.3781L134.677 32.4774L137.469 33.2752L135.541 37.4637C136.007 37.1313 136.539 36.8654 137.137 36.7989ZM138.201 41.3198C138.334 40.788 138.334 40.2561 138.134 39.8572C137.935 39.4583 137.536 39.1923 137.071 39.0594C136.539 38.9264 135.94 38.9929 135.342 39.2588C134.744 39.5248 134.278 40.0566 133.946 40.7215C133.879 40.9209 133.746 41.1204 133.746 41.2534C133.613 41.7852 133.613 42.2506 133.813 42.716C134.012 43.1149 134.345 43.3809 134.877 43.5138C135.408 43.7133 136.007 43.5803 136.605 43.3144C137.203 43.0484 137.669 42.5166 138.001 41.8517C138.068 41.6523 138.134 41.4528 138.201 41.3198Z" fill="#010101"/>
<path d="M141.99 48.0348C141.525 47.6359 141.192 47.1041 140.993 46.6387C140.793 46.1068 140.793 45.5749 140.993 45.043C140.993 44.9766 141.059 44.8436 141.192 44.6441L143.852 45.5749C143.719 45.9073 143.719 46.2398 143.852 46.5057C143.985 46.7716 144.251 46.9711 144.716 47.1705C145.048 47.3035 145.381 47.3035 145.647 47.237C145.913 47.1705 146.112 47.0376 146.179 46.7716C146.245 46.5722 146.179 46.3062 145.979 46.1068C145.78 45.9073 145.447 45.5749 144.982 45.176C144.45 44.7771 144.051 44.3782 143.719 44.1123C143.386 43.7798 143.187 43.3809 142.987 42.9155C142.854 42.4501 142.854 41.9183 143.054 41.3864C143.253 40.8545 143.586 40.3891 144.051 40.0567C144.517 39.7243 145.048 39.5248 145.713 39.4583C146.378 39.3919 147.043 39.5248 147.774 39.7908C148.506 40.0567 149.104 40.3891 149.569 40.8545C150.035 41.3199 150.301 41.7853 150.5 42.3172C150.633 42.8491 150.633 43.4474 150.434 43.9793L150.367 44.1123L147.841 43.248C147.974 42.9155 147.974 42.6496 147.841 42.3172C147.708 42.0512 147.442 41.8518 147.043 41.7188C146.711 41.5858 146.445 41.5858 146.179 41.6523C145.913 41.7188 145.78 41.8518 145.713 42.1177C145.647 42.3837 145.713 42.5831 145.913 42.8491C146.112 43.115 146.445 43.4474 146.977 43.7798C147.508 44.1787 147.907 44.5112 148.24 44.8436C148.572 45.176 148.772 45.5749 148.971 45.9738C149.104 46.4392 149.104 46.9046 148.905 47.4365C148.705 48.0348 148.373 48.5002 147.841 48.8326C147.375 49.1651 146.777 49.298 146.046 49.298C145.381 49.298 144.65 49.1651 143.852 48.8991C143.12 48.7662 142.522 48.4337 141.99 48.0348Z" fill="#010101"/>
<path d="M157.747 43.9123C158.345 43.8459 159.01 43.9788 159.608 44.2448C160.539 44.6437 161.204 45.242 161.536 46.1728C161.869 47.0371 161.802 48.0344 161.337 49.1646C161.204 49.497 161.005 49.8295 160.805 50.2284C160.273 51.0927 159.608 51.824 158.877 52.2894C158.079 52.7548 157.281 53.0207 156.484 53.1537C155.686 53.2866 154.888 53.2202 154.157 52.8877C153.558 52.6218 153.093 52.2894 152.761 51.8905C152.428 51.4251 152.295 50.9597 152.229 50.4943L148.971 55.6801L146.245 54.5498L154.024 42.0508L156.75 43.181L156.018 44.3777C156.55 44.1118 157.148 43.9123 157.747 43.9123ZM158.279 48.4998C158.478 47.9679 158.545 47.5025 158.345 47.0371C158.146 46.6382 157.88 46.3058 157.414 46.1063C156.883 45.9069 156.284 45.9069 155.686 46.1063C155.087 46.3723 154.556 46.7712 154.157 47.436C154.024 47.6355 153.957 47.7684 153.891 47.9679C153.691 48.4998 153.625 48.9652 153.824 49.3641C154.024 49.763 154.29 50.0954 154.755 50.2948C155.287 50.4943 155.885 50.4943 156.484 50.2948C157.082 50.0954 157.614 49.63 158.013 48.9652C158.146 48.8322 158.212 48.6327 158.279 48.4998Z" fill="#010101"/>
<path d="M177.692 126.154L172.706 137.191H169.049L168.716 129.944L165.592 137.124L161.935 137.058L161.071 125.888L164.395 125.955V133.933L167.719 126.021L171.243 126.088L171.575 134.066L174.567 126.154H177.692Z" fill="#010101"/>
<path d="M178.224 128.681C178.756 127.817 179.487 127.152 180.285 126.686C181.083 126.221 181.947 125.955 182.812 125.955C183.543 125.955 184.208 126.088 184.74 126.42C185.271 126.753 185.604 127.152 185.87 127.684L186.136 126.088H189.46L187.598 137.257H184.274L184.54 135.662C184.141 136.194 183.609 136.592 182.945 136.925C182.28 137.257 181.615 137.39 180.884 137.39C180.152 137.39 179.421 137.257 178.823 136.858C178.224 136.526 177.759 135.994 177.426 135.329C177.094 134.664 176.961 133.933 176.961 133.002C176.961 132.603 177.027 132.138 177.094 131.673C177.293 130.542 177.692 129.545 178.224 128.681ZM185.271 131.008C185.271 130.343 185.072 129.878 184.74 129.479C184.341 129.08 183.875 128.947 183.343 128.947C182.679 128.947 182.08 129.213 181.548 129.678C181.016 130.143 180.684 130.808 180.551 131.673C180.485 131.939 180.485 132.138 180.485 132.337C180.485 133.002 180.684 133.468 181.016 133.867C181.415 134.266 181.814 134.398 182.413 134.398C183.077 134.398 183.676 134.133 184.208 133.667C184.74 133.202 185.072 132.537 185.271 131.673C185.271 131.407 185.271 131.207 185.271 131.008Z" fill="#010101"/>
<path d="M194.447 133.268C194.447 133.334 194.447 133.401 194.447 133.534C194.447 133.8 194.513 133.933 194.646 134.066C194.779 134.132 194.979 134.199 195.311 134.199H196.508L196.043 137.057L194.38 137.124C192.186 137.19 191.123 136.26 191.056 134.398C191.056 134.132 191.056 133.8 191.123 133.334L191.788 128.88H190.458L190.857 126.021L192.186 125.954L192.585 123.229L195.91 123.162L195.511 125.888L197.705 125.821L197.306 128.68L195.178 128.747L194.447 133.268Z" fill="#010101"/>
<path d="M207.677 126.553C208.541 127.284 208.94 128.348 209.007 129.678C209.007 130.143 209.007 130.542 208.94 130.874C208.874 131.207 208.874 131.539 208.741 131.871L201.295 132.137C201.295 132.204 201.295 132.337 201.295 132.536C201.295 133.135 201.494 133.534 201.826 133.866C202.159 134.132 202.558 134.265 203.09 134.265C203.887 134.198 204.552 133.866 204.951 133.135L208.475 133.002C208.076 134.132 207.345 135.129 206.347 135.861C205.35 136.592 204.153 137.057 202.89 137.057C201.494 137.124 200.364 136.725 199.499 135.994C198.635 135.196 198.17 134.198 198.103 132.802C198.103 132.403 198.103 131.938 198.17 131.539C198.303 130.342 198.702 129.345 199.234 128.481C199.765 127.616 200.497 126.885 201.427 126.42C202.292 125.954 203.289 125.622 204.353 125.622C205.682 125.423 206.813 125.821 207.677 126.553ZM205.749 129.81C205.749 129.279 205.55 128.88 205.217 128.614C204.885 128.348 204.419 128.215 203.954 128.215C203.356 128.215 202.89 128.414 202.491 128.813C202.092 129.212 201.76 129.678 201.627 130.342L205.749 130.209C205.749 130.01 205.749 129.877 205.749 129.81Z" fill="#010101"/>
<path d="M216.054 125.489C216.652 125.09 217.317 124.824 218.049 124.824L217.65 128.481L216.719 128.547C215.921 128.614 215.256 128.813 214.791 129.212C214.325 129.611 214.06 130.276 213.927 131.207L213.328 136.392L210.004 136.592L211.267 125.356L214.591 125.157L214.392 127.151C214.857 126.486 215.456 125.954 216.054 125.489Z" fill="#010101"/>
<path d="M85.0799 258.458C71.7165 255.799 62.9406 242.834 65.6 229.405C68.2593 216.041 81.2238 207.332 94.6536 209.925C108.017 212.584 116.726 225.549 114.134 238.978C111.474 252.342 98.4433 261.051 85.0799 258.458Z" fill="white"/>
<path d="M85.0799 258.458C71.7165 255.799 62.9406 242.834 65.6 229.405C68.2593 216.041 81.2238 207.332 94.6536 209.925C108.017 212.584 116.726 225.549 114.134 238.978C111.474 252.342 98.4433 261.051 85.0799 258.458Z" stroke="#010101" stroke-width="1.66211" stroke-miterlimit="10"/>
<path d="M84.083 238.978C85.8116 237.515 87.1413 236.252 88.1386 235.321C89.1359 234.324 90.0002 233.327 90.665 232.263C91.3298 231.199 91.6623 230.202 91.6623 229.205C91.6623 228.473 91.4628 227.875 91.1969 227.41C90.8645 227.011 90.3326 226.745 89.6677 226.745C89.0029 226.745 88.471 227.011 88.0721 227.543C87.6732 228.075 87.4737 228.806 87.4737 229.803H83.2188C83.2188 228.208 83.5512 226.944 84.216 225.881C84.8144 224.817 85.6122 224.019 86.6095 223.554C87.6067 223.088 88.6705 222.822 89.9337 222.822C91.9947 222.822 93.5903 223.354 94.6541 224.484C95.7178 225.615 96.2497 227.077 96.2497 228.872C96.2497 230.867 95.5848 232.662 94.3216 234.391C93.0584 236.119 91.3963 237.715 89.4018 239.31H96.5156V243.166H83.2188V239.643C83.8171 239.177 84.1495 238.911 84.083 238.978Z" fill="#FEC30E"/>
<path d="M97.622 29.8666L97.6062 27L101.628 26.9778L101.7 40.0273L99.1406 40.0414L99.0845 29.8585L97.622 29.8666Z" fill="#010101"/>
</g>
<defs>
<clipPath id="clip0_118_8549">
<rect width="172" height="238" fill="white" transform="translate(56.6062 22)"/>
</clipPath>
</defs>
</svg>
