<svg width="16" height="16" viewBox="0 0 16 16" fill="none" xmlns="http://www.w3.org/2000/svg">
<g clip-path="url(#clip0_242_5456)">
<path d="M10.667 2H0.666992V10.6667H10.667V2Z" stroke="#B70908" stroke-width="1.5" stroke-linecap="round" stroke-linejoin="round"/>
<path d="M10.667 5.33331H13.3337L15.3337 7.33331V10.6666H10.667V5.33331Z" stroke="#B70908" stroke-width="1.5" stroke-linecap="round" stroke-linejoin="round"/>
<path d="M3.66667 14C4.58714 14 5.33333 13.2538 5.33333 12.3334C5.33333 11.4129 4.58714 10.6667 3.66667 10.6667C2.74619 10.6667 2 11.4129 2 12.3334C2 13.2538 2.74619 14 3.66667 14Z" stroke="#B70908" stroke-width="1.5" stroke-linecap="round" stroke-linejoin="round"/>
<path d="M12.3337 14C13.2541 14 14.0003 13.2538 14.0003 12.3334C14.0003 11.4129 13.2541 10.6667 12.3337 10.6667C11.4132 10.6667 10.667 11.4129 10.667 12.3334C10.667 13.2538 11.4132 14 12.3337 14Z" stroke="#B70908" stroke-width="1.5" stroke-linecap="round" stroke-linejoin="round"/>
</g>
<defs>
<clipPath id="clip0_242_5456">
<rect width="16" height="16" fill="white"/>
</clipPath>
</defs>
</svg>
