<svg width="40" height="40" viewBox="0 0 40 40" fill="none" xmlns="http://www.w3.org/2000/svg">
<rect width="40" height="40" rx="20" fill="#FEF4EB"/>
<path d="M30.0104 13.7945C29.258 14.1215 28.4622 14.3376 27.648 14.4361C28.507 13.9222 29.1508 13.1136 29.4598 12.1605C28.6526 12.6417 27.7689 12.9808 26.8472 13.163C26.2311 12.4939 25.4107 12.0485 24.5147 11.8967C23.6186 11.7449 22.6976 11.8952 21.896 12.3241C21.0944 12.753 20.4577 13.4362 20.0856 14.2666C19.7136 15.0969 19.6272 16.0275 19.8401 16.9123C18.2079 16.8296 16.6113 16.404 15.1541 15.6631C13.6968 14.9221 12.4115 13.8825 11.3816 12.6116C11.0204 13.2433 10.8306 13.9588 10.8311 14.6868C10.8298 15.3628 10.9955 16.0287 11.3133 16.6252C11.6312 17.2216 12.0914 17.73 12.6529 18.1053C12.0002 18.0875 11.3615 17.9121 10.791 17.594V17.6441C10.7959 18.5914 11.1274 19.5079 11.7293 20.2385C12.3312 20.9692 13.1667 21.4693 14.0944 21.6541C13.7373 21.7629 13.3665 21.8203 12.9933 21.8245C12.7349 21.8215 12.4772 21.798 12.2225 21.7544C12.4867 22.5692 12.9979 23.2813 13.685 23.7916C14.3722 24.3019 15.2011 24.5849 16.0563 24.6014C14.6121 25.7395 12.829 26.3607 10.9912 26.3658C10.6566 26.3669 10.3223 26.3468 9.99023 26.3057C11.8666 27.519 14.0531 28.163 16.2866 28.1603C17.8278 28.1763 19.3568 27.8846 20.7842 27.3022C22.2116 26.7199 23.5089 25.8584 24.6001 24.7683C25.6914 23.6782 26.5549 22.3813 27.14 20.9533C27.7252 19.5252 28.0204 17.9947 28.0084 16.4512C28.0084 16.2807 28.0084 16.1003 28.0084 15.9198C28.7938 15.3332 29.4713 14.614 30.0104 13.7945Z" fill="#58231B"/>
</svg>
