<svg width="1679" height="58" viewBox="0 0 1679 58" fill="none" xmlns="http://www.w3.org/2000/svg">
<g clip-path="url(#clip0_447_1042)">
<rect width="202" height="58" rx="29" fill="#58231B"/>
<path d="M25.32 39V22.488H30.72V28.704H35.832V22.488H41.256V39H35.832V32.496H30.72V39H25.32ZM48.2259 39.192C47.1539 39.192 46.2819 39 45.6099 38.616C44.9539 38.232 44.4739 37.712 44.1699 37.056C43.8659 36.4 43.7139 35.664 43.7139 34.848V26.976H48.7779V34.152C48.7779 34.52 48.8819 34.808 49.0899 35.016C49.3139 35.208 49.5779 35.304 49.8819 35.304C50.2019 35.304 50.5299 35.208 50.8659 35.016L51.1299 38.352C50.7779 38.624 50.3219 38.832 49.7619 38.976C49.2019 39.12 48.6899 39.192 48.2259 39.192ZM46.2579 25.656C45.5219 25.656 44.8899 25.424 44.3619 24.96C43.8339 24.48 43.5699 23.896 43.5699 23.208C43.5699 22.728 43.6979 22.312 43.9539 21.96C44.2099 21.592 44.5459 21.304 44.9619 21.096C45.3779 20.888 45.8099 20.784 46.2579 20.784C46.7539 20.784 47.2019 20.896 47.6019 21.12C48.0179 21.344 48.3459 21.64 48.5859 22.008C48.8419 22.376 48.9699 22.776 48.9699 23.208C48.9699 23.688 48.8339 24.112 48.5619 24.48C48.3059 24.848 47.9699 25.136 47.5539 25.344C47.1539 25.552 46.7219 25.656 46.2579 25.656ZM59.3989 43.68C58.7909 43.68 58.2229 43.64 57.6949 43.56C57.1669 43.48 56.7509 43.384 56.4469 43.272L56.8309 39.792C57.1189 39.856 57.4309 39.904 57.7669 39.936C58.1029 39.984 58.4309 40.008 58.7509 40.008C59.8229 40.008 60.5909 39.784 61.0549 39.336C61.5349 38.888 61.7749 38.2 61.7749 37.272V36.144C61.3269 37.024 60.7749 37.672 60.1189 38.088C59.4629 38.504 58.6389 38.712 57.6469 38.712C56.5109 38.712 55.4869 38.456 54.5749 37.944C53.6629 37.416 52.9429 36.704 52.4149 35.808C51.9029 34.896 51.6469 33.856 51.6469 32.688C51.6469 31.52 51.9029 30.496 52.4149 29.616C52.9429 28.736 53.6629 28.048 54.5749 27.552C55.4869 27.056 56.5109 26.808 57.6469 26.808C58.4469 26.808 59.2149 27.024 59.9509 27.456C60.6869 27.872 61.2469 28.552 61.6309 29.496V26.976H66.6709V36.192C66.6709 38.752 66.0389 40.64 64.7749 41.856C63.5109 43.072 61.7189 43.68 59.3989 43.68ZM59.2069 34.92C59.8949 34.92 60.4709 34.704 60.9349 34.272C61.3989 33.84 61.6309 33.32 61.6309 32.712C61.6309 32.104 61.3989 31.6 60.9349 31.2C60.4709 30.8 59.8949 30.6 59.2069 30.6C58.4709 30.6 57.8629 30.808 57.3829 31.224C56.9189 31.64 56.6869 32.152 56.6869 32.76C56.6869 33.352 56.9189 33.864 57.3829 34.296C57.8629 34.712 58.4709 34.92 59.2069 34.92ZM69.075 39V23.184L74.139 22.44V29.448C74.475 28.616 75.003 27.968 75.723 27.504C76.443 27.04 77.307 26.808 78.315 26.808C79.883 26.808 81.099 27.352 81.963 28.44C82.827 29.512 83.259 31.032 83.259 33V39H78.195V32.736C78.195 31.312 77.619 30.6 76.467 30.6C75.779 30.6 75.219 30.856 74.787 31.368C74.355 31.864 74.139 32.536 74.139 33.384V39H69.075ZM90.1247 39V22.464H95.7167C98.4367 22.464 100.485 22.912 101.861 23.808C103.253 24.688 103.949 25.992 103.949 27.72C103.949 28.92 103.645 29.944 103.037 30.792C102.445 31.624 101.605 32.264 100.517 32.712C99.4287 33.144 98.1487 33.36 96.6767 33.36H95.4287V39H90.1247ZM96.4607 30.024C97.3087 30.024 97.9647 29.848 98.4287 29.496C98.8927 29.144 99.1247 28.616 99.1247 27.912C99.1247 27.256 98.9007 26.768 98.4527 26.448C98.0047 26.112 97.3567 25.944 96.5087 25.944H95.4287V30.024H96.4607ZM105.544 39V26.976H110.536V29.976C110.856 28.888 111.352 28.088 112.024 27.576C112.712 27.064 113.528 26.808 114.472 26.808L115.072 31.056C114.688 31.008 114.312 30.984 113.944 30.984C111.72 30.984 110.608 31.896 110.608 33.72V39H105.544ZM122.239 39.192C120.879 39.192 119.679 38.928 118.639 38.4C117.599 37.872 116.783 37.144 116.191 36.216C115.615 35.272 115.327 34.192 115.327 32.976C115.327 31.728 115.623 30.648 116.215 29.736C116.823 28.808 117.647 28.088 118.687 27.576C119.727 27.064 120.919 26.808 122.263 26.808C123.639 26.808 124.847 27.072 125.887 27.6C126.927 28.112 127.735 28.832 128.311 29.76C128.887 30.672 129.175 31.744 129.175 32.976C129.175 34.208 128.879 35.296 128.287 36.24C127.711 37.168 126.903 37.896 125.863 38.424C124.823 38.936 123.615 39.192 122.239 39.192ZM122.287 35.592C122.943 35.592 123.479 35.352 123.895 34.872C124.327 34.376 124.543 33.744 124.543 32.976C124.543 32.208 124.335 31.584 123.919 31.104C123.503 30.608 122.975 30.36 122.335 30.36C121.647 30.36 121.087 30.608 120.655 31.104C120.239 31.584 120.031 32.208 120.031 32.976C120.031 33.744 120.239 34.376 120.655 34.872C121.087 35.352 121.631 35.592 122.287 35.592ZM136.016 39.192C134.88 39.192 133.952 39 133.232 38.616C132.528 38.232 132.016 37.712 131.696 37.056C131.376 36.4 131.216 35.664 131.216 34.848V29.952H129.68V26.976H131.576L133.808 23.184H136.28V26.976H139.064V29.952H136.28V34.152C136.28 34.52 136.4 34.808 136.64 35.016C136.88 35.208 137.192 35.304 137.576 35.304C137.96 35.304 138.344 35.208 138.728 35.016L139.088 38.352C138.704 38.624 138.216 38.832 137.624 38.976C137.032 39.12 136.496 39.192 136.016 39.192ZM148.047 35.832C148.511 35.832 148.999 35.784 149.511 35.688C150.039 35.592 150.575 35.416 151.119 35.16L151.695 38.256C151.103 38.56 150.455 38.792 149.751 38.952C149.063 39.112 148.271 39.192 147.375 39.192C145.759 39.192 144.399 38.928 143.295 38.4C142.207 37.872 141.383 37.144 140.823 36.216C140.263 35.288 139.983 34.216 139.983 33C139.983 31.752 140.279 30.664 140.871 29.736C141.479 28.808 142.287 28.088 143.295 27.576C144.303 27.064 145.415 26.808 146.631 26.808C148.439 26.808 149.823 27.376 150.783 28.512C151.743 29.632 152.223 31.232 152.223 33.312L145.071 34.224C145.599 35.296 146.591 35.832 148.047 35.832ZM144.687 32.016L148.455 31.224C148.391 30.712 148.215 30.336 147.927 30.096C147.639 29.84 147.279 29.712 146.847 29.712C146.207 29.712 145.695 29.936 145.311 30.384C144.943 30.816 144.735 31.36 144.687 32.016ZM158.335 39.192C157.263 39.192 156.391 39 155.719 38.616C155.063 38.232 154.583 37.712 154.279 37.056C153.975 36.4 153.823 35.664 153.823 34.848V26.976H158.887V34.152C158.887 34.52 158.991 34.808 159.199 35.016C159.423 35.208 159.687 35.304 159.991 35.304C160.311 35.304 160.639 35.208 160.975 35.016L161.239 38.352C160.887 38.624 160.431 38.832 159.871 38.976C159.311 39.12 158.799 39.192 158.335 39.192ZM156.367 25.656C155.631 25.656 154.999 25.424 154.471 24.96C153.943 24.48 153.679 23.896 153.679 23.208C153.679 22.728 153.807 22.312 154.063 21.96C154.319 21.592 154.655 21.304 155.071 21.096C155.487 20.888 155.919 20.784 156.367 20.784C156.863 20.784 157.311 20.896 157.711 21.12C158.127 21.344 158.455 21.64 158.695 22.008C158.951 22.376 159.079 22.776 159.079 23.208C159.079 23.688 158.943 24.112 158.671 24.48C158.415 24.848 158.079 25.136 157.663 25.344C157.263 25.552 156.831 25.656 156.367 25.656ZM162.473 39V26.976H167.465V29.592C167.833 28.696 168.377 28.008 169.097 27.528C169.833 27.048 170.705 26.808 171.713 26.808C173.281 26.808 174.497 27.352 175.361 28.44C176.225 29.512 176.657 31.032 176.657 33V39H171.593V32.736C171.593 31.312 171.017 30.6 169.865 30.6C169.177 30.6 168.617 30.856 168.185 31.368C167.753 31.864 167.537 32.536 167.537 33.384V39H162.473Z" fill="#FEF4EB"/>
<rect x="234" width="141" height="58" rx="29" fill="#E0181E"/>
<path d="M259.32 39V22.488H264.504V35.208H270.36L270.12 39H259.32ZM278.262 39.192C276.902 39.192 275.702 38.928 274.662 38.4C273.622 37.872 272.806 37.144 272.214 36.216C271.638 35.272 271.35 34.192 271.35 32.976C271.35 31.728 271.646 30.648 272.238 29.736C272.846 28.808 273.67 28.088 274.71 27.576C275.75 27.064 276.942 26.808 278.286 26.808C279.662 26.808 280.87 27.072 281.91 27.6C282.95 28.112 283.758 28.832 284.334 29.76C284.91 30.672 285.198 31.744 285.198 32.976C285.198 34.208 284.902 35.296 284.31 36.24C283.734 37.168 282.926 37.896 281.886 38.424C280.846 38.936 279.638 39.192 278.262 39.192ZM278.31 35.592C278.966 35.592 279.502 35.352 279.918 34.872C280.35 34.376 280.566 33.744 280.566 32.976C280.566 32.208 280.358 31.584 279.942 31.104C279.526 30.608 278.998 30.36 278.358 30.36C277.67 30.36 277.11 30.608 276.678 31.104C276.262 31.584 276.054 32.208 276.054 32.976C276.054 33.744 276.262 34.376 276.678 34.872C277.11 35.352 277.654 35.592 278.31 35.592ZM289.065 39L285.945 26.976H291.081L292.689 34.536L294.585 26.976H298.713L300.633 34.728L302.241 26.976H306.345L303.441 39H297.705L296.121 32.88L294.609 39H289.065ZM312.336 39V22.488H323.712V26.136H317.496V29.472H323.256V32.688H317.496V39H312.336ZM330.317 39.192C329.213 39.192 328.213 38.928 327.317 38.4C326.421 37.856 325.709 37.112 325.181 36.168C324.669 35.224 324.413 34.144 324.413 32.928C324.413 31.712 324.669 30.648 325.181 29.736C325.709 28.824 326.421 28.112 327.317 27.6C328.213 27.072 329.213 26.808 330.317 26.808C331.101 26.808 331.861 27.024 332.597 27.456C333.333 27.888 333.901 28.6 334.301 29.592V26.976H339.293V39H334.253V36.768C333.869 37.552 333.357 38.152 332.717 38.568C332.077 38.984 331.277 39.192 330.317 39.192ZM331.877 35.4C332.533 35.4 333.093 35.168 333.557 34.704C334.021 34.224 334.253 33.64 334.253 32.952C334.253 32.264 334.021 31.704 333.557 31.272C333.093 30.824 332.533 30.6 331.877 30.6C331.189 30.6 330.613 30.832 330.148 31.296C329.685 31.76 329.453 32.328 329.453 33C329.453 33.672 329.685 34.24 330.148 34.704C330.613 35.168 331.189 35.4 331.877 35.4ZM346.836 39.192C345.7 39.192 344.772 39 344.052 38.616C343.348 38.232 342.836 37.712 342.516 37.056C342.196 36.4 342.036 35.664 342.036 34.848V29.952H340.5V26.976H342.396L344.628 23.184H347.1V26.976H349.884V29.952H347.1V34.152C347.1 34.52 347.22 34.808 347.46 35.016C347.7 35.208 348.012 35.304 348.396 35.304C348.78 35.304 349.164 35.208 349.548 35.016L349.908 38.352C349.524 38.624 349.036 38.832 348.444 38.976C347.852 39.12 347.316 39.192 346.836 39.192Z" fill="#FEF4EB"/>
<rect x="407" width="176" height="58" rx="29" fill="#FF9800"/>
<path d="M432.32 39V22.488H437.72V28.704H442.832V22.488H448.256V39H442.832V32.496H437.72V39H432.32ZM455.226 39.192C454.154 39.192 453.282 39 452.61 38.616C451.954 38.232 451.474 37.712 451.17 37.056C450.866 36.4 450.714 35.664 450.714 34.848V26.976H455.778V34.152C455.778 34.52 455.882 34.808 456.09 35.016C456.314 35.208 456.578 35.304 456.882 35.304C457.202 35.304 457.53 35.208 457.866 35.016L458.13 38.352C457.778 38.624 457.322 38.832 456.762 38.976C456.202 39.12 455.69 39.192 455.226 39.192ZM453.258 25.656C452.522 25.656 451.89 25.424 451.362 24.96C450.834 24.48 450.57 23.896 450.57 23.208C450.57 22.728 450.698 22.312 450.954 21.96C451.21 21.592 451.546 21.304 451.962 21.096C452.378 20.888 452.81 20.784 453.258 20.784C453.754 20.784 454.202 20.896 454.602 21.12C455.018 21.344 455.346 21.64 455.586 22.008C455.842 22.376 455.97 22.776 455.97 23.208C455.97 23.688 455.834 24.112 455.562 24.48C455.306 24.848 454.97 25.136 454.554 25.344C454.154 25.552 453.722 25.656 453.258 25.656ZM466.399 43.68C465.791 43.68 465.223 43.64 464.695 43.56C464.167 43.48 463.751 43.384 463.447 43.272L463.831 39.792C464.119 39.856 464.431 39.904 464.767 39.936C465.103 39.984 465.431 40.008 465.751 40.008C466.823 40.008 467.591 39.784 468.055 39.336C468.535 38.888 468.775 38.2 468.775 37.272V36.144C468.327 37.024 467.775 37.672 467.119 38.088C466.463 38.504 465.639 38.712 464.647 38.712C463.511 38.712 462.487 38.456 461.575 37.944C460.663 37.416 459.943 36.704 459.415 35.808C458.903 34.896 458.647 33.856 458.647 32.688C458.647 31.52 458.903 30.496 459.415 29.616C459.943 28.736 460.663 28.048 461.575 27.552C462.487 27.056 463.511 26.808 464.647 26.808C465.447 26.808 466.215 27.024 466.951 27.456C467.687 27.872 468.247 28.552 468.631 29.496V26.976H473.671V36.192C473.671 38.752 473.039 40.64 471.775 41.856C470.511 43.072 468.719 43.68 466.399 43.68ZM466.207 34.92C466.895 34.92 467.471 34.704 467.935 34.272C468.399 33.84 468.631 33.32 468.631 32.712C468.631 32.104 468.399 31.6 467.935 31.2C467.471 30.8 466.895 30.6 466.207 30.6C465.471 30.6 464.863 30.808 464.383 31.224C463.919 31.64 463.687 32.152 463.687 32.76C463.687 33.352 463.919 33.864 464.383 34.296C464.863 34.712 465.471 34.92 466.207 34.92ZM476.075 39V23.184L481.139 22.44V29.448C481.475 28.616 482.003 27.968 482.723 27.504C483.443 27.04 484.307 26.808 485.315 26.808C486.883 26.808 488.099 27.352 488.963 28.44C489.827 29.512 490.259 31.032 490.259 33V39H485.195V32.736C485.195 31.312 484.619 30.6 483.467 30.6C482.779 30.6 482.219 30.856 481.787 31.368C481.355 31.864 481.139 32.536 481.139 33.384V39H476.075ZM497.125 39V22.488H508.501V26.136H502.285V29.472H508.045V32.688H502.285V39H497.125ZM514.781 39.192C513.709 39.192 512.837 39 512.165 38.616C511.509 38.232 511.029 37.712 510.725 37.056C510.421 36.4 510.269 35.664 510.269 34.848V26.976H515.333V34.152C515.333 34.52 515.437 34.808 515.645 35.016C515.869 35.208 516.133 35.304 516.437 35.304C516.757 35.304 517.085 35.208 517.421 35.016L517.685 38.352C517.333 38.624 516.877 38.832 516.317 38.976C515.757 39.12 515.245 39.192 514.781 39.192ZM512.813 25.656C512.077 25.656 511.445 25.424 510.917 24.96C510.389 24.48 510.125 23.896 510.125 23.208C510.125 22.728 510.253 22.312 510.509 21.96C510.765 21.592 511.101 21.304 511.517 21.096C511.933 20.888 512.365 20.784 512.813 20.784C513.309 20.784 513.757 20.896 514.157 21.12C514.573 21.344 514.901 21.64 515.141 22.008C515.397 22.376 515.525 22.776 515.525 23.208C515.525 23.688 515.389 24.112 515.117 24.48C514.861 24.848 514.525 25.136 514.109 25.344C513.709 25.552 513.277 25.656 512.813 25.656ZM527.895 39.192C526.935 39.192 526.135 38.984 525.495 38.568C524.855 38.152 524.343 37.552 523.959 36.768V39H518.919V23.184L524.007 22.44V29.448C524.391 28.536 524.935 27.872 525.639 27.456C526.359 27.024 527.111 26.808 527.895 26.808C529.015 26.808 530.015 27.072 530.895 27.6C531.791 28.112 532.495 28.824 533.007 29.736C533.535 30.648 533.799 31.712 533.799 32.928C533.799 34.144 533.535 35.224 533.007 36.168C532.495 37.112 531.791 37.856 530.895 38.4C530.015 38.928 529.015 39.192 527.895 39.192ZM526.335 35.4C527.023 35.4 527.599 35.168 528.063 34.704C528.527 34.24 528.759 33.672 528.759 33C528.759 32.328 528.527 31.76 528.063 31.296C527.599 30.832 527.023 30.6 526.335 30.6C525.679 30.6 525.119 30.824 524.655 31.272C524.191 31.704 523.959 32.264 523.959 32.952C523.959 33.64 524.191 34.224 524.655 34.704C525.119 35.168 525.679 35.4 526.335 35.4ZM543.07 35.832C543.534 35.832 544.022 35.784 544.534 35.688C545.062 35.592 545.598 35.416 546.142 35.16L546.718 38.256C546.126 38.56 545.478 38.792 544.774 38.952C544.086 39.112 543.294 39.192 542.398 39.192C540.782 39.192 539.422 38.928 538.318 38.4C537.23 37.872 536.406 37.144 535.846 36.216C535.286 35.288 535.006 34.216 535.006 33C535.006 31.752 535.302 30.664 535.894 29.736C536.502 28.808 537.31 28.088 538.318 27.576C539.326 27.064 540.438 26.808 541.654 26.808C543.462 26.808 544.846 27.376 545.806 28.512C546.766 29.632 547.246 31.232 547.246 33.312L540.094 34.224C540.622 35.296 541.614 35.832 543.07 35.832ZM539.71 32.016L543.478 31.224C543.414 30.712 543.238 30.336 542.95 30.096C542.662 29.84 542.302 29.712 541.87 29.712C541.23 29.712 540.718 29.936 540.334 30.384C539.966 30.816 539.758 31.36 539.71 32.016ZM548.919 39V26.976H553.911V29.976C554.231 28.888 554.727 28.088 555.399 27.576C556.087 27.064 556.903 26.808 557.847 26.808L558.447 31.056C558.063 31.008 557.687 30.984 557.319 30.984C555.095 30.984 553.983 31.896 553.983 33.72V39H548.919Z" fill="#FEF4EB"/>
<rect x="615" width="162" height="58" rx="29" fill="#E0181E"/>
<path d="M640.32 39V22.488H645.12L651.6 31.248V22.488H656.016V39H651.216L644.736 30.6V39H640.32ZM664.723 39.192C663.363 39.192 662.163 38.928 661.123 38.4C660.083 37.872 659.267 37.144 658.675 36.216C658.099 35.272 657.811 34.192 657.811 32.976C657.811 31.728 658.107 30.648 658.699 29.736C659.307 28.808 660.131 28.088 661.171 27.576C662.211 27.064 663.403 26.808 664.747 26.808C666.123 26.808 667.331 27.072 668.371 27.6C669.411 28.112 670.219 28.832 670.795 29.76C671.371 30.672 671.659 31.744 671.659 32.976C671.659 34.208 671.363 35.296 670.771 36.24C670.195 37.168 669.387 37.896 668.347 38.424C667.307 38.936 666.099 39.192 664.723 39.192ZM664.771 35.592C665.427 35.592 665.963 35.352 666.379 34.872C666.811 34.376 667.027 33.744 667.027 32.976C667.027 32.208 666.819 31.584 666.403 31.104C665.987 30.608 665.459 30.36 664.819 30.36C664.131 30.36 663.571 30.608 663.139 31.104C662.723 31.584 662.515 32.208 662.515 32.976C662.515 33.744 662.723 34.376 663.139 34.872C663.571 35.352 664.115 35.592 664.771 35.592ZM673.458 39V26.976H678.45V29.592C678.818 28.696 679.362 28.008 680.082 27.528C680.818 27.048 681.69 26.808 682.698 26.808C684.266 26.808 685.482 27.352 686.346 28.44C687.21 29.512 687.642 31.032 687.642 33V39H682.578V32.736C682.578 31.312 682.002 30.6 680.85 30.6C680.162 30.6 679.602 30.856 679.17 31.368C678.738 31.864 678.522 32.536 678.522 33.384V39H673.458ZM689.815 34.848V31.104H696.271V34.848H689.815ZM706.527 39.384C704.799 39.384 703.295 39.032 702.015 38.328C700.751 37.624 699.767 36.648 699.063 35.4C698.359 34.152 698.007 32.712 698.007 31.08C698.007 29.336 698.375 27.792 699.111 26.448C699.847 25.104 700.879 24.048 702.207 23.28C703.535 22.512 705.079 22.128 706.839 22.128C708.759 22.128 710.287 22.512 711.423 23.28L710.703 27.048C709.695 26.616 708.647 26.4 707.559 26.4C706.247 26.4 705.215 26.792 704.463 27.576C703.711 28.36 703.335 29.448 703.335 30.84C703.335 32.248 703.671 33.344 704.343 34.128C705.031 34.912 705.903 35.304 706.959 35.304C707.343 35.304 707.663 35.272 707.919 35.208V31.104L712.071 30.624V38.136C711.159 38.552 710.231 38.864 709.287 39.072C708.343 39.28 707.423 39.384 706.527 39.384ZM714.453 39V22.488H719.445L723.573 30.504L727.605 22.488H732.597V39H727.605V30.36L724.557 36.12H722.517L719.445 30.36V39H714.453ZM743.378 39.384C741.634 39.384 740.098 39.016 738.77 38.28C737.442 37.544 736.402 36.528 735.65 35.232C734.914 33.936 734.546 32.448 734.546 30.768C734.546 29.072 734.914 27.576 735.65 26.28C736.402 24.984 737.442 23.968 738.77 23.232C740.098 22.496 741.634 22.128 743.378 22.128C745.122 22.128 746.658 22.496 747.986 23.232C749.314 23.952 750.346 24.96 751.082 26.256C751.834 27.552 752.21 29.056 752.21 30.768C752.21 32.448 751.834 33.936 751.082 35.232C750.346 36.528 749.314 37.544 747.986 38.28C746.658 39.016 745.122 39.384 743.378 39.384ZM743.378 35.016C744.386 35.016 745.21 34.624 745.85 33.84C746.506 33.056 746.834 32.024 746.834 30.744C746.834 29.88 746.682 29.12 746.378 28.464C746.09 27.808 745.682 27.296 745.154 26.928C744.642 26.544 744.042 26.352 743.354 26.352C742.346 26.352 741.522 26.76 740.882 27.576C740.242 28.376 739.922 29.432 739.922 30.744C739.922 32.024 740.242 33.056 740.882 33.84C741.522 34.624 742.354 35.016 743.378 35.016Z" fill="#FEF4EB"/>
<rect x="809" width="182" height="58" rx="29" fill="#B70908"/>
<path d="M842.3 39.384C840.572 39.384 839.068 39.032 837.788 38.328C836.524 37.624 835.54 36.648 834.836 35.4C834.132 34.152 833.78 32.712 833.78 31.08C833.78 29.336 834.148 27.792 834.884 26.448C835.62 25.104 836.652 24.048 837.98 23.28C839.308 22.512 840.852 22.128 842.612 22.128C844.532 22.128 846.06 22.512 847.196 23.28L846.476 27.048C845.468 26.616 844.42 26.4 843.332 26.4C842.02 26.4 840.988 26.792 840.236 27.576C839.484 28.36 839.108 29.448 839.108 30.84C839.108 32.248 839.444 33.344 840.116 34.128C840.804 34.912 841.676 35.304 842.732 35.304C843.116 35.304 843.436 35.272 843.692 35.208V31.104L847.844 30.624V38.136C846.932 38.552 846.004 38.864 845.06 39.072C844.116 39.28 843.196 39.384 842.3 39.384ZM854.834 39.192C853.698 39.192 852.77 39 852.05 38.616C851.346 38.232 850.834 37.712 850.514 37.056C850.194 36.4 850.034 35.664 850.034 34.848V22.704L855.098 21.96V34.152C855.098 34.52 855.218 34.808 855.458 35.016C855.698 35.208 856.01 35.304 856.394 35.304C856.778 35.304 857.162 35.208 857.546 35.016L857.906 38.352C857.522 38.624 857.034 38.832 856.442 38.976C855.85 39.12 855.314 39.192 854.834 39.192ZM865.349 39.192C863.317 39.192 861.725 38.68 860.573 37.656C859.437 36.616 858.869 35.184 858.869 33.36V26.976H863.813V33.576C863.813 34.216 863.949 34.688 864.221 34.992C864.509 35.296 864.893 35.448 865.373 35.448C865.837 35.448 866.197 35.296 866.453 34.992C866.725 34.688 866.861 34.216 866.861 33.576V26.976H871.709V33.36C871.709 35.2 871.149 36.632 870.029 37.656C868.925 38.68 867.365 39.192 865.349 39.192ZM879.125 39.192C877.989 39.192 877.061 39 876.341 38.616C875.637 38.232 875.125 37.712 874.805 37.056C874.485 36.4 874.325 35.664 874.325 34.848V29.952H872.789V26.976H874.685L876.917 23.184H879.389V26.976H882.173V29.952H879.389V34.152C879.389 34.52 879.509 34.808 879.749 35.016C879.989 35.208 880.301 35.304 880.685 35.304C881.069 35.304 881.453 35.208 881.837 35.016L882.197 38.352C881.813 38.624 881.325 38.832 880.733 38.976C880.141 39.12 879.605 39.192 879.125 39.192ZM891.156 35.832C891.62 35.832 892.108 35.784 892.62 35.688C893.148 35.592 893.684 35.416 894.228 35.16L894.804 38.256C894.212 38.56 893.564 38.792 892.86 38.952C892.172 39.112 891.38 39.192 890.484 39.192C888.868 39.192 887.508 38.928 886.404 38.4C885.316 37.872 884.492 37.144 883.932 36.216C883.372 35.288 883.092 34.216 883.092 33C883.092 31.752 883.388 30.664 883.98 29.736C884.588 28.808 885.396 28.088 886.404 27.576C887.412 27.064 888.524 26.808 889.74 26.808C891.548 26.808 892.932 27.376 893.892 28.512C894.852 29.632 895.332 31.232 895.332 33.312L888.18 34.224C888.708 35.296 889.7 35.832 891.156 35.832ZM887.796 32.016L891.564 31.224C891.5 30.712 891.324 30.336 891.036 30.096C890.748 29.84 890.388 29.712 889.956 29.712C889.316 29.712 888.804 29.936 888.42 30.384C888.052 30.816 887.844 31.36 887.796 32.016ZM897.005 39V26.976H901.997V29.592C902.365 28.696 902.909 28.008 903.629 27.528C904.365 27.048 905.237 26.808 906.245 26.808C907.813 26.808 909.029 27.352 909.893 28.44C910.757 29.512 911.189 31.032 911.189 33V39H906.125V32.736C906.125 31.312 905.549 30.6 904.397 30.6C903.709 30.6 903.149 30.856 902.717 31.368C902.285 31.864 902.069 32.536 902.069 33.384V39H897.005ZM918.054 39V22.488H929.43V26.136H923.214V29.472H928.974V32.688H923.214V39H918.054ZM931.036 39V26.976H936.028V29.976C936.348 28.888 936.844 28.088 937.516 27.576C938.204 27.064 939.02 26.808 939.964 26.808L940.564 31.056C940.18 31.008 939.804 30.984 939.436 30.984C937.212 30.984 936.1 31.896 936.1 33.72V39H931.036ZM948.883 35.832C949.347 35.832 949.835 35.784 950.347 35.688C950.875 35.592 951.411 35.416 951.955 35.16L952.531 38.256C951.939 38.56 951.291 38.792 950.587 38.952C949.899 39.112 949.107 39.192 948.211 39.192C946.595 39.192 945.235 38.928 944.131 38.4C943.043 37.872 942.219 37.144 941.659 36.216C941.099 35.288 940.819 34.216 940.819 33C940.819 31.752 941.115 30.664 941.707 29.736C942.315 28.808 943.123 28.088 944.131 27.576C945.139 27.064 946.251 26.808 947.467 26.808C949.275 26.808 950.659 27.376 951.619 28.512C952.579 29.632 953.059 31.232 953.059 33.312L945.907 34.224C946.435 35.296 947.427 35.832 948.883 35.832ZM945.523 32.016L949.291 31.224C949.227 30.712 949.051 30.336 948.763 30.096C948.475 29.84 948.115 29.712 947.683 29.712C947.043 29.712 946.531 29.936 946.147 30.384C945.779 30.816 945.571 31.36 945.523 32.016ZM962.195 35.832C962.659 35.832 963.147 35.784 963.659 35.688C964.187 35.592 964.723 35.416 965.267 35.16L965.843 38.256C965.251 38.56 964.603 38.792 963.899 38.952C963.211 39.112 962.419 39.192 961.523 39.192C959.907 39.192 958.547 38.928 957.443 38.4C956.355 37.872 955.531 37.144 954.971 36.216C954.411 35.288 954.131 34.216 954.131 33C954.131 31.752 954.427 30.664 955.019 29.736C955.627 28.808 956.435 28.088 957.443 27.576C958.451 27.064 959.563 26.808 960.779 26.808C962.587 26.808 963.971 27.376 964.931 28.512C965.891 29.632 966.371 31.232 966.371 33.312L959.219 34.224C959.747 35.296 960.739 35.832 962.195 35.832ZM958.835 32.016L962.603 31.224C962.539 30.712 962.363 30.336 962.075 30.096C961.787 29.84 961.427 29.712 960.995 29.712C960.355 29.712 959.843 29.936 959.459 30.384C959.091 30.816 958.883 31.36 958.835 32.016Z" fill="#FEF4EB"/>
<rect x="1023" width="247" height="58" rx="29" fill="#FF9800"/>
<path d="M1048.32 39V22.488H1053.12L1059.6 31.248V22.488H1064.02V39H1059.22L1052.74 30.6V39H1048.32ZM1072.72 39.192C1071.36 39.192 1070.16 38.928 1069.12 38.4C1068.08 37.872 1067.27 37.144 1066.67 36.216C1066.1 35.272 1065.81 34.192 1065.81 32.976C1065.81 31.728 1066.11 30.648 1066.7 29.736C1067.31 28.808 1068.13 28.088 1069.17 27.576C1070.21 27.064 1071.4 26.808 1072.75 26.808C1074.12 26.808 1075.33 27.072 1076.37 27.6C1077.41 28.112 1078.22 28.832 1078.79 29.76C1079.37 30.672 1079.66 31.744 1079.66 32.976C1079.66 34.208 1079.36 35.296 1078.77 36.24C1078.19 37.168 1077.39 37.896 1076.35 38.424C1075.31 38.936 1074.1 39.192 1072.72 39.192ZM1072.77 35.592C1073.43 35.592 1073.96 35.352 1074.38 34.872C1074.81 34.376 1075.03 33.744 1075.03 32.976C1075.03 32.208 1074.82 31.584 1074.4 31.104C1073.99 30.608 1073.46 30.36 1072.82 30.36C1072.13 30.36 1071.57 30.608 1071.14 31.104C1070.72 31.584 1070.51 32.208 1070.51 32.976C1070.51 33.744 1070.72 34.376 1071.14 34.872C1071.57 35.352 1072.11 35.592 1072.77 35.592ZM1086.05 39V22.464H1091.65C1094.37 22.464 1096.41 22.912 1097.79 23.808C1099.18 24.688 1099.88 25.992 1099.88 27.72C1099.88 28.92 1099.57 29.944 1098.97 30.792C1098.37 31.624 1097.53 32.264 1096.45 32.712C1095.36 33.144 1094.08 33.36 1092.61 33.36H1091.36V39H1086.05ZM1092.39 30.024C1093.24 30.024 1093.89 29.848 1094.36 29.496C1094.82 29.144 1095.05 28.616 1095.05 27.912C1095.05 27.256 1094.83 26.768 1094.38 26.448C1093.93 26.112 1093.29 25.944 1092.44 25.944H1091.36V30.024H1092.39ZM1101.47 39V26.976H1106.47V29.976C1106.79 28.888 1107.28 28.088 1107.95 27.576C1108.64 27.064 1109.46 26.808 1110.4 26.808L1111 31.056C1110.62 31.008 1110.24 30.984 1109.87 30.984C1107.65 30.984 1106.54 31.896 1106.54 33.72V39H1101.47ZM1119.32 35.832C1119.78 35.832 1120.27 35.784 1120.78 35.688C1121.31 35.592 1121.85 35.416 1122.39 35.16L1122.97 38.256C1122.38 38.56 1121.73 38.792 1121.02 38.952C1120.34 39.112 1119.54 39.192 1118.65 39.192C1117.03 39.192 1115.67 38.928 1114.57 38.4C1113.48 37.872 1112.66 37.144 1112.1 36.216C1111.54 35.288 1111.26 34.216 1111.26 33C1111.26 31.752 1111.55 30.664 1112.14 29.736C1112.75 28.808 1113.56 28.088 1114.57 27.576C1115.58 27.064 1116.69 26.808 1117.9 26.808C1119.71 26.808 1121.1 27.376 1122.06 28.512C1123.02 29.632 1123.5 31.232 1123.5 33.312L1116.34 34.224C1116.87 35.296 1117.86 35.832 1119.32 35.832ZM1115.96 32.016L1119.73 31.224C1119.66 30.712 1119.49 30.336 1119.2 30.096C1118.91 29.84 1118.55 29.712 1118.12 29.712C1117.48 29.712 1116.97 29.936 1116.58 30.384C1116.22 30.816 1116.01 31.36 1115.96 32.016ZM1129.03 39.192C1128.31 39.192 1127.58 39.12 1126.85 38.976C1126.11 38.832 1125.45 38.632 1124.86 38.376L1125.55 35.352C1125.92 35.544 1126.42 35.712 1127.06 35.856C1127.7 35.984 1128.27 36.048 1128.77 36.048C1129.57 36.048 1129.97 35.832 1129.97 35.4C1129.97 35.192 1129.84 35.04 1129.58 34.944C1129.34 34.848 1129.02 34.768 1128.62 34.704C1128.24 34.624 1127.82 34.528 1127.38 34.416C1126.93 34.288 1126.5 34.104 1126.1 33.864C1125.72 33.608 1125.4 33.248 1125.14 32.784C1124.9 32.32 1124.78 31.712 1124.78 30.96C1124.78 29.696 1125.28 28.688 1126.27 27.936C1127.28 27.184 1128.66 26.808 1130.4 26.808C1131.07 26.808 1131.7 26.856 1132.27 26.952C1132.86 27.048 1133.42 27.248 1133.95 27.552L1133.45 30.48C1132.6 30.128 1131.71 29.952 1130.78 29.952C1130.19 29.952 1129.76 30 1129.49 30.096C1129.23 30.192 1129.1 30.352 1129.1 30.576C1129.1 30.752 1129.23 30.888 1129.49 30.984C1129.74 31.08 1130.07 31.176 1130.47 31.272C1130.89 31.352 1131.32 31.472 1131.77 31.632C1132.22 31.776 1132.64 31.984 1133.04 32.256C1133.46 32.528 1133.79 32.896 1134.05 33.36C1134.3 33.808 1134.43 34.392 1134.43 35.112C1134.43 36.392 1133.96 37.392 1133.02 38.112C1132.07 38.832 1130.74 39.192 1129.03 39.192ZM1143.58 35.832C1144.04 35.832 1144.53 35.784 1145.04 35.688C1145.57 35.592 1146.11 35.416 1146.65 35.16L1147.23 38.256C1146.63 38.56 1145.99 38.792 1145.28 38.952C1144.59 39.112 1143.8 39.192 1142.91 39.192C1141.29 39.192 1139.93 38.928 1138.83 38.4C1137.74 37.872 1136.91 37.144 1136.35 36.216C1135.79 35.288 1135.51 34.216 1135.51 33C1135.51 31.752 1135.81 30.664 1136.4 29.736C1137.01 28.808 1137.82 28.088 1138.83 27.576C1139.83 27.064 1140.95 26.808 1142.16 26.808C1143.97 26.808 1145.35 27.376 1146.31 28.512C1147.27 29.632 1147.75 31.232 1147.75 33.312L1140.6 34.224C1141.13 35.296 1142.12 35.832 1143.58 35.832ZM1140.22 32.016L1143.99 31.224C1143.92 30.712 1143.75 30.336 1143.46 30.096C1143.17 29.84 1142.81 29.712 1142.38 29.712C1141.74 29.712 1141.23 29.936 1140.84 30.384C1140.47 30.816 1140.27 31.36 1140.22 32.016ZM1149.43 39V26.976H1154.42V29.976C1154.74 28.888 1155.23 28.088 1155.91 27.576C1156.59 27.064 1157.41 26.808 1158.35 26.808L1158.95 31.056C1158.57 31.008 1158.19 30.984 1157.83 30.984C1155.6 30.984 1154.49 31.896 1154.49 33.72V39H1149.43ZM1163.41 39L1159.21 26.976H1164.78L1166.87 34.176L1168.91 26.976H1173.3L1169.25 39H1163.41ZM1179.53 39.192C1178.42 39.192 1177.42 38.928 1176.53 38.4C1175.63 37.856 1174.92 37.112 1174.39 36.168C1173.88 35.224 1173.62 34.144 1173.62 32.928C1173.62 31.712 1173.88 30.648 1174.39 29.736C1174.92 28.824 1175.63 28.112 1176.53 27.6C1177.42 27.072 1178.42 26.808 1179.53 26.808C1180.31 26.808 1181.07 27.024 1181.81 27.456C1182.54 27.888 1183.11 28.6 1183.51 29.592V26.976H1188.5V39H1183.46V36.768C1183.08 37.552 1182.57 38.152 1181.93 38.568C1181.29 38.984 1180.49 39.192 1179.53 39.192ZM1181.09 35.4C1181.74 35.4 1182.3 35.168 1182.77 34.704C1183.23 34.224 1183.46 33.64 1183.46 32.952C1183.46 32.264 1183.23 31.704 1182.77 31.272C1182.3 30.824 1181.74 30.6 1181.09 30.6C1180.4 30.6 1179.82 30.832 1179.36 31.296C1178.9 31.76 1178.66 32.328 1178.66 33C1178.66 33.672 1178.9 34.24 1179.36 34.704C1179.82 35.168 1180.4 35.4 1181.09 35.4ZM1196.05 39.192C1194.91 39.192 1193.98 39 1193.26 38.616C1192.56 38.232 1192.05 37.712 1191.73 37.056C1191.41 36.4 1191.25 35.664 1191.25 34.848V29.952H1189.71V26.976H1191.61L1193.84 23.184H1196.31V26.976H1199.09V29.952H1196.31V34.152C1196.31 34.52 1196.43 34.808 1196.67 35.016C1196.91 35.208 1197.22 35.304 1197.61 35.304C1197.99 35.304 1198.37 35.208 1198.76 35.016L1199.12 38.352C1198.73 38.624 1198.25 38.832 1197.65 38.976C1197.06 39.12 1196.53 39.192 1196.05 39.192ZM1205.29 39.192C1204.22 39.192 1203.34 39 1202.67 38.616C1202.02 38.232 1201.54 37.712 1201.23 37.056C1200.93 36.4 1200.78 35.664 1200.78 34.848V26.976H1205.84V34.152C1205.84 34.52 1205.94 34.808 1206.15 35.016C1206.38 35.208 1206.64 35.304 1206.94 35.304C1207.26 35.304 1207.59 35.208 1207.93 35.016L1208.19 38.352C1207.84 38.624 1207.38 38.832 1206.82 38.976C1206.26 39.12 1205.75 39.192 1205.29 39.192ZM1203.32 25.656C1202.58 25.656 1201.95 25.424 1201.42 24.96C1200.9 24.48 1200.63 23.896 1200.63 23.208C1200.63 22.728 1200.76 22.312 1201.02 21.96C1201.27 21.592 1201.61 21.304 1202.02 21.096C1202.44 20.888 1202.87 20.784 1203.32 20.784C1203.82 20.784 1204.26 20.896 1204.66 21.12C1205.08 21.344 1205.41 21.64 1205.65 22.008C1205.9 22.376 1206.03 22.776 1206.03 23.208C1206.03 23.688 1205.9 24.112 1205.62 24.48C1205.37 24.848 1205.03 25.136 1204.62 25.344C1204.22 25.552 1203.78 25.656 1203.32 25.656ZM1211.74 39L1207.54 26.976H1213.11L1215.2 34.176L1217.24 26.976H1221.63L1217.57 39H1211.74ZM1230.02 35.832C1230.48 35.832 1230.97 35.784 1231.48 35.688C1232.01 35.592 1232.54 35.416 1233.09 35.16L1233.66 38.256C1233.07 38.56 1232.42 38.792 1231.72 38.952C1231.03 39.112 1230.24 39.192 1229.34 39.192C1227.73 39.192 1226.37 38.928 1225.26 38.4C1224.18 37.872 1223.35 37.144 1222.79 36.216C1222.23 35.288 1221.95 34.216 1221.95 33C1221.95 31.752 1222.25 30.664 1222.84 29.736C1223.45 28.808 1224.26 28.088 1225.26 27.576C1226.27 27.064 1227.38 26.808 1228.6 26.808C1230.41 26.808 1231.79 27.376 1232.75 28.512C1233.71 29.632 1234.19 31.232 1234.19 33.312L1227.04 34.224C1227.57 35.296 1228.56 35.832 1230.02 35.832ZM1226.66 32.016L1230.42 31.224C1230.36 30.712 1230.18 30.336 1229.9 30.096C1229.61 29.84 1229.25 29.712 1228.82 29.712C1228.18 29.712 1227.66 29.936 1227.28 30.384C1226.91 30.816 1226.7 31.36 1226.66 32.016ZM1239.73 39.192C1239.01 39.192 1238.28 39.12 1237.54 38.976C1236.81 38.832 1236.14 38.632 1235.55 38.376L1236.25 35.352C1236.62 35.544 1237.12 35.712 1237.76 35.856C1238.4 35.984 1238.97 36.048 1239.46 36.048C1240.26 36.048 1240.66 35.832 1240.66 35.4C1240.66 35.192 1240.54 35.04 1240.28 34.944C1240.04 34.848 1239.72 34.768 1239.32 34.704C1238.94 34.624 1238.52 34.528 1238.07 34.416C1237.62 34.288 1237.2 34.104 1236.8 33.864C1236.42 33.608 1236.1 33.248 1235.84 32.784C1235.6 32.32 1235.48 31.712 1235.48 30.96C1235.48 29.696 1235.98 28.688 1236.97 27.936C1237.98 27.184 1239.35 26.808 1241.1 26.808C1241.77 26.808 1242.39 26.856 1242.97 26.952C1243.56 27.048 1244.12 27.248 1244.65 27.552L1244.14 30.48C1243.3 30.128 1242.41 29.952 1241.48 29.952C1240.89 29.952 1240.46 30 1240.18 30.096C1239.93 30.192 1239.8 30.352 1239.8 30.576C1239.8 30.752 1239.93 30.888 1240.18 30.984C1240.44 31.08 1240.77 31.176 1241.17 31.272C1241.58 31.352 1242.02 31.472 1242.46 31.632C1242.91 31.776 1243.34 31.984 1243.74 32.256C1244.15 32.528 1244.49 32.896 1244.74 33.36C1245 33.808 1245.13 34.392 1245.13 35.112C1245.13 36.392 1244.66 37.392 1243.71 38.112C1242.77 38.832 1241.44 39.192 1239.73 39.192Z" fill="#FEF4EB"/>
<rect x="1302" width="184" height="58" rx="29" fill="#E0181E"/>
<path d="M1327.32 39V22.488H1332.31L1336.44 30.504L1340.47 22.488H1345.46V39H1340.47V30.36L1337.42 36.12H1335.38L1332.31 30.36V39H1327.32ZM1354.21 39.192C1352.18 39.192 1350.58 38.68 1349.43 37.656C1348.3 36.616 1347.73 35.184 1347.73 33.36V26.976H1352.67V33.576C1352.67 34.216 1352.81 34.688 1353.08 34.992C1353.37 35.296 1353.75 35.448 1354.23 35.448C1354.7 35.448 1355.06 35.296 1355.31 34.992C1355.58 34.688 1355.72 34.216 1355.72 33.576V26.976H1360.57V33.36C1360.57 35.2 1360.01 36.632 1358.89 37.656C1357.78 38.68 1356.22 39.192 1354.21 39.192ZM1366.71 39.192C1365.99 39.192 1365.26 39.12 1364.53 38.976C1363.79 38.832 1363.13 38.632 1362.54 38.376L1363.23 35.352C1363.6 35.544 1364.1 35.712 1364.74 35.856C1365.38 35.984 1365.95 36.048 1366.45 36.048C1367.25 36.048 1367.65 35.832 1367.65 35.4C1367.65 35.192 1367.52 35.04 1367.26 34.944C1367.02 34.848 1366.7 34.768 1366.3 34.704C1365.92 34.624 1365.5 34.528 1365.06 34.416C1364.61 34.288 1364.18 34.104 1363.78 33.864C1363.4 33.608 1363.08 33.248 1362.82 32.784C1362.58 32.32 1362.46 31.712 1362.46 30.96C1362.46 29.696 1362.96 28.688 1363.95 27.936C1364.96 27.184 1366.34 26.808 1368.08 26.808C1368.75 26.808 1369.38 26.856 1369.95 26.952C1370.54 27.048 1371.1 27.248 1371.63 27.552L1371.13 30.48C1370.28 30.128 1369.39 29.952 1368.46 29.952C1367.87 29.952 1367.44 30 1367.17 30.096C1366.91 30.192 1366.78 30.352 1366.78 30.576C1366.78 30.752 1366.91 30.888 1367.17 30.984C1367.42 31.08 1367.75 31.176 1368.15 31.272C1368.57 31.352 1369 31.472 1369.45 31.632C1369.9 31.776 1370.32 31.984 1370.72 32.256C1371.14 32.528 1371.47 32.896 1371.73 33.36C1371.98 33.808 1372.11 34.392 1372.11 35.112C1372.11 36.392 1371.64 37.392 1370.7 38.112C1369.75 38.832 1368.42 39.192 1366.71 39.192ZM1379.72 39.192C1378.38 39.192 1377.22 38.928 1376.24 38.4C1375.27 37.872 1374.51 37.152 1373.99 36.24C1373.46 35.312 1373.19 34.248 1373.19 33.048C1373.19 31.864 1373.47 30.8 1374.01 29.856C1374.55 28.912 1375.31 28.168 1376.29 27.624C1377.28 27.08 1378.43 26.808 1379.72 26.808C1381.27 26.808 1382.5 27.128 1383.39 27.768L1382.87 31.032C1382.47 30.856 1382.09 30.736 1381.74 30.672C1381.39 30.592 1381.05 30.552 1380.73 30.552C1379.95 30.552 1379.32 30.776 1378.86 31.224C1378.41 31.656 1378.19 32.248 1378.19 33C1378.19 33.736 1378.41 34.336 1378.86 34.8C1379.31 35.248 1379.9 35.472 1380.63 35.472C1381.27 35.472 1382.03 35.336 1382.89 35.064L1383.35 38.424C1382.82 38.68 1382.27 38.872 1381.69 39C1381.13 39.128 1380.47 39.192 1379.72 39.192ZM1389.91 39.192C1388.78 39.192 1387.85 39 1387.13 38.616C1386.42 38.232 1385.91 37.712 1385.59 37.056C1385.27 36.4 1385.11 35.664 1385.11 34.848V22.704L1390.18 21.96V34.152C1390.18 34.52 1390.3 34.808 1390.54 35.016C1390.78 35.208 1391.09 35.304 1391.47 35.304C1391.86 35.304 1392.24 35.208 1392.62 35.016L1392.98 38.352C1392.6 38.624 1392.11 38.832 1391.52 38.976C1390.93 39.12 1390.39 39.192 1389.91 39.192ZM1401.53 35.832C1402 35.832 1402.48 35.784 1403 35.688C1403.52 35.592 1404.06 35.416 1404.6 35.16L1405.18 38.256C1404.59 38.56 1403.94 38.792 1403.24 38.952C1402.55 39.112 1401.76 39.192 1400.86 39.192C1399.24 39.192 1397.88 38.928 1396.78 38.4C1395.69 37.872 1394.87 37.144 1394.31 36.216C1393.75 35.288 1393.47 34.216 1393.47 33C1393.47 31.752 1393.76 30.664 1394.36 29.736C1394.96 28.808 1395.77 28.088 1396.78 27.576C1397.79 27.064 1398.9 26.808 1400.12 26.808C1401.92 26.808 1403.31 27.376 1404.27 28.512C1405.23 29.632 1405.71 31.232 1405.71 33.312L1398.56 34.224C1399.08 35.296 1400.08 35.832 1401.53 35.832ZM1398.17 32.016L1401.94 31.224C1401.88 30.712 1401.7 30.336 1401.41 30.096C1401.12 29.84 1400.76 29.712 1400.33 29.712C1399.69 29.712 1399.18 29.936 1398.8 30.384C1398.43 30.816 1398.22 31.36 1398.17 32.016ZM1411.98 39V22.488H1423.35V26.136H1417.14V29.472H1422.9V32.688H1417.14V39H1411.98ZM1431.41 39.192C1429.38 39.192 1427.79 38.68 1426.64 37.656C1425.5 36.616 1424.93 35.184 1424.93 33.36V26.976H1429.88V33.576C1429.88 34.216 1430.01 34.688 1430.28 34.992C1430.57 35.296 1430.96 35.448 1431.44 35.448C1431.9 35.448 1432.26 35.296 1432.52 34.992C1432.79 34.688 1432.92 34.216 1432.92 33.576V26.976H1437.77V33.36C1437.77 35.2 1437.21 36.632 1436.09 37.656C1434.99 38.68 1433.43 39.192 1431.41 39.192ZM1447.52 35.832C1447.98 35.832 1448.47 35.784 1448.98 35.688C1449.51 35.592 1450.04 35.416 1450.59 35.16L1451.16 38.256C1450.57 38.56 1449.92 38.792 1449.22 38.952C1448.53 39.112 1447.74 39.192 1446.84 39.192C1445.23 39.192 1443.87 38.928 1442.76 38.4C1441.68 37.872 1440.85 37.144 1440.29 36.216C1439.73 35.288 1439.45 34.216 1439.45 33C1439.45 31.752 1439.75 30.664 1440.34 29.736C1440.95 28.808 1441.76 28.088 1442.76 27.576C1443.77 27.064 1444.88 26.808 1446.1 26.808C1447.91 26.808 1449.29 27.376 1450.25 28.512C1451.21 29.632 1451.69 31.232 1451.69 33.312L1444.54 34.224C1445.07 35.296 1446.06 35.832 1447.52 35.832ZM1444.16 32.016L1447.92 31.224C1447.86 30.712 1447.68 30.336 1447.4 30.096C1447.11 29.84 1446.75 29.712 1446.32 29.712C1445.68 29.712 1445.16 29.936 1444.78 30.384C1444.41 30.816 1444.2 31.36 1444.16 32.016ZM1458.09 39.192C1456.96 39.192 1456.03 39 1455.31 38.616C1454.6 38.232 1454.09 37.712 1453.77 37.056C1453.45 36.4 1453.29 35.664 1453.29 34.848V22.704L1458.36 21.96V34.152C1458.36 34.52 1458.48 34.808 1458.72 35.016C1458.96 35.208 1459.27 35.304 1459.65 35.304C1460.04 35.304 1460.42 35.208 1460.8 35.016L1461.16 38.352C1460.78 38.624 1460.29 38.832 1459.7 38.976C1459.11 39.12 1458.57 39.192 1458.09 39.192Z" fill="#FEF4EB"/>
<rect x="1518" width="161" height="58" rx="29" fill="#E0181E"/>
<path d="M1547.79 39V22.488H1559.38V26.136H1553.62V29.064H1558.88V32.088H1553.62V35.232H1559.38V39H1547.79ZM1566.59 39.192C1565.49 39.192 1564.49 38.928 1563.59 38.4C1562.69 37.856 1561.98 37.112 1561.45 36.168C1560.94 35.224 1560.69 34.144 1560.69 32.928C1560.69 31.712 1560.94 30.648 1561.45 29.736C1561.98 28.824 1562.69 28.112 1563.59 27.6C1564.49 27.072 1565.49 26.808 1566.59 26.808C1567.37 26.808 1568.13 27.024 1568.87 27.456C1569.61 27.888 1570.17 28.6 1570.57 29.592V26.976H1575.57V39H1570.53V36.768C1570.14 37.552 1569.63 38.152 1568.99 38.568C1568.35 38.984 1567.55 39.192 1566.59 39.192ZM1568.15 35.4C1568.81 35.4 1569.37 35.168 1569.83 34.704C1570.29 34.224 1570.53 33.64 1570.53 32.952C1570.53 32.264 1570.29 31.704 1569.83 31.272C1569.37 30.824 1568.81 30.6 1568.15 30.6C1567.46 30.6 1566.89 30.832 1566.42 31.296C1565.96 31.76 1565.73 32.328 1565.73 33C1565.73 33.672 1565.96 34.24 1566.42 34.704C1566.89 35.168 1567.46 35.4 1568.15 35.4ZM1581.84 39.192C1581.12 39.192 1580.39 39.12 1579.65 38.976C1578.92 38.832 1578.25 38.632 1577.66 38.376L1578.36 35.352C1578.73 35.544 1579.23 35.712 1579.87 35.856C1580.51 35.984 1581.08 36.048 1581.57 36.048C1582.37 36.048 1582.77 35.832 1582.77 35.4C1582.77 35.192 1582.65 35.04 1582.39 34.944C1582.15 34.848 1581.83 34.768 1581.43 34.704C1581.05 34.624 1580.63 34.528 1580.18 34.416C1579.73 34.288 1579.31 34.104 1578.91 33.864C1578.53 33.608 1578.21 33.248 1577.95 32.784C1577.71 32.32 1577.59 31.712 1577.59 30.96C1577.59 29.696 1578.09 28.688 1579.08 27.936C1580.09 27.184 1581.46 26.808 1583.21 26.808C1583.88 26.808 1584.5 26.856 1585.08 26.952C1585.67 27.048 1586.23 27.248 1586.76 27.552L1586.25 30.48C1585.41 30.128 1584.52 29.952 1583.59 29.952C1583 29.952 1582.57 30 1582.29 30.096C1582.04 30.192 1581.91 30.352 1581.91 30.576C1581.91 30.752 1582.04 30.888 1582.29 30.984C1582.55 31.08 1582.88 31.176 1583.28 31.272C1583.69 31.352 1584.13 31.472 1584.57 31.632C1585.02 31.776 1585.45 31.984 1585.85 32.256C1586.26 32.528 1586.6 32.896 1586.85 33.36C1587.11 33.808 1587.24 34.392 1587.24 35.112C1587.24 36.392 1586.77 37.392 1585.82 38.112C1584.88 38.832 1583.55 39.192 1581.84 39.192ZM1595.23 43.68C1594.62 43.68 1594.05 43.64 1593.53 43.56C1593 43.48 1592.58 43.384 1592.28 43.272L1592.66 39.792C1592.95 39.856 1593.26 39.904 1593.6 39.936C1593.93 39.984 1594.26 40.008 1594.58 40.008C1595.65 40.008 1596.42 39.784 1596.89 39.336C1597.37 38.888 1597.61 38.2 1597.61 37.272V35.904C1597.22 36.88 1596.68 37.592 1595.97 38.04C1595.27 38.472 1594.44 38.688 1593.48 38.688C1591.99 38.688 1590.84 38.152 1590.02 37.08C1589.21 35.992 1588.8 34.464 1588.8 32.496V26.976H1593.86V32.76C1593.86 34.184 1594.37 34.896 1595.37 34.896C1596 34.896 1596.49 34.64 1596.86 34.128C1597.25 33.616 1597.44 32.944 1597.44 32.112V26.976H1602.5V36.192C1602.5 38.752 1601.87 40.64 1600.61 41.856C1599.34 43.072 1597.55 43.68 1595.23 43.68ZM1609.5 39V22.488H1614.49L1618.62 30.504L1622.65 22.488H1627.64V39H1622.65V30.36L1619.6 36.12H1617.56L1614.49 30.36V39H1609.5ZM1634.61 39.192C1633.54 39.192 1632.66 39 1631.99 38.616C1631.34 38.232 1630.86 37.712 1630.55 37.056C1630.25 36.4 1630.1 35.664 1630.1 34.848V26.976H1635.16V34.152C1635.16 34.52 1635.26 34.808 1635.47 35.016C1635.7 35.208 1635.96 35.304 1636.26 35.304C1636.58 35.304 1636.91 35.208 1637.25 35.016L1637.51 38.352C1637.16 38.624 1636.7 38.832 1636.14 38.976C1635.58 39.12 1635.07 39.192 1634.61 39.192ZM1632.64 25.656C1631.9 25.656 1631.27 25.424 1630.74 24.96C1630.22 24.48 1629.95 23.896 1629.95 23.208C1629.95 22.728 1630.08 22.312 1630.34 21.96C1630.59 21.592 1630.93 21.304 1631.34 21.096C1631.76 20.888 1632.19 20.784 1632.64 20.784C1633.14 20.784 1633.58 20.896 1633.98 21.12C1634.4 21.344 1634.73 21.64 1634.97 22.008C1635.22 22.376 1635.35 22.776 1635.35 23.208C1635.35 23.688 1635.22 24.112 1634.94 24.48C1634.69 24.848 1634.35 25.136 1633.94 25.344C1633.54 25.552 1633.1 25.656 1632.64 25.656ZM1637.38 39L1641.03 32.76L1637.62 26.976H1642.69L1644.03 29.808L1645.42 26.976H1650.34L1646.98 32.76L1650.58 39H1645.66L1644.03 35.928L1642.45 39H1637.38Z" fill="#FEF4EB"/>
</g>
<defs>
<clipPath id="clip0_447_1042">
<rect width="1679" height="58" fill="white"/>
</clipPath>
</defs>
</svg>
