<svg width="22" height="38" viewBox="0 0 22 38" fill="none" xmlns="http://www.w3.org/2000/svg">
<path d="M21.9977 26.5373C21.9973 23.9904 21.9891 21.4435 21.9999 18.8967C22.0087 16.8005 21.5886 14.7677 21.1439 12.7354C20.5462 10.0038 19.9568 7.27041 19.3759 4.53518C19.2496 3.93969 19.3344 3.32792 19.3237 2.72373C19.3139 2.16913 19.3293 1.61406 19.3174 1.05954C19.307 0.572536 19.1489 0.410043 18.6678 0.355743C18.4926 0.335972 18.316 0.323835 18.1398 0.318241C16.9926 0.281799 15.845 0.290656 14.6972 0.251998C12.6678 0.183646 10.6362 0.181973 8.60574 0.140084C6.7397 0.101586 4.87407 0.0434654 3.00811 0.00117968C2.36691 -0.0133498 2.26298 0.0991499 2.26126 0.742081C2.26019 1.14554 2.24025 1.55026 2.26455 1.95226C2.38003 3.86326 1.91362 5.7071 1.61936 7.56924C1.14961 10.5419 0.640135 13.5083 0.170858 16.4811C0.0484943 17.3167 -0.00806046 18.1607 0.00171471 19.0052C0.00429535 24.3132 0.00476265 29.6213 0.0031147 34.9294C0.00314713 35.5928 0.0612564 35.6736 0.683718 35.8771C2.20536 36.3745 3.72705 36.8717 5.24879 37.3688C5.37084 37.4009 5.49833 37.4066 5.62276 37.3855C7.629 37.1891 9.63527 36.9928 11.6415 36.7968C14.0866 36.5554 16.5314 36.3124 18.9762 36.0679C19.7786 35.9882 20.5817 35.9159 21.3835 35.8309C21.8948 35.7768 21.9973 35.6541 21.9975 35.1235C21.9988 32.2614 21.9989 29.3994 21.9977 26.5373ZM21.0427 26.4855C21.0427 29.1576 21.0437 31.8297 21.0456 34.5018C21.0461 34.7688 21.0319 34.9318 20.6773 34.962C18.5063 35.1469 16.3379 35.3625 14.1688 35.569C11.5484 35.8185 8.92794 36.0682 6.30755 36.318C5.79487 36.3665 5.79392 36.3596 5.79385 35.8249C5.79311 30.3925 5.79287 24.9601 5.79311 19.5277C5.79976 18.9732 5.75699 18.4191 5.66531 17.8721C4.89269 13.5726 4.11438 9.27413 3.33039 4.97667C3.20398 4.27995 3.16563 4.31995 3.81335 4.39905C3.87574 4.40667 3.93927 4.40566 4.00231 4.40711C6.22068 4.45824 8.43906 4.50916 10.6574 4.55989C13.1028 4.61471 15.5481 4.67217 17.9937 4.71526C18.3001 4.72065 18.4306 4.81179 18.4968 5.12529C19.0535 7.76181 19.6167 10.3971 20.2041 13.0269C20.6855 15.1824 21.0752 17.3431 21.0489 19.566C21.0215 21.8722 21.0428 24.179 21.0427 26.4855ZM2.63207 6.74889C2.67499 6.92583 2.70291 7.02071 2.72075 7.11744C3.22109 9.82934 3.72559 12.5405 4.21774 15.2539C4.47374 16.6653 4.8274 18.0679 4.83128 19.5109C4.8459 24.957 4.83522 30.4031 4.84458 35.8493C4.84521 36.2178 4.7217 36.2332 4.42205 36.1332C3.39365 35.7898 2.36372 35.4488 1.32317 35.1452C0.965258 35.0408 0.85911 34.8783 0.860117 34.5135C0.872395 30.076 0.883512 25.6383 0.861437 21.2008C0.8507 19.0428 0.921597 16.9016 1.3142 14.768C1.79916 12.1325 2.18794 9.47922 2.63207 6.74889ZM16.8952 3.78801C16.5454 3.77051 16.0422 3.73415 15.5385 3.722C12.9671 3.66001 10.3955 3.60914 7.82415 3.54446C6.36239 3.50769 4.90125 3.44561 3.43946 3.41017C3.15873 3.40336 3.0631 3.30746 3.07134 3.03099C3.08711 2.50208 3.09409 1.97151 3.06922 1.44329C3.05327 1.10436 3.17511 1.00713 3.50395 1.01971C4.93984 1.07464 6.37616 1.11803 7.81291 1.14989C10.8384 1.21534 13.8641 1.26895 16.8897 1.33077C17.2676 1.33849 17.6448 1.37159 18.0227 1.38303C18.2219 1.38906 18.3269 1.46418 18.3255 1.67576C18.3216 2.28073 18.3202 2.88579 18.3264 3.49073C18.3288 3.72726 18.2092 3.79514 17.9957 3.78998C17.6805 3.78237 17.3651 3.78801 16.8952 3.78801Z" fill="#B70908"/>
<path d="M8.30723 22.6336C8.3054 23.7324 8.62982 24.807 9.23943 25.7215C9.84904 26.6359 10.7164 27.3491 11.7318 27.7708C12.7472 28.1925 13.865 28.3037 14.9437 28.0903C16.0224 27.8769 17.0134 27.3486 17.7915 26.5722C18.5696 25.7958 19.0996 24.8062 19.3146 23.7286C19.5296 22.651 19.4199 21.534 18.9992 20.5188C18.5786 19.5035 17.8661 18.6358 16.9518 18.0254C16.0375 17.415 14.9625 17.0894 13.8629 17.0897C13.1328 17.0859 12.4093 17.2265 11.734 17.5037C11.0587 17.7808 10.445 18.1889 9.92844 18.7044C9.41187 19.2199 9.00263 19.8325 8.72437 20.5069C8.4461 21.1813 8.30433 21.9042 8.30723 22.6336ZM9.27246 22.5944C9.26842 20.0611 11.3369 17.9721 13.848 17.9733C15.0664 17.9852 16.2319 18.4729 17.095 19.3323C17.9581 20.1918 18.4505 21.3546 18.4667 22.572C18.4786 25.0399 16.3649 27.1554 13.8821 27.1605C13.2787 27.1654 12.6804 27.0509 12.1216 26.8236C11.5627 26.5964 11.0544 26.2609 10.6259 25.8364C10.1974 25.412 9.85723 24.907 9.62494 24.3506C9.39264 23.7941 9.27285 23.1973 9.27246 22.5944Z" fill="#B70908"/>
</svg>
