<svg width="16" height="16" viewBox="0 0 16 16" fill="none" xmlns="http://www.w3.org/2000/svg">
<g clip-path="url(#clip0_242_4665)">
<path d="M13.6689 2.32513C12.1648 0.826621 10.1648 0.000914274 8.03393 0C3.64297 0 0.069614 3.5565 0.0678561 7.92794C0.0673444 9.32529 0.434067 10.6893 1.13111 11.8917L0.000976562 16L4.22388 14.8976C5.38738 15.5293 6.69739 15.8622 8.03051 15.8627H8.03389H8.03393C12.4242 15.8627 15.9981 12.3056 15.9999 7.93437C16.0007 5.81576 15.1728 3.82374 13.6689 2.32513ZM8.03393 14.5237H8.03135C6.84307 14.523 5.67781 14.2054 4.66142 13.605L4.41954 13.4622L1.91358 14.1163L2.58263 11.6847L2.42504 11.4354C1.76221 10.3861 1.41229 9.17355 1.41279 7.92845C1.41425 4.29505 4.38429 1.33911 8.03644 1.33911C9.805 1.33984 11.4672 2.02617 12.7174 3.27169C13.9675 4.51719 14.6554 6.17292 14.6549 7.93381C14.6533 11.5673 11.6832 14.5237 8.03393 14.5237Z" fill="#E0E0E0"/>
<path d="M0.366211 15.5441L1.44472 11.6235C0.779347 10.476 0.429443 9.17423 0.429863 7.84098C0.431608 3.6693 3.84177 0.27536 8.03179 0.27536C10.0654 0.276274 11.9741 1.06422 13.4091 2.49432C14.8445 3.9244 15.6345 5.82529 15.6337 7.84689C15.632 12.0187 12.2216 15.4129 8.03209 15.4129C8.0323 15.4129 8.03179 15.4129 8.03209 15.4129H8.0287C6.75649 15.4125 5.50641 15.0945 4.39614 14.4921L0.366211 15.5441Z" fill="url(#paint0_linear_242_4665)"/>
<path fill-rule="evenodd" clip-rule="evenodd" d="M6.06543 4.56215C5.91805 4.23592 5.76288 4.22939 5.62267 4.22369C5.50798 4.21879 5.37669 4.21909 5.24561 4.21909C5.11442 4.21909 4.90124 4.26817 4.72096 4.46419C4.54058 4.66021 4.03223 5.13408 4.03223 6.09784C4.03223 7.06171 4.73736 7.99303 4.83565 8.12384C4.93404 8.25445 6.19682 10.2954 8.19672 11.0806C9.8588 11.7332 10.197 11.6034 10.5578 11.5707C10.9186 11.5381 11.7219 11.097 11.8859 10.6395C12.0498 10.1822 12.0498 9.79014 12.0007 9.70819C11.9515 9.62656 11.8203 9.57758 11.6235 9.47962C11.4267 9.38167 10.4594 8.90769 10.279 8.84239C10.0986 8.77708 9.96745 8.74443 9.83626 8.94056C9.70507 9.13647 9.32821 9.57758 9.21342 9.70819C9.09863 9.8391 8.98384 9.85543 8.78706 9.75747C8.59028 9.65921 7.95658 9.45257 7.20482 8.78523C6.61991 8.26606 6.225 7.62484 6.11021 7.42873C5.99543 7.23281 6.09791 7.12669 6.19661 7.02903C6.28496 6.94127 6.3934 6.80036 6.49179 6.68597C6.58997 6.57158 6.62276 6.48995 6.68836 6.35934C6.75395 6.22852 6.72116 6.11414 6.67196 6.01619C6.62276 5.91823 6.24038 4.94949 6.06543 4.56215Z" fill="white"/>
<path d="M13.6038 2.29994C12.1169 0.818634 10.1399 0.0024227 8.03353 0.00149536C3.69296 0.00149536 0.160624 3.51717 0.158879 7.83843C0.158367 9.21975 0.520878 10.5681 1.20992 11.7567L0.0927734 15.8178L4.26721 14.728C5.41736 15.3525 6.71232 15.6816 8.03014 15.6821H8.03349H8.03353C12.3734 15.6821 15.9062 12.1658 15.9081 7.84475C15.9088 5.7505 15.0904 3.78135 13.6038 2.29994ZM8.03353 14.3585H8.03097C6.85633 14.3578 5.70443 14.0439 4.69972 13.4503L4.4606 13.3092L1.98341 13.9558L2.64478 11.5521L2.489 11.3056C1.83378 10.2684 1.48788 9.06975 1.48839 7.83895C1.48982 4.24727 4.42576 1.32526 8.036 1.32526C9.78428 1.32598 11.4274 2.00443 12.6632 3.23565C13.899 4.46686 14.579 6.10357 14.5785 7.84427C14.5769 11.436 11.6409 14.3585 8.03353 14.3585Z" fill="white"/>
</g>
<defs>
<linearGradient id="paint0_linear_242_4665" x1="7.99996" y1="15.5441" x2="7.99996" y2="0.275386" gradientUnits="userSpaceOnUse">
<stop stop-color="#20B038"/>
<stop offset="1" stop-color="#60D66A"/>
</linearGradient>
<clipPath id="clip0_242_4665">
<rect width="16" height="16" fill="white"/>
</clipPath>
</defs>
</svg>
