<?xml version="1.0" encoding="utf-8"?>
<!-- Generator: Adobe Illustrator 26.0.1, SVG Export Plug-In . SVG Version: 6.00 Build 0)  -->
<svg version="1.1" id="Layer_1" xmlns="http://www.w3.org/2000/svg" xmlns:xlink="http://www.w3.org/1999/xlink" x="0px" y="0px"
	 viewBox="0 0 440 295" style="enable-background:new 0 0 440 295;" xml:space="preserve">
<style type="text/css">
	.st0{fill-rule:evenodd;clip-rule:evenodd;fill:#FEF4EB;}
	.st1{fill-rule:evenodd;clip-rule:evenodd;fill:#B28A74;}
	.st2{fill-rule:evenodd;clip-rule:evenodd;fill:#FED263;}
	.st3{fill-rule:evenodd;clip-rule:evenodd;fill:#D66658;}
</style>
<rect x="1.2" y="-2" class="st0" width="437.6" height="299"/>
<path class="st1" d="M218,62.7c10.6,4.7,18.3-16.1,29.9-17.3c10.8-1.1,19.9,8.1,30.4,11c16.4,4.6,36.5,0.3,49.5,11.5
	c11.6,10,24.2,31.6,14.3,43.4c-16.8,19.9-66.9,0.7-72.9,26.2c-6.3,26.9,71.4,44,51.9,63.6c-20.6,20.6-49-35.2-78-37.4
	c-11-0.8-0.8,31-11.8,30.6c-12.7-0.5-8.7-36.2-20.7-31.8c-25.1,9.2-28.4,68.5-53.4,59c-23.2-8.8,19.5-45.7,23.6-70.3
	c1-5.9-4.1-12.5-9.5-14.9c-27.2-11.7-63.7-4.2-84.3-25.5C75.7,99,87,70,102.3,65c25.1-8.2,55.5,30.7,77.2,15.4
	c18.4-13-24.3-57.9-3.8-67.3C195.6,4,198.1,53.7,218,62.7z"/>
<image style="overflow:visible;" width="532" height="853" xlink:href="71E83CE1.png"  transform="matrix(0.2764 0 0 0.2764 217.4819 66.0892)">
</image>
<image style="overflow:visible;" width="499" height="969" xlink:href="71E83CE3.png"  transform="matrix(0.282 0 0 0.282 82.3395 70.9045)">
</image>
</svg>
