<svg width="57" height="54" viewBox="0 0 57 54" fill="none" xmlns="http://www.w3.org/2000/svg">
<path d="M0.368103 35.902V19.578H4.28655L8.74657 30.6693H8.03821L12.4982 19.578H16.4167V35.902H12.3527V27.08H13.3534L9.60172 35.902H7.12122L3.36956 27.08H4.43272V35.902H0.368727H0.368103Z" fill="#B70908"/>
<path d="M22.4402 35.902V28.0526L23.3153 30.7386L16.6041 19.578H21.7731L25.1706 25.6446H24.316L27.7341 19.578H32.757L26.0457 30.7386L26.9421 28.0526V35.902H22.4402Z" fill="#B70908"/>
<path d="M43.4271 23.95V27.5455C42.908 27.563 42.3927 27.588 41.9242 27.5855C39.2826 27.5736 36.6272 27.6467 33.9949 27.5043C33.8331 27.4549 33.825 26.9589 33.8006 26.7947L33.8131 1.71609L33.8887 1.27259C33.9124 1.23761 34.0767 1.20638 34.1367 1.19888C34.9037 1.10393 36.6865 1.12767 37.4836 1.18888C37.616 1.19888 37.7503 1.19888 37.8633 1.27634L38.0432 23.9231C38.1263 24.0006 39.1582 24.0087 39.3694 24.0118C40.5187 24.0299 41.991 23.94 43.4271 23.95Z" fill="#040404"/>
<path d="M50.5245 30.5775C50.5245 30.6605 50.5233 30.7443 50.5214 30.8273V30.5775H50.5245Z" fill="#040404"/>
<path d="M12.092 9.32242C11.9284 9.09005 11.0882 8.19118 11.0782 8.05563C11.0614 7.83575 11.5836 7.4316 11.7385 7.23046C15.1341 2.82603 7.97182 -2.12996 2.59481 0.965819C-0.119309 2.52808 0.0862018 4.40578 0.0699608 6.72637C0.0524705 9.30743 0.0887007 11.9054 0 14.4858L0.0668378 17.8289H7.26784C9.81267 17.8289 12.6805 15.5608 12.9347 13.6631C13.1327 12.1858 13.0184 10.6367 12.0914 9.32242H12.092ZM3.51867 4.7381C3.51867 4.13531 4.2745 3.23081 4.97786 2.95097C7.414 1.984 10.1075 3.98352 8.78824 5.82999C7.94371 7.01121 6.5626 6.72387 5.14589 6.80632C4.57308 6.83943 4.07711 7.01621 3.51867 7.06118V4.73872V4.7381ZM8.79074 14.304C7.58016 15.5621 5.3539 15.1842 3.58051 15.2042C3.51492 15.1685 3.45183 14.1597 3.44871 13.9786C3.43497 13.174 3.40123 12.1102 3.51929 11.3226C3.81288 9.36677 6.53449 8.62718 8.40283 9.89023C9.61153 10.7079 9.70523 13.3539 8.79074 14.304Z" fill="#040404"/>
<path d="M13.8517 46.4312C13.7186 44.9108 12.4212 43.5065 10.3105 42.7207C10.2599 42.5783 10.7178 42.2966 10.834 42.1567C12.1832 40.5394 10.7091 38.3244 8.14237 37.5561C6.26341 36.9939 3.23635 37.2425 1.11628 37.2175C0.770843 37.2132 0.454769 37.1207 0.0737305 37.2157V53.4192L7.39716 53.421C11.1813 53.2567 13.6637 51.5671 13.8517 49.2471C13.9204 48.3951 13.9267 47.2813 13.8517 46.4312ZM3.67923 39.4475C5.31519 39.2533 7.79506 39.4176 7.77507 40.7643C7.7682 41.2853 6.81186 42.0367 5.95109 42.0367H3.67923V39.4475ZM10.2456 48.9791C10.1956 49.6525 10.1206 50.2153 9.23364 50.6744C8.51778 51.0449 7.81005 51.1554 6.89244 51.1891C6.12099 51.2173 4.84358 51.2248 4.07213 51.1891C3.93346 51.1823 3.81103 51.1629 3.67923 51.1423V44.3348L3.78729 44.268C4.7655 44.3092 5.85239 44.213 6.81686 44.268C10.7103 44.491 10.378 47.1857 10.2449 48.9791H10.2456Z" fill="#040404"/>
<path d="M56.5836 9.26623C56.5155 6.63082 56.7841 4.94176 54.5772 2.95473C53.3835 1.87908 52.0455 1.30565 50.3652 1.19259C47.1345 0.97396 43.6458 1.35687 40.3882 1.18759L40.0578 1.28754L40.064 22.1185C40.2127 22.1909 40.3701 22.2109 40.535 22.224C42.7969 22.3914 45.7409 22.2609 48.0334 22.224C51.2728 22.1728 54.1406 21.9454 55.8659 18.9602C57.1065 16.8133 56.6486 11.7686 56.5836 9.26623ZM52.7239 16.0637C51.9968 19.8335 47.1695 18.235 44.3198 18.5823L44.0318 18.4424V4.9024L44.193 4.77934C45.992 4.80995 47.8485 4.69064 49.6425 4.76373C50.1078 4.78247 50.6619 4.80371 51.0804 4.98423C51.9668 5.36714 52.6502 6.35597 52.7339 7.27171C52.9919 10.0714 52.5434 13.2259 52.7233 16.0637H52.7239Z" fill="#040404"/>
<path d="M45.8185 36.0457C45.6629 33.5608 44.1338 31.4439 41.3909 30.7455C39.8836 30.3626 36.3387 30.3589 34.7109 30.4632C34.5266 30.4744 33.9182 30.5406 33.8389 30.6606V53.0575L34.1281 53.1906C37.2551 52.9413 41.3909 53.9739 43.8976 51.8588C45.0795 50.8612 45.7179 49.4408 45.8153 47.9959C45.6292 44.0669 46.0646 39.9529 45.8185 36.0451V36.0457ZM42.0943 47.8591C42.0224 48.5 41.5989 49.3158 40.9637 49.6525C40.875 49.7 40.1635 49.923 40.1004 49.923H37.6986C37.5574 49.6925 37.5368 49.2053 37.5349 48.9148C37.5006 43.9257 37.6761 38.8948 37.5855 33.89L37.6992 33.6652C38.4051 33.7257 39.2721 33.5821 39.9555 33.6652C41.3634 33.8357 42.0249 35.0994 42.1055 36.2412C42.3729 40.0191 41.9069 44.0544 42.0943 47.8585V47.8591Z" fill="#040404"/>
<path d="M31.089 42.91C30.48 36.977 19.8653 35.3105 16.7383 41.0879C15.8719 42.6876 15.9724 46.4855 16.1224 48.2845C16.5265 53.1462 23.4939 55.8853 28.6323 52.494C30.039 51.5652 30.9491 50.2191 31.089 48.8073C31.2489 47.1926 31.2552 44.5222 31.089 42.91ZM27.2537 48.3432C26.8857 51.9112 20.6161 52.0805 19.9615 48.5768C20.3669 46.1669 18.3436 40.5563 23.4764 40.3851C25.6264 40.3133 27.1137 41.6982 27.2543 43.1992C27.3873 44.6159 27.3992 46.9328 27.2543 48.3432H27.2537Z" fill="#040404"/>
<path d="M14.6544 1.47993C15.4489 1.39248 16.2703 1.38998 17.0768 1.40872C17.2941 1.41372 17.4953 1.47743 17.712 1.4868C18.4854 1.51991 18.6028 1.17323 18.6746 2.06148C18.9613 5.60139 18.4504 9.3593 18.6715 12.9223C18.8508 14.2528 20.879 14.4933 21.4949 13.2634C21.7098 9.57793 21.2263 5.72757 21.4949 2.06148C21.5093 1.86472 21.5655 1.6792 21.5986 1.48618C21.7492 1.38061 25.2166 1.37187 25.4115 1.48993C25.4665 1.68544 25.5402 1.88845 25.5533 2.08959C25.602 2.84667 25.5077 3.64623 25.5108 4.39831C25.5221 7.36791 25.6732 10.4649 25.5727 13.4158C25.4721 16.366 20.6354 17.9552 17.3291 16.476C16.2535 15.995 14.6544 14.5139 14.6544 13.542V1.48056V1.47993Z" fill="#040404"/>
<path d="M31.3577 17.1493H27.468V1.47986C28.0839 1.47424 30.9129 1.27123 31.274 1.44488C31.3477 1.48049 31.4045 1.5973 31.4233 1.66726L31.4464 16.7745L31.3577 17.1493Z" fill="#040404"/>
<path d="M56.5968 38.1926C56.5868 39.8467 56.6031 41.6013 56.59 43.2904C56.5669 46.4387 56.9641 49.3945 54.077 51.6339C51.98 53.2599 49.6032 53.3148 46.9934 53.0675C46.9572 53.045 46.9235 52.8901 46.9153 52.8332C46.8291 52.2111 46.8498 50.8006 46.9053 50.1553C46.9197 49.9873 46.9372 49.813 47.0509 49.6744C48.274 49.5369 49.6182 49.8349 50.7857 49.4201C51.8663 49.036 52.644 47.9391 52.7346 46.8615L52.7159 40.6544C52.4242 40.417 52.0956 40.5401 51.7589 40.4932C45.9184 39.6818 46.8166 34.9607 46.7948 30.8405V30.8273C46.7948 30.7436 46.7935 30.6605 46.7923 30.5775H50.5215V30.8405C50.494 32.2915 50.3509 33.7801 50.4727 35.11C50.5677 36.1481 51.5209 37.2032 52.7159 36.7765C52.7721 36.739 52.7971 36.5579 52.8046 36.4823C52.9201 35.3517 52.8227 33.7944 52.8102 32.632C52.8039 32.0498 52.7877 31.4445 52.7677 30.8273C52.7652 30.7443 52.7627 30.6612 52.7602 30.5775H56.6674C56.6674 30.6612 56.6668 30.7443 56.6655 30.8273C56.6474 33.2853 56.6118 35.7421 56.5968 38.1926Z" fill="black"/>
<path d="M50.5245 30.5775C50.5245 30.6605 50.5233 30.7443 50.5214 30.8273H46.7947C46.7947 30.7436 46.7935 30.6605 46.7922 30.5775H50.5245Z" fill="#040404"/>
</svg>
